<svg width="176" height="95" viewBox="0 0 176 95" fill="none" xmlns="http://www.w3.org/2000/svg">
<g style="mix-blend-mode:multiply" opacity="0.6">
<path d="M176 27.1287C176 20.1007 176 11.52 169.872 8.65974C166.982 7.57472 163.958 6.88743 160.883 6.61672C152.603 5.30199 144.256 4.45622 135.88 4.0834C102.315 1.69782 68.6062 2.21734 35.1305 5.63611C28.1033 6.61676 22.547 7.35231 18.7883 8.25124C16.3499 8.56154 14.067 9.61753 12.2515 11.2749C10.7199 13.4223 9.89187 15.9919 9.88182 18.6297C9.63713 21.1025 9.63713 23.5935 9.88182 26.0663C10.3721 32.7674 11.2709 39.2233 12.3332 45.4341C13.3954 51.6449 14.8663 59.6536 16.0919 66.273C16.6639 69.2966 17.3175 72.1569 17.8895 75.0172C18.3909 77.3646 19.0183 79.6833 19.7689 81.9633C20.1548 83.6656 20.942 85.251 22.0649 86.5872C23.1878 87.9235 24.6138 88.9719 26.224 89.6451C30.8993 90.44 35.6212 90.9314 40.3599 91.1162C55.3947 92.0968 70.5114 92.5054 85.5462 92.914C104.748 93.4044 124.114 94.3032 143.316 93.9763H151.487C153.477 94.1054 155.473 93.8558 157.37 93.2409C159.594 93.0244 161.673 92.0423 163.253 90.4624C165.111 88.0697 166.372 85.2681 166.93 82.2903C167.829 78.4494 168.646 74.5268 169.381 70.6042C170.28 65.374 170.852 59.9804 171.996 54.26C173.14 48.5395 174.202 42.8191 174.938 36.9352C175.591 33.9388 175.946 30.67 176 27.1287Z" fill="#8A7D63"/>
</g>
<path d="M172.23 22.3083C172.23 16.1793 172.72 8.82438 166.265 5.96415C163.266 5.02885 160.167 4.45272 157.032 4.24795C148.722 3.00633 140.345 2.26945 131.946 2.04145C99.5195 0.0102359 66.9844 0.474674 34.6287 3.43069C27.8467 4.32962 22.4537 5.06518 18.2865 5.80067C15.9215 6.12026 13.6892 7.08111 11.8314 8.57915C10.3014 10.3562 9.43502 12.609 9.38 14.9534C9.13497 17.0984 9.13497 19.2644 9.38 21.4094C9.78855 27.2116 10.6056 32.8503 11.5044 38.3256C12.4033 43.8009 13.8741 50.8289 15.0181 56.6311C15.5901 59.3279 16.162 61.943 16.8157 64.8032C17.2411 66.8933 17.8425 68.9436 18.6134 70.9323C19.0884 72.4638 19.9573 73.8437 21.1332 74.9337C22.3091 76.0237 23.7507 76.7855 25.3136 77.1431C28.3369 77.6334 32.5859 77.1431 39.3679 77.7968L82.2662 79.2678C101.468 79.6764 120.67 80.2484 139.464 80.3302H148.37C150.345 80.503 152.335 80.3372 154.254 79.8399C156.342 79.7559 158.335 78.9468 159.892 77.5517C161.623 75.5443 162.805 73.1232 163.323 70.5237C164.222 67.1731 165.039 63.7408 165.693 60.3085C166.347 56.8763 167.082 50.9923 168.145 46.2525C169.207 41.5127 170.187 36.2008 170.841 31.0524C171.821 28.3556 172.148 25.4137 172.23 22.3083Z" fill="url(#paint0_linear_428_490)"/>
<g style="mix-blend-mode:multiply" opacity="0.5">
<path d="M172.227 18.5488H168.795C165.887 19.2801 162.882 19.5558 159.889 19.3661C159.732 19.4297 159.556 19.4297 159.399 19.3661C158.5 28.9274 157.111 38.4887 155.477 47.9683C154.66 52.8716 156.049 61.8609 149.675 64.3125C137.745 68.7254 120.504 65.7016 107.839 65.6199C82.1004 65.6199 56.1981 65.62 30.3774 64.3941C29.8055 68.7253 28.0895 72.5662 27.9261 77.0609V77.9598C30.786 77.9598 34.4629 77.9598 39.6107 77.9598L82.5089 79.4307C101.711 79.8393 120.913 80.4114 139.706 80.4931H148.613C150.588 80.666 152.577 80.5001 154.496 80.0028C156.584 79.9188 158.578 79.1097 160.134 77.7147C161.865 75.7073 163.047 73.2862 163.566 70.6867C164.465 67.3361 165.282 63.9039 165.936 60.4716C166.589 57.0393 167.325 51.1554 168.387 46.4156C169.449 41.6758 170.43 36.364 171.083 31.2156C171.083 28.2736 171.737 25.3316 171.819 22.2262C172.227 21.0004 172.309 19.6929 172.227 18.5488Z" fill="#D47F02"/>
</g>
<g style="mix-blend-mode:multiply" opacity="0.2">
<path d="M24.4128 17.8112C57.6394 14.4609 91.0402 13.1509 124.427 13.8886C134.432 13.5317 144.449 13.832 154.415 14.7875H156.621C157.36 13.3798 158.178 12.0155 159.073 10.7015C160.298 8.82195 161.442 6.9425 162.586 5.06294C160.952 5.06294 159.154 4.57253 157.03 4.32737C148.72 3.08576 140.343 2.34902 131.944 2.12102C99.5175 0.0898369 66.9825 0.554269 34.6267 3.51024C28.4167 4.40916 23.3506 4.98111 19.3468 5.71659C20.3273 8.2499 21.6347 10.7015 22.6152 13.1531C23.5957 15.6047 23.7592 16.422 24.4128 17.8112Z" fill="#D47F02"/>
</g>
<g style="mix-blend-mode:multiply" opacity="0.2">
<path d="M52.8694 2.69482C46.7796 2.75252 40.6971 3.13442 34.6478 3.83892L29.7452 4.4927C30.3828 8.65956 31.4789 12.7432 33.0136 16.6692C39.1922 15.8521 45.4123 15.3883 51.6437 15.28C51.9706 11.1122 52.5426 6.94433 52.8694 2.69482Z" fill="#D47F02"/>
</g>
<g style="mix-blend-mode:multiply" opacity="0.2">
<path d="M147.157 3.59479C142.581 3.10447 138.986 2.69588 131.958 2.45072L120.6 2.20557C118.726 6.08106 116.181 9.59463 113.083 12.584L111.367 14.0549H124.359H138.495C141.115 10.3548 144.01 6.85809 147.157 3.59479V3.59479Z" fill="#D47F02"/>
</g>
<g style="mix-blend-mode:multiply" opacity="0.2">
<path d="M159.167 4.90332H157.042H154.591C153.529 8.0087 149.852 10.3786 146.992 13.0754L145.358 14.7914H149.525C152.929 11.6865 156.148 8.38482 159.167 4.90332Z" fill="#D47F02"/>
</g>
<g style="mix-blend-mode:multiply" opacity="0.2">
<path d="M23.8483 59.8996C23.6124 58.9601 23.4485 58.004 23.3581 57.0395C23.3581 54.5879 22.8678 51.9727 22.5409 49.4394C22.0766 40.6286 20.9844 31.8623 19.2726 23.207C15.4907 22.5481 12.0228 20.6849 9.38557 17.895C9.30442 19.2013 9.30442 20.5113 9.38557 21.8176C9.79413 27.6198 10.6112 33.2586 11.51 38.7339C12.4088 44.2092 13.8797 51.2373 15.0236 57.0395C15.5956 59.7363 16.1676 62.3514 16.8212 65.2116C17.1158 66.7037 17.4978 68.1772 17.9652 69.6245C19.1203 65.9589 21.1378 62.624 23.8483 59.8996V59.8996Z" fill="#D47F02"/>
</g>
<g style="mix-blend-mode:multiply" opacity="0.2">
<path d="M20.1878 29.4194C20.1878 28.0302 19.6158 26.5593 19.289 25.0883C14.7131 24.3528 11.1178 23.2904 9.32013 22.8818C9.32013 26.3141 9.97382 29.6645 10.4641 32.9333C12.9154 32.0344 15.6936 30.8087 20.1878 29.4194Z" fill="#D47F02"/>
</g>
<g style="mix-blend-mode:multiply" opacity="0.2">
<path d="M21.3124 34.8935C21.2727 34.4586 21.2727 34.0209 21.3124 33.5859C17.9353 34.4556 14.7302 35.8926 11.834 37.8354C11.8804 38.0509 11.8804 38.2737 11.834 38.4892C11.834 39.6333 11.8341 40.7773 12.4877 42.0031C15.2421 39.4097 18.1924 37.0328 21.3124 34.8935V34.8935Z" fill="#D47F02"/>
</g>
<g style="mix-blend-mode:multiply" opacity="0.2">
<path d="M15.5253 43.8036L17.5682 41.6789C18.8143 40.6312 20.1547 39.7011 21.5722 38.9004V38.9004C18.0925 40.7459 15.2462 43.5926 13.4008 47.0726V47.0726C13.8683 45.8442 14.5926 44.7296 15.5253 43.8036V43.8036Z" fill="#D47F02"/>
</g>
<g style="mix-blend-mode:multiply" opacity="0.2">
<path d="M17.0744 65.0506C18.2923 61.1355 20.3567 57.5364 23.121 54.5085C23.0806 53.9372 23.0806 53.3638 23.121 52.7925C20.4639 55.1615 18.1778 57.9163 16.339 60.9645V60.9645C16.339 62.1903 16.911 63.4161 17.2378 64.6419L17.0744 65.0506Z" fill="#D47F02"/>
</g>
<g style="mix-blend-mode:multiply" opacity="0.5">
<path d="M171.412 25.6597H171.984C171.984 24.5157 171.984 23.3716 171.984 22.1458C172.255 18.6236 171.895 15.0812 170.921 11.6855C167.653 13.7286 164.058 16.2619 159.4 18.9587C158.602 20.6777 158.157 22.5397 158.093 24.434C162.57 24.099 167.071 24.5132 171.412 25.6597Z" fill="#D47F02"/>
</g>
<g style="mix-blend-mode:multiply" opacity="0.3">
<path d="M158.338 34.8923C158.338 37.5891 157.684 38.4063 157.521 41.0213C161.587 40.9414 165.647 41.353 169.614 42.2471C170.105 39.8772 170.595 37.5074 170.922 35.0558C166.734 34.7489 162.532 34.6943 158.338 34.8923V34.8923Z" fill="#D47F02"/>
</g>
<g style="mix-blend-mode:multiply" opacity="0.3">
<path d="M38.386 69.3815C38.8417 67.7771 39.4434 66.2178 40.1837 64.7233C40.2819 64.4839 40.4201 64.2629 40.5923 64.0697C35.6793 63.5688 30.7395 63.3777 25.8025 63.4976C25.6398 63.9524 25.5034 64.4163 25.394 64.8868C24.49 68.0728 23.8343 71.3242 23.4329 74.6116V76.3278C24.1609 76.8299 25.0043 77.139 25.8843 77.2266C29.2995 77.647 32.739 77.8381 36.1798 77.7987C36.6701 75.0202 37.4872 72.2417 38.386 69.3815Z" fill="#D47F02"/>
</g>
<g style="mix-blend-mode:multiply" opacity="0.5">
<path d="M93.6229 66.2747L61.5105 65.2124C63.866 69.3167 64.7046 74.1181 63.8801 78.778L82.5102 79.3502H96.973C94.9062 75.292 93.7622 70.8269 93.6229 66.2747V66.2747Z" fill="#D47F02"/>
</g>
<g style="mix-blend-mode:multiply" opacity="0.2">
<path d="M169.622 44.0446C165.987 42.1382 161.959 41.1031 157.855 41.021C157.855 41.8382 157.855 44.535 157.855 45.3522C157.642 50.4075 157.014 55.4366 155.976 60.3888C155.816 61.3614 155.449 62.2881 154.899 63.106C154.349 63.9239 153.629 64.6137 152.789 65.1287C149.944 66.4083 146.836 66.9965 143.719 66.8449C130.319 67.2535 116.836 66.8449 103.354 66.8449C103.486 71.4406 104.6 75.9547 106.622 80.0836C117.98 80.0836 129.42 80.574 140.778 80.6557H149.684C151.659 80.8286 153.648 80.6626 155.567 80.1653C157.655 80.0813 159.649 79.2722 161.205 77.8771C162.936 75.8698 164.119 73.4487 164.637 70.8491C165.536 67.4986 166.353 64.0663 167.007 60.634C167.66 57.2017 168.396 51.3178 169.458 46.578L169.622 44.0446Z" fill="#D47F02"/>
</g>
<g style="mix-blend-mode:screen" opacity="0.1">
<path d="M148.137 66.4399C146.45 66.5375 144.759 66.5375 143.071 66.4399H137.597C137.597 70.9346 137.597 75.4293 137.597 79.924H139.803H148.709C148.709 75.7562 148.383 71.2615 148.137 66.4399Z" fill="#FDF9E3"/>
</g>
<g style="mix-blend-mode:screen" opacity="0.2">
<path d="M156.454 73.7111C155.637 71.2595 154.656 68.8078 153.594 66.2744C153.594 71.0143 153.594 75.7542 153.594 80.4124H155.147L158.006 79.8402C157.63 77.764 157.112 75.7161 156.454 73.7111V73.7111Z" fill="#FDF9E3"/>
</g>
<g style="mix-blend-mode:screen" opacity="0.2">
<path d="M167.584 53.0342C164.24 51.216 160.626 49.9467 156.879 49.2749C156.601 52.9775 156.11 56.6611 155.409 60.3074C158.022 60.5867 160.551 61.3929 162.844 62.6773L165.622 64.1483L166.358 60.5525C166.848 58.1009 167.257 55.5675 167.584 53.0342Z" fill="#FDF9E3"/>
</g>
<g style="mix-blend-mode:screen" opacity="0.5">
<g style="mix-blend-mode:screen" opacity="0.5">
<path d="M16.7514 18.5512C17.2693 17.4797 17.8993 16.4662 18.6309 15.5276C17.1778 12.7312 15.9218 9.83671 14.8721 6.86523C13.7839 7.2672 12.7847 7.87781 11.9306 8.66297C10.6565 10.0708 9.8563 11.843 9.6427 13.7297C11.1277 15.3077 12.9033 16.5841 14.8721 17.4888L16.7514 18.5512Z" fill="#FFEED9"/>
</g>
<g style="mix-blend-mode:screen" opacity="0.5">
<path d="M160.556 15.2827L161.7 17.7343C165.211 17.5252 168.731 17.5252 172.241 17.7343C172.241 13.1579 171.179 8.58159 166.848 6.53857C166.045 8.23404 164.999 9.80332 163.743 11.1967L160.556 15.2827Z" fill="#FFDC7C"/>
</g>
<g style="mix-blend-mode:screen" opacity="0.9">
<path d="M154.116 68.1549L153.625 68.5635C153.826 70.4359 154.154 72.2926 154.606 74.1206C154.606 76.082 154.606 78.0433 155.014 80.0863C157.073 79.9772 159.032 79.1701 160.571 77.7981C161.602 76.7146 162.407 75.4367 162.94 74.0388C160.162 71.8323 157.466 70.1162 154.769 67.9097L154.116 68.1549Z" fill="#FFDC7C"/>
</g>
<g style="mix-blend-mode:screen" opacity="0.5">
<path d="M24.1886 63.1675C22.1262 65.7806 20.5488 68.742 19.5309 71.9115C20.0411 73.0672 20.7829 74.1059 21.7106 74.9634C22.6382 75.8208 23.7319 76.4787 24.9239 76.8965C24.9239 72.7288 25.5777 68.2342 25.5777 63.6578L24.1886 63.1675Z" fill="#FFDC7C"/>
</g>
</g>
<path d="M17.1377 15.2789C15.9938 12.7455 14.6864 10.2937 13.7059 7.76025C13.058 8.09242 12.4541 8.5043 11.9083 8.98618V8.98618C13.5266 11.1845 15.2727 13.2857 17.1377 15.2789V15.2789Z" fill="#FFF6E6"/>
<path d="M163.324 17.2414L166.265 15.9338C167.965 14.9759 169.603 13.9114 171.168 12.7466C168.472 14.0989 165.854 15.5995 163.324 17.2414V17.2414Z" fill="#FFF6E6"/>
<path d="M170.687 10.3795C170.148 9.12949 169.305 8.03398 168.235 7.19238C166.274 9.3171 164.558 12.3408 162.434 14.8741C165.375 13.4848 168.235 12.0956 170.687 10.3795Z" fill="#FFF6E6"/>
<path d="M158.92 73.8761C159.574 75.1019 160.227 76.2459 160.963 77.39C161.308 76.9875 161.609 76.5491 161.861 76.0825C161.054 75.546 160.313 74.9151 159.655 74.2029L157.776 72.2417C158.203 72.7529 158.586 73.2997 158.92 73.8761V73.8761Z" fill="#FFF6E6"/>
<path d="M20.4297 73.7928C20.4514 73.5481 20.4514 73.302 20.4297 73.0573C20.92 71.3412 21.492 69.5433 22.2274 67.582C21.2629 69.2928 20.4164 71.0675 19.6942 72.8938L20.4297 73.7928Z" fill="#FFF6E6"/>
<g style="mix-blend-mode:multiply" opacity="0.6">
<path d="M172.23 22.3088C172.23 16.1797 172.72 8.82484 166.265 5.96461C163.266 5.02931 160.167 4.45319 157.032 4.24841C148.722 3.00679 140.345 2.26992 131.946 2.04191C99.5195 0.0100586 66.9844 0.474497 34.6286 3.43115C27.8466 4.4118 22.4537 5.06564 18.2865 5.80113C15.9215 6.12072 13.6892 7.08157 11.8313 8.57961C10.3014 10.3567 9.43502 12.6094 9.38 14.9538C9.13497 17.0988 9.13497 19.2648 9.38 21.4098C9.78855 27.212 10.6056 32.8507 11.5044 38.326C12.4033 43.8013 13.8741 50.8293 15.0181 56.6315C15.59 59.3283 16.162 61.9434 16.8157 64.8036C17.2411 66.8937 17.8425 68.944 18.6134 70.9327C19.0884 72.4642 19.9573 73.844 21.1332 74.934C22.3091 76.024 23.7507 76.7859 25.3136 77.1434C28.3369 77.6337 32.5859 77.1434 39.3679 77.7972L82.2662 79.2681C101.468 79.6767 120.67 80.2488 139.464 80.3305H148.37C150.345 80.5033 152.335 80.3375 154.253 79.8402C156.342 79.7562 158.335 78.9471 159.892 77.552C161.623 75.5447 162.805 73.1236 163.323 70.524C164.222 67.1735 165.039 63.7412 165.693 60.3089C166.347 56.8767 167.082 50.9927 168.144 46.2529C169.207 41.5131 170.187 36.2013 170.841 31.0529C171.821 28.3561 172.148 25.4142 172.23 22.3088ZM165.53 59.41C164.958 62.352 164.386 65.3756 163.732 68.3175C163.271 71.1897 162.303 73.9569 160.872 76.4896C159.989 77.5841 158.867 78.4623 157.592 79.0571C156.318 79.652 154.924 79.9477 153.518 79.9219C150.168 79.9219 146.409 79.9219 141.098 79.9219C122.631 79.9219 104.165 79.3499 85.7798 78.9413C71.2352 78.9413 56.5273 77.8789 41.9827 77.552C38.0606 77.552 30.4614 77.552 28.4187 77.552C25.8176 77.614 23.2856 76.7117 21.3098 75.0187C20.0621 73.5401 19.1429 71.8129 18.6134 69.9519C17.1568 64.9003 15.9837 59.7712 15.0997 54.5885C14.1192 49.3584 12.9753 43.9648 11.9948 38.2443C11.0143 32.5239 10.6874 28.6829 10.1972 23.8614C10.1972 22.0635 10.1972 20.184 10.1972 18.3044C10.0308 16.7863 10.2337 15.2504 10.7885 13.8276C11.3434 12.4047 12.2338 11.137 13.3839 10.1323C15.6703 8.85954 18.209 8.10617 20.8195 7.92583C25.3953 7.10862 31.442 6.20966 38.8777 5.47418C69.963 3.29262 101.152 2.99243 132.273 4.57524C144.121 4.57524 150.413 6.04622 156.786 6.61826C159.961 6.96737 163.104 7.56856 166.183 8.41613C167.881 8.8437 169.381 9.83837 170.436 11.2354C171.492 12.6324 172.038 14.348 171.985 16.0979C172.355 19.6841 172.355 23.2989 171.985 26.8851C170.105 37.0185 167.654 48.2142 165.53 59.41Z" fill="#D47F02"/>
</g>
<path d="M162.681 40.209C162.681 36.123 163.58 32.037 163.988 28.1144C164.427 24.3993 164.619 20.6591 164.56 16.9186C164.56 12.3423 160.556 11.6885 154.837 11.0347C113.484 4.74233 71.4168 4.74233 30.0638 11.0347C24.7897 11.0572 19.7051 13.0041 15.7644 16.51C15.0563 17.7344 14.5979 19.087 14.4156 20.4897C14.2333 21.8924 14.3306 23.3173 14.7021 24.6821C15.1924 30.0757 15.4376 33.9166 16.0913 38.3295C16.745 42.7424 17.8072 48.9532 18.9511 54.0199C19.4414 56.1446 19.9317 58.2694 20.5036 60.3941C20.9127 62.2037 21.459 63.9795 22.1378 65.7061C22.6869 66.9178 23.6105 67.9211 24.7726 68.5685C25.9347 69.2158 27.2739 69.4729 28.5931 69.3018C32.2701 69.3018 38.9703 69.3018 43.873 69.7921C60.2152 70.7728 75.9854 71.0178 92.0825 71.5082C108.18 71.9985 123.541 72.8975 138.903 72.3254C142.253 72.3254 147.728 72.3254 150.588 72.3254C151.636 72.3685 152.682 72.1865 153.654 71.7919C154.627 71.3972 155.504 70.7989 156.226 70.0373C157.727 67.9183 158.63 65.4342 158.84 62.8458C160.556 55.5726 161.864 47.9725 162.681 40.209Z" fill="url(#paint1_radial_428_490)"/>
<path style="mix-blend-mode:multiply" opacity="0.9" d="M162.681 40.209C162.681 36.123 163.58 32.037 163.988 28.1144C164.427 24.3993 164.619 20.6591 164.56 16.9186C164.56 12.3423 160.556 11.6885 154.837 11.0347C113.484 4.74233 71.4168 4.74233 30.0638 11.0347C24.7897 11.0572 19.7051 13.0041 15.7644 16.51C15.0563 17.7344 14.5979 19.087 14.4156 20.4897C14.2333 21.8924 14.3306 23.3173 14.7021 24.6821C15.1924 30.0757 15.4376 33.9166 16.0913 38.3295C16.745 42.7424 17.8072 48.9532 18.9511 54.0199C19.4414 56.1446 19.9317 58.2694 20.5036 60.3941C20.9127 62.2037 21.459 63.9795 22.1378 65.7061C22.6869 66.9178 23.6105 67.9211 24.7726 68.5685C25.9347 69.2158 27.2739 69.4729 28.5931 69.3018C32.2701 69.3018 38.9703 69.3018 43.873 69.7921C60.2152 70.7728 75.9854 71.0178 92.0825 71.5082C108.18 71.9985 123.541 72.8975 138.903 72.3254C142.253 72.3254 147.728 72.3254 150.588 72.3254C151.636 72.3685 152.682 72.1865 153.654 71.7919C154.627 71.3972 155.504 70.7989 156.226 70.0373C157.727 67.9183 158.63 65.4342 158.84 62.8458C160.556 55.5726 161.864 47.9725 162.681 40.209ZM158.595 61.5382C158.289 64.0101 157.571 66.4133 156.471 68.648C154.265 72.3255 149.525 71.3448 144.704 71.4265C128.362 71.8351 112.02 71.4264 95.6778 70.8544C79.3356 70.2823 62.9934 70.0372 46.6511 69.22C40.5818 68.89 34.499 68.89 28.4296 69.22C27.0322 69.1709 25.6637 68.8079 24.4257 68.1577C23.3296 67.2905 22.5534 66.0827 22.2196 64.7253C20.7683 60.4317 19.6483 56.0331 18.8694 51.5682C17.4804 44.4585 16.8266 36.4499 16.0095 28.7682C16.0095 29.5854 14.3753 19.6154 17.1535 16.7552C22.7669 13.3555 29.2217 11.6 35.7836 11.6885C59.4975 9.5485 83.3237 8.92061 107.117 9.80884C119.605 9.44163 132.104 9.85109 144.541 11.0347L155.572 12.424C158.922 12.9143 161.619 13.0777 162.844 15.6928C163.94 18.7285 164.194 22.004 163.58 25.1724C163.171 30.4026 162.191 35.6327 161.782 40.7811C161.326 45.7716 160.617 50.7357 159.658 55.6543C159.331 56.7167 159.086 59.4135 158.595 61.5382V61.5382Z" fill="url(#paint2_linear_428_490)"/>
<path style="mix-blend-mode:screen" d="M19.5175 37.8365C18.7319 32.9198 18.4035 27.9407 18.5369 22.9633C18.5369 19.9396 16.7393 18.1418 25.4006 16.1805C34.2744 14.1629 43.3467 13.1485 52.4469 13.1568C63.2327 13.1568 71.6489 14.8729 58.5752 16.0987C45.5014 17.3246 28.1787 23.045 22.1321 36.9376C21.5602 38.3269 20.3346 41.3505 19.5175 37.8365Z" fill="url(#paint3_linear_428_490)"/>
<path style="mix-blend-mode:screen" d="M77.8689 12.582C87.3474 12.582 107.775 13.726 107.775 13.726C101.017 14.7472 94.1722 15.0758 87.3473 14.7066C82.7539 15.1284 78.1317 15.1284 73.5383 14.7066C72.9663 13.8077 71.5772 12.6637 77.8689 12.582Z" fill="url(#paint4_linear_428_490)"/>
<path style="mix-blend-mode:multiply" opacity="0.3" d="M22.5313 58.4308C19.8349 47.6437 21.6325 40.7792 32.5818 47.9706C45.3287 56.1427 58.9745 56.6329 74.0093 56.7146C92.1492 56.7146 127.367 62.1899 142.156 48.9512C150.327 41.8415 158.499 42.0867 157.518 50.9942C157.65 53.3606 157.266 55.7272 156.392 57.9303C155.519 60.1333 154.176 62.12 152.458 63.7526C150.74 65.3851 148.688 66.6246 146.444 67.3848C144.199 68.1451 141.816 68.4081 139.46 68.1556C104.161 68.6459 64.776 66.6845 31.5196 65.6221C24.6559 65.377 23.5119 63.6609 22.5313 58.4308Z" fill="url(#paint5_radial_428_490)"/>
<path style="mix-blend-mode:screen" d="M38.3012 66.2767C73.2735 64.4788 111.841 70.9348 146.16 68.9735C152.125 68.9735 155.23 67.5842 156.21 62.4358C157.191 57.2874 158.988 51.2401 159.397 47.7261C159.806 44.2121 161.685 35.5497 160.132 47.7261C159.523 53.979 158.458 60.179 156.946 66.2767C156.455 68.3197 156.946 70.9349 147.794 70.6897C124.67 70.0359 101.464 69.9542 78.3396 69.137C61.5889 68.5649 44.838 68.4832 28.0873 67.7477C31.4127 66.8115 34.8468 66.3169 38.3012 66.2767V66.2767Z" fill="url(#paint6_radial_428_490)"/>
<path style="mix-blend-mode:screen" opacity="0.6" d="M142.503 67.5819C106.795 64.7216 68.9627 67.5819 33.9904 66.6829C26.7998 66.6829 25.0023 65.7023 23.123 61.4528C21.2655 57.3029 20.2119 52.8383 20.0179 48.2957C19.2825 45.1903 16.3409 37.9989 18.7105 49.1129C21.0801 60.227 22.3058 63.5776 22.796 65.4572C23.2863 67.3367 21.979 69.298 32.2746 68.726C55.5622 67.4184 79.34 69.4615 102.546 69.6249C118.153 69.6249 136.293 72.24 151.573 69.1346C148.596 68.3714 145.563 67.8521 142.503 67.5819V67.5819Z" fill="url(#paint7_radial_428_490)"/>
<path style="mix-blend-mode:screen" opacity="0.7" d="M122.797 9.06885C122.797 9.06885 146.657 10.7032 158.505 12.7463C162.754 13.4818 162.999 15.9334 162.345 24.5141C161.446 35.4647 159.322 57.2025 159.322 57.2025C159.322 57.2025 162.182 33.1766 163.653 21.4088C164.225 16.9959 165.123 13.2367 159.894 11.9291C147.609 10.1239 135.214 9.16817 122.797 9.06885V9.06885Z" fill="url(#paint8_linear_428_490)"/>
<path d="M19.3538 54.9952C19.3538 54.9952 16.3305 38.079 15.9219 33.666C15.5134 29.2531 13.062 20.4273 15.9219 16.423C18.7818 12.4187 24.665 12.2552 35.4509 10.9477C71.6488 6.28962 149.846 10.9477 149.846 10.9477C149.846 10.9477 86.8471 9.39501 55.7969 10.9477C45.168 10.8685 34.5628 11.9648 24.1747 14.2165C22.857 14.3454 21.5818 14.7538 20.4344 15.4144C19.2869 16.0751 18.2936 16.9729 17.5203 18.0478C16.7471 19.1227 16.2119 20.35 15.9504 21.6481C15.6888 22.9462 15.707 24.2851 16.0036 25.5757C16.6573 33.7477 17.3927 39.4682 17.6378 42.8187C17.8829 46.1693 19.3538 54.9952 19.3538 54.9952Z" fill="white"/>
<path style="mix-blend-mode:multiply" opacity="0.6" d="M55.2338 51.2392C58.1956 41.7074 57.9949 31.473 54.6618 22.0647C52.2104 15.7721 47.9616 8.74411 40.8527 7.76345C40.0375 7.68367 39.2165 7.68367 38.4014 7.76345H34.3975C31.701 7.76345 28.7594 7.76345 26.9617 7.76345C14.9502 7.76345 9.47564 25.2518 8.90366 34.9766C8.24997 46.0907 12.4989 68.7275 26.9617 69.3813H35.1328C36.4402 69.3813 37.7476 69.3813 38.7281 69.3813C42.1739 69.0755 45.394 67.5378 47.7981 65.0501L48.2883 64.478L48.8604 63.906C51.886 60.201 54.0616 55.877 55.2338 51.2392V51.2392Z" fill="url(#paint9_linear_428_490)"/>
<path d="M29.0055 7.84814H18.9551V68.2397H29.0055C39.3011 68.2397 47.6357 54.7558 47.6357 38.0848C47.6357 21.4138 39.3011 7.84814 29.0055 7.84814Z" fill="url(#paint10_linear_428_490)"/>
<path d="M28.9862 7.92339H18.9358C19.2822 10.3354 19.2822 12.7845 18.9358 15.1966C18.9358 20.0998 18.9358 25.0848 18.9358 29.9881C18.9358 42.6548 17.9553 55.4851 18.9358 68.0701H27.6789C31.4774 67.7205 35.0782 66.2181 37.999 63.7644C40.9198 61.3106 43.0211 58.0226 44.0211 54.3411C47.4301 45.2335 47.8874 35.284 45.3284 25.902C43.3673 17.9751 38.2196 8.00511 28.9862 7.92339ZM30.212 7.43308C38.3831 7.43308 43.204 15.0331 45.9004 21.816C49.1494 31.2675 49.3494 41.5008 46.4724 51.0721C45.7043 55 43.9303 58.6614 41.3237 61.6981C38.717 64.7349 35.3669 67.0431 31.601 68.3971C27.1737 68.8635 22.7095 68.8635 18.2821 68.3971C17.7919 68.3971 18.9358 68.397 18.7724 67.9067C18.445 63.8545 18.445 59.7825 18.7724 55.7303C18.7724 45.842 18.3638 35.9537 18.7724 26.0655C18.7724 20.2633 18.3638 12.6632 18.7724 6.7793C21.2237 6.94274 27.7606 7.35136 30.212 7.43308Z" fill="#D05900"/>
<path d="M37.5776 38.0848C37.5776 54.4289 29.4065 68.2397 18.9475 68.2397C8.48857 68.2397 0.317505 54.7558 0.317505 38.0848C0.317505 21.4138 8.48857 7.84814 18.9475 7.84814C29.4065 7.84814 37.5776 21.4138 37.5776 38.0848Z" fill="url(#paint11_linear_428_490)"/>
<path opacity="0.5" d="M0.476746 41.7603C0.707261 44.8055 1.25494 47.8183 2.11094 50.7497C5.21595 47.4809 8.4027 44.3755 11.5894 41.1884L33.5697 19.2871C32.4706 17.0112 31.0687 14.8946 29.4023 12.9946L0.476746 41.7603Z" fill="url(#paint12_radial_428_490)"/>
<path d="M17.9597 7.92676C11.4229 8.4988 5.86649 14.4645 2.8432 23.0451L17.9597 7.92676Z" fill="url(#paint13_radial_428_490)"/>
<path style="mix-blend-mode:screen" d="M20.9035 68.0699L34.631 54.3409C35.0396 53.3602 35.3665 52.3796 35.6933 51.3989C30.0552 56.9559 24.4171 62.5947 18.8607 68.2334L20.9035 68.0699Z" fill="url(#paint14_radial_428_490)"/>
<path d="M33.0088 38.0792C33.0088 52.2987 26.472 63.8213 18.4643 63.8213C10.4566 63.8213 3.91968 52.2987 3.91968 38.0792C3.91968 23.8598 10.4566 12.2554 18.4643 12.2554C26.472 12.2554 33.0088 23.7781 33.0088 38.0792Z" fill="url(#paint15_linear_428_490)"/>
<path opacity="0.5" d="M21.1508 12.7457C20.286 12.4316 19.3744 12.2658 18.4543 12.2554C12.2443 12.2554 6.93309 19.2016 4.89032 29.0081C10.2832 23.5328 15.6762 18.5478 21.1508 12.7457Z" fill="url(#paint16_radial_428_490)"/>
<path opacity="0.5" d="M29.5753 21.4116C28.9789 20.167 28.2963 18.9655 27.5326 17.8159L4.0816 41.3512C4.16809 43.0004 4.3867 44.6401 4.73531 46.2544L29.5753 21.4116Z" fill="url(#paint17_radial_428_490)"/>
<path opacity="0.3" d="M32.7512 33.0136C32.3275 28.9978 31.2511 25.0781 29.5645 21.4092L5.05133 46.334C5.66614 50.1195 6.99727 53.753 8.9734 57.0396L32.7512 33.0136Z" fill="url(#paint18_radial_428_490)"/>
<path opacity="0.5" d="M14.3633 62.8433C15.6297 63.4855 17.0291 63.8213 18.4489 63.8239C25.231 63.8239 30.8691 55.6518 32.5033 44.7012L14.3633 62.8433Z" fill="url(#paint19_radial_428_490)"/>
<path d="M33.0744 38.0848C33.0744 46.8289 30.7048 63.0915 19.5104 64.3173C6.76352 65.7065 3.16814 45.1945 3.5767 36.2869C3.98525 27.3793 7.74406 9.72755 19.5104 11.7706C31.2768 13.8136 33.0744 29.3406 33.0744 38.0848ZM32.1755 38.0848C32.1755 29.9127 30.0511 15.6932 20.5726 13.0781C9.13306 10.1362 4.88409 27.9513 4.2304 35.8783C3.57671 43.8052 6.51833 64.1539 18.9384 63.1732C29.5608 62.4377 32.0938 46.5838 32.1755 38.2483V38.0848Z" fill="#D05900"/>
<path style="mix-blend-mode:screen" d="M30.7121 26.1469C30.2305 24.2911 29.5738 22.4852 28.7511 20.7534L4.72827 44.7794C5.05467 46.8173 5.491 48.8359 6.03554 50.8266L30.7121 26.1469Z" fill="url(#paint20_linear_428_490)"/>
<path style="mix-blend-mode:screen" d="M11.3587 60.5521L32.1947 39.6318V38.2426C32.2326 37.5076 32.2326 36.7711 32.1947 36.0361L9.6427 58.5908C10.152 59.2969 10.7265 59.9536 11.3587 60.5521V60.5521Z" fill="url(#paint21_linear_428_490)"/>
<path style="mix-blend-mode:screen" d="M4.39795 40.7756C4.39795 41.3477 4.39795 42.0014 4.39795 42.6551L27.8489 19.2015L26.9501 17.9756L4.39795 40.7756Z" fill="url(#paint22_linear_428_490)"/>
<path style="mix-blend-mode:screen" d="M16.4259 8.74079L4.49613 20.5903C3.77578 22.2429 3.14839 23.9343 2.61682 25.6569L6.53889 21.7344C7.17947 19.2994 8.45512 17.0782 10.2353 15.2978C12.0155 13.5174 14.2364 12.2416 16.671 11.6009L19.7761 8.49564C18.6534 8.41084 17.5243 8.49345 16.4259 8.74079Z" fill="url(#paint23_radial_428_490)"/>
<path style="mix-blend-mode:screen" d="M27.6101 16.5903L29.9798 14.2204C29.3012 13.378 28.5342 12.6108 27.6918 11.9321L25.4039 14.2204C26.2408 14.9093 26.9827 15.7062 27.6101 16.5903V16.5903Z" fill="url(#paint24_radial_428_490)"/>
<path style="mix-blend-mode:screen" d="M3.74041 40.4516C3.66498 39.0633 3.66498 37.672 3.74041 36.2837V36.2837L0.962158 39.0623C0.962158 40.4516 0.962158 41.9226 0.962158 43.3936L3.74041 40.4516Z" fill="url(#paint25_radial_428_490)"/>
<path style="mix-blend-mode:screen" d="M35.1238 24.598C34.38 21.9685 33.3094 19.4427 31.9371 17.0796L29.4042 19.6129C30.631 22.2103 31.5102 24.958 32.0189 27.7851L35.1238 24.598Z" fill="url(#paint26_radial_428_490)"/>
<path style="mix-blend-mode:screen" d="M37.0967 38.4058C37.0967 37.1799 37.0967 35.8725 37.0967 34.5649L33.2562 38.4058C33.2562 39.795 33.2562 41.3478 33.2562 42.9823L37.0967 38.4058Z" fill="url(#paint27_radial_428_490)"/>
<path style="mix-blend-mode:screen" d="M10.6052 64.8883L12.8114 62.6818C11.9554 62.1132 11.185 61.4252 10.5236 60.6387L8.39917 62.7636C9.03057 63.5724 9.77324 64.2878 10.6052 64.8883V64.8883Z" fill="url(#paint28_radial_428_490)"/>
<path style="mix-blend-mode:screen" d="M32.9185 56.9612C33.678 55.4091 34.3066 53.7963 34.7979 52.1396L27.7707 59.2494C26.8561 60.4498 25.7843 61.5218 24.584 62.4365L19.2728 67.7485C20.4919 67.6657 21.6978 67.4464 22.868 67.0947L32.9185 56.9612Z" fill="url(#paint29_radial_428_490)"/>
<path style="mix-blend-mode:screen" d="M6.20175 53.28C5.2682 50.6196 4.55764 47.8861 4.07732 45.1079L1.62598 47.6412C2.12933 50.4403 2.92345 53.1792 3.99553 55.8133L6.20175 53.28Z" fill="url(#paint30_radial_428_490)"/>
<path style="mix-blend-mode:multiply" d="M6.1931 37.8356C6.1931 24.1065 12.4032 12.9107 20.1657 12.4204H18.6948C10.5238 12.4204 4.15033 23.9431 4.15033 38.2442C4.15033 52.5453 10.6872 63.9862 18.6948 63.9862C19.8785 63.9925 21.0495 63.7416 22.1267 63.2507H20.7376C12.4848 63.2507 6.1931 51.8098 6.1931 37.8356Z" fill="url(#paint31_linear_428_490)"/>
<g style="mix-blend-mode:multiply">
<path style="mix-blend-mode:multiply" d="M9.31221 38.0793C9.31221 25.4125 14.3783 14.9522 21.1603 12.7457C20.2955 12.4316 19.3838 12.2658 18.4638 12.2554C10.2927 12.2554 3.91925 23.7781 3.91925 38.0793C3.91925 52.3805 10.4561 63.8214 18.4638 63.8214C19.3588 63.9396 20.2654 63.9396 21.1603 63.8214C14.3783 61.1246 9.31221 50.6644 9.31221 38.0793Z" fill="url(#paint32_linear_428_490)"/>
</g>
<path style="mix-blend-mode:multiply" d="M29.564 7.27393H19.5952C29.8908 7.27393 37.6534 19.859 37.6534 36.53C37.6534 53.2011 28.6651 69.2184 18.4512 69.2184H28.9919C40.2681 69.2184 48.1941 54.6722 48.1941 38.0011C48.1941 21.33 39.8596 7.27393 29.564 7.27393Z" fill="url(#paint33_linear_428_490)"/>
<path style="mix-blend-mode:screen" d="M38.8865 11.4389L37.4158 10.1313H27.447L28.9994 11.4389H38.8865Z" fill="url(#paint34_linear_428_490)"/>
<path style="mix-blend-mode:screen" d="M44.1212 18.5499C44.1212 18.5499 43.2223 16.752 43.0589 16.5068H33.0085C33.0085 16.5068 33.9891 18.3047 34.0708 18.5499H44.1212Z" fill="url(#paint35_linear_428_490)"/>
<path style="mix-blend-mode:screen" d="M46.3094 23.7771L45.0836 20.7534C41.7334 20.7534 38.3833 20.7534 34.9514 20.7534C34.9514 20.7534 36.0137 23.3685 36.0954 23.6954L46.3094 23.7771Z" fill="url(#paint36_linear_428_490)"/>
<path style="mix-blend-mode:screen" d="M48.2016 38.16C48.2016 37.0976 48.2016 34.6462 48.2016 33.6655H37.661C37.661 34.6462 37.661 37.5062 37.661 38.4051L48.2016 38.16Z" fill="url(#paint37_linear_428_490)"/>
<path style="mix-blend-mode:screen" opacity="0.3" d="M46.5722 50.2568L47.0624 48.2139H36.1948C36.1948 48.9493 36.1949 49.603 35.6229 50.3385L46.5722 50.2568Z" fill="url(#paint38_linear_428_490)"/>
<path style="mix-blend-mode:screen" opacity="0.3" d="M44.8483 55.3239L45.3385 54.0981H34.2258L33.7356 55.2423C37.4943 55.0788 41.1713 55.2422 44.8483 55.3239Z" fill="url(#paint39_linear_428_490)"/>
<path style="mix-blend-mode:screen" opacity="0.3" d="M42.4748 59.897C42.6399 59.6985 42.7773 59.4786 42.8834 59.2432H31.689L31.2805 59.897H42.4748Z" fill="url(#paint40_linear_428_490)"/>
<path style="mix-blend-mode:screen" opacity="0.5" d="M47.793 44.2101V42.0854H37.0889C37.0889 42.7392 37.0889 43.4746 37.0889 44.2101H47.793Z" fill="url(#paint41_linear_428_490)"/>
<path style="mix-blend-mode:screen" d="M47.868 30.4808C47.868 29.7454 47.2143 27.4572 46.9691 26.7217H36.6735C36.6735 27.4572 37.3272 29.7454 37.409 30.4808H47.868Z" fill="url(#paint42_linear_428_490)"/>
<path style="mix-blend-mode:screen" d="M41.9028 15.0364L40.5955 13.1567H30.7084L32.0158 15.0364H41.9028Z" fill="url(#paint43_linear_428_490)"/>
<path style="mix-blend-mode:screen" d="M30.7038 8.16797H23.1047L24.7389 8.74006H33.9721C33.0733 8.33147 32.0111 8.16797 30.7038 8.16797Z" fill="url(#paint44_linear_428_490)"/>
<g style="mix-blend-mode:multiply">
<g style="mix-blend-mode:multiply">
<path d="M35.4443 9.40003C32.3715 9.15116 29.2837 9.15116 26.2109 9.40003C26.2109 9.40003 26.8646 9.89036 27.3549 9.89036C27.8451 9.89036 34.7906 9.89036 36.4248 9.89036C38.059 9.89036 35.8528 9.40003 35.4443 9.40003Z" fill="#D05900"/>
</g>
<g style="mix-blend-mode:multiply">
<path d="M38.8862 12.423C35.8135 12.1741 32.7257 12.1741 29.653 12.423C29.9768 12.6971 30.3752 12.8679 30.7969 12.9135C31.9409 12.9135 38.2325 12.9135 39.8667 12.9135C40.5204 12.9135 39.5399 12.5048 38.8862 12.423Z" fill="#D05900"/>
</g>
<g style="mix-blend-mode:multiply">
<path d="M41.8244 16.2633C38.7517 16.0145 35.6638 16.0145 32.5911 16.2633C32.5911 16.2633 33.2448 16.7535 33.6534 16.7535C34.0619 16.7535 41.1707 16.7535 42.8049 16.7535C44.4391 16.7535 42.2329 16.2633 41.8244 16.2633Z" fill="#D05900"/>
</g>
<g style="mix-blend-mode:multiply">
<path d="M44.4425 20.5964C41.3697 20.3474 38.2819 20.3474 35.2091 20.5964C35.2091 20.5964 35.8628 21.0868 36.3531 21.0868C36.8433 21.0868 43.7889 21.0868 45.4231 21.0868C45.8317 21.0868 44.8511 20.6781 44.4425 20.5964Z" fill="#D05900"/>
</g>
<g style="mix-blend-mode:multiply">
<path d="M45.8303 26.7237C42.732 26.4358 39.6137 26.4358 36.5153 26.7237C36.8529 26.9605 37.2481 27.1016 37.6593 27.1323C38.8032 27.1323 45.1767 27.1323 46.7292 27.1323C48.2817 27.1323 46.2389 26.7237 45.8303 26.7237Z" fill="#D05900"/>
</g>
<g style="mix-blend-mode:multiply">
<path d="M47.0585 33.5094C43.9858 33.2605 40.8979 33.2605 37.8252 33.5094C38.149 33.7834 38.5474 33.9542 38.9691 33.9997C40.1131 33.9997 46.4865 33.9997 48.039 33.9997C49.5915 33.9997 47.0585 33.5911 47.0585 33.5094Z" fill="#D05900"/>
</g>
<g style="mix-blend-mode:multiply">
<path d="M47.0585 41.5129C43.9876 41.2223 40.8961 41.2223 37.8252 41.5129C37.8252 41.5129 38.4789 41.5129 38.8875 41.5129C39.296 41.5129 46.4048 41.5129 48.039 41.5129C48.1207 41.9216 47.0585 41.5946 47.0585 41.5129Z" fill="#D05900"/>
</g>
<g style="mix-blend-mode:multiply">
<path d="M45.6573 48.1373C42.5845 47.8885 39.4967 47.8885 36.424 48.1373C36.7478 48.4113 37.1462 48.5821 37.5679 48.6277C38.7118 48.6277 45.0853 48.6277 46.6378 48.6277C48.1903 48.6277 46.0658 48.2191 45.6573 48.1373Z" fill="#D05900"/>
</g>
<g style="mix-blend-mode:multiply">
<path d="M43.9375 53.9376C40.8648 53.6888 37.777 53.6888 34.7043 53.9376C34.7043 53.9376 35.3579 54.4278 35.7664 54.4278C36.175 54.4278 43.2839 54.4278 44.9181 54.4278C45.3267 54.3461 44.3461 53.9376 43.9375 53.9376Z" fill="#D05900"/>
</g>
<g style="mix-blend-mode:multiply">
<path d="M41.5712 59.4127C38.4984 59.1639 35.4106 59.1639 32.3378 59.4127C32.3378 59.4127 32.9915 59.9029 33.4818 59.9029C33.972 59.9029 40.9174 59.9029 42.5517 59.9029C44.1859 59.9029 41.9797 59.4127 41.5712 59.4127Z" fill="#D05900"/>
</g>
<g style="mix-blend-mode:multiply">
<path d="M38.8863 62.8432C35.8153 62.5555 32.7241 62.5555 29.653 62.8432C29.653 62.8432 30.3067 63.3335 30.797 63.3335C31.2872 63.3335 38.3143 63.3335 39.8668 63.3335C41.4193 63.3335 38.8863 62.8432 38.8863 62.8432Z" fill="#D05900"/>
</g>
<g style="mix-blend-mode:multiply">
<path d="M35.4444 65.7033C32.3716 65.4544 29.2837 65.4544 26.2109 65.7033C26.2109 65.7033 26.8646 66.1936 27.3549 66.1936C27.8452 66.1936 34.7906 66.1936 36.4249 66.1936C38.0591 66.1936 35.8529 65.7033 35.4444 65.7033Z" fill="#D05900"/>
</g>
</g>
<path d="M38.2196 38.0814C38.2196 49.032 33.8072 67.3375 20.2432 68.7267C3.90106 70.2794 -0.593048 45.9266 0.0606391 34.404C0.714326 22.8814 7.00612 4.65763 21.0604 7.43614C35.1146 10.2146 38.8733 23.5351 38.2196 38.0814ZM37.0756 38.0814C37.0756 27.7029 33.3169 11.1953 21.2237 8.7437C9.13051 6.29208 2.3485 23.0448 1.04113 32.6878C-0.429666 44.047 3.65595 67.6644 18.609 67.7461C33.5621 67.8278 36.9939 48.7051 37.0756 38.0814Z" fill="#D05900"/>
<path d="M7.34271 15.203C8.57818 13.1648 10.2685 11.4402 12.2815 10.1643C14.2944 8.88829 16.5753 8.09558 18.9457 7.84814C26.218 7.84814 34.0623 13.5686 36.5136 27.8698C37.7801 34.7562 37.5572 41.8339 35.8599 48.6269C36.5788 41.3746 36.2762 34.0574 34.9611 26.8892C32.7549 17.2461 27.362 9.31916 18.6189 8.91056C16.4105 9.1384 14.2717 9.81386 12.333 10.8957C10.3943 11.9776 8.69634 13.4431 7.34271 15.203V15.203Z" fill="white"/>
<path style="mix-blend-mode:multiply" opacity="0.6" d="M45.8977 21.8166C43.2013 15.0338 38.3803 7.35203 30.2092 7.43375H22.0381L23.2637 8.25101H28.8202C38.0535 8.25101 43.2013 18.3026 45.1623 26.0661C47.7213 35.4481 47.2639 45.3975 43.8549 54.505C42.8549 58.1866 40.7537 61.4745 37.8328 63.9283C34.912 66.3821 31.3112 67.8845 27.5127 68.2342H20.8942L18.0342 69.0513C22.4766 69.3459 26.9372 69.2092 31.3532 68.6428C35.119 67.2889 38.469 64.9806 41.0757 61.9439C43.6824 58.9072 45.4565 55.2458 46.2245 51.3179C49.2338 41.6964 49.1194 31.369 45.8977 21.8166V21.8166Z" fill="url(#paint45_linear_428_490)"/>
<defs>
<linearGradient id="paint0_linear_428_490" x1="28451.9" y1="17483.1" x2="28937.5" y2="19053" gradientUnits="userSpaceOnUse">
<stop offset="0.14" stop-color="#EAC991"/>
<stop offset="0.51" stop-color="#D5A76F"/>
<stop offset="1" stop-color="#A14E01"/>
</linearGradient>
<radialGradient id="paint1_radial_428_490" cx="0" cy="0" r="1" gradientUnits="userSpaceOnUse" gradientTransform="translate(27104.9 15039.7) scale(1466.38 646.055)">
<stop stop-color="#FDF9E3"/>
<stop offset="0.9" stop-color="#EAC991"/>
</radialGradient>
<linearGradient id="paint2_linear_428_490" x1="25219.3" y1="14291.7" x2="26032.9" y2="16280.8" gradientUnits="userSpaceOnUse">
<stop stop-color="#FDF9E3"/>
<stop offset="0.37" stop-color="#EAC991"/>
<stop offset="0.94" stop-color="#D47F02"/>
</linearGradient>
<linearGradient id="paint3_linear_428_490" x1="8120.1" y1="5970.51" x2="8170.32" y2="6067.58" gradientUnits="userSpaceOnUse">
<stop offset="0.14" stop-color="white"/>
<stop offset="0.96"/>
</linearGradient>
<linearGradient id="paint4_linear_428_490" x1="6234.07" y1="557.129" x2="6235.95" y2="585.466" gradientUnits="userSpaceOnUse">
<stop offset="0.14" stop-color="white"/>
<stop offset="0.96"/>
</linearGradient>
<radialGradient id="paint5_radial_428_490" cx="0" cy="0" r="1" gradientUnits="userSpaceOnUse" gradientTransform="translate(24511.5 5368.5) scale(2124.36 379.284)">
<stop offset="0.84" stop-color="white"/>
<stop offset="0.94" stop-color="#D47F02"/>
</radialGradient>
<radialGradient id="paint6_radial_428_490" cx="0" cy="0" r="1" gradientUnits="userSpaceOnUse" gradientTransform="translate(24645.2 6820.09) scale(880.794 194.286)">
<stop offset="0.14" stop-color="white"/>
<stop offset="0.96"/>
</radialGradient>
<radialGradient id="paint7_radial_428_490" cx="0" cy="0" r="1" gradientUnits="userSpaceOnUse" gradientTransform="translate(23221.3 6441.88) scale(971.159 199.832)">
<stop offset="0.14" stop-color="white"/>
<stop offset="0.96"/>
</radialGradient>
<linearGradient id="paint8_linear_428_490" x1="7932.91" y1="10874.8" x2="7737.81" y2="11071.9" gradientUnits="userSpaceOnUse">
<stop offset="0.04" stop-color="#FFF6FF"/>
<stop offset="0.18" stop-color="#FCD9B5"/>
<stop offset="0.95" stop-color="#E12100"/>
</linearGradient>
<linearGradient id="paint9_linear_428_490" x1="8265.53" y1="14159.6" x2="8553" y2="14159.6" gradientUnits="userSpaceOnUse">
<stop offset="0.09" stop-color="white"/>
<stop offset="0.38" stop-color="#EDB500"/>
<stop offset="0.64" stop-color="#BC6300"/>
<stop offset="0.96" stop-color="#704000"/>
</linearGradient>
<linearGradient id="paint10_linear_428_490" x1="4989.58" y1="13622.5" x2="4989.58" y2="14076.7" gradientUnits="userSpaceOnUse">
<stop offset="0.11" stop-color="#FFFB74"/>
<stop offset="0.49" stop-color="#FFFA00"/>
<stop offset="0.93" stop-color="#FFC921"/>
</linearGradient>
<linearGradient id="paint11_linear_428_490" x1="6501.83" y1="13719.2" x2="6237.33" y2="13849.9" gradientUnits="userSpaceOnUse">
<stop offset="0.11" stop-color="#FFFB74"/>
<stop offset="0.49" stop-color="#FFFA00"/>
<stop offset="0.93" stop-color="#FFC921"/>
</linearGradient>
<radialGradient id="paint12_radial_428_490" cx="0" cy="0" r="1" gradientUnits="userSpaceOnUse" gradientTransform="translate(5785.78 8407.46) scale(431.863 492.704)">
<stop offset="0.39" stop-color="#F6C100"/>
<stop offset="1" stop-color="#EA6500"/>
</radialGradient>
<radialGradient id="paint13_radial_428_490" cx="0" cy="0" r="1" gradientUnits="userSpaceOnUse" gradientTransform="translate(2645.51 3369.2) scale(197.27 197.295)">
<stop offset="0.39" stop-color="#F6C100"/>
<stop offset="1" stop-color="#EA6500"/>
</radialGradient>
<radialGradient id="paint14_radial_428_490" cx="0" cy="0" r="1" gradientUnits="userSpaceOnUse" gradientTransform="translate(2961.54 3794.38) scale(219.665 219.69)">
<stop offset="0.15" stop-color="white"/>
<stop offset="1" stop-color="#FFFB62"/>
</radialGradient>
<linearGradient id="paint15_linear_428_490" x1="4940.64" y1="11699.2" x2="5133.67" y2="11866.3" gradientUnits="userSpaceOnUse">
<stop offset="0.11" stop-color="#FFFB74"/>
<stop offset="0.49" stop-color="#FFFA00"/>
<stop offset="0.93" stop-color="#FFC921"/>
</linearGradient>
<radialGradient id="paint16_radial_428_490" cx="0" cy="0" r="1" gradientUnits="userSpaceOnUse" gradientTransform="translate(2793.57 3855.16) scale(41.6269 42.8869)">
<stop offset="0.39" stop-color="#F6C100"/>
<stop offset="1" stop-color="#EA6500"/>
</radialGradient>
<radialGradient id="paint17_radial_428_490" cx="0" cy="0" r="1" gradientUnits="userSpaceOnUse" gradientTransform="translate(4327.06 6475.64) scale(79.0306 88.1594)">
<stop offset="0.39" stop-color="#F6C100"/>
<stop offset="1" stop-color="#EA6500"/>
</radialGradient>
<radialGradient id="paint18_radial_428_490" cx="0" cy="0" r="1" gradientUnits="userSpaceOnUse" gradientTransform="translate(4666.67 8083.86) scale(152.349 195.967)">
<stop offset="0.39" stop-color="#F6C100"/>
<stop offset="1" stop-color="#EA6500"/>
</radialGradient>
<radialGradient id="paint19_radial_428_490" cx="0" cy="0" r="1" gradientUnits="userSpaceOnUse" gradientTransform="translate(3067.32 4371.79) scale(99.7699 105.175)">
<stop offset="0.39" stop-color="#F6C100"/>
<stop offset="1" stop-color="#EA6500"/>
</radialGradient>
<linearGradient id="paint20_linear_428_490" x1="4497.86" y1="6884.66" x2="4402.11" y2="6931.29" gradientUnits="userSpaceOnUse">
<stop offset="0.46" stop-color="white"/>
<stop offset="0.54" stop-color="#FFFFFB"/>
<stop offset="0.63" stop-color="#FFFFEF"/>
<stop offset="0.72" stop-color="#FFFEDB"/>
<stop offset="0.8" stop-color="#FFFDBF"/>
<stop offset="0.89" stop-color="#FFFC9B"/>
<stop offset="0.98" stop-color="#FFFB70"/>
<stop offset="1" stop-color="#FFFB62"/>
</linearGradient>
<linearGradient id="paint21_linear_428_490" x1="3931.87" y1="5665.4" x2="3850.75" y2="5707.72" gradientUnits="userSpaceOnUse">
<stop offset="0.46" stop-color="white"/>
<stop offset="0.54" stop-color="#FFFFFB"/>
<stop offset="0.63" stop-color="#FFFFEF"/>
<stop offset="0.72" stop-color="#FFFEDB"/>
<stop offset="0.8" stop-color="#FFFDBF"/>
<stop offset="0.89" stop-color="#FFFC9B"/>
<stop offset="0.98" stop-color="#FFFB70"/>
<stop offset="1" stop-color="#FFFB62"/>
</linearGradient>
<linearGradient id="paint22_linear_428_490" x1="4051.57" y1="5636.03" x2="3968.47" y2="5680.76" gradientUnits="userSpaceOnUse">
<stop offset="0.46" stop-color="white"/>
<stop offset="0.54" stop-color="#FFFFFB"/>
<stop offset="0.63" stop-color="#FFFFEF"/>
<stop offset="0.72" stop-color="#FFFEDB"/>
<stop offset="0.8" stop-color="#FFFDBF"/>
<stop offset="0.89" stop-color="#FFFC9B"/>
<stop offset="0.98" stop-color="#FFFB70"/>
<stop offset="1" stop-color="#FFFB62"/>
</linearGradient>
<radialGradient id="paint23_radial_428_490" cx="0" cy="0" r="1" gradientUnits="userSpaceOnUse" gradientTransform="translate(2930.16 3908.31) scale(18.0172 18.0532)">
<stop offset="0.15" stop-color="white"/>
<stop offset="1" stop-color="#FFFB62"/>
</radialGradient>
<radialGradient id="paint24_radial_428_490" cx="0" cy="0" r="1" gradientUnits="userSpaceOnUse" gradientTransform="translate(815.351 1066.87) scale(1.28127 1.30429)">
<stop offset="0.15" stop-color="white"/>
<stop offset="1" stop-color="#FFFB62"/>
</radialGradient>
<radialGradient id="paint25_radial_428_490" cx="0" cy="0" r="1" gradientUnits="userSpaceOnUse" gradientTransform="translate(471.931 1668.51) scale(0.916822 2.34628)">
<stop offset="0.15" stop-color="white"/>
<stop offset="1" stop-color="#FFFB62"/>
</radialGradient>
<radialGradient id="paint26_radial_428_490" cx="0" cy="0" r="1" gradientUnits="userSpaceOnUse" gradientTransform="translate(1019.98 2452.27) scale(2.97419 5.56688)">
<stop offset="0.15" stop-color="white"/>
<stop offset="1" stop-color="#FFFB62"/>
</radialGradient>
<radialGradient id="paint27_radial_428_490" cx="0" cy="0" r="1" gradientUnits="userSpaceOnUse" gradientTransform="translate(699.656 1965.75) scale(1.5746 3.45111)">
<stop offset="0.15" stop-color="white"/>
<stop offset="1" stop-color="#FFFB62"/>
</radialGradient>
<radialGradient id="paint28_radial_428_490" cx="0" cy="0" r="1" gradientUnits="userSpaceOnUse" gradientTransform="translate(760.858 1048.3) scale(1.1913 1.14741)">
<stop offset="0.15" stop-color="white"/>
<stop offset="1" stop-color="#FFFB62"/>
</radialGradient>
<radialGradient id="paint29_radial_428_490" cx="0" cy="0" r="1" gradientUnits="userSpaceOnUse" gradientTransform="translate(2698.12 3674.34) scale(14.7488 14.8284)">
<stop offset="0.15" stop-color="white"/>
<stop offset="1" stop-color="#FFFB62"/>
</radialGradient>
<radialGradient id="paint30_radial_428_490" cx="0" cy="0" r="1" gradientUnits="userSpaceOnUse" gradientTransform="translate(778.318 2516.65) scale(2.28789 5.35268)">
<stop offset="0.15" stop-color="white"/>
<stop offset="1" stop-color="#FFFB62"/>
</radialGradient>
<linearGradient id="paint31_linear_428_490" x1="3076.49" y1="11690" x2="3057.31" y2="12036.7" gradientUnits="userSpaceOnUse">
<stop offset="0.11" stop-color="#BC6300"/>
<stop offset="0.38" stop-color="#EDB500"/>
<stop offset="0.64" stop-color="#BC6300"/>
<stop offset="0.96" stop-color="#704000"/>
</linearGradient>
<linearGradient id="paint32_linear_428_490" x1="2948.35" y1="11691.9" x2="2948.35" y2="12025.1" gradientUnits="userSpaceOnUse">
<stop offset="0.11" stop-color="#BC6300"/>
<stop offset="0.38" stop-color="#EDB500"/>
<stop offset="0.64" stop-color="#BC6300"/>
<stop offset="0.96" stop-color="#704000"/>
</linearGradient>
<linearGradient id="paint33_linear_428_490" x1="5173.48" y1="14001.2" x2="5173.48" y2="14434.1" gradientUnits="userSpaceOnUse">
<stop offset="0.09" stop-color="white"/>
<stop offset="0.38" stop-color="#EDB500"/>
<stop offset="0.64" stop-color="#BC6300"/>
<stop offset="0.96" stop-color="#704000"/>
</linearGradient>
<linearGradient id="paint34_linear_428_490" x1="2002.13" y1="305.708" x2="2018.15" y2="305.708" gradientUnits="userSpaceOnUse">
<stop offset="0.06" stop-color="white"/>
<stop offset="0.19" stop-color="#FFFFF0"/>
<stop offset="0.45" stop-color="#FFFEC8"/>
<stop offset="0.81" stop-color="#FFFC88"/>
<stop offset="1" stop-color="#FFFB62"/>
</linearGradient>
<linearGradient id="paint35_linear_428_490" x1="1958.61" y1="480.053" x2="1973.72" y2="480.053" gradientUnits="userSpaceOnUse">
<stop offset="0.06" stop-color="white"/>
<stop offset="0.19" stop-color="#FFFFF0"/>
<stop offset="0.45" stop-color="#FFFEC8"/>
<stop offset="0.81" stop-color="#FFFC88"/>
<stop offset="1" stop-color="#FFFB62"/>
</linearGradient>
<linearGradient id="paint36_linear_428_490" x1="2005.79" y1="708.489" x2="2021.57" y2="708.489" gradientUnits="userSpaceOnUse">
<stop offset="0.06" stop-color="white"/>
<stop offset="0.19" stop-color="#FFFFF0"/>
<stop offset="0.45" stop-color="#FFFEC8"/>
<stop offset="0.81" stop-color="#FFFC88"/>
<stop offset="1" stop-color="#FFFB62"/>
</linearGradient>
<linearGradient id="paint37_linear_428_490" x1="1870.04" y1="1119.7" x2="1883.75" y2="1119.7" gradientUnits="userSpaceOnUse">
<stop offset="0.06" stop-color="white"/>
<stop offset="0.19" stop-color="#FFFFF0"/>
<stop offset="0.45" stop-color="#FFFEC8"/>
<stop offset="0.81" stop-color="#FFFC88"/>
<stop offset="1" stop-color="#FFFB62"/>
</linearGradient>
<linearGradient id="paint38_linear_428_490" x1="2021.52" y1="538.475" x2="2037.53" y2="538.475" gradientUnits="userSpaceOnUse">
<stop offset="0.06" stop-color="white"/>
<stop offset="0.19" stop-color="#FFFFF0"/>
<stop offset="0.45" stop-color="#FFFEC8"/>
<stop offset="0.81" stop-color="#FFFC88"/>
<stop offset="1" stop-color="#FFFB62"/>
</linearGradient>
<linearGradient id="paint39_linear_428_490" x1="2045.34" y1="337.771" x2="2061.82" y2="337.771" gradientUnits="userSpaceOnUse">
<stop offset="0.06" stop-color="white"/>
<stop offset="0.19" stop-color="#FFFFF0"/>
<stop offset="0.45" stop-color="#FFFEC8"/>
<stop offset="0.81" stop-color="#FFFC88"/>
<stop offset="1" stop-color="#FFFB62"/>
</linearGradient>
<linearGradient id="paint40_linear_428_490" x1="2039.39" y1="210.955" x2="2055.86" y2="210.955" gradientUnits="userSpaceOnUse">
<stop offset="0.06" stop-color="white"/>
<stop offset="0.19" stop-color="#FFFFF0"/>
<stop offset="0.45" stop-color="#FFFEC8"/>
<stop offset="0.81" stop-color="#FFFC88"/>
<stop offset="1" stop-color="#FFFB62"/>
</linearGradient>
<linearGradient id="paint41_linear_428_490" x1="1897.14" y1="530.775" x2="1911.59" y2="530.775" gradientUnits="userSpaceOnUse">
<stop offset="0.06" stop-color="white"/>
<stop offset="0.19" stop-color="#FFFFF0"/>
<stop offset="0.45" stop-color="#FFFEC8"/>
<stop offset="0.81" stop-color="#FFFC88"/>
<stop offset="1" stop-color="#FFFB62"/>
</linearGradient>
<linearGradient id="paint42_linear_428_490" x1="1981.49" y1="884.673" x2="1996.83" y2="884.673" gradientUnits="userSpaceOnUse">
<stop offset="0.06" stop-color="white"/>
<stop offset="0.19" stop-color="#FFFFF0"/>
<stop offset="0.45" stop-color="#FFFEC8"/>
<stop offset="0.81" stop-color="#FFFC88"/>
<stop offset="1" stop-color="#FFFB62"/>
</linearGradient>
<linearGradient id="paint43_linear_428_490" x1="1967.23" y1="438.807" x2="1982.68" y2="438.807" gradientUnits="userSpaceOnUse">
<stop offset="0.06" stop-color="white"/>
<stop offset="0.19" stop-color="#FFFFF0"/>
<stop offset="0.45" stop-color="#FFFEC8"/>
<stop offset="0.81" stop-color="#FFFC88"/>
<stop offset="1" stop-color="#FFFB62"/>
</linearGradient>
<linearGradient id="paint44_linear_428_490" x1="1893.27" y1="137.307" x2="1907.73" y2="137.307" gradientUnits="userSpaceOnUse">
<stop offset="0.06" stop-color="white"/>
<stop offset="0.19" stop-color="#FFFFF0"/>
<stop offset="0.45" stop-color="#FFFEC8"/>
<stop offset="0.81" stop-color="#FFFC88"/>
<stop offset="1" stop-color="#FFFB62"/>
</linearGradient>
<linearGradient id="paint45_linear_428_490" x1="5225.26" y1="14176.7" x2="5337.62" y2="14176.7" gradientUnits="userSpaceOnUse">
<stop offset="0.09" stop-color="white"/>
<stop offset="0.38" stop-color="#EDB500"/>
<stop offset="0.64" stop-color="#BC6300"/>
<stop offset="0.96" stop-color="#704000"/>
</linearGradient>
</defs>
</svg>
