<svg width="292" height="312" viewBox="0 0 292 312" fill="none" xmlns="http://www.w3.org/2000/svg">
<path opacity="0.3" d="M58.08 19.5196C59.07 19.6996 64.71 22.2796 65.3 21.8696C65.89 21.4596 78.6 16.1696 78.5 16.6596C78.4 17.1496 80.77 23.7096 82.83 23.5796C84.89 23.4496 87.36 17.2296 90.73 18.8896C94.1 20.5596 97.72 24.2496 99.13 24.2796C100.54 24.3096 114.3 16.1296 114.3 16.1296C114.3 16.1296 118.15 17.3496 118.92 15.9596C119.69 14.5696 123.65 9.68961 124.63 9.86961C125.61 10.0496 147.41 13.5696 147.99 13.1696C148.57 12.7696 154.73 9.81961 155.81 9.50961C156.89 9.19961 160.48 6.28961 160.76 4.80961C161.03 3.32961 161.49 0.849609 161.49 0.849609L166.19 1.71961C166.19 1.71961 165.42 7.19961 166.01 6.79961C166.6 6.39961 173.5 7.66961 175.65 7.04961C177.81 6.42961 200.28 22.8196 200.28 22.8196C200.28 22.8196 200.69 37.1796 203.28 39.6996C205.87 42.2196 214.55 50.4496 215.05 64.3196C215.05 64.3196 211.62 71.8496 228.53 71.3996C228.53 71.3996 235.69 76.7996 241.09 89.0196C241.09 89.0196 248.43 93.4396 248.34 93.9296C248.25 94.4196 247.25 99.8496 249.75 102.86C252.25 105.87 243.07 116.93 235.09 115.96C227.11 115 236.91 139.25 236.82 139.74C236.73 140.23 231.29 144.84 235.49 149.7C239.69 154.56 242.74 154.61 244.13 155.38C245.52 156.15 247.07 161.53 255.42 160.53C263.77 159.52 261.45 155.52 268.52 161.42C275.59 167.32 268.55 166.53 279.94 168.63C280.93 168.81 291.09 177.32 291.71 179.47C292.33 181.62 284.3 183.71 284.61 184.79C284.92 185.87 285.58 190.58 285.58 190.58C285.58 190.58 279.53 189.46 278.86 189.34C278.19 189.22 277.58 195.22 273.73 194C269.88 192.78 268.74 196.14 267.67 196.45C266.6 196.76 257.04 196.02 253.35 199.42C249.66 202.82 239.58 199.42 239.38 206.02C239.18 212.62 224.26 207.82 224.26 207.82C224.26 207.82 208.85 216.7 199.66 213.99C199.66 213.99 197.53 222.78 192.06 219.22C186.6 215.66 176.25 216.17 176.91 216.87C177.57 217.57 174.82 224.2 181.9 224.49C188.99 224.78 181.12 231.49 181.12 231.49C181.12 231.49 200.81 247.37 189.78 245.33C188.79 245.15 173.56 239.27 173.72 243.89C173.89 248.51 163.95 241.57 172.01 261.43C172.01 261.43 158.13 267.54 159.52 268.3C160.91 269.06 165.46 277.56 176.13 280.55C186.8 283.54 178.73 296.84 178.64 297.34C178.55 297.84 179.21 302.55 179.21 302.55C179.21 302.55 163.89 310.94 158.3 305.32C152.71 299.7 152.58 297.63 152.34 301.67C152.1 305.71 150.37 315.08 145.68 310.13C140.99 305.18 125.51 303.34 127.52 292.49C129.52 281.64 112.37 295.3 112.26 296.81C112.16 298.32 98.95 289.76 96.3 290.29C93.65 290.82 82.62 303.58 82.62 303.58C82.62 303.58 66.38 289.36 63.64 290.38C60.9 291.4 64.86 299.28 64.77 300.28C64.68 301.28 58.29 308.26 56.04 295.61C53.79 282.95 60.37 288.76 49.68 277.6C38.99 266.44 31.61 273.24 31.61 273.24C31.61 273.24 32.4 280.02 26.66 264.16C26.66 264.16 18.66 268.8 16.32 270.41C16.32 270.41 10.48 274.43 10.02 263.12C10.02 263.12 2.71003 261.26 1.27003 263.54C-0.169967 265.82 3.20004 247.57 16.43 250.53C16.43 250.53 11.6 243.52 20.95 237.08C20.95 237.08 23 231.34 22.86 230.8C22.72 230.26 28.25 225.17 28.25 225.17C28.25 225.17 31.12 226.21 31.95 216.16L38.67 204.65C38.67 204.65 33.31 194.99 38.12 193.84C42.92 192.69 50.69 205.88 52.89 205C55.09 204.12 56.77 200.57 55.06 193.26C53.35 185.95 60.53 185.74 60.53 185.74C60.53 185.74 52.4 174.55 55.63 173.61C58.86 172.68 70.44 170.74 70.15 164.05C69.86 157.36 59.59 154.96 59.59 154.96C59.59 154.96 65.43 150.94 62.62 146.85C59.81 142.76 60.28 148.46 60.28 148.46C60.28 148.46 53.23 150.73 57.88 139.35C62.53 127.97 48.97 148.93 48.97 148.93L42.32 151.78C42.32 151.78 43.66 155.6 41.41 156.71C39.16 157.82 27.29 153.08 30.85 147.62C34.41 142.16 34.11 135.47 31.79 131.47C29.47 127.47 36.5 130.81 35.9 123.05C35.3 115.29 30.69 109.85 38.14 108.16C45.59 106.47 48.1 109.49 46.48 93.3796C44.86 77.2696 59.46 86.5996 60.54 86.2896C61.62 85.9796 66.51 84.3296 66.51 84.3296C66.51 84.3296 69.91 88.0196 71.39 88.2896C72.87 88.5596 76.11 93.1296 74.86 86.0696C73.61 79.0096 82.99 77.9696 77.65 70.9696C72.31 63.9696 68.97 71.0096 73.99 57.6496C73.99 57.6496 82.76 51.6196 78.79 42.7196C78.79 42.7196 66 42.9096 62.48 37.1596C62.48 37.1596 70.17 31.4396 57.71 27.0996L58.09 19.5196H58.08Z" fill="url(#paint0_linear_196_3259)"/>
<defs>
<linearGradient id="paint0_linear_196_3259" x1="62.1294" y1="48.029" x2="185.111" y2="301.422" gradientUnits="userSpaceOnUse">
<stop stop-color="#8FE6B2"/>
<stop offset="1" stop-color="#47B470"/>
</linearGradient>
</defs>
</svg>
