<svg width="246" height="291" viewBox="0 0 246 291" fill="none" xmlns="http://www.w3.org/2000/svg">
<path d="M3.17773 277.056C3.17773 277.056 27.4151 291.435 32.8011 290.986C38.1872 290.537 55.692 286.492 57.4873 285.594C59.2827 284.695 76.7874 277.955 88.4573 273.911C88.4573 273.911 96.9852 259.981 100.576 258.633C104.167 257.285 100.127 234.817 112.246 233.469C124.364 232.121 124.364 238.111 124.364 238.111C124.364 238.111 128.853 231.672 127.955 227.178C127.057 222.685 155.334 211.001 155.334 211.001C155.334 211.001 160.72 215.046 169.248 203.812C169.248 203.812 186.753 192.129 181.816 186.736C181.816 186.736 193.486 172.357 195.73 172.807C195.73 172.807 212.786 174.604 207.4 158.877C207.4 158.877 206.053 148.542 192.139 160.225C192.139 160.225 195.281 139.554 209.644 136.409C209.644 136.409 213.235 137.101 209.644 144.619C209.644 144.619 215.928 150.339 219.967 135.061C219.967 135.061 237.472 121.131 228.495 107.201C219.518 93.2713 233.881 81.5882 233.881 81.5882C233.881 81.5882 239.716 58.2219 237.023 48.7855C237.023 48.7855 242.409 43.3933 241.063 32.1595C241.063 32.1595 238.819 24.9699 246 15.0841C246 15.0841 240.614 -6.03539 230.739 10.1413C220.865 26.3179 217.723 15.9828 216.377 34.4062C215.03 52.8297 207.849 63.1647 207.849 63.1647C207.849 63.1647 203.36 88.3284 196.179 91.4739C188.997 94.6193 188.997 110.347 188.997 110.347C188.997 110.347 175.083 128.321 180.021 132.365L162.067 145.396C162.067 145.396 151.744 153.484 152.641 162.471C152.641 162.471 132.892 176.388 124.589 189.199C124.589 189.199 148.602 180.445 153.09 174.604C157.579 168.762 162.067 166.516 162.067 166.516L160.272 176.851C160.272 176.851 155.334 178.199 153.539 180.445C151.744 182.692 147.704 187.635 147.704 187.635C147.704 187.635 128.404 188.588 122.345 197.098C122.345 197.098 129.302 201.565 116.734 206.059C116.734 206.059 117.632 216.394 91.1503 224.033C91.1503 224.033 72.299 252.342 73.6455 252.791C74.9921 253.24 62.8734 255.487 65.5664 259.981C68.2595 264.474 54.7943 263.126 54.7943 263.126L49.4082 266.272L44.9198 264.025C44.9198 264.025 43.5733 271.214 26.9662 268.069C26.9662 268.069 -1.31066 273.461 3.17773 277.056Z" fill="#153C51"/>
<path d="M0.484863 273.012C0.484863 273.012 24.7222 287.391 30.1083 286.942C35.4944 286.493 52.9991 282.448 54.7945 281.55C56.5898 280.651 74.0946 273.911 85.7644 269.867C85.7644 269.867 94.2923 255.937 97.8831 254.589C101.474 253.241 97.4342 230.773 109.553 229.425C121.672 228.077 121.672 234.067 121.672 234.067C121.672 234.067 126.16 227.628 125.262 223.134C124.365 218.641 152.641 206.957 152.641 206.957C152.641 206.957 158.028 211.002 166.555 199.768C166.555 199.768 184.06 188.085 179.123 182.692C179.123 182.692 190.793 168.313 193.037 168.763C193.037 168.763 210.093 170.56 204.707 154.833C204.707 154.833 203.36 144.498 189.446 156.181C189.446 156.181 192.588 135.511 206.951 132.365C206.951 132.365 210.542 133.057 206.951 140.575C206.951 140.575 213.235 146.295 217.274 131.017C217.274 131.017 234.779 117.087 225.802 103.157C216.826 89.2273 231.188 77.5442 231.188 77.5442C231.188 77.5442 237.023 54.1779 234.33 44.7415C234.33 44.7415 239.716 39.3493 238.37 28.1155C238.37 28.1155 236.126 20.9259 243.307 11.0402C243.307 11.0402 237.921 -10.0793 228.047 6.09732C218.172 22.274 215.03 11.9389 213.684 30.3623C212.337 48.7857 205.156 59.1208 205.156 59.1208C205.156 59.1208 200.667 84.2845 193.486 87.4299C186.304 90.5754 186.304 106.303 186.304 106.303C186.304 106.303 172.39 124.277 177.328 128.321L159.374 141.352C159.374 141.352 149.051 149.44 149.948 158.427C149.948 158.427 130.199 172.344 121.896 185.155C121.896 185.155 145.909 176.402 150.397 170.56C154.886 164.718 159.374 162.472 159.374 162.472L157.579 172.807C157.579 172.807 152.641 174.155 150.846 176.402C149.051 178.648 145.011 183.591 145.011 183.591C145.011 183.591 125.711 184.544 119.652 193.054C119.652 193.054 126.609 197.521 114.041 202.015C114.041 202.015 114.939 212.35 88.4574 219.989C88.4574 219.989 69.6062 248.298 70.9527 248.747C72.2992 249.196 60.1805 251.443 62.8736 255.937C65.5666 260.43 52.1014 259.082 52.1014 259.082L46.7153 262.228L42.2269 259.981C42.2269 259.981 40.8804 267.171 24.2734 264.025C24.2734 264.025 -4.00353 269.417 0.484863 273.012Z" fill="url(#paint0_linear_222_4574)"/>
<path opacity="0.21" d="M13.9502 275.259L35.4945 278.854C35.4945 278.854 80.8273 266.722 81.2761 265.374C81.725 264.025 88.9064 255.038 90.2529 252.342C91.5994 249.646 95.1902 233.47 97.8832 231.672C100.576 229.875 112.246 223.584 113.593 223.584C114.939 223.584 125.837 216.197 125.999 214.723C126.16 213.249 136.461 204.019 136.461 204.019L173.293 180.895L187.624 147.652C187.624 147.652 195.735 129.669 197.53 127.423C199.325 125.176 214.137 116.638 214.137 116.638C214.137 116.638 215.035 108.159 214.137 105.436C213.239 102.713 214.038 93.1371 214.537 89.385C215.035 85.633 224.46 69.9057 224.46 68.5576C224.46 67.2096 228.051 44.742 228.051 42.0459C228.051 39.3498 229.398 27.2173 229.847 24.5212C230.295 21.8251 234.784 12.3887 234.784 12.3887C234.784 12.3887 224.46 20.0276 224.46 22.2744C224.46 24.5212 223.563 37.103 221.319 45.1913C219.074 53.2797 215.035 66.3109 214.137 67.6589C213.239 69.007 205.618 83.9704 205.614 88.6211C205.609 93.2719 199.86 95.5187 198.697 100.012C197.535 104.506 193.603 117.384 191.08 118.809C188.558 120.233 183.172 126.973 183.172 126.973L165.402 154.348V170.017L150.465 184.185L126.003 195.621L118.539 210.364L95.1946 223.588L83.9737 241.562C83.9737 241.562 70.5085 264.479 65.1224 265.378C59.7363 266.277 28.3759 272.604 26.5536 272.81C24.7313 273.017 13.9547 275.264 13.9547 275.264L13.9502 275.259Z" fill="#266E9E"/>
<path d="M191.071 169.841C189.298 157.3 178.539 147.652 165.523 147.652C160.182 147.652 155.218 149.279 151.097 152.06C150.276 154.06 149.814 156.221 150.038 158.437C150.038 158.437 146.102 161.209 141.008 165.42C140.173 167.959 139.715 170.668 139.715 173.49C139.715 174.852 139.823 176.191 140.025 177.494C144.692 175.171 148.867 172.681 150.487 170.569C154.975 164.728 159.464 162.481 159.464 162.481L157.668 172.816C157.668 172.816 152.731 174.164 150.936 176.411C149.14 178.658 145.101 183.6 145.101 183.6C145.101 183.6 143.853 183.663 141.901 183.893C145.9 192.978 154.971 199.328 165.523 199.328C166.156 199.328 166.784 199.296 167.404 199.251C170.716 196.919 183.522 187.411 179.213 182.702C179.213 182.702 186.996 173.113 191.071 169.841Z" fill="#216593"/>
<path d="M199.945 150.595C197.682 150.802 194.446 152.249 189.819 156.136C189.819 156.136 190.788 149.778 194.101 143.572C188.149 137.829 180.496 133.839 171.973 132.433L159.747 141.307C159.747 141.307 151.78 147.553 150.456 155.165C154.518 151.84 159.706 149.845 165.357 149.845C177.907 149.845 188.167 159.672 188.876 172.056C190.905 170.03 192.669 168.569 193.41 168.718C193.41 168.718 203.208 169.747 205.604 163.397C204.437 158.774 202.503 154.46 199.945 150.595Z" fill="#66B3DD"/>
<path d="M124.279 182.265C124.414 182.908 124.562 183.551 124.728 184.18C128.503 182.724 135.931 179.74 142.008 176.572C141.874 175.543 141.793 174.501 141.793 173.436C141.793 169.684 142.673 166.138 144.23 162.988C138.467 167.554 129.885 174.91 124.279 182.265Z" fill="#66B3DD"/>
<path d="M171.708 196.15C169.689 196.716 167.561 197.022 165.362 197.022C155.999 197.022 147.911 191.553 144.109 183.636C140.918 183.914 132.394 184.934 125.999 188.21C129.522 197.7 136.385 205.56 145.164 210.359C149.594 208.323 153.019 206.908 153.019 206.908C153.019 206.908 158.405 210.952 166.933 199.718C166.933 199.718 169.11 198.267 171.708 196.15Z" fill="#66B3DD"/>
<path d="M183.481 147.561C186.373 140.583 186.363 133.949 183.46 132.744C180.556 131.538 175.859 136.217 172.968 143.195C170.076 150.173 170.086 156.807 172.989 158.012C175.893 159.218 180.59 154.539 183.481 147.561Z" fill="#CDD8E0"/>
<defs>
<linearGradient id="paint0_linear_222_4574" x1="216.372" y1="83.7992" x2="58.7017" y2="269.316" gradientUnits="userSpaceOnUse">
<stop offset="0.03" stop-color="#6194E0"/>
<stop offset="0.29" stop-color="#598FDA"/>
<stop offset="0.69" stop-color="#4482CA"/>
<stop offset="1" stop-color="#2F75BA"/>
</linearGradient>
</defs>
</svg>
