<svg width="388" height="412" viewBox="0 0 388 412" fill="none" xmlns="http://www.w3.org/2000/svg">
<g opacity="0.3">
<path d="M47.5832 227.317C47.6036 227.187 47.5681 227.083 47.4692 226.99C47.2786 225.6 47.0639 224.231 45.4656 223.704C44.792 223.594 44.1184 223.484 43.4449 223.374C43.1136 222.853 42.6463 222.61 42.0208 222.688C41.8509 222.62 41.6818 222.548 41.5069 222.479C40.5535 221.253 39.3682 220.424 37.7692 220.299C37.0049 220.01 37.0547 219.26 36.839 218.659C37.0318 218.05 36.8266 217.647 36.2182 217.449L36.241 217.468C36.0524 216.893 36.4467 216.016 35.556 215.81C34.9491 215.669 34.4428 216.008 34.1652 216.599L34.145 216.596C33.4034 216.624 32.5849 216.816 32.1159 216.022C31.5948 215.131 30.9943 214.651 29.8866 214.979C29.5728 215.074 29.0062 214.872 28.774 214.609C27.0046 212.633 24.4588 212.298 22.1758 211.401C21.7827 211.211 21.3846 211.02 20.9923 210.825C20.7795 208.452 20.0173 207.091 17.1085 207.664C15.4289 207.99 13.903 206.469 13.0276 205.105C12.177 203.782 11.1515 202.854 9.9532 201.91C7.24268 199.787 6.8994 197.192 8.73842 194.453C11.1154 192.694 13.3683 192.097 16.2417 193.869C19.1488 195.657 22.0192 197.382 24.3587 199.901C24.8797 200.462 25.601 200.729 26.3804 200.788C26.8557 201.079 27.3541 201.089 27.8714 200.912C28.0474 201.007 28.2284 201.102 28.4036 201.201C28.6844 201.384 28.9652 201.567 29.246 201.75C30.1551 202.83 31.0534 203.913 32.5429 204.212C32.8745 204.367 33.2053 204.527 33.5368 204.681C34.1142 205.111 34.6923 205.537 35.2696 205.967C36.9629 208.266 38.928 209.98 42.0831 209.182C44.7668 210.518 47.4548 211.859 50.1385 213.195C50.458 213.394 50.7782 213.588 51.1028 213.788C51.4318 213.86 51.7557 213.931 52.0848 214.003C52.8529 214.499 53.5915 215.217 54.3899 213.996C55.101 212.906 55.4855 211.894 54.1869 210.965C54.1103 210.298 54.0287 209.631 53.9521 208.964C54.5394 207.344 55.1326 205.72 55.7199 204.1C56.4459 203.708 57.0746 203.213 57.4829 202.478C57.6087 202.498 57.6835 202.447 57.6989 202.316C60.0106 201.109 57.8577 200.237 57.4669 199.238C57.8456 197.37 59.4325 198.797 60.2762 198.212C60.937 198.305 61.5986 198.392 62.2544 198.484C62.6114 198.509 62.8661 198.363 63.015 198.036C65.1438 196.249 67.6447 194.721 67.5769 191.416C67.5645 190.801 67.6707 190.086 68.216 189.861C70.8647 188.774 72.2514 186.258 74.3715 184.593C75.2351 183.913 76.2178 183.561 76.5408 185.194C76.1945 185.465 75.5006 185.486 75.6809 186.148C75.8586 186.794 76.3178 187.056 76.9779 186.69C77.7347 186.431 78.5981 186.447 79.2204 185.828C80.3562 185.386 81.085 184.546 81.5498 183.448L81.5688 183.426C83.2458 181.991 84.6159 180.905 87.1663 182.535C89.0557 183.741 87.3511 181.249 88.0415 180.82C88.7672 180.794 89.4922 180.773 90.2179 180.747C91.2628 181.054 92.2269 180.921 93.0844 180.214C94.8218 179.65 95.8982 180.946 96.3511 182.042C97.3858 184.533 98.8363 186.837 99.4346 189.548C99.9264 191.785 100.079 193.52 97.3744 194.171C95.5548 194.8 94.221 196.381 92.2477 196.738C91.6962 196.838 91.6513 197.424 91.5303 197.936C91.1599 199.486 92.1284 200.318 93.2013 200.974C94.453 201.742 95.89 202.146 97.159 201.081C97.7574 200.581 98.2757 200.1 99.0696 200.033C99.0062 200.373 98.9479 200.715 98.8853 201.05C98.5164 201.4 97.9615 202.051 98.3634 202.284C100.748 203.65 99.0786 204.343 98.0105 205.244C97.5117 205.666 97.1555 206.265 96.7391 206.788C94.9488 206.004 93.1167 207.111 91.2151 206.644C90.4654 206.461 89.5006 208.254 88.9308 209.397C87.7092 211.846 86.3091 213.818 82.9644 213.318C81.5789 213.112 81.0337 214.363 81.611 215.819C82.1703 217.225 83.5383 217.907 84.3764 219.079C84.9731 219.914 85.3583 218.897 85.6838 218.561C86.7798 217.448 87.6241 216.76 88.6194 218.776C89.3716 220.3 91.4653 219.534 92.6243 220.565C92.3357 221.458 92.8243 221.895 93.5742 222.177C93.4865 222.905 93.9041 223.434 94.2783 223.977C94.1898 224.314 94.1063 224.651 94.0178 224.988C93.7172 225.462 93.6655 225.959 93.8679 226.48C91.9256 226.672 92.0916 224.018 90.3327 223.661C91.5603 229.018 93.258 231.885 95.7266 232.914C95.6543 231.679 96.2603 230.425 97.5447 229.151C97.927 229.277 98.3051 229.398 98.6824 229.524C99.3677 230.022 99.0553 232.458 100.911 230.67C101.28 230.516 101.651 230.357 102.025 230.204C102.98 230.987 103.777 231.101 104.213 229.689C104.483 229.417 104.758 229.14 105.027 228.868C106.188 228.889 107.353 228.89 108.512 228.931C109.644 228.973 110.35 228.449 110.216 227.32C110.021 225.697 109.933 224.173 110.894 222.704C111.205 222.232 110.996 221.555 110.374 221.211L110.354 221.208C110.616 219.821 110.923 218.446 111.125 217.05C111.261 216.112 111.688 215.024 110.358 214.497L110.324 214.481C110.202 213.282 111.44 211.026 108.444 212.055C108.115 211.921 107.784 211.792 107.45 211.657C107.478 210.415 107.506 209.177 107.53 207.933C107.885 207.906 108.235 207.873 108.59 207.845C110.971 208.871 111.252 207.27 111.436 205.557C113.271 204.296 115.159 203.961 117.02 205.447C117.937 206.178 118.673 205.493 119.34 205.18C121.753 204.05 124.387 203.192 125.695 200.515C126.309 199.255 127.03 198.764 128.4 199.895C128.985 200.378 130.448 201.24 130.793 199.293C131.413 198.684 130.659 198.298 130.555 197.808C130.618 197.436 130.681 197.065 130.748 196.699C133.127 195.987 132.477 194.009 132.571 192.344C132.737 192.241 132.907 192.138 133.073 192.035C134.637 192.779 134.321 191.271 134.738 190.645C134.932 190.191 135.127 189.732 135.327 189.278C136.306 189.178 137.075 189.241 137.129 187.667C137.164 186.719 137.208 184.88 139.15 184.657C140.22 184.535 139.48 183.693 139.339 183.274C138.456 180.606 138.173 178.087 140.326 175.784C142.143 173.845 143.548 171.507 146.282 170.567C147.459 170.163 148.458 169.272 149.615 168.797C152.063 167.808 154.714 169.251 155.136 171.869C155.395 173.486 156.192 175.121 155.368 176.802C154.242 178.338 154.574 180.178 154.313 181.89C153.007 186.398 149.523 188.876 145.841 191.302C143.757 192.673 143.766 195.561 142.349 197.506C141.865 198.167 141.76 199.105 141.298 199.79C139.883 201.89 139.406 203.893 141.421 205.913C141.858 206.352 142.027 207.187 141.689 207.573C140.171 209.275 139.922 211.37 139.592 213.458C139.579 213.538 139.537 213.676 139.494 213.685C135.918 214.107 137.35 217.294 136.446 219.189C136.301 219.491 136.166 219.831 135.935 220.058C134.339 221.634 133.746 222.856 136.494 224.011C138.111 224.686 137.777 226.896 136.095 227.598C135.781 227.73 135.248 227.91 135.407 228.079C137.148 229.907 133.857 232.039 135.78 233.828C135.915 233.952 135.833 234.315 135.85 234.57C134.193 236.369 134.111 238.851 133.106 240.937C131.365 244.532 128.036 246.348 124.96 248.457C123.697 248.095 122.532 248.13 121.658 249.303C121.463 249.397 121.268 249.49 121.073 249.583C118.889 249.738 116.544 249.306 114.93 251.461C114.598 251.905 113.919 252.428 113.463 252.377C110.164 252.013 109.424 254.712 108.018 256.689C106.441 258.907 104.205 259.461 101.45 258.583C99.6377 258.007 98.6307 259.144 97.7682 260.479C97.525 260.683 97.276 260.892 97.0328 261.096C94.591 260.061 92.0692 259.705 89.4209 259.962C87.5003 260.148 85.834 258.502 83.8225 259.039C80.2237 257.092 76.5006 255.414 72.6825 253.948C72.5513 253.5 72.1825 253.386 71.7873 253.309C70.6947 251.752 69.3581 250.472 67.6671 249.579C67.5105 249.493 67.3538 249.407 67.2022 249.321C64.5068 246.737 61.4819 244.415 59.2368 241.488C57.7287 239.521 55.8235 238.085 54.2516 236.263C53.318 234.845 52.4689 233.346 50.7892 232.647C50.6513 232.44 50.5127 232.238 50.3748 232.03C50.5331 229.823 48.3437 228.987 47.6181 227.292L47.5832 227.317ZM83.8212 222.147C82.3585 223.033 82.0081 224.653 81.2857 226.015C80.9935 226.568 81.002 227.208 81.7659 227.466C82.6726 227.767 83.1272 226.735 83.9246 226.679C82.4427 225.206 84.8088 223.682 83.8262 222.148L83.8212 222.147ZM149.436 172.692C148.446 172.791 147.199 172.39 146.974 173.835C146.862 174.559 147.588 174.729 148.178 174.847C149.247 175.065 150.045 174.638 150.397 173.667C150.703 172.828 150.019 172.721 149.431 172.691L149.436 172.692ZM112.038 214.728C112.006 214.671 111.984 214.58 111.94 214.563C111.896 214.551 111.829 214.618 111.772 214.65C111.805 214.707 111.826 214.798 111.87 214.815C111.915 214.827 111.982 214.76 112.038 214.728Z" fill="#8E2219"/>
<path d="M80.349 154.788C79.1922 153.015 79.0708 151.047 79.4768 149.069C79.8297 147.367 79.7224 146.103 77.9483 145.182C76.4698 144.416 74.9975 143.377 75.6021 141.249C75.9275 140.749 75.6626 140.331 75.4086 139.91C75.4329 139.754 75.3665 139.651 75.2152 139.596C75.9758 139.148 76.7658 138.709 75.9658 137.657C75.5065 136.436 75.2516 135.226 74.0549 134.271C72.6293 133.132 73.2977 131.885 74.7606 131.098C78.0576 129.323 81.7348 130.138 82.8617 133.824C83.9132 137.266 85.7599 140.368 87.1326 143.535C88.9663 147.779 89.0195 152.468 91.3092 156.433C91.6547 157.028 91.3822 157.553 91.3657 158.122C91.3319 159.199 91.2452 160.418 92.0945 161.22C95.5448 164.484 94.303 168.188 93.0308 171.789C92.3504 173.708 91.7005 175.664 90.2913 177.331C89.079 178.761 87.7406 178.815 86.2403 178.52C84.64 178.203 84.6007 176.867 84.5641 175.547C84.5298 174.377 84.3516 173.205 84.2395 172.038C83.9216 170.406 84.0696 168.661 83.0826 167.188C82.9525 166.997 82.8223 166.807 82.6872 166.616C82.654 166.1 82.6217 165.58 82.5836 165.064C82.8956 163.226 84.6188 161.561 83.2665 159.52C83.3369 158.506 81.3995 158.369 82.1686 157.071C83.5834 154.673 82.012 154.701 80.344 154.787L80.349 154.788Z" fill="#8E2219"/>
<path d="M42.3774 146.466C43.2681 145.182 42.841 143.755 42.7761 142.384C42.7404 141.621 42.3753 140.987 41.503 141.49C39.4574 142.677 38.8778 141.169 38.195 139.794C38.0605 139.665 37.9268 139.531 37.7872 139.401C38.3738 139.044 38.2339 138.651 37.8486 138.246C40.4139 133.326 43.6858 133.201 46.1203 136.137C46.5758 136.687 47.3152 137.004 47.9293 137.429C48.0933 138.594 48.4116 139.628 49.8756 139.66C51.9085 141.997 53.579 144.51 55.0247 147.307C56.0267 149.247 57.7908 150.96 58.9368 152.968C60.7902 156.226 62.6261 159.496 64.4679 162.763C63.1202 164.3 60.6668 164.464 59.7696 166.551C59.5155 166.594 59.2571 166.631 59.003 166.674C58.5873 166.563 58.2332 166.652 57.9495 166.984C57.2535 166.886 56.5574 166.788 55.8672 166.686C55.5757 166.439 55.2834 166.198 54.9969 165.952C54.9597 163.478 53.6625 161.58 51.8432 160.188C49.7014 158.55 49.2507 156.248 48.9697 153.916C48.8328 152.776 48.4177 152.33 47.4764 151.92C45.0148 150.846 43.2939 149.021 42.3925 146.469L42.3774 146.466ZM44.382 136.773C44.1372 135.962 43.6015 135.662 42.8486 135.731C42.1952 135.789 41.3697 135.727 41.2616 136.586C41.1594 137.442 41.8802 137.745 42.5781 137.699C43.276 137.653 44.0749 137.586 44.382 136.773Z" fill="#8E2219"/>
<path d="M28.3482 159.858C28.3468 160.033 28.4112 160.183 28.5306 160.309C28.6214 161.215 29.2818 161.344 30.0082 161.38C31.5519 163.945 34.0451 165.941 34.4789 169.179C34.6317 170.316 35.9626 170.111 36.7047 170.608C40.3135 173.021 42.0366 177.181 45.3444 179.871C46.1722 180.547 45.5435 181.67 45.9602 182.503C43.4994 183.311 41.0436 184.119 38.5828 184.926C36.6663 184.391 35.1751 183.54 34.3441 181.462C33.4168 179.142 30.8788 178.129 29.3225 176.273C29.4807 173.272 26.7831 174.573 25.5014 173.734C24.3253 173.376 24.0183 172.302 23.5628 171.355C22.6554 169.502 23.5526 166.622 20.5137 165.978C20.3768 165.864 20.2357 165.744 20.0988 165.63C20.0394 165.085 19.7862 164.659 19.3093 164.378C19.2295 164.196 19.1504 164.008 19.0656 163.825C18.5643 160.788 18.8583 158.04 21.8205 156.264C22.5781 156.331 23.33 156.401 24.0877 156.468C24.4123 156.601 24.7428 156.73 25.0674 156.863C25.8354 157.426 26.6042 157.984 27.3722 158.546C27.3112 159.269 27.8966 159.515 28.3424 159.863L28.3482 159.858Z" fill="#8E2219"/>
<path d="M72.5161 183.104C71.9266 183.182 71.5054 183.503 71.2288 184.022C70.8702 184.007 70.5058 183.997 70.1473 183.982C69.8284 183.912 69.467 183.716 69.1966 183.798C67.0164 184.458 65.3286 183.778 64.3664 181.649C63.0183 178.655 61.127 176.005 59.2996 173.308C59.3983 171.88 59.7516 170.538 60.6142 169.368L60.6201 169.364C63.1946 170.672 64.8271 169.458 66.1013 167.3C66.4441 167.416 66.782 167.53 67.1256 167.64C67.9121 169.706 69.0854 171.373 71.4094 171.875C71.9288 173.868 73.1654 175.426 74.4943 176.922C74.8207 178.401 74.8555 179.865 74.2914 181.303L74.2169 181.384C73.1627 181.467 72.8135 182.253 72.5176 183.094L72.5161 183.104Z" fill="#8E2219"/>
<path d="M54.6058 190.602C54.7511 190.96 54.8906 191.322 55.0359 191.68C56.2712 193.975 57.2992 196.31 56.4051 199.006C56.2381 199.052 56.1 199.144 55.9918 199.277C55.7971 199.004 55.5633 198.751 55.4136 198.455C53.928 195.45 53.0424 195.245 50.6353 197.561C50.0957 198.08 49.5818 198.335 48.9028 198.425C48.4922 198.315 48.0815 198.205 47.6701 198.099C46.3974 196.375 45.1553 194.62 42.7849 194.318C42.7046 194.171 42.6193 194.024 42.5383 193.882C42.9594 192.536 43.633 191.156 41.7679 190.257C41.4994 190.128 41.3308 189.555 41.3125 189.176C41.1725 186.402 42.94 185.28 45.2383 184.391C46.7577 183.803 47.351 185.024 48.3578 185.444C50.0592 186.301 51.9035 186.97 52.8867 188.798C53.0736 189.518 53.6477 189.804 54.2781 190.025L54.2816 190.036C54.3916 190.224 54.4958 190.415 54.6058 190.602Z" fill="#8E2219"/>
</g>
<g opacity="0.3" clip-path="url(#clip0_2001_2)">
<path d="M208.61 77.204C208.61 77.204 207.921 86.2054 205.853 86.2054C203.785 86.2054 201.342 80.6661 199.977 81.7047C198.612 82.7434 188.832 83.782 191.654 86.2054C194.477 88.6289 197.348 99.8391 199.877 98.3885C202.407 96.9379 205.508 94.1682 203.785 96.5917C202.062 99.0151 202.407 96.9379 202.062 99.0151C201.718 101.092 209.299 99.3613 208.61 101.092C207.921 102.823 207.666 104.883 208.655 105.932C209.644 106.981 214.397 106.067 214.086 109.464C213.776 112.86 208.61 140.214 208.61 140.214C208.61 140.214 242.729 171.026 247.898 172.757C253.068 174.488 256.859 175.181 263.407 176.912C269.955 178.643 275.814 179.335 275.814 179.335C275.814 179.335 282.017 162.025 281.672 160.986C281.328 159.948 279.949 148.869 279.949 148.869C279.949 148.869 276.503 159.602 276.158 160.986C275.814 162.371 269.955 166.872 269.955 166.872L268.232 161.575V144.5C268.232 144.5 264.785 152.677 263.062 155.447C261.339 158.217 256.514 161.679 256.514 161.679L253.905 158.255C253.905 158.255 257.548 151.293 257.548 150.254V141.252C257.548 141.252 252.379 150.6 252.034 151.985C251.689 153.37 247.75 158.255 247.75 158.255C247.75 158.255 242.729 151.639 243.418 150.254C244.107 148.869 246.175 149.215 246.52 145.753C246.864 142.291 247.209 138.483 247.209 138.483L239.972 142.291C239.972 142.291 239.282 139.175 238.249 137.79C237.215 136.406 236.308 131.116 236.415 129.779C236.522 128.443 232.734 128.097 234.113 125.673C235.492 123.25 237.559 117.71 237.904 117.018C238.249 116.326 236.512 107.203 236.519 106.227C236.525 105.25 235.075 99.1467 232.528 98.3885C229.981 97.6303 225.821 93.2715 225.821 93.2715V84.4398L214.086 72.9561L208.61 77.204Z" fill="#826E3D"/>
<path d="M309.932 51.9309C309.932 51.9309 299.248 102.477 298.904 90.36C298.863 88.9336 303.729 76.8579 300.627 63.3558L296.836 65.0868C296.836 65.0868 293.045 92.091 287.186 95.5531C281.328 99.0152 285.119 88.629 285.119 88.629C285.119 88.629 277.192 108.297 277.192 102.823C277.192 100.746 283.051 94.5145 279.949 82.051C279.949 82.051 276.503 96.5918 272.023 96.2455C272.023 96.2455 275.124 86.1293 272.023 77.8584C272.023 77.8584 266.164 91.0524 263.751 91.7448C263.751 91.7448 265.878 84.2598 262.404 78.6547C262.404 78.6547 261.339 87.2441 258.926 87.2441C258.926 87.2441 261.339 79.6864 258.926 76.1966C258.926 76.1966 256.514 80.32 254.791 81.7048L252.034 74.7807C252.034 74.7807 233.424 92.091 230.322 90.0138C227.22 87.9366 209.299 73.742 209.299 73.742L195.876 78.6547L177.593 74.7807L174.147 76.5117C172.768 77.2041 153.813 75.8193 155.192 73.3958C156.571 70.9724 158.638 49.1613 171.045 47.7764C183.452 46.3916 202.407 61.971 219.983 64.0482C237.559 66.1255 294.71 46.3985 297.181 47.7764C299.652 49.1543 309.932 51.9309 309.932 51.9309Z" fill="#826E3D"/>
<path d="M307.864 38.0829L305.107 28.0428C305.107 28.0428 299.249 26.658 298.215 22.5035C297.181 18.349 272.023 11.7711 272.023 11.7711C272.023 11.7711 261.684 23.5421 257.203 20.7725C252.723 18.0028 236.939 22.5035 236.215 15.06C235.491 7.61657 208.265 6.23174 208.265 6.23174L204.564 0C204.564 0 204.819 2.42346 197.582 4.5007C190.345 6.57795 186.395 0 186.395 0H182.418C176.559 2.07725 147.265 25.6194 147.265 34.6208C147.265 41.8496 149.044 42.1577 149.743 41.9985C149.099 42.3447 147.538 43.8161 147.265 49.9959C146.921 57.8202 138.994 67.8602 139.684 69.5913C140.373 71.3223 140.717 76.5154 143.819 77.9002C146.921 79.2851 160.017 78.9389 167.254 75.1306C174.491 71.3223 192.757 66.4754 195.169 67.514C197.582 68.5526 218.604 71.5854 219.294 72.6656C219.983 73.7458 216.192 86.9016 217.915 85.863C219.638 84.8244 226.531 73.3995 226.531 73.3995L233.079 73.0533L228.943 92.441L241.35 72.7071L245.486 72.0147L241.35 95.2106C241.35 95.2106 253.068 70.2837 254.102 70.2837C255.136 70.2837 265.819 67.1678 265.819 67.1678C265.819 67.1678 264.096 97.5406 265.819 98.2815C267.542 99.0189 273.746 96.9417 274.78 65.4368C274.78 65.4368 276.503 95.5569 277.537 94.172C278.571 92.7872 281.328 93.1334 284.085 58.8588C284.085 58.8588 287.186 69.5913 287.186 79.2851C287.186 88.9789 294.424 70.9761 293.045 59.5512C293.045 59.5512 297.525 60.2436 297.87 61.2823C298.215 62.3209 297.525 76.8616 296.147 77.554C294.768 78.2465 299.938 84.132 302.006 61.6285L307.175 62.3209C307.175 62.3209 306.141 76.8616 303.729 81.3623C301.316 85.863 312 79.9775 312 61.9747C312 43.9719 307.864 38.0863 307.864 38.0863V38.0829ZM227.565 43.276C222.395 44.6608 218.949 48.4691 211.333 54.5831C203.716 60.6972 198.616 52.9698 193.102 45.007C187.588 37.0442 199.305 33.236 203.785 32.5435C208.265 31.8511 209.668 21.8111 209.668 21.8111C209.668 21.8111 211.023 14.8869 214.124 18.0028C217.226 21.1187 228.943 21.4649 231.011 21.8111C231.011 21.8111 234.458 28.389 236.181 33.9284C237.904 39.4677 232.734 41.8912 227.565 43.276ZM301.661 39.8139C298.559 52.2774 274.435 28.0428 274.435 28.0428L268.232 19.7339C272.023 19.7339 282.017 23.5421 284.429 21.4649C286.842 19.3876 304.763 27.3504 301.661 39.8139Z" fill="#D3C292"/>
<path d="M137.271 77.5508C135.203 78.2432 129 83.0901 129 83.0901L134.514 96.246C134.514 96.246 135.806 107.172 139.642 108.287C143.478 109.402 147.955 111.825 147.955 113.21C147.955 114.595 148.299 119.442 151.056 123.596C153.814 127.751 165.186 145.408 167.599 145.754C170.011 146.1 183.452 151.293 184.486 151.985C185.52 152.678 202.751 160.641 202.751 160.641C202.751 160.641 216.537 172.758 217.571 173.797C218.605 174.835 241.695 195.608 253.068 191.453C264.441 187.299 263.751 196.993 270.989 187.299C278.226 177.605 275.469 173.797 275.469 173.797L281.328 163.41C281.328 163.41 283.395 160.641 281.328 160.987C279.26 161.333 273.401 166.526 270.299 169.296C267.198 172.066 266.853 176.22 267.198 172.066C267.542 167.911 268.232 156.909 268.232 158.255C268.232 159.602 265.475 167.911 263.407 168.95C261.339 169.988 258.582 171.719 259.271 169.642C259.96 167.565 264.096 157.525 259.96 150.254C259.96 150.254 256.859 166.872 251 165.488C251 165.488 254.446 153.024 250.655 146.1C250.655 146.1 248.588 164.103 245.486 163.064C242.384 162.026 246.52 143.33 243.073 138.483C243.073 138.483 240.303 160.121 236.519 159.516C232.734 158.91 239.269 150.099 236.519 142.735C236.519 142.735 232.045 155.794 229.633 155.794V146.446L225.821 152.155C225.821 152.155 224.767 149.34 225.821 143.912C226.876 138.483 225.821 130.368 225.821 130.368C225.821 130.368 223.429 145.255 219.983 145.678V134.775L214.086 141.554C214.086 141.554 217.915 126.712 216.881 127.751C215.847 128.79 210.678 137.445 210.678 137.445C210.678 137.445 211.712 126.366 211.023 127.405C210.333 128.443 207.576 131.213 207.576 131.213C207.576 131.213 204.819 131.213 203.785 128.443C202.751 125.674 196.893 116.672 194.825 116.672C192.757 116.672 185.864 118.057 187.243 116.326C188.621 114.595 188.621 106.978 188.621 106.978C188.621 106.978 177.593 96.5922 176.559 95.2074C175.525 93.8226 159.672 84.4749 159.672 84.4749L137.271 77.5508Z" fill="#D3C292"/>
</g>
<g opacity="0.3">
<path d="M332.477 216.801L360.164 299.945C360.164 299.945 321.156 228.498 244.745 246.97C168.333 265.441 176.623 359.77 176.623 359.77L153.901 272.862" stroke="#262626" stroke-width="5" stroke-miterlimit="10"/>
<path d="M374.391 295.425L348.152 212.863L241.795 239.591L135.39 279.868L149.942 327.086L160.787 362.281" stroke="#262626" stroke-width="5" stroke-miterlimit="10"/>
<path d="M180.795 314.874L149.051 324.199" stroke="#262626" stroke-width="5" stroke-miterlimit="10"/>
<path d="M332.367 267.566L363.095 256.971" stroke="#262626" stroke-width="5" stroke-miterlimit="10"/>
<path d="M155.85 345.475L176.676 339.357" stroke="#262626" stroke-width="5" stroke-miterlimit="10"/>
<path d="M351.954 287.87L370.565 282.403" stroke="#262626" stroke-width="5" stroke-miterlimit="10"/>
<path d="M168.134 360.123C168.134 360.123 157.869 302.653 196.716 256.681" stroke="#262626" stroke-width="5" stroke-miterlimit="10"/>
<path d="M366.344 296.137C366.046 295.124 342.336 238.3 277.537 230.605" stroke="#262626" stroke-width="5" stroke-miterlimit="10"/>
<path d="M365.514 282.07C365.514 282.07 347.63 239.755 301.436 225.919" stroke="#262626" stroke-width="5" stroke-miterlimit="10"/>
<path d="M319.85 258.534L339.018 236.446L341.456 217.032L354.117 232.027" stroke="#262626" stroke-width="5" stroke-miterlimit="10"/>
<path d="M304.804 250.838C304.339 249.951 318.649 220.863 318.649 220.863L314.191 205.687" stroke="#262626" stroke-width="5" stroke-miterlimit="10"/>
<path d="M244.743 246.966L241.795 239.592" stroke="#262626" stroke-width="5" stroke-miterlimit="10"/>
<path d="M281.678 244.702L288.435 227.867" stroke="#262626" stroke-width="5" stroke-miterlimit="10"/>
<path d="M264.94 242.194L264.985 233.765" stroke="#262626" stroke-width="5" stroke-miterlimit="10"/>
<path d="M185.519 299.963L160.462 297.972" stroke="#262626" stroke-width="5" stroke-miterlimit="10"/>
<path d="M193.699 283.475L159.494 270.746L154.094 256.26" stroke="#262626" stroke-width="5" stroke-miterlimit="10"/>
<path d="M201.305 273.034L183.137 261.797C155.241 295.223 160.563 342.218 160.563 342.218" stroke="#262626" stroke-width="5" stroke-miterlimit="10"/>
<path d="M215.341 260.127L207.894 252.424" stroke="#262626" stroke-width="5" stroke-miterlimit="10"/>
<path d="M140.376 296.843L144.598 276.382L158.261 289.542" stroke="#262626" stroke-width="5" stroke-miterlimit="10"/>
<path d="M138.962 277.619L133.438 262.784L340.625 197.339L345.24 213.052" stroke="#262626" stroke-width="5" stroke-miterlimit="10"/>
<path d="M291.182 226.069L287.498 213.528" stroke="#262626" stroke-width="5" stroke-miterlimit="10"/>
<path d="M188.76 259.018L185.261 247.105" stroke="#262626" stroke-width="5" stroke-miterlimit="10"/>
<path d="M222.46 245.271L219.608 235.562" stroke="#262626" stroke-width="5" stroke-miterlimit="10"/>
<path d="M340.532 214.826L241.548 239.499L144.467 276.272L131.815 321.27L224.782 287.357L324.691 260.211L340.532 214.826Z" fill="#444444"/>
<path d="M315.562 264.153L343.249 347.296C343.249 347.296 304.241 275.85 227.83 294.321C151.419 312.792 159.709 407.122 159.709 407.122L136.987 320.213" stroke="#262626" stroke-width="5" stroke-miterlimit="10"/>
<path d="M357.476 342.777L331.237 260.215L224.881 286.943L118.475 327.22L133.028 374.437L143.873 409.633" stroke="#262626" stroke-width="5" stroke-miterlimit="10"/>
<path d="M163.881 362.226L132.136 371.551" stroke="#262626" stroke-width="5" stroke-miterlimit="10"/>
<path d="M315.453 314.918L346.181 304.323" stroke="#262626" stroke-width="5" stroke-miterlimit="10"/>
<path d="M138.936 392.824L159.761 386.707" stroke="#262626" stroke-width="5" stroke-miterlimit="10"/>
<path d="M335.04 335.221L353.651 329.754" stroke="#262626" stroke-width="5" stroke-miterlimit="10"/>
<path d="M151.22 407.474C151.22 407.474 140.954 350.003 179.801 304.031" stroke="#262626" stroke-width="5" stroke-miterlimit="10"/>
<path d="M349.429 343.489C349.131 342.475 325.422 285.651 260.623 277.957" stroke="#262626" stroke-width="5" stroke-miterlimit="10"/>
<path d="M348.599 329.421C348.599 329.421 330.715 287.107 284.521 273.271" stroke="#262626" stroke-width="5" stroke-miterlimit="10"/>
<path d="M302.936 305.884L322.103 283.796L323.675 262.11L338.716 278.911" stroke="#262626" stroke-width="5" stroke-miterlimit="10"/>
<path d="M287.889 298.19C287.425 297.302 301.734 268.214 301.734 268.214L297.278 253.044" stroke="#262626" stroke-width="5" stroke-miterlimit="10"/>
<path d="M227.829 294.315L224.881 286.941" stroke="#262626" stroke-width="5" stroke-miterlimit="10"/>
<path d="M264.763 292.054L271.52 275.218" stroke="#262626" stroke-width="5" stroke-miterlimit="10"/>
<path d="M248.025 289.545L248.07 281.116" stroke="#262626" stroke-width="5" stroke-miterlimit="10"/>
<path d="M168.605 347.315L143.548 345.323" stroke="#262626" stroke-width="5" stroke-miterlimit="10"/>
<path d="M176.785 330.826L142.58 318.097L137.179 303.611" stroke="#262626" stroke-width="5" stroke-miterlimit="10"/>
<path d="M184.39 320.385L166.222 309.148C138.319 342.571 143.648 389.569 143.648 389.569" stroke="#262626" stroke-width="5" stroke-miterlimit="10"/>
<path d="M198.427 307.477L190.979 299.773" stroke="#262626" stroke-width="5" stroke-miterlimit="10"/>
<path d="M123.462 344.194L128.327 325.322L141.347 336.893" stroke="#262626" stroke-width="5" stroke-miterlimit="10"/>
<path d="M122.048 324.97L116.523 310.135L323.71 244.69L328.326 260.403" stroke="#262626" stroke-width="5" stroke-miterlimit="10"/>
<path d="M274.267 273.421L270.583 260.88" stroke="#262626" stroke-width="5" stroke-miterlimit="10"/>
<path d="M171.846 306.368L168.347 294.455" stroke="#262626" stroke-width="5" stroke-miterlimit="10"/>
<path d="M205.545 292.622L202.693 282.914" stroke="#262626" stroke-width="5" stroke-miterlimit="10"/>
</g>
<defs>
<clipPath id="clip0_2001_2">
<rect width="183" height="192" fill="white" transform="translate(129)"/>
</clipPath>
</defs>
</svg>
