<svg width="447" height="206" viewBox="0 0 447 206" fill="none" xmlns="http://www.w3.org/2000/svg">
<path d="M292.725 133.415H57.7183V197.005H292.725V133.415Z" fill="#44C4FC"/>
<path d="M206.001 1.12391C234.3 0.671356 262.678 0.99161 290.98 1.0682C290.858 5.59021 290.889 10.1331 290.851 14.6586C295.581 14.6482 300.314 14.6621 305.044 14.7073L305.03 29.3247C309.739 29.3247 314.447 29.2725 319.153 29.3212L319.034 43.4721L333.652 43.479L340.391 43.486L340.329 57.3688C344.999 57.3201 349.666 57.3132 354.337 57.348C354.424 73.9113 354.365 90.4781 354.152 107.041L411.989 107.059L411.978 121.279L432.228 121.3L432.148 135.319C432.113 137.714 432.092 140.105 432.088 142.5L439.73 142.427L445.971 142.354L445.943 149.188C446.476 158.66 446.225 168.243 446.229 177.733L446.086 191.832C443.425 191.874 440.667 192.079 438.016 191.947C436.306 192.253 434.464 192.107 432.733 192.093L432.823 205.638L92.8151 205.972L92.8326 191.8L175.397 191.598C189.931 191.612 204.573 192.277 219.09 191.825C215.82 190.662 207.604 192.068 203.619 191.734C202.748 191.661 202.341 191.769 201.766 191.055C209.46 190.178 217.822 191.223 225.582 191.358C238.733 191.592 251.913 191.442 265.071 191.442C270.598 191.442 277.637 192.211 282.973 190.714C284.331 187.271 282.907 182.307 283.544 178.558C283.565 178.44 283.589 178.325 283.61 178.207C274.011 177.921 264.249 178.715 254.626 178.763C238.507 178.844 222.333 178.342 206.203 178.29L206.329 163.439C196.866 163.937 187.312 163.715 177.839 163.565C177.916 168.47 177.867 173.382 177.877 178.29L149.311 178.078L149.349 164.101L142.254 164.219L142.314 156.606C130.562 156.697 118.815 156.69 107.064 156.585L107.095 163.328C92.7873 163.314 78.4797 163.391 64.172 163.561L64.28 170.687C73.8231 170.739 83.3661 170.708 92.9057 170.59L92.8465 183.877C66.8817 183.923 40.9204 184.218 14.9626 184.768L15.0009 177.754C15.0183 173.027 15.0671 168.299 14.8755 163.575C14.6457 165.761 14.7466 168.028 14.7292 170.224L0.867402 170.343C0.843022 168.404 0.456457 165.42 1.33762 163.721C0.125585 161.076 0.933593 152.961 0.971905 149.755C3.36812 149.654 5.67727 149.626 8.07348 149.8L8.05953 135.461C12.7544 135.343 17.4912 135.698 22.1826 135.911L22.1686 121.513C33.878 121.067 45.6606 121.279 57.3769 121.269L57.4536 107.386C63.9074 106.202 84.7837 107.111 92.6271 107.146C93.7381 101.082 92.8987 85.9212 92.8778 79.0042C97.6946 78.7744 102.567 78.8615 107.391 78.8197L107.374 64.909C117.658 64.4634 128.03 64.7245 138.326 64.7558C142.042 64.6479 145.741 64.7071 149.457 64.7907L149.422 70.4789C149.422 73.2394 149.523 76.0487 149.318 78.8023C156.778 78.6422 164.27 78.7605 171.733 78.7396C171.552 67.0151 171.5 55.2906 171.584 43.5661L177.769 43.5104L177.825 29.37L191.871 29.2968C191.812 24.6112 191.784 19.9256 191.791 15.2365H206.036L205.984 1.12391H206.001Z" fill="#44C4FC"/>
<path d="M206.001 1.12391C234.3 0.671356 262.678 0.99161 290.98 1.0682C290.858 5.59021 290.889 10.1331 290.851 14.6586C295.581 14.6482 300.314 14.6621 305.044 14.7073L305.03 29.3247C309.739 29.3247 314.447 29.2725 319.153 29.3212L319.034 43.4721L333.652 43.479L340.391 43.486L340.329 57.3688C344.999 57.3201 349.666 57.3132 354.337 57.348C354.424 73.9113 354.365 90.4781 354.152 107.041L411.989 107.059L411.978 121.279L332.788 121.335C321.291 121.359 309.411 120.604 297.963 121.401C297.925 119.114 297.977 116.816 297.987 114.529C298.169 112.092 298.158 109.607 298.235 107.163C293.561 107.504 288.796 107.337 284.112 107.351L284.199 92.9601C272.235 93.1411 260.244 92.9775 248.276 92.9601L248.346 106.725C241.279 106.739 234.213 106.603 227.146 106.523L227.163 121.161L213.357 121.105L213.465 135.277L206.479 135.113L206.594 121.084L198.381 121.224C198.576 116.357 198.478 111.455 198.489 106.582C191.551 106.564 184.617 106.669 177.686 106.899C165.962 107.289 154.152 107.062 142.422 107.107C142.46 100.358 143.087 93.0193 142.216 86.3564C141.133 85.7576 140.088 85.9177 138.873 85.9108C128.424 85.3607 117.763 85.7367 107.29 85.7472L107.422 114.167L92.9092 114.185C92.8326 112.392 92.0106 108.58 92.6445 107.135C93.7555 101.071 92.9162 85.9108 92.8953 78.9937C97.7121 78.764 102.585 78.851 107.408 78.8092L107.391 64.8986C117.676 64.453 128.048 64.7141 138.343 64.7454C142.059 64.6375 145.758 64.6967 149.474 64.7802L149.44 70.4684C149.44 73.229 149.541 76.0382 149.335 78.7918C156.796 78.6317 164.287 78.75 171.751 78.7292C171.57 67.0046 171.518 55.2802 171.601 43.5556L177.787 43.4999L177.842 29.3595L191.889 29.2864C191.83 24.6007 191.802 19.9152 191.809 15.226H206.054L206.001 1.11345V1.12391Z" fill="#B9EEFB"/>
<path d="M206.001 1.12391C234.3 0.671356 262.678 0.99161 290.98 1.0682C290.858 5.59021 290.889 10.1331 290.851 14.6586C295.581 14.6482 300.314 14.6621 305.044 14.7073L305.03 29.3247C286.156 29.3943 267.23 29.6728 248.36 29.3665L248.426 43.5173L227.512 43.4721C227.616 48.1995 227.654 52.9304 227.637 57.6612C210.773 57.6612 193.846 57.9815 176.989 57.5812L177.519 89.7714C177.62 95.3551 178.173 101.364 177.686 106.909C165.962 107.299 154.152 107.073 142.422 107.118C142.46 100.368 143.087 93.0298 142.216 86.3668C141.133 85.7681 140.088 85.9282 138.873 85.9212C128.424 85.3712 117.763 85.7472 107.29 85.7576L107.422 114.178L92.9092 114.195C92.8326 112.402 92.0106 108.59 92.6445 107.146C93.7555 101.082 92.9162 85.9212 92.8953 79.0042C97.7121 78.7744 102.585 78.8615 107.408 78.8197L107.391 64.909C117.676 64.4634 128.048 64.7245 138.343 64.7558C142.059 64.6479 145.758 64.7071 149.474 64.7907L149.44 70.4789C149.44 73.2394 149.541 76.0487 149.335 78.8023C156.796 78.6422 164.287 78.7605 171.751 78.7396C171.57 67.0151 171.518 55.2906 171.601 43.5661L177.787 43.5104L177.842 29.37L191.889 29.2968C191.83 24.6112 191.802 19.9256 191.809 15.2365H206.054L206.001 1.12391Z" fill="#F8FBFC"/>
<path d="M142.982 70.0474C145.062 70.3328 147.364 70.8968 149.44 70.4755C149.44 73.2361 149.541 76.0454 149.335 78.799L142.652 78.8268C143.035 75.9827 142.909 72.9263 142.982 70.0474Z" fill="#7DDAFA"/>
<path d="M138.343 64.7557C142.059 64.6478 145.758 64.707 149.474 64.7906L149.44 70.4788C147.367 70.9 145.065 70.3361 142.982 70.0506C142.909 72.926 143.035 75.9859 142.652 78.83C142.15 74.409 142.488 69.8243 142.585 65.3824C141.516 64.7035 139.632 64.8358 138.347 64.7592L138.343 64.7557Z" fill="#93E2FB"/>
<path d="M305.03 29.3246C309.739 29.3246 314.447 29.2723 319.153 29.3211L319.034 43.4719L333.652 43.4789L333.69 57.5915L304.918 57.6611C304.831 48.2202 304.977 38.7654 305.026 29.3246H305.03Z" fill="#F8FBFC"/>
<path d="M107.293 85.7576C117.766 85.7472 128.427 85.3712 138.876 85.9212C140.092 85.9282 141.136 85.7681 142.22 86.3668C143.09 93.0298 142.46 100.368 142.425 107.118C154.159 107.069 165.966 107.299 177.689 106.909C184.62 106.683 191.554 106.578 198.492 106.592C198.482 111.466 198.579 116.364 198.384 121.234L206.597 121.095L206.482 135.124L213.469 135.287L213.361 121.116L227.167 121.171L227.149 106.533C234.213 106.613 241.283 106.749 248.35 106.735L248.28 92.9706C260.247 92.9845 272.239 93.1516 284.202 92.9706L284.115 107.362C288.8 107.348 293.564 107.515 298.238 107.174C298.162 109.617 298.172 112.103 297.991 114.54C295.563 114.735 293.157 114.933 290.719 114.937L290.736 121.29L241.164 121.391C241.203 125.979 241.297 130.574 241.182 135.162L227.292 135.225L227.334 156.153C222.573 156.199 217.805 156.303 213.044 156.275L213.131 149.56C199.095 149.553 185.017 149.316 170.988 149.651L171.037 134.845L156.534 134.978L156.628 121.272L121.207 121.321L121.267 135.381C111.835 135.381 102.39 135.468 92.9545 135.368L92.9719 142.622C76.6129 142.542 60.2886 143.346 43.9296 143.162L43.4351 143.364C36.3648 143.294 29.2946 143.287 22.2244 143.346L22.3776 149.842C17.7628 150.239 12.6883 150.316 8.09087 149.804L8.07697 135.465C12.7719 135.347 17.5085 135.702 22.2 135.914L22.1861 121.516C33.8955 121.07 45.678 121.283 57.3944 121.272L57.471 107.39C63.9247 106.206 84.8011 107.114 92.6445 107.149C92.0106 108.594 92.836 112.406 92.9092 114.199L107.422 114.181L107.29 85.7611L107.293 85.7576Z" fill="#93E2FB"/>
<path d="M57.3944 121.265L57.471 107.382C66.9723 108.145 76.7905 107.532 86.3335 107.605C85.5185 112.016 86.1002 117.018 86.2116 121.502L86.2813 128.569L57.5546 128.638L57.4954 136.227L43.947 136.144C43.947 138.476 43.9958 140.822 43.9191 143.151L43.4246 143.353C36.3544 143.283 29.2841 143.276 22.2139 143.336L22.3672 149.831C17.7524 150.228 12.6778 150.305 8.08044 149.793L8.0665 135.454C12.7614 135.336 17.4981 135.691 22.1895 135.903L22.1756 121.505C33.885 121.06 45.6675 121.272 57.3839 121.262L57.3944 121.265Z" fill="#F8FBFC"/>
<path d="M107.293 85.7576C117.766 85.7472 128.427 85.3712 138.876 85.9212C129.594 86.9064 117.108 86.9169 107.872 86.0605C108.338 95.5884 108.063 105.193 108.028 114.731L92.9162 114.679L92.8604 120.994C91.1329 120.969 87.6187 120.475 86.2186 121.506C86.1072 117.022 85.5255 112.019 86.3405 107.609C76.7974 107.539 66.9757 108.152 57.478 107.386C63.9317 106.202 84.808 107.111 92.6515 107.146C92.0176 108.59 92.843 112.402 92.9162 114.195L107.429 114.178L107.297 85.7576H107.293Z" fill="#B9EEFB"/>
<path d="M86.2151 121.502C87.6152 120.468 91.1329 120.963 92.8569 120.99C92.951 124.005 93.2609 127.239 92.7455 130.209C92.8151 129.46 92.944 129.401 92.533 128.729C92.446 126.435 92.4181 124.141 92.4495 121.85L87.3645 121.871L87.3192 129.324L65.3667 129.37C65.1472 131.744 65.297 134.654 63.6426 136.499C61.7514 137.456 59.4492 136.729 57.5058 136.231L57.565 128.642L86.2917 128.572L86.2221 121.506L86.2151 121.502Z" fill="#B9EEFB"/>
<path d="M276.651 163.589L326.766 163.53C336.031 163.516 345.438 163.822 354.685 163.314L354.588 178.213L339.852 178.203C339.827 182.694 339.953 187.261 339.744 191.745C322.354 192.124 304.908 191.8 287.508 191.88C264.74 191.985 241.847 192.389 219.09 191.825C215.82 190.662 207.604 192.068 203.619 191.734C202.748 191.661 202.341 191.769 201.766 191.055C209.46 190.178 217.822 191.222 225.582 191.358C238.733 191.591 251.913 191.442 265.071 191.442C270.598 191.442 277.637 192.211 282.973 190.714C284.331 187.271 282.907 182.307 283.544 178.558C283.565 178.44 283.589 178.325 283.61 178.206C284.613 176.177 284.153 172.88 284.136 170.621L276.655 170.691V163.589H276.651Z" fill="#199BFB"/>
<path d="M411.982 121.276L432.231 121.297L432.151 135.315L297.862 135.187L297.967 121.401C309.415 120.601 321.295 121.359 332.792 121.335L411.982 121.279V121.276Z" fill="#93E2FB"/>
<path d="M43.6127 163.492C50.467 163.614 57.3247 163.638 64.179 163.561L64.287 170.687C57.4397 170.67 50.3834 170.29 43.5605 170.722C43.4664 168.303 43.5291 165.911 43.6092 163.495L43.6127 163.492Z" fill="#20A6FC"/>
<path d="M8.08745 149.797C12.6883 150.305 17.7593 150.232 22.3741 149.835L24.1435 150.315C18.8182 150.601 13.4754 150.493 8.14315 150.465C8.10832 152.627 7.65207 155.722 8.45661 157.72L9.34476 158.047C9.29949 158.197 9.24723 158.346 9.20195 158.496C8.72132 160.104 8.66561 161.267 8.86761 162.924C16.206 163.056 23.7882 162.66 31.1405 162.381C34.202 162.263 37.5211 161.848 40.5721 162.092C41.5822 162.176 42.7803 162.19 43.4316 163.063C43.5256 163.185 43.5535 163.349 43.6127 163.492C43.5326 165.907 43.4699 168.299 43.5639 170.718L43.4664 177.778C33.9826 177.841 24.4987 177.834 15.0148 177.754C15.0323 173.026 15.081 168.299 14.8895 163.575C14.6596 165.761 14.7606 168.027 14.7432 170.224L0.881374 170.342C0.856994 168.403 0.470387 165.42 1.35155 163.721C0.139515 161.076 0.947566 152.961 0.985877 149.755C3.38209 149.654 5.69124 149.626 8.08745 149.8V149.797Z" fill="#69CEF7"/>
<path d="M92.9649 142.615L92.9928 149.546C76.477 149.505 59.9264 149.703 43.4176 149.411L43.4281 143.357L43.9226 143.155C60.2851 143.34 76.6094 142.532 92.9649 142.615Z" fill="#7DDAFA"/>
<path d="M22.2174 143.339C29.2876 143.28 36.3579 143.287 43.4281 143.357L43.4176 149.41L43.3619 156.129L36.4031 156.004L36.4171 150.211C32.3317 150.211 28.2184 150.11 24.14 150.316L22.3706 149.835L22.2174 143.339Z" fill="#B9EEFB"/>
<path d="M439.733 142.424L445.975 142.351L445.947 149.184C443.819 149.358 441.652 149.323 439.521 149.369L439.733 142.427V142.424Z" fill="#7DDAFA"/>
<path d="M389.859 149.668L403.731 149.515C403.696 150.98 403.672 152.404 403.787 153.866C403.863 154.827 403.797 155.29 403.285 156.146C402.205 156.881 401.035 156.836 399.778 156.926L396.88 156.895C394.655 156.306 392.129 156.595 389.841 156.637L389.859 149.664V149.668Z" fill="#7DDAFA"/>
<path d="M399.778 156.926C400.99 156.919 402.056 156.905 403.236 157.24C404.664 159.039 404.118 161.483 404.023 163.69L396.8 163.732L396.88 156.895L399.778 156.926Z" fill="#0496FC"/>
</svg>
