<svg width="426" height="207" viewBox="0 0 426 207" fill="none" xmlns="http://www.w3.org/2000/svg">
<path d="M368.521 148.725H263.189V191.759H368.521V148.725Z" fill="#44C4FC"/>
<path d="M149.424 0.437988L220.283 0.580714C220.151 5.20368 220.21 9.84406 220.189 14.4705L234.274 14.5088V28.8407L248.87 28.8372L248.689 35.6115C248.456 38.3164 248.449 40.9829 248.466 43.6948C251.148 43.6982 253.893 43.5903 256.571 43.7609C265.78 43.6948 274.992 43.6878 284.201 43.7365C284.194 57.5706 284.5 71.45 284.124 85.2736C283.999 90.0567 284.047 94.9303 283.682 99.696L290.731 99.5881C297.84 99.3584 304.938 99.5568 312.043 99.7169L312.081 114.317H326.322L326.256 127.611V134.748L347.436 134.723C347.516 139.406 347.512 144.102 347.721 148.777L354.499 148.77C354.499 155.384 354.879 162.242 354.349 168.821C353.161 162.802 353.997 155.457 354.084 149.32C351.859 149.316 349.63 149.205 347.408 149.139L347.401 155.711C337.976 155.878 328.551 155.937 319.127 155.889L319.176 162.959C312.105 163.081 305.021 163.008 297.951 163.015L298.042 177.221C290.989 177.27 283.932 177.249 276.876 177.166C277.291 181.799 277.301 186.61 276.817 191.236C272.376 192.138 267.699 191.835 263.189 191.755L263.147 206.049C248.787 205.29 234.322 205.875 219.935 205.488C219.855 200.904 220.088 196.225 219.576 191.668C218.291 191.327 196.105 191.873 192.58 191.856C187.854 191.832 183.128 191.456 178.408 191.529L178.018 192.274C178.095 192.573 178.168 192.876 178.227 193.179C178.854 196.333 179.046 202.47 177.203 205.231C174.866 206.776 166.413 205.516 163.38 205.488L163.401 198.937L156.362 198.794C155.951 194.119 156.167 189.583 156.048 184.915C152.008 183.63 144.956 186.471 141.483 184.044C140.595 180.118 141.267 175.136 141.243 171.094H97.4666C89.0973 171.101 80.4389 171.571 72.1148 170.746C70.4256 168.759 71.474 158.813 71.5193 155.931L64.4003 156.028L64.4455 148.944C43.3463 149.522 21.9963 149.205 0.879704 149.083C0.771735 144.303 0.722984 139.524 0.736916 134.744L15.5252 134.692C15.5565 130.09 15.0898 125.091 15.7307 120.548L29.2233 120.555L29.2372 106.491C34.0714 106.425 38.9022 106.397 43.7364 106.408C43.6354 101.715 43.618 97.019 43.6842 92.3264L106.867 92.309C107.302 82.9586 106.957 73.4029 106.968 64.0316L106.982 42.814H121.143L121.157 28.9242C125.845 28.8163 130.543 28.8268 135.231 28.778L135.256 14.5784L149.407 14.5088V0.441468L149.424 0.437988Z" fill="#69CEF7"/>
<path d="M149.424 0.437988L220.283 0.580714C220.151 5.20368 220.21 9.84406 220.189 14.4705L234.274 14.5088V28.8407L248.87 28.8372L248.689 35.6115C248.456 38.3164 248.449 40.9829 248.466 43.6948C251.148 43.6982 253.893 43.5903 256.571 43.7609C265.78 43.6948 274.992 43.6878 284.201 43.7365C284.194 57.5706 284.5 71.45 284.124 85.2736C282.421 86.137 278.593 85.4372 276.66 85.3258L276.646 78.7743L262.192 78.5063C262.76 87.7313 262.642 97.1443 262.586 106.39C260.287 106.397 257.94 106.314 255.645 106.418L241.389 106.408L241.407 92.2568L198.613 92.2464C198.762 96.9494 198.623 101.68 198.585 106.383L163.554 106.449L163.578 120.496L107.118 120.503C107.208 115.967 107.612 110.843 106.853 106.383C105.658 104.316 106.748 95.094 106.884 92.3056C107.32 82.9552 106.975 73.3994 106.985 64.0282L106.999 42.8106H121.161L121.174 28.9208C125.862 28.8128 130.561 28.8233 135.249 28.7746L135.273 14.5749L149.424 14.5053V0.437988Z" fill="#B9EEFB"/>
<path d="M149.424 0.437988L220.283 0.580714C220.151 5.20368 220.21 9.84405 220.189 14.4705L234.274 14.5088V28.8407L248.87 28.8372L248.689 35.6115C240.832 36.6315 231.808 35.8065 223.846 35.803C215.599 35.7995 206.804 36.454 198.602 35.8308L198.564 36.36C198.317 40.2728 199.87 45.8948 198.083 49.2785C197.185 49.7659 196.269 49.7624 195.276 49.8355L149.354 49.8425L149.403 64.1013L106.978 64.0316L106.992 42.814H121.154L121.168 28.9242C125.855 28.8163 130.554 28.8268 135.242 28.778L135.266 14.5784L149.417 14.5088V0.441468L149.424 0.437988Z" fill="#F8FBFC"/>
<path d="M256.571 43.7611C265.78 43.695 274.992 43.688 284.201 43.7368C284.194 57.5709 284.5 71.4502 284.124 85.2739C282.421 86.1372 278.593 85.4375 276.66 85.3261L276.646 78.7745L262.192 78.5065L248.348 78.5169L248.449 44.0814C251.173 44.0988 253.854 43.9526 256.568 43.7646L256.571 43.7611Z" fill="#F8FBFC"/>
<path d="M195.28 49.8357C196.276 49.7626 197.192 49.7661 198.087 49.2787C199.873 45.8951 198.32 40.273 198.567 36.3602L198.606 35.8311C198.923 38.4384 198.968 40.9692 198.975 43.5905C201.294 43.5522 203.586 43.6219 205.902 43.7228L205.833 49.4563C202.325 49.6547 198.801 49.9297 195.283 49.8322L195.28 49.8357Z" fill="#D6F8FC"/>
<path d="M262.192 78.5029L276.646 78.771L276.66 85.3225C278.593 85.4339 282.421 86.1336 284.124 85.2703C283.999 90.0534 284.047 94.927 283.682 99.6927L290.731 99.5848C297.84 99.355 304.938 99.5535 312.043 99.7136L312.081 114.314H326.322L326.256 127.608L311.75 127.469C311.841 125.432 312.3 122.7 311.12 120.983L309.963 120.942C308.473 120.959 306.557 120.736 305.303 121.596C304.422 123.131 304.892 125.533 304.993 127.263C288.547 127.869 271.983 127.545 255.523 127.535L255.648 106.418C257.943 106.317 260.291 106.397 262.589 106.39C262.645 97.1445 262.764 87.7315 262.196 78.5064L262.192 78.5029Z" fill="#93E2FB"/>
<path d="M290.731 99.5882C297.84 99.3585 304.938 99.5569 312.043 99.717L312.081 114.317H326.322L326.256 127.611L311.75 127.472C311.841 125.436 312.3 122.703 311.12 120.987L309.963 120.945C303.823 120.096 297.477 120.928 291.285 120.447C290.623 119.612 290.801 118.574 290.741 117.527C291.062 111.563 290.661 105.562 290.734 99.5917L290.731 99.5882Z" fill="#F8FBFC"/>
<path d="M283.682 99.6958L290.731 99.5879C290.661 105.562 291.058 111.563 290.738 117.523C290.313 113.478 290.463 109.328 290.445 105.259L283.288 105.492L283.682 99.6958Z" fill="#B9EEFB"/>
<path d="M43.6946 92.3231L106.877 92.3057C106.741 95.0941 105.648 104.316 106.846 106.383C88.0594 106.345 69.1892 105.962 50.4131 106.307L50.4653 120.475H43.813C43.8096 124.036 44.4609 131.479 43.5135 134.671C42.4303 127.183 43.5727 114.425 43.7469 106.404C43.6459 101.712 43.6284 97.0157 43.6946 92.3231Z" fill="#93E2FB"/>
<path d="M29.2477 106.491C34.0819 106.425 38.9126 106.397 43.7469 106.408C43.5727 114.428 42.4303 127.187 43.5135 134.675L15.9814 134.637C15.9988 129.993 16.2775 125.161 15.7411 120.552L29.2338 120.559L29.2477 106.495V106.491Z" fill="#F8FBFC"/>
<path d="M347.432 134.72C363.962 134.591 380.495 134.57 397.025 134.657C396.972 139.371 396.857 144.095 396.955 148.805H411.158L411.082 162.969C415.818 162.921 420.572 162.792 425.309 162.882L425.225 170.785C425.285 175.362 424.912 180.553 425.511 185.054C425.905 189.339 425.588 193.906 425.588 198.223C399.539 198.582 373.446 198.453 347.394 198.327L347.411 205.345L340.996 205.311C340.752 200.67 340.78 195.981 340.689 191.334L354.513 191.24L354.548 184.166C356.822 184.427 359.096 184.66 361.378 184.866L361.412 170.113C359.347 170.12 356.519 170.638 354.61 169.883L354.346 168.818C354.875 162.238 354.495 155.377 354.495 148.766L347.718 148.773C347.509 144.098 347.512 139.402 347.432 134.72Z" fill="#B9EEFB"/>
<path d="M347.432 134.72C363.962 134.591 380.495 134.57 397.025 134.657C396.972 139.371 396.857 144.095 396.955 148.805H411.158L411.082 162.969C406.341 163.735 401.197 163.408 396.398 163.394L375.703 163.286L375.619 155.896L368.577 155.958L368.517 148.724C363.847 148.575 359.169 148.697 354.495 148.766L347.718 148.773C347.509 144.098 347.512 139.402 347.432 134.72Z" fill="#F8FBFC"/>
<path d="M354.495 148.766C359.169 148.697 363.847 148.578 368.517 148.725L368.577 155.958L375.619 155.896L375.703 163.286L375.595 177.214C385.026 177.068 394.458 177.002 403.889 177.009C404.015 179.522 404.478 182.641 403.855 185.068C389.777 184.73 375.396 185.983 361.371 184.866L361.405 170.113C359.34 170.12 356.512 170.638 354.603 169.883L354.339 168.818C354.868 162.238 354.488 155.377 354.488 148.766H354.495Z" fill="#AFE7FA"/>
<path d="M403.959 170.008C410.981 170.067 418.249 170.05 425.225 170.788C425.285 175.366 424.912 180.556 425.511 185.057L403.855 185.071C404.475 182.648 404.015 179.529 403.889 177.012L403.959 170.008Z" fill="#69CEF7"/>
</svg>
