<?xml version="1.0" encoding="UTF-8"?>
<svg id="_Слой_1" data-name=" Слой 1" xmlns="http://www.w3.org/2000/svg" xmlns:xlink="http://www.w3.org/1999/xlink" viewBox="0 0 2551 2984">
  <defs>
    <style>
      .cls-1 {
        fill: url(#_Безымянный_градиент);
      }

      .cls-2 {
        fill: #fdc698;
      }

      .cls-3 {
        fill: url(#_Безымянный_градиент_2);
      }

      .cls-4 {
        fill: #d89b61;
      }

      .cls-5 {
        fill: #63382a;
      }

      .cls-6 {
        fill: #a44934;
      }

      .cls-7 {
        fill: #88979a;
      }

      .cls-8 {
        fill: #964c43;
      }

      .cls-9 {
        fill: #482423;
      }

      .cls-10 {
        fill: #585f83;
      }

      .cls-11 {
        fill: #856769;
      }

      .cls-12 {
        fill: #101d33;
      }

      .cls-13 {
        fill: #312e40;
      }

      .cls-14 {
        fill: #c78666;
      }

      .cls-15 {
        fill: url(#_Безымянный_градиент_2-2);
      }

      .cls-16 {
        fill: #301b1d;
      }

      .cls-17 {
        fill: #4e4352;
      }

      .cls-18 {
        fill: #efaf94;
      }

      .cls-19 {
        fill: #054b64;
      }

      .cls-20 {
        fill: #9a4959;
      }

      .cls-21 {
        fill: #c29f81;
      }

      .cls-22 {
        fill: #1c292a;
      }

      .cls-23 {
        fill: #d4b694;
      }

      .cls-24 {
        fill: #963e2a;
      }

      .cls-25 {
        fill: #4e3d75;
      }

      .cls-26 {
        fill: #8c849e;
      }

      .cls-27 {
        fill: #61190d;
      }
    </style>
    <linearGradient id="_Безымянный_градиент" data-name="Безымянный градиент" x1="954.81" y1="2282.13" x2="1034.21" y2="2292.23" gradientTransform="translate(0 2981.89) scale(1 -1)" gradientUnits="userSpaceOnUse">
      <stop offset="0" stop-color="#3d1a15"/>
      <stop offset="1" stop-color="#34212c"/>
    </linearGradient>
    <linearGradient id="_Безымянный_градиент_2" data-name="Безымянный градиент 2" x1="956.4" y1="967.52" x2="972.87" y2="969.62" gradientUnits="userSpaceOnUse">
      <stop offset="0" stop-color="#3d1a15"/>
      <stop offset="1" stop-color="#34212c"/>
    </linearGradient>
    <linearGradient id="_Безымянный_градиент_2-2" data-name="Безымянный градиент 2" x1="960.4" y1="964.18" x2="1087.54" y2="980.42" xlink:href="#_Безымянный_градиент_2"/>
  </defs>
  <path class="cls-9" d="M2215.9,1519.5c20.1.3,40.1.3,60.2.2,0,59.5-.3,119.1.5,178.6-20.2-.2-40.8-1.1-61-.1,2.1-52.6.9-106.3,0-159l.4-19.7h-.1Z"/>
  <path class="cls-5" d="M1409.8,2737.1c3.7-25.5,1.7-53.6,1.7-79.4l-.3-141.2h116.9c-1,71-3.8,149.8-.2,220.1.2,18.8,2.2,40-.4,58.5-2.8-18.6-.8-39.9-.4-58.7l-116.2.5c-.1,11.6-.3,23.2-1,34.8-.6-11.5-.2-23.1-.1-34.6h0Z"/>
  <path class="cls-16" d="M1409.9,2771.7c.7-11.6.9-23.2,1-34.8l116.2-.5c-.4,18.8-2.5,40.1.4,58.7-39.1,1.3-78.6,0-117.7,0l.2-23.4h-.1Z"/>
  <g>
    <path class="cls-9" d="M1148.2,426.8v-62.4h254.5c0,20.5,1.1,41.9-1,62.3-29.6-1.2-59.8-.2-89.5-.2l-164,.4v-.1Z"/>
    <path class="cls-9" d="M1084.4,426.5c21.3-.1,42.5,0,63.8.3v58h-65.1l-.3-1.3c4.6-15.5,1.6-40.4,1.6-57Z"/>
    <path class="cls-19" d="M1148.2,426.8l164-.4c29.7,0,59.8-1,89.5.2l.9.6v53.7c20.2-.2,40.6-.7,60.8.3l1.2.4c.2,41.1-.7,82.3.2,123.4l61.8.4.2,62.1c-20.7-1.1-41.5-.7-62.3-.6v56.4c-20.5-.1-41.3.2-61.9-.6l.3,122.7c-29.1,1.6-59,.3-88.1.3l-166.2.2c-1.2-38.9-.1-78.1,0-117.1-21.8.3-43.5.4-65.3.2,0-23-.3-46.1,1.1-69-14.7.2-45.7,4.7-57.9-2.1l-1.8-7.1.2-49,.9-.2c19.4-1.6,39.4-.7,58.8-.6,0-38.8-1.1-77.5-1.3-116.3h65v-57.9h-.1Z"/>
    <path class="cls-9" d="M1402.6,427.2c20.6-1.3,41.4-.9,62-.9,0,17.1,2.4,38.5-1.2,55-20.2-1.1-40.6-.5-60.9-.3v-53.7l.1-.1Z"/>
    <path class="cls-9" d="M1464.6,481.7c20.5-1.6,41.3-.9,61.9-.8,0,41.4-1.1,83.1,0,124.5l-61.8-.4c-.8-41.1,0-82.3-.2-123.4l.1.1Z"/>
    <path class="cls-9" d="M1024.6,482.8c19.4,0,38.8-.3,58.2.6l.3,1.3c.2,38.8,1.3,77.5,1.3,116.3-19.5,0-39.4-1-58.8.6-4.1-22.4-1-92.4-.9-118.8h-.1Z"/>
    <path class="cls-1" d="M963.9,601.3c18.6-.4,42.8-3.6,60.7.6l-.2,49,.2,137.3h-59.9v-99.5c.2-28.4,2.7-59.3-.9-87.4h.1Z"/>
    <path class="cls-3" d="M967.55,993c1-7-3-14-2-21,4-23-1-44,0-64,.01-.17.02-.33.03-.5h-1.77v.7c-.8,21.4-1.5,42.9.4,63.9.4,19.2.4,38.4,0,57.6.44,0,.89,0,1.33,0-.04-12.27,1.39-24.09,2.02-36.7Z"/>
    <path class="cls-15" d="M1085.7,980.5c.4-3.8-.1-7.1-.7-10.9-20.2-.5-40.4-.1-60.5-.1v-62h-58.93c0,.17-.02.33-.03.5-1,20,4,41,0,64-1,7,3,14,2,21-.63,12.61-2.05,24.43-2.02,36.7,18.68.04,37.81.85,56.37-.9,10.2-3.7,48.8-2.3,62.4-2.9-.1-14.8-1.3-30.9,1.5-45.4h-.1Z"/>
    <path class="cls-9" d="M964.3,972.1h0s0,.07,0,.1v-.1Z"/>
    <path class="cls-9" d="M965,688.6v99.5h-2.2v-89.2c0-28.4-3.2-70.8,1.2-97.6,3.6,28.1,1.1,58.9,1,87.4v-.1Z"/>
    <path class="cls-9" d="M1588.6,969.9c-13.7,1.7-48.7,1.5-61.7-.6v-61.8h61.2v.7c0,20.6,0,41.2.5,61.7h0Z"/>
    <path class="cls-9" d="M1526.8,667.6l-.2-62.1,61.8-.2v182.9h-61.4c0-40.2,0-80.4-.3-120.6h.1Z"/>
    <path class="cls-22" d="M1148.5,845.9c-41.2-.8-82.5,0-123.7.2v-58.1l-.3-137.3,1.9,7.1c12.2,6.9,43.2,2.3,57.9,2.2-1.5,22.9-1.1,46-1.1,69,21.8.2,43.5.2,65.3-.2,0,38.9-1.1,78.2,0,117.1h0Z"/>
    <path class="cls-22" d="M1527,788.1c0,19.6-.1,39.2-.3,58.8h-1.4c-20.1-1.2-40.5-.7-60.6-.8-20.3-2-41.8,3-61.9-.6l-.3-122.7c20.6.8,41.4.4,62.1.6v-56.4c20.6-.1,41.4-.5,62.1.6.3,40.2.4,80.4.3,120.6v-.1Z"/>
    <path class="cls-8" d="M1148.5,845.9l-.3,61.6h-123.4c-.4-20.4,0-40.9,0-61.4,41.2-.2,82.6-1.1,123.7-.2h0Z"/>
    <path class="cls-14" d="M1148.5,845.9l166.2-.2c29.2,0,59,1.3,88.1-.3,20.2,3.6,41.6-1.4,61.9.6v61.6l-316.7-.1.4-61.6h.1Z"/>
    <path class="cls-8" d="M1526.9,907.5h-62.2c0,.1,0-61.5,0-61.5,20.1.1,40.5-.4,60.6.8h1.4c.1,20.1,1.2,40.6.1,60.7h.1Z"/>
    <path class="cls-4" d="M1024.7,907.5h60.5c-.4,15.9-4,47.3.9,61.8l-.9.3c-20.1-.5-40.4-.1-60.5-.1v-62Z"/>
    <path class="cls-18" d="M1085.2,907.6h379.5c-.3,20.5-.2,41.1.3,61.6-43.8,1.9-88.2.2-132.1.2l-246.8-.2c-4.9-14.5-1.3-45.9-.9-61.7v.1Z"/>
    <path class="cls-14" d="M1464.7,907.7h62.2c0-.1,0,61.6,0,61.6-20.3.6-40.8.2-61.1.3l-.8-.3c-.4-20.5-.5-41.1-.3-61.6h0Z"/>
    <path class="cls-16" d="M1588.6,969.9c41.2-1.2,82.6-.5,123.9-.5l-.2,61.1c-38.3,1.1-77.5,1.6-115.7.3-11.8-4.4-54.3-1.1-69.6-1.5-10.1-4.5-47.2-1.6-60.4-1.5.3-15.3,1.6-32.3-1.4-47.3-.4-3.7.3-7.3.7-10.9,20.3,0,40.8.3,61.1-.3,13,2.1,48.1,2.3,61.7.6h-.1Z"/>
    <path class="cls-20" d="M1085.1,969.6l.9-.3,246.8.2c43.9,0,88.3,1.6,132.1-.2l.8.3c-.5,3.7-1.1,7.2-.7,10.9-.6,15.2-.2,30.5-.2,45.7-126.2-1.8-252.4-2.2-378.6-1.4l-.4-44.3c.4-3.9,0-7.1-.7-10.9h0Z"/>
    <path class="cls-24" d="M967.55,1052c-1.48-7.76-2-15.11-2.02-22.3-.41,0-.82,0-1.23,0,.4-19.2.4-38.4,0-57.6l-1.1.2-.4,57h-.8c-3,35.9,0,71.8-2,107.7-1,6-4,12-3,18h.55c5-35,16-67,10-103Z"/>
    <path class="cls-24" d="M1592.9,1032.6l3.6-1.8c-11.8-4.4-54.3-1.1-69.6-1.5-.8,21.3-.2,42.6,0,63.9l-507.3-.3,2.4-64.1c-18.59,1.76-37.76.94-56.47.9.02,7.19.54,14.54,2.02,22.3,6,36-5,68-10,103h63.25c.3,105.6,0,211-1.2,316.5l65.5-1.9c36.4,0,73.6,1.4,109.9-1.3-35.9-2.9-73.4-.7-109.5-.5,0-21.5-.8-43.3.4-64.7l135.7-.2c-1,12.8,2.1,58-3.6,65l-2.3.8c32.8,3.9,244.1-3.7,254,2.5,10.6-4.7,50.5-1.4,63.6-.3.5-105.1-1.9-210.3-1.1-315.4l61.7-.4.2-.1c-.8-20.5-.5-41.2-.7-61.7-3.8-7.9-2.6-51-.5-60.7Z"/>
    <path class="cls-27" d="M1084.3,1025.9c-.1-14.8-1.3-30.9,1.5-45.4l.4,44.3c126.2-.9,252.4-.4,378.6,1.4,0-15.2-.3-30.5.2-45.7,3,15,1.7,32,1.4,47.3,13.1,0,50.3-3,60.4,1.5-.8,21.3-.2,42.6,0,63.9l-507.3-.3,2.4-64.1c10.2-3.7,48.7-2.3,62.4-2.9Z"/>
    <path class="cls-23" d="M1596.5,1030.8c38.3,1.3,77.5.8,115.7-.3l1.5.8c.1,19.5,1.1,39.6-.9,59,6.4,6,56.8,3,68.4,2.9,0,20.5,0,41.1-.3,61.6l-.9.2c-22.6.5-45.3.6-67.9.2.2-20.8.6-41.6-.2-62.3-39.4,1.5-79.1.4-118.5.4-3.8-7.9-2.6-51-.5-60.7l3.6-1.8h0Z"/>
    <path class="cls-9" d="M1713.7,1031.3c22.1-2.3,44.9-1.5,67.1-1.7,0,21.2-.7,42.5.3,63.6-11.6,0-62,3-68.4-2.9,2-19.4,1-39.5.9-59h.1Z"/>
    <path class="cls-27" d="M1585.1,1155l-52.8.3c-.8,105.1,1.6,210.3,1.1,315.4-13.1-1.1-53-4.5-63.6.3v53.2c-.1,17.4.5,35.1-.7,52.5.9,1.5,1.4,3.3,3.1,3.8,16.3,3.9,49.9-5.7,61.7,3.7h.8c.1-.3.2-.5.4-.6,8.6-6.9,47.5-2.7,60.1-2.4-1.1-34.7-.1-69.7-.1-104.5v-203.2h3c0-.2-.1-.4-.2-.7-10.3-38.6-12.5-77.9-12.9-118l.1.2Z"/>
    <path class="cls-21" d="M2035.1,1457.5c-.6-20.6-.4-41.2,0-61.8h-67.9c1.6-20.3.7-41.5.9-61.9-21.2-.6-42.6,0-63.8-.1-.6-19.6,0-39.2.2-58.8l-.4-.8c-20.6-.2-41.1-.2-61.7-.1-.4-18.4-1.1-36.8,0-55.1-6-4.7-52.4-2-62.7-1.9.3-20.4,1.7-41.5,0-61.9-22.6.5-45.3.6-67.9.2.2-20.8.6-41.6-.2-62.3-39.4,1.5-79.1.4-118.5.4.2,20.5,0,41.2.7,61.7h-9c.4,40.1,2.6,79.4,12.9,118,0,.2.1.4.2.7h119.4l-.8,62.4c21.4-1.9,42.8-2,64.2-2.3-.5,20.8,1.1,42-1.1,62.7-14.8-1-29.9-1.4-44.6.7,15.1.2,30.3.5,45.4.2,20.7-2.8,41.5-1.1,62.2-2.3l-.4,63c20.5-.4,42,.4,62.4-1.6-.3,20.3-2.6,43.5.5,63.4l.7,3c8.4-6.8,112.2-3.4,129.4-3.4l-.5-62,.4-.1Z"/>
    <path class="cls-9" d="M1781.2,1093.2h61.7c0,20.5-1,41.5.2,62.1-20.7-.6-41.5.9-62.2-.5.3-20.5.3-41,.3-61.6Z"/>
    <path class="cls-21" d="M946.6,1216.9s0,.07,0,.1h.1l-.1-.1Z"/>
    <path class="cls-27" d="M1084.8,1521.3h0l.4-51.8-65.5,1.9c1.1-105.5,1.5-210.9,1.2-316.4h-63.35c-1,8,9,17,7,25-4,21-15,38,1,65-11,19-11,41-2,62,6,14,6,34-4,46-1.19,1.49-2.49,2.87-3.85,4.2v226.1c17.5-.5,46.6-4.8,62.5,1.4,22,1.8,44.7.4,66.8,0-.3-21.1-.4-42.2-.2-63.4Z"/>
    <path class="cls-27" d="M959.55,1353c10-12,10-32,4-46-9-21-9-43,2-62-16-27-5-44-1-65,2-8-8-17-7-25h-1.65c-.3,20.5-.3,41.2-.2,61.9h-9c.3,20.1.4,40.1.2,60.2,2.9,0,5.9,0,8.8-.1v80.2c1.36-1.33,2.66-2.71,3.85-4.2ZM956,1217c3,23-1,46,1,69-2-23,2-46-1-69Z"/>
    <path class="cls-23" d="M1779.9,1155l.9-.2c20.7,1.4,41.5-.1,62.2.5-.2,20.5-1.4,41.6.3,62l-.8,1.6c-6-4.7-52.4-2-62.7-1.9.3-20.4,1.7-41.5,0-61.9l.1-.1Z"/>
    <path class="cls-9" d="M1843,1155.3c20.4,0,40.9.1,61.4-.2-.3,20.1-.6,40.2,0,60.4-19.7,0-41.8-1.6-61.2,1.8-1.7-20.4-.5-41.5-.3-62h.1Z"/>
    <path class="cls-9" d="M1904.5,1215.5c21.6-.3,43.4,0,64.9-1.3-.2,19.8-1.3,39.9-.5,59.7-21.4.5-42.9.9-64.3,1.1l-.4-.8c.8-19.5.4-39.1.3-58.6v-.1Z"/>
    <path class="cls-23" d="M1843.3,1217.3c19.4-3.4,41.4-1.7,61.2-1.8.1,19.5.5,39.1-.3,58.6-20.6-.2-41.1-.2-61.7-.1-.4-18.4-1.1-36.8,0-55.1l.8-1.6Z"/>
    <path class="cls-16" d="M1735.3,1397.2l-17.7.2-.3-60.5c-20.5-.3-40.9-.7-61.3,0-1.1,120.2,1.2,240.7,1.3,361-21.4,0-43-.3-64.4.3.1,80.2,1.1,160.6-.8,240.8-12.3.6-24.7.6-37,.7l-23.5-.4.5-71.7c3.9-18.2,1.3-40.2,1.1-58.8-.3-35.8-1-72,.7-107.7,3.3-22.1,3.4-93.6,1-116.9.1-.2.2-.3.4-.4,8.6-6.9,47.5-2.7,60.1-2.4-1.1-34.7-.1-69.7-.1-104.5v-203.2h122.4l-.8,62.4c21.4-1.9,42.8-2,64.2-2.3-.5,20.8,1.1,42-1.1,62.7-14.8-1-29.9-1.4-44.6.7h-.1Z"/>
    <path class="cls-23" d="M1904.6,1274.9c21.4-.2,42.9-.6,64.3-1.1,0,20,.1,40-.7,60-21.2-.6-42.6,0-63.8-.1-.6-19.6,0-39.2.2-58.8Z"/>
    <path class="cls-9" d="M1968.9,1273.8l66.3-.3-.3,59.1c-21.5,2.9-45,1-66.7,1.2.9-20,.6-40,.7-60h0Z"/>
    <path class="cls-16" d="M1534.8,1584.4h-.8c-.3,19.7-.4,39.5-.4,59.2h-390.2l-124.4-.2c-.4-19.6-.7-39.1-.8-58.7-15.9-6.2-45-1.9-62.5-1.4v-226.1c-12.33,12.08-31.14,17.6-49.15,15.8-4.04-.29-8.08-.74-12.14-1.22.91,90.41.27,180.96.09,271.42l61,.2.3,58c17.4-1.2,45.3-4.8,62-.2h1.3c10.9-6.2,51.5-2.7,66-2.4,54.9,2.7,437.8-3.8,448.7,2.4,3.4-22.1,3.4-93.6,1-116.8Z"/>
    <path class="cls-23" d="M1968.2,1333.8c21.8-.1,45.3,1.8,66.7-1.2l.7,1.2-.5,61.9h-67.9c1.6-20.3.7-41.5.9-61.9h.1Z"/>
    <path class="cls-9" d="M2035.6,1333.9l59.9-.2c-.1,20.4-.8,41-.1,61.3-20,1.1-40.2.7-60.3.7l.5-61.9v.1Z"/>
    <path class="cls-23" d="M2035.1,1395.7c20.1,0,40.2.3,60.3-.7l1.9,1v61.5c-20.6-.6-41.5,0-62.1,0-.6-20.6-.4-41.2,0-61.8h-.1Z"/>
    <path class="cls-16" d="M1780.7,1397.3c20.7-2.8,41.5-1.1,62.2-2.3l-.4,63c20.5-.4,42,.4,62.4-1.6-.3,20.3-2.6,43.5.5,63.4l-62.9-.3v-61.7l-61.7-.2-.2-60.3h.1Z"/>
    <path class="cls-9" d="M2097.3,1396l60.6-.3-.6,61.7h-60v-61.4h0Z"/>
    <path class="cls-24" d="M1195.1,1468.2c-35.9-2.9-73.4-.7-109.5-.5,0-21.5-.8-43.3.4-64.7l135.7-.2c-1,12.8,2.1,58-3.6,65l-2.3.8-20.7-.3v-.1Z"/>
    <path class="cls-9" d="M2035.1,1457.5c20.7,0,41.5-.6,62.1,0,0,20.4-.4,40.9,0,61.4,0,20.5-.4,41,.2,61.5-19.3,3.1-41.2,1.2-60.9,1-4,17-1.4,39.1-1,56.6-20.5,0-41,.3-61.4.5.9-18.9.5-37.9.4-56.9,20-1.9,40.9-.8,61-.7-.7-20.5-.1-41.1.1-61.6l-.5-62v.2Z"/>
    <path class="cls-4" d="M2097.3,1457.5h60c-.2,19.1-3.1,43.1.4,61.7h-1.6c-19.6.2-39.2,0-58.8-.4-.3-20.4,0-40.9,0-61.4v.1Z"/>
    <path class="cls-9" d="M2157.3,1457.4c20.1-.2,40.1-.7,60.2-.4-.2,20.7.3,41.8-1.6,62.4-19.3-.7-38.8-.2-58.2-.3-3.4-18.6-.5-42.7-.4-61.8v.1Z"/>
    <path class="cls-24" d="M1195.1,1468.2l20.7.3c32.8,3.9,244.1-3.7,254,2.5v53.2c-22.4-2.3-45.4-1.1-67.7-1.2l-112.6-.3-97-.3c-17,0-37.6-2.1-54.1,1.5-14.1.6-28.7,1.6-42.8,1-5-.2-7.2.2-10.7-3.7l.4-51.8c36.4,0,73.6,1.4,109.9-1.3l-.1.1Z"/>
    <path class="cls-6" d="M1084.8,1521.3c3.5,3.9,5.7,3.4,10.7,3.7,14.1.6,28.7-.4,42.8-1l4.2,2c4,17.3.7,38.1,1.3,55.9,80.2-.8,160.5.3,240.7,0,19.8,0,65.5,2.7,82.8-1.5l1.8-3.6c.9,1.5,1.4,3.3,3.1,3.8,16.3,3.9,49.9-5.7,61.7,3.7-.3,19.7-.4,39.5-.4,59.2h-390.2c-1.1-20.5-.1-41.4,0-61.9-18.9,2.9-39.2,2.2-58.4,3.1-.3-21.1-.4-42.2-.2-63.4h.1Z"/>
    <path class="cls-16" d="M1906.2,1522.8c8.4-6.8,112.2-3.4,129.4-3.4-.2,20.5-.8,41.1-.1,61.6-20.1-.1-41-1.3-61,.7l-67.9-.2c.2-19.5,0-39.1-.4-58.6v-.1Z"/>
    <path class="cls-2" d="M2097.2,1518.9c19.6.4,39.2.6,58.8.4-.7,20.5-1.8,41.7-.8,62.1,18.7-3.7,39.9-1.6,58.9-.7,0,18.7.5,37.4,0,56.1-20.1,0-40.2.3-60.3-.2,0-17.9-.4-35.9,0-53.9l-1.5-.2c-17.5-2.6-36.9-1-54.6-1l-.6-1.2c-.5-20.4-.1-41-.2-61.5l.3.1Z"/>
    <path class="cls-18" d="M2156.1,1519.3h1.6c19.4,0,38.9-.5,58.2.3l-.4,19.7c-2.2,13.6-1.4,27.7-1.3,41.4-19-.9-40.2-3-58.9.7-1-20.5,0-41.6.8-62.1h0Z"/>
    <path class="cls-6" d="M1138.4,1524c16.5-3.6,37.1-1.5,54.1-1.5l97,.3,112.6.3c22.4,0,45.4-1.1,67.6,1.2,0,17.4.7,35.1-.5,52.5l-1.8,3.6c-17.3,4.1-63,1.4-82.8,1.5-80.2.3-160.5-.8-240.7,0-.6-17.8,2.7-38.6-1.3-55.9l-4.2-2h0Z"/>
    <path class="cls-4" d="M2214.2,1580.6c0-13.7-.9-27.9,1.3-41.4.9,52.7,2.1,106.4,0,159h-118.4c-.2-19.7-.3-39.3-.3-59,15.2-4.6,39.2-2.3,55.5-2.7-.8-17.9,0-36,.1-53.9l1.5.2c-.4,17.9,0,35.9,0,53.9,20.1.5,40.2.2,60.3.2.4-18.7,0-37.4,0-56.1v-.2Z"/>
    <path class="cls-18" d="M2036.5,1581.4c19.7.1,41.6,2.1,60.9-1l.6,1.2c-.7,18.2,1.6,39.5-1.9,57.1-19.9-1.6-40.5-.6-60.5-.6-.4-17.5-3-39.6,1-56.6l-.1-.1Z"/>
    <path class="cls-6" d="M1018.3,1584.7c22,1.8,44.7.4,66.8,0,19.1-.8,39.5-.2,58.4-3.1-.1,20.5-1.1,41.4,0,61.9l-124.4-.2c-.4-19.6-.7-39.1-.8-58.7v.1Z"/>
    <path class="cls-14" d="M2098,1581.5c17.7,0,37.1-1.6,54.6,1-.2,17.9-.9,36-.1,53.9-16.4.4-40.3-1.9-55.5,2.7l-.9-.6c3.6-17.6,1.2-38.9,1.9-57.1v.1Z"/>
    <path class="cls-9" d="M2035.5,1638c20,0,40.6-1,60.5.6l.9.6c0,19.7,0,39.3.3,59-20.5-.6-41.1,0-61.6,0v-60.1l-.1-.1Z"/>
    <g>
      <path class="cls-9" d="M963.2,1300.87l1.09.2c-1.89,20.87-1.09,42.43-.39,63.8v.7h-1.2v-3l-66.6-.1v-58.8c10.8.2,60.6,3.4,67.1-2.8Z"/>
      <polygon class="cls-9" points="831.9 1303.67 832.1 1303.67 832.1 1303.77 831.9 1303.67"/>
      <path class="cls-9" d="M895.8,1243.37c-.5,8.8-.2,17.5.3,26.3.5,11.2,0,22.7,0,34h-64v-60.7c21.2.4,42.5.6,63.7.4Z"/>
      <path class="cls-23" d="M896.8,1244.57c22,.1,44,.5,66-.7l.4,57c-6.5,6.1-56.3,3-67.1,2.8h0c0-11.3.6-22.8,0-34,1-8.2.5-16.9.7-25.1Z"/>
      <path class="cls-21" d="M960.82,1118.27h1.1c-1,6-2.92,12-1.92,18v-.1c2,35.9-1,71.8,2,107.7-21.7,1.1-43.5.8-65.3.7-.2,8.2.3,16.9-.7,25.1-.5-8.8-.8-17.5-.3-26.3l-.2-63.4h-63.5v-61.7c-21,.2-43.2,1.7-64.1-.5v-61.4c.1,0,192.72-.1,192.72-.1-.1,20.7,0,41.3.2,62Z"/>
      <path class="cls-9" d="M768.2,1241.87c-.2-20.2-.1-40.5-.6-60.7,19.7-4.5,44-.6,64.4-1.2-.8,20.9,0,42,0,62.9-21.3.1-42.6-.2-63.8-1h0Z"/>
      <path class="cls-23" d="M895.7,1243.37c-21.2.2-42.5.1-63.7-.4-.2-20.9-.8-42,0-63h63.5l.2,63.4Z"/>
      <path class="cls-23" d="M767.2,1180.17c1.2-11.5,3.8-51.9-1.6-60.5l-5.4-1.5c-17.3,3.6-40.7.4-58.4,0,.9-16.2,4.2-47.3.2-62.2l1.1-1c16.8,4.6,46.8,1.4,64.8,1.3v61.4c20.9,2.2,43.1.7,64.1.5v61.8c-20.4.6-44.7-3.3-64.4,1.2l-.4-1.1v.1Z"/>
      <path class="cls-9" d="M701.4,1179.67c.1-20.5-.3-41.1.4-61.6,17.7.4,41.1,3.6,58.4,0l5.4,1.5c5.4,8.6,2.7,49,1.6,60.5-21.9-.3-43.9-.3-65.8-.3v-.1Z"/>
      <path class="cls-9" d="M639.4,1118.07v-62c20.7.1,41.8,1,62.5-.1,4.1,15,.7,46.1-.2,62.2h-62.3v-.1Z"/>
      <path class="cls-21" d="M831.6,935.37c0,19.8,0,39.7-.3,59.5,38.5.9,93.08.6,131.58,1.2.1,19.97,0,40.03-.2,60.1h-194.68c-18.1.2-48.1,3.5-64.9-1.1,1.7-20.2.7-40.6.4-60.8-21.2,0-42.4-.6-63.6,0-.7-18.4-.6-36.7-.5-55.1h-64.1c-.7-20.6-1-41.2-1.2-61.8-21.7,0-43.7.6-65.4-.1v-61.6c.2-20.7.7-41.4.3-62h128.9c-.4-15.6-2.9-35.5,1.1-50.8.9,16.9-.3,33.8.9,50.7-.3,20.8-.6,41.5-.7,62.3,21.9.3,43.9.3,65.8-.1,21.4-.2,43.9-1.7,65.1.8-20.8,3.1-44.4.9-65.5.8v60l63.8-.2c-.3-15.8-1.5-33.3,1.3-48.9.6,16.3.2,32.7.6,49-1.6,19.3-.3,39.5-.2,58.9,19.9-.2,39.6,1.1,59.5-.1,0-19.4-1.1-39.3.9-58.5,2.9,18.1.9,39.4,1.1,57.8Z"/>
      <path class="cls-9" d="M574.4,1056.17c.2-19.9,1.4-40.5-.3-60.3,20.2-.9,45.6-4.3,65.4-.6-.8,20.2,0,40.7,0,60.9h-65.1Z"/>
      <path class="cls-23" d="M639.5,995.27l.4-1c21.2-.6,42.4,0,63.6,0,.3,20.2,1.3,40.6-.4,60.8l-1.1,1c-20.7,1.1-41.8.1-62.5.1-.1-20.2-.8-40.7,0-60.9Z"/>
      <path class="cls-9" d="M508.7,995.97v-56.8c21.5.1,44.4-1.5,65.7.6-1.7,18.5-.8,37.6-.3,56.1-21.7.3-43.5.4-65.3.2l-.1-.1Z"/>
      <path class="cls-23" d="M574.2,995.97c-.4-18.5-1.3-37.7.3-56.1-21.4-2.1-44.2-.6-65.7-.6-.1-20.6-.7-41.4,0-62,21.7.7,43.7.1,65.4.1.2,20.6.5,41.2,1.2,61.8h64.1c-.1,18.4-.2,36.7.5,55.1l-.4,1c-19.8-3.7-45.3-.3-65.4.6v.1Z"/>
      <path class="cls-16" d="M955.7,915.97v80.2c-41.4-.8-82.9-.3-124.3-1.3.3-19.8.3-39.7.3-59.5v-.1s62.3-.2,62.3-.2c.17-11.22.29-12.45.41-23.68,4.06-.48,8.1-.93,12.14-1.22,18.02-1.8,36.82-6.28,49.15,5.8Z"/>
      <path class="cls-9" d="M447.1,877.27c20.6-.2,41.1-.2,61.6,0-.7,20.6,0,41.4,0,62l-61.6-.5c0-20.4.5-41,0-61.5Z"/>
      <path class="cls-16" d="M829.8,936.17c-19.9,1.2-39.6-.1-59.5.1-.1-19.4-1.4-39.6.2-58.9l60.2.2c-2,19.2-.9,39.1-.9,58.5v.1Z"/>
      <path class="cls-9" d="M390.4,877.37c-.1-17.5-3.2-46.1.9-62.3,18.7.9,37.2.7,55.9.5-.3,20.5-.3,41.1,0,61.6l-56.9.2h.1Z"/>
      <path class="cls-23" d="M447.1,877.27c-.2-20.5-.2-41.1,0-61.6h61.7v61.6c-20.6-.2-41.1-.2-61.6,0h-.1Z"/>
      <path class="cls-16" d="M768.4,877.27l-63.8.2v-60c21.1.1,44.7,2.3,65.5-.8l-.3,11.7c-2.8,15.6-1.6,33.1-1.3,48.9h-.1Z"/>
      <path class="cls-17" d="M447.2,815.57l-.2-62.3c20.7.3,41.4.3,62.1.3.4,20.7-.1,41.4-.3,62h-61.7.1Z"/>
      <path class="cls-16" d="M639.1,815.87c.1-20.8.4-41.5.7-62.3l66.1.2c-1.2,20.5-.8,41.4-.9,62-21.9.4-43.9.4-65.8.1h-.1Z"/>
      <path class="cls-9" d="M330.2,815.27v-61.8l60.1.5v59.8c-20.1.4-40.1.9-60.2,1.6l.1-.1Z"/>
      <path class="cls-2" d="M391.2,815.37l-.9-1.3v-59.8l-60.1-.5v-121.4c20.1,2.1,40.4-.2,60.6,1.2l.8.9c1,19,.3,38.4.3,57.5,17.9-.1,35.7,0,53.6.4l.9.5c1.7,19.9.5,40.5.5,60.5l.2,62.3c-18.7.2-37.2.4-55.9-.5v.2Z"/>
      <path class="cls-9" d="M268.4,753.57l1.2-178.3c20.2,0,40.4.2,60.5-.2-.5,19.1,0,38.2.1,57.2v121.3h-61.8Z"/>
      <path class="cls-9" d="M446.9,753.17c.1-20,1.2-40.6-.5-60.5,20.9.5,41.7.6,62.6.3.1-19.4.7-38.9-.3-58.2l62.9,1.8c-1,18.6-.6,37.3-.6,55.8h37c-6.6,4.4-84.5,1.1-98.7.9-.3,20.1-.3,40.2-.3,60.3-20.7.1-41.4,0-62.1-.3v-.1Z"/>
      <path class="cls-16" d="M509.2,753.57c-.1-20.1,0-40.2.3-60.3,14.3.2,92.2,3.4,98.7-.9,9.6.1,19-2.2,28.4.5,3.4,3.8,2.5,4.9,2.5,9.9-4,15.3-1.5,35.2-1.1,50.8h-128.9.1Z"/>
      <path class="cls-18" d="M445.5,692.27c4.4-16.8,1.1-40.1,1.2-57.8-17.6,0-38-2.5-55.2-.2l-.8-.9c2.6-18.2,1.2-38.2,1.2-56.6,12.1-.2,44.8-3.4,54.9,1.6-.4,18.4.2,36.8.3,55.2,20.5.6,41.1,1,61.6,1.3,1,19.3.4,38.8.3,58.2-20.9.3-41.7.2-62.6-.3l-.9-.5h0Z"/>
      <path class="cls-14" d="M391.8,691.77c0-19,.8-38.5-.3-57.5,17.3-2.3,37.6.2,55.2.2-.1,17.7,3.2,41-1.2,57.8-17.9-.4-35.7-.5-53.6-.4l-.1-.1Z"/>
      <path class="cls-9" d="M447.3,633.77c-.1-18.4-.6-36.8-.3-55.2l-.2-3.4c20.6.4,41.3,0,62,0-.2,19.9-.1,39.9,0,59.8-20.5-.4-41.1-.8-61.6-1.3l.1.1Z"/>
      <path class="cls-14" d="M330,632.27c-.1-19-.6-38.2-.1-57.2h116.7l.2,3.4c-10-5-42.8-1.8-54.9-1.6-.1,18.4,1.4,38.4-1.2,56.6-20.1-1.3-40.5.9-60.6-1.2h-.1Z"/>
      <path class="cls-9" d="M330.1,575.07l.3-62.1h116.1c0,20.7-.6,41.5.2,62.1h-116.7.1Z"/>
    </g>
    <path class="cls-12" d="M1019.2,1701.1c10.9-6.2,51.5-2.7,66-2.4,0,22.1.6,44.4-.2,66.4-21.8.2-43.6.2-65.5,0,.2-21.2,1.4-43-.4-64.1l.1.1Z"/>
    <path class="cls-13" d="M1085.2,1698.7c54.9,2.7,437.8-3.8,448.7,2.4-1.7,35.7-1,71.9-.7,107.7.1,18.6,2.7,40.6-1.1,58.8-.7-15-.1-30.3,0-45.4-16.9-.3-33.7-.2-50.5.3l-7.2-1.3c-7.4-11.6-2.8-45.4-2.6-59.5-20.7-.2-41.4-.2-62.1-1.2,0,20.4,0,40.7.3,61.1h-130.9c0,.1-.3-59.9-.3-59.9-45.3-1.2-90.6-.5-135.9-.1.1,20-.7,40.8,1.6,60.7l-126.9-.2c-.4-18.8.2-37.8.3-56.7-13-.1-25.8-.3-38.8-1.5,12.9-.4,25.9-.1,38.8-.1.8-20.9.3-41.9.2-62.8h1.3c1.8,21.2.6,43,.4,64.2,21.8.2,43.6.1,65.5,0,.8-22.1.2-44.3.2-66.4l-.3-.1Z"/>
    <path class="cls-9" d="M2097.2,1698.1h118.4c-.2,20.6-.5,41.2-1,61.8h-117.2l-.2-61.8Z"/>
    <path class="cls-25" d="M1278.9,1821.8h130.9c0-.1,0,62.1,0,62.1-20.5,0-41.4.7-61.9-.2-45.5-1.1-92,2.5-137.3-.8v56.1c-22.1-.2-44-.2-65.9-.1-.6,20.3-1.8,40.7-1.4,61-19.6.2-39.2,0-58.7.8,0,9.4.8,19.3-1.1,28.5-1.4-29.9.6-60.5,1.3-90.4h60.1c.4-38.9.3-77.7-.3-116.5-2.3-19.9-1.5-40.6-1.6-60.7,45.3-.3,90.6-1,135.9.1l.3,60-.3.1Z"/>
    <path class="cls-10" d="M1409.7,1821.7c-.3-20.4-.4-40.7-.3-61.1,20.7,1,41.4,1,62.1,1.2-.2,14.1-4.8,47.9,2.6,59.5l7.2,1.3-8.3,1.1c-5.1,8.7-1.7,98.4-1.6,115.3,17.5-.2,42.1-3.4,58.8,1.1-.2,22.8-3.5,165.4,1.2,175.4,3.3.7,6.5,1.4,10,1.6-4.6.6-7.2,0-10.4,3.5-1.9,38.8.4,78.2.2,117-19.9.5-39.9.6-59.8.4,0-19.6,0-39.1.1-58.7l-62,.6v-62.5c.3-20.1.2-40.2.2-60.3l-62,.5v-118.7c-.1,0,0-55.3,0-55.3,20.5.9,41.3.2,61.9.2v-62.3l.1.2Z"/>
    <path class="cls-16" d="M955.8,1762.9c7.7.6,15.4.7,23.1,1,12.9,1.2,25.8,1.3,38.8,1.5-.1,18.8-.7,37.8-.3,56.7.3,38.9-.4,77.9.6,116.7-20.8,0-41.7-.4-62.6,0,.9-58.6-.3-117.3.4-175.9h0Z"/>
    <path class="cls-10" d="M1017.4,1822.1l126.9.2c.6,38.8.7,77.6.3,116.4h-60.1c-.7,30.1-2.6,60.7-1.3,90.6l-1,29.8h-61.3c.7,19.1,2.2,38.9.1,57.9l-1.4.7c-21.3,0-42.7.2-64,.5-.5-59.8-.5-119.5-.2-179.3,20.8-.4,41.7,0,62.6,0-1-38.8-.3-77.8-.6-116.7v-.1Z"/>
    <path class="cls-26" d="M1481.4,1822.6c16.8-.5,33.7-.6,50.5-.3,0,15-.6,30.4,0,45.4l-.5,71.7,23.5.4c-8,1.8-16.6,2.8-24.6.4-16.8-4.5-41.3-1.4-58.8-1.1,0-16.9-3.5-106.6,1.6-115.3l8.3-1.1v-.1Z"/>
    <path class="cls-13" d="M1210.5,1883c45.3,3.3,91.8-.3,137.3.8v55.3c-45.9-.4-91.7-.3-137.4,0v-56.1h.1Z"/>
    <path class="cls-16" d="M894,1938.9h61.4c-.3,59.7-.2,119.4.2,179.2,0,20.6-.8,41.4,0,61.9-20.2-1.2-40.9-.4-61.2-.5-1-80.2-.4-160.5-.4-240.7v.1Z"/>
    <path class="cls-16" d="M1144.5,1939c21.9-.1,43.9,0,65.8.1,45.8-.4,91.6-.4,137.4,0v118.7c.1,18.4,3,42.5-1.1,60.2-21.9-.6-43.8-.8-65.7-.5.2-39.4,0-78.8-.7-118.1-24.2-.1-48.4-.1-72.7,0-2.2,197.6-2.5,395.2-.7,592.9-20.1,0-40.4.6-60.5.2v54.7c-41.3.3-82.8.3-124.2,0l.4-34c.2-5.8-.6-14.5,2.5-19.5,28.8-4.6,87.4-1.5,119.7-1.6-4.1-25-1.8-53.7-1.9-79.1.3-50.8,0-101.6-1-152.3-38.4,3.3-83.2.4-122.7,1,.4,49.1.5,98.1,0,147.2-.1,27.3-2.3,56.7,1.2,83.7h-64.6c-1.4-45-.2-90.6-.2-135.8v-276.6l62.2-.3c22.1,0,44.6-.9,66.7.2,19.3,1.2,39.6-.2,59-.2.7-59.5,2.9-120.3-.2-179.7-.5-20.2.8-40.7,1.4-61l-.1-.2ZM1019.9,2238.1l.6,65.3h122.8c.3-21.8.2-43.6,1.4-65.3h-124.8Z"/>
    <path class="cls-26" d="M1555,1939.7c12.3,0,24.7,0,37-.7l-.6,122.4c-.1,18.1-2.2,38.4-.3,56.3l-1.1.3c-15.1-2.5-33.1-.8-48.5-.9-3.4-.2-6.6-.9-10-1.6-4.7-10.1-1.4-152.7-1.2-175.4,8,2.4,16.6,1.4,24.6-.4h.1Z"/>
    <path class="cls-16" d="M1592,1939l59.8-.3c.9,59.5.9,118.9,0,178.4-19.7,0-41.3-1.9-60.8.6-1.9-17.9.2-38.2.3-56.3l.6-122.4h.1Z"/>
    <path class="cls-13" d="M1084.4,2000.8c19.5-.8,39.2-.6,58.7-.8,3.1,59.4.8,120.2.2,179.7-19.4,0-39.7,1.4-59,.2l.6-62.2c-21.3.1-42.6-.1-63.9-.8,2.1-18.9.5-38.7-.1-57.7h61.3c0-.1,1-29.9,1-29.9,2-9.2,1.2-19.1,1.1-28.5h.1Z"/>
    <path class="cls-13" d="M1347.8,2057.8l62-.5c0,20.1,0,40.2-.2,60.3-18.4-.3-44.8-3.7-62.2,1.1l-.9-.6c4.1-17.7,1.3-41.8,1.2-60.2l.1-.1Z"/>
    <path class="cls-10" d="M1021.1,2116.9c21.3.7,42.6,1,63.9.8l-.6,62.2c-22.1-1-44.6-.2-66.7-.2.4-20.7,1-41.4,2-62.1l1.4-.7h0Z"/>
    <path class="cls-25" d="M955.6,2118.1c21.3-.4,42.7-.5,64-.5-1,20.7-1.7,41.4-2,62.1l-62.1.3c-.7-20.6,0-41.3,0-61.9h.1Z"/>
    <path class="cls-16" d="M1347.5,2118.6c17.4-4.7,43.8-1.4,62.2-1.1v62.5c0,14.4-.5,29,0,43.5l-.3,120.7c39.8-3.5,82.1-1.9,122-.7-.3-35.2,1.3-70.6-.2-105.7.1-38.9-2.2-78.3-.2-117,3.2-3.5,5.8-2.9,10.4-3.5,15.4.1,33.5-1.6,48.5.9-2.6,206.2-3.3,412.5-2,618.8h-60.1c-3.6-70.4-.8-149.2.2-220.4h-116.9c0,.1.3,141.3.3,141.3,0,25.8,2,53.9-1.7,79.4-20.6-.7-41.2-.2-61.8-.2l-.5-618.3.1-.2ZM1410,2396c.1,19.5-.4,39.2.9,58.7h118l-.4-58.2-118.5-.4v-.1Z"/>
    <path class="cls-25" d="M1409.7,2180l62-.6c-.2,19.6-.2,39.1-.1,58.7-17.6,1.8-39.6.5-57.3-1-3.3-3-3.6-9.5-4.4-13.7-.6-14.4,0-29,0-43.5l-.2.1Z"/>
    <path class="cls-13" d="M1409.8,2223.5c.8,4.2,1.2,10.7,4.4,13.7,17.8,1.5,39.7,2.8,57.3,1,19.9.2,39.9,0,59.8-.4,1.5,35.1-.1,70.6.2,105.7-40-1.1-82.3-2.8-122,.7l.3-120.7h0Z"/>
    <path class="cls-11" d="M1020.5,2303.4l-.6-65.3h124.8c-1.2,21.7-1.1,43.5-1.4,65.2h-122.8v.1Z"/>
    <path class="cls-5" d="M1020.4,2592.4c-3.4-27-1.3-56.4-1.2-83.7.4-49.1.4-98.1,0-147.2,39.5-.6,84.3,2.3,122.7-1,1,50.8,1.3,101.6,1,152.3,0,25.4-2.3,54.1,1.9,79.1-32.3,0-90.9-3-119.7,1.6-3.1,5-2.2,13.6-2.5,19.5-.5-6.9-1.1-13.8-2.1-20.7l-.1.1Z"/>
    <path class="cls-26" d="M1410.9,2454.7c-1.3-19.4-.8-39.2-.9-58.7l118.5.4.4,58.2h-118v.1Z"/>
    <path class="cls-7" d="M965.57,907.5h-2.77v.7h2.74c0-.07,0-.13,0-.2.01-.17.02-.33.03-.5Z"/>
    <path class="cls-7" d="M1024.8,846.2h-.1c0,20.4-.4,40.9,0,61.3h-59.13c0,.17-.02.33-.03.5,0,.07,0,.13,0,.2h59.26v-62Z"/>
    <path class="cls-7" d="M1603.3,907.5v.7h-76.5v-61.3c.1,20.1,1.2,40.6.1,60.7h76.4v-.1Z"/>
    <polygon class="cls-7" points="1024.8 788.1 1024.8 846.2 1024.7 788.1 1024.8 788.1"/>
    <path class="cls-7" d="M1024.8,846.2v61.3h0c-.4-20.4,0-40.9,0-61.3Z"/>
    <path class="cls-7" d="M1526.9,907.5h-1.5v-119.4h1.7c0,19.6-.1,39.2-.3,58.8.1,20.1,1.2,40.6.1,60.7v-.1Z"/>
  </g>
  <rect class="cls-16" x="896.1" y="1303.67" width="61.45" height="125.98"/>
  <rect class="cls-16" x="896.1" y="907.5" width="128.7" height="88.53"/>
</svg>