<?xml version="1.0" encoding="UTF-8"?>
<svg id="_Слой_1" data-name="Слой 1" xmlns="http://www.w3.org/2000/svg" xmlns:xlink="http://www.w3.org/1999/xlink" viewBox="0 0 9220 3643.37">
  <defs>
    <style>
      .cls-1 {
        fill: none;
      }

      .cls-2 {
        fill: #a2c9a2;
      }

      .cls-3 {
        fill: #51b483;
      }

      .cls-4 {
        fill: #aacaa3;
      }

      .cls-5 {
        fill: #b8c8ac;
      }

      .cls-6 {
        fill: #c8e6cc;
      }

      .cls-7 {
        fill: #9bc8a1;
      }

      .cls-8 {
        fill: #82c59d;
      }

      .cls-9 {
        fill: #7b9b5e;
      }

      .cls-10 {
        fill: #598b6f;
      }

      .cls-11 {
        fill: #a4c7a2;
      }

      .cls-12 {
        fill: #c1edef;
      }

      .cls-13 {
        fill: url(#_Безымянный_градиент_28-4);
      }

      .cls-14 {
        fill: url(#_Безымянный_градиент_28-5);
      }

      .cls-15 {
        fill: url(#_Безымянный_градиент_28-2);
      }

      .cls-16 {
        fill: url(#_Безымянный_градиент_28-3);
      }

      .cls-17 {
        fill: url(#_Безымянный_градиент_28-6);
      }

      .cls-18 {
        fill: url(#_Безымянный_градиент_28-7);
      }

      .cls-19 {
        fill: url(#_Безымянный_градиент_28-8);
      }

      .cls-20 {
        fill: url(#_Безымянный_градиент_28-9);
      }

      .cls-21 {
        fill: url(#_Безымянный_градиент_29-3);
      }

      .cls-22 {
        fill: url(#_Безымянный_градиент_29-2);
      }

      .cls-23 {
        fill: url(#_Безымянный_градиент_21-4);
      }

      .cls-24 {
        fill: url(#_Безымянный_градиент_21-3);
      }

      .cls-25 {
        fill: url(#_Безымянный_градиент_21-2);
      }

      .cls-26 {
        fill: #99c8a0;
      }

      .cls-27 {
        fill: #e1f3ef;
      }

      .cls-28 {
        fill: #8fc79f;
      }

      .cls-29 {
        fill: url(#_Безымянный_градиент_28-19);
      }

      .cls-30 {
        fill: url(#_Безымянный_градиент_28-17);
      }

      .cls-31 {
        fill: url(#_Безымянный_градиент_28-18);
      }

      .cls-32 {
        fill: url(#_Безымянный_градиент_28-12);
      }

      .cls-33 {
        fill: url(#_Безымянный_градиент_28-15);
      }

      .cls-34 {
        fill: url(#_Безымянный_градиент_28-16);
      }

      .cls-35 {
        fill: url(#_Безымянный_градиент_28-13);
      }

      .cls-36 {
        fill: url(#_Безымянный_градиент_28-14);
      }

      .cls-37 {
        fill: url(#_Безымянный_градиент_28-11);
      }

      .cls-38 {
        fill: url(#_Безымянный_градиент_28-10);
      }

      .cls-39 {
        fill: url(#_Безымянный_градиент_28-20);
      }

      .cls-40 {
        fill: url(#_Безымянный_градиент_28-21);
      }

      .cls-41 {
        fill: url(#_Безымянный_градиент_28-22);
      }

      .cls-42 {
        fill: url(#_Безымянный_градиент_28-23);
      }

      .cls-43 {
        fill: url(#_Безымянный_градиент_28-24);
      }

      .cls-44 {
        fill: url(#_Безымянный_градиент_28-25);
      }

      .cls-45 {
        fill: #78814f;
      }

      .cls-46 {
        fill: #f0f6f6;
      }

      .cls-47 {
        fill: #00c86b;
      }

      .cls-48 {
        fill: #f6f1f4;
      }

      .cls-49 {
        fill: url(#_Безымянный_градиент_31);
      }

      .cls-50 {
        fill: url(#_Безымянный_градиент_29);
      }

      .cls-51 {
        fill: url(#_Безымянный_градиент_28);
      }

      .cls-52 {
        fill: url(#_Безымянный_градиент_22);
      }

      .cls-53 {
        fill: url(#_Безымянный_градиент_21);
      }

      .cls-54 {
        fill: url(#_Безымянный_градиент_56);
      }

      .cls-55 {
        fill: url(#_Безымянный_градиент_58);
      }

      .cls-56 {
        fill: #496d50;
      }

      .cls-57 {
        clip-path: url(#clippath);
      }

      .cls-58 {
        fill: #aeb678;
      }

      .cls-59 {
        fill: #88bd99;
      }
    </style>
    <clipPath id="clippath">
      <rect class="cls-1" x="0" width="9220" height="3643.37"/>
    </clipPath>
    <linearGradient id="_Безымянный_градиент_29" data-name="Безымянный градиент 29" x1="8361.28" y1="1250.4" x2="8361.28" y2="2836.85" gradientUnits="userSpaceOnUse">
      <stop offset="0" stop-color="#81ad7d"/>
      <stop offset="1" stop-color="#aae4c7"/>
    </linearGradient>
    <linearGradient id="_Безымянный_градиент_29-2" data-name="Безымянный градиент 29" x1="6316.19" y1="749.86" x2="6316.19" y2="2516.67" xlink:href="#_Безымянный_градиент_29"/>
    <linearGradient id="_Безымянный_градиент_21" data-name="Безымянный градиент 21" x1="7438.43" y1="-121.95" x2="7438.43" y2="1498.76" gradientUnits="userSpaceOnUse">
      <stop offset="0" stop-color="#5e9a6c"/>
      <stop offset="1" stop-color="#92c29f"/>
    </linearGradient>
    <linearGradient id="_Безымянный_градиент_21-2" data-name="Безымянный градиент 21" x1="8386.97" y1="-24.13" x2="8386.97" y2="1387.67" xlink:href="#_Безымянный_градиент_21"/>
    <linearGradient id="_Безымянный_градиент_28" data-name="Безымянный градиент 28" x1="372.04" y1="2973.1" x2="372.04" y2="-86.67" gradientUnits="userSpaceOnUse">
      <stop offset="0" stop-color="#77c49b"/>
      <stop offset="1" stop-color="#c4cda7"/>
    </linearGradient>
    <linearGradient id="_Безымянный_градиент_28-2" data-name="Безымянный градиент 28" x1="1559.39" y1="3182.38" x2="1559.39" y2="80.57" xlink:href="#_Безымянный_градиент_28"/>
    <linearGradient id="_Безымянный_градиент_28-3" data-name="Безымянный градиент 28" x1="3692.74" y1="2239.93" x2="4238.72" y2="2239.93" xlink:href="#_Безымянный_градиент_28"/>
    <linearGradient id="_Безымянный_градиент_28-4" data-name="Безымянный градиент 28" x1="4540.06" y1="2955.59" x2="4540.06" y2="-152.83" xlink:href="#_Безымянный_градиент_28"/>
    <linearGradient id="_Безымянный_градиент_28-5" data-name="Безымянный градиент 28" x1="4651.16" y1="1713.71" x2="5317.53" y2="1047.34" xlink:href="#_Безымянный_градиент_28"/>
    <linearGradient id="_Безымянный_градиент_21-3" data-name="Безымянный градиент 21" x1="7174.36" y1="-134.72" x2="7174.36" y2="1400.62" xlink:href="#_Безымянный_градиент_21"/>
    <linearGradient id="_Безымянный_градиент_28-6" data-name="Безымянный градиент 28" x1="514.25" y1="2973.1" x2="514.25" y2="-86.67" xlink:href="#_Безымянный_градиент_28"/>
    <linearGradient id="_Безымянный_градиент_21-4" data-name="Безымянный градиент 21" x1="4414.45" y1="5426.36" x2="4381.55" y2="5282.67" gradientTransform="translate(-6207.32 14863.32) scale(2.49 -2.49)" xlink:href="#_Безымянный_градиент_21"/>
    <linearGradient id="_Безымянный_градиент_22" data-name="Безымянный градиент 22" x1="4419.66" y1="5426.88" x2="4442.85" y2="5308.02" gradientTransform="translate(-6207.32 14863.32) scale(2.49 -2.49)" gradientUnits="userSpaceOnUse">
      <stop offset="0" stop-color="#7fbdb5"/>
      <stop offset="1" stop-color="#b2eefa"/>
    </linearGradient>
    <linearGradient id="_Безымянный_градиент_28-7" data-name="Безымянный градиент 28" x1="1971.78" y1="1475.55" x2="2131.06" y2="1475.55" xlink:href="#_Безымянный_градиент_28"/>
    <linearGradient id="_Безымянный_градиент_28-8" data-name="Безымянный градиент 28" x1="4631.06" y1="5026.24" x2="4454.75" y2="4983.39" gradientTransform="translate(-6207.32 14863.32) scale(2.49 -2.49)" xlink:href="#_Безымянный_градиент_28"/>
    <linearGradient id="_Безымянный_градиент_29-3" data-name="Безымянный градиент 29" x1="4014.61" y1="5341.99" x2="4008.68" y2="5155.29" gradientTransform="translate(-6207.32 14863.32) scale(2.49 -2.49)" xlink:href="#_Безымянный_градиент_29"/>
    <linearGradient id="_Безымянный_градиент_28-9" data-name="Безымянный градиент 28" x1="4549.3" y1="3379.32" x2="4549.3" y2="-668.69" xlink:href="#_Безымянный_градиент_28"/>
    <linearGradient id="_Безымянный_градиент_28-10" data-name="Безымянный градиент 28" x1="4717.79" y1="1780.34" x2="5384.16" y2="1113.96" xlink:href="#_Безымянный_градиент_28"/>
    <linearGradient id="_Безымянный_градиент_28-11" data-name="Безымянный градиент 28" x1="1253.89" y1="2008.89" x2="1360.39" y2="2008.89" xlink:href="#_Безымянный_градиент_28"/>
    <linearGradient id="_Безымянный_градиент_31" data-name="Безымянный градиент 31" x1="4213.15" y1="5300.71" x2="4239.46" y2="5250.68" gradientTransform="translate(-6207.32 14863.32) scale(2.49 -2.49)" gradientUnits="userSpaceOnUse">
      <stop offset="0" stop-color="#6ea67f"/>
      <stop offset="1" stop-color="#9ac7ae"/>
    </linearGradient>
    <linearGradient id="_Безымянный_градиент_28-12" data-name="Безымянный градиент 28" x1="1369.5" y1="1954.92" x2="1410.99" y2="1954.92" xlink:href="#_Безымянный_градиент_28"/>
    <linearGradient id="_Безымянный_градиент_28-13" data-name="Безымянный градиент 28" x1="1364.94" y1="2102.22" x2="1590.77" y2="2102.22" xlink:href="#_Безымянный_градиент_28"/>
    <linearGradient id="_Безымянный_градиент_28-14" data-name="Безымянный градиент 28" x1="291.79" y1="2973.1" x2="291.79" y2="-86.67" xlink:href="#_Безымянный_градиент_28"/>
    <linearGradient id="_Безымянный_градиент_28-15" data-name="Безымянный градиент 28" x1="1340.11" y1="2028.4" x2="1386.02" y2="2028.4" xlink:href="#_Безымянный_градиент_28"/>
    <linearGradient id="_Безымянный_градиент_28-16" data-name="Безымянный градиент 28" x1="1311.39" y1="2174.95" x2="1377.13" y2="2174.95" xlink:href="#_Безымянный_градиент_28"/>
    <linearGradient id="_Безымянный_градиент_28-17" data-name="Безымянный градиент 28" x1="1272.19" y1="2338.43" x2="1593.7" y2="2338.43" xlink:href="#_Безымянный_градиент_28"/>
    <linearGradient id="_Безымянный_градиент_28-18" data-name="Безымянный градиент 28" x1="1300.03" y1="2303.15" x2="1318.82" y2="2303.15" xlink:href="#_Безымянный_градиент_28"/>
    <linearGradient id="_Безымянный_градиент_28-19" data-name="Безымянный градиент 28" x1="297.21" y1="3247.55" x2="297.21" y2="-1038.1" xlink:href="#_Безымянный_градиент_28"/>
    <linearGradient id="_Безымянный_градиент_28-20" data-name="Безымянный градиент 28" x1="1434.3" y1="3207.99" x2="1434.3" y2="-1189.52" xlink:href="#_Безымянный_градиент_28"/>
    <linearGradient id="_Безымянный_градиент_28-21" data-name="Безымянный градиент 28" x1="1396.45" y1="2461.99" x2="1427.52" y2="2461.99" xlink:href="#_Безымянный_градиент_28"/>
    <linearGradient id="_Безымянный_градиент_28-22" data-name="Безымянный градиент 28" x1="1521" y1="3079.35" x2="1521" y2="-2132.19" xlink:href="#_Безымянный_градиент_28"/>
    <linearGradient id="_Безымянный_градиент_56" data-name="Безымянный градиент 56" x1="5239.7" y1="4587.2" x2="5235.76" y2="4722.01" gradientTransform="translate(-6207.32 14863.32) scale(2.49 -2.49)" gradientUnits="userSpaceOnUse">
      <stop offset="0" stop-color="#82c673"/>
      <stop offset="1" stop-color="#5cc0aa"/>
    </linearGradient>
    <linearGradient id="_Безымянный_градиент_28-23" data-name="Безымянный градиент 28" x1="1564.94" y1="3194.26" x2="1564.94" y2="315.94" xlink:href="#_Безымянный_градиент_28"/>
    <linearGradient id="_Безымянный_градиент_58" data-name="Безымянный градиент 58" x1="3298.41" y1="4624.77" x2="3298.39" y2="4625.18" gradientTransform="translate(-6207.32 14863.32) scale(2.49 -2.49)" gradientUnits="userSpaceOnUse">
      <stop offset="0" stop-color="#129d63"/>
      <stop offset="1" stop-color="#74c674"/>
    </linearGradient>
    <linearGradient id="_Безымянный_градиент_28-24" data-name="Безымянный градиент 28" x1="4486.23" y1="1548.77" x2="5152.6" y2="882.4" xlink:href="#_Безымянный_градиент_28"/>
    <linearGradient id="_Безымянный_градиент_28-25" data-name="Безымянный градиент 28" x1="4576.32" y1="1638.87" x2="5242.7" y2="972.5" xlink:href="#_Безымянный_градиент_28"/>
  </defs>
  <g class="cls-57">
    <rect class="cls-12" x="-58.08" y="-341.43" width="10733.85" height="4127.7"/>
    <path class="cls-50" d="M8425.93,2531.89c-.92-64.61-.08-129.24-1.52-193.85-2.59-115.71-8.72-232.73-16.8-348.16-8.3-47.53-2.24-107.67-9.72-159.65l-.22-15.89c-9.15-43.81-5.91-116.15-7.58-163.19l-13.11-310.17c-26.12-.15-61.12,3.91-85.82-3.35,7.38,7.05,5.98,27.98,6.21,37.82,1.25,53.5.95,106.89,2.97,160.39,1.94,51.45,8.18,129.83,2.52,179.01l.42,2.58c-4.04,53.69-.82,109.25-.3,163.19,1.57,36.59,4.81,73.03,4.81,109.68l-3.39-2.17c-.22.34-.42.69-.67,1.02l20.31,434.56,1.94-1.45c.15,85.23,2.32,678.51,3.64,763.68.62,40.92-3.19,85.86,2.62,126.22,33.25-11.42,58.75-57.3,96.54-74.55,6.93-61.97-1.94-642.63-2.84-705.7Z"/>
    <polygon class="cls-22" points="6188.72 3209.32 6362.53 208.28 6443.67 261.02 6443.67 3209.32 6188.72 3209.32"/>
    <polygon class="cls-12" points="4673.19 3634.49 -261.69 3199.23 -286.52 -206.59 4648.5 -206.59 4673.19 3634.49"/>
    <rect class="cls-12" x="332.04" y="-227.52" width="3306.41" height="3142.9"/>
    <path class="cls-27" d="M1829.59,3132.74s-489.12-263.29-19.43-426.31c469.69-163.02,846.33,22.28,1032.43-158.99s976.47-500.48,1147.08-506.39-97.23,814.6-97.23,814.6l-810.57,303.67-1252.27-26.59Z"/>
    <path class="cls-2" d="M7410.94,1358.17c-35.16,18.01-586.58,289.72-1048.4,0-359.61-225.6-416.46-635.76-462.98-971.46-10.46-75.49-85.9-619.79,97.58-690.77,117.28-45.37,288.29,122.82,365.4,206.38h1048.4v1455.86Z"/>
    <path class="cls-53" d="M7015.89,1091.38s-277.3-148.34-277.3-367.06,44.64-348.17,0-517.79c-44.64-169.62-258.9-184.2,0-326.45,258.9-142.24,664.17-99.89,852.11-221.5,187.94-121.61,454.04,277.75,470.52,341.43,16.48,63.68,230.88,158.03,199.57,474.65-31.32,316.62-9.8,231.81-65.19,392.5-55.4,160.69-346.99,436.76-346.99,436.76l-832.72-212.54Z"/>
    <path class="cls-11" d="M3692.74,1224.82s-278.39-37.71-269.97-355.8c8.42-318.09-63.07-608.42,0-710.89,63.07-102.47,51.5-162.24,181.96-269.84,130.45-107.59,593.39-148.58,665.92-87.1,72.53,61.48,174,90.96,253.08,144.17,45.06,30.32,91.86,66.03,123.95,110.58,34.54,47.94,32.86,103.72,47.16,157.52,16.1,60.61,54.35,108.33,105.54,144.05,62.34,43.5,135.37,69.87,197.47,113.7,99.43,70.18,161.06,178.34,205.08,289.33,44.57,112.4,45.23,261.15,111.24,360.99l-58.99,95.03"/>
    <path class="cls-25" d="M8297.37,1375.44s385.63,50.17,502.38-147.49c116.75-197.67-30.62-1227.95-30.62-1227.95l-173.69-206.59-666.25,86.66,171.24,992.31-64.21,367.31,261.15,135.74Z"/>
    <path class="cls-59" d="M2425.39-59.72H968.08v1365.96l775.38,113.68c340.8,49.97,648.67-209.1,657.69-553.43l24.24-926.21Z"/>
    <rect class="cls-11" x="563.48" y="-35.71" width="847.51" height="1219.33"/>
    <polygon class="cls-11" points="5672.92 1251.11 5676.48 -341.43 5746.37 -236.01 5824.24 1290.72 5672.92 1251.11"/>
    <polygon class="cls-2" points="3892.22 1152.01 3940.75 -59.72 4151.55 -59.72 4259.55 1560.05 3892.22 1152.01"/>
    <path class="cls-51" d="M307.93-21.63l286.16-49.31c-74.41,54.58-144.14,1280.61-214.26,1340.24-18.77,167.73-40.57,335.11-65.4,502.05-5.59,39.28-10.02,79.19-16.4,118.29-3.59,21.98-14.11,49.78-12.48,71.61l2.85,1.31c53.25-39.35,104.95-80.79,158.22-120.19,20.14-14.89,40.27-31.79,61.74-44.59l-1.8,5.45c-.86,2.55-.42,1.4-1.45,3.5-4.79,9.74,3.55,31.37,7.11,41.47,6.76,19.18,17.74,39.62,20.24,59.79,4.91,15.73,14.04,65.12,12.63,79.61l-3.14-.63c-5.9-12.75-69.05-108.68-78.1-115.58-7.58,7.76-19.67,85.66-30.26,104.19l-3.29-4.04c-5.5,6.3-8.56,13.32-13.4,19.99-6.85,9.47-15.26,17.85-22.18,27.41-17.87,24.7-33.83,50.67-50.76,76-49.79,74.5-131.5,190.81-193.97,249.98v-215.41c6.97-21,4.81-50.47,7.11-72.9l22.04-205.88c7.94-71.84,21.03-143.05,29.46-214.86,13.4-114.08,22.05-228.57,33.14-342.89,6.49-66.87,63.56-1247.5,66.19-1314.61Z"/>
    <path class="cls-5" d="M184.8,3326.94c4.41-25.05,14.91-50.48,23.02-74.59l45.2-132.38c59.75-177.38,98.74-650.53,166.56-824.98,3.8-6.25,9.21-14.72,7.76-22.17-6.1,3.21-7.96,9.3-11.25,15.25-58.83,99.95-117.23,199.19-171.59,301.72l-64.02,123.14c-9.59,18.57,6.05,338.3-5.66,355.28l-24.83-358.82c7.58-9.98,21.96-89.38,26.95-108.57,12.6-48.41,29.63-96.19,47.15-143.02,23.57-62.98,53.51-124.24,81.81-185.18,44.12-95.02,91.98-199.07,127.67-297.02,10.59-18.53,22.68-96.43,30.26-104.19,9.05,6.9,72.2,102.83,78.1,115.58l3.14.63c1.41-14.48-7.72-63.88-12.63-79.61,6.31-120.63,5.49-241.89,11.37-362.69,3.54-68.67,7.53-137.31,11.95-205.93,2.67-39.41,6.95-78.75,7.69-118.25-31.53,42.55-65.46,83.36-98.45,124.78.71,42.14,7.39,85.49,11.59,127.46,7.55,75.5,14.79,151.22,23.32,226.61,1.97,17.39,14.61,79.24,11.24,93.01-.33,1.34-2.06,3.53-2.8,4.8-21.47,12.8-41.6,29.69-61.74,44.59-53.27,39.4-104.97,80.84-158.22,120.19l-2.85-1.31c-1.62-21.83,8.9-49.63,12.48-71.61,6.38-39.1,10.8-79.01,16.4-118.29,24.83-166.94,46.63-334.32,65.4-502.05,70.12-59.62,139.85-1285.65,214.26-1340.24l78.24-125c1.37,72.92,7.05,1432.97,8.71,1505.86,8.86,389.42,17.87,779.99,48.97,1168.35,4.48-14-7.59-152.39-8.9-182.52l-23.63-643.57-8.39-253.09c-.93-35.04-5.54-72.62-2.82-107.37.6-7.61,3.52-13.19,7.55-19.54l.32-.03,3.2,3.77-.17,1.06c-5.02,31.96.19,69.11,2.45,101.28,1.87,26.59,1.57,53.22,3.24,79.78,1.03,16.45,3.83,32.8,4.66,49.26.79,15.74-4.24,30.99-3.61,46.58.76,18.94,4.09,37.79,4.98,56.76l15.31,328.47c1.51,34.36-.09,68.84.65,103.22.45,21.01,3.45,42.16,3.37,63.13-.06,14.84-4.32,29.88-3.56,44.63.88,17.24,7.43,34.23,9.07,51.43,1.5,15.65-4.8,31.7-4.21,47.43,1.08,28.86,9.85,57.6,10.91,86.62,1.22,33.27-.44,66.69.93,99.94.48,11.81,4.31,22.5,4.63,34.28.79,29.17-1.06,60.51,3.21,89.3,2.78-26.04-1.45-51.75,1.5-77.67,4.43,32.69,3.65,66.14,6.47,99.02,7.67,91.94,42.17,480.86,53.84,572.38,4.75,34.67,8.01,73.4,18.52,106.8"/>
    <path class="cls-11" d="M672.32,1091.38h17.08l21.2,275.11c42.28.17,115.68-30.53,152.87-26.47-46.03,16.07-110.02,25.57-158.36,31.74,5.76,52.61,5.62,106.65,7.95,159.58.76,17.32-1.46,37.41,2.92,54.03l34.71,896.07c-2.95,25.91,1.27,51.63-1.5,77.67-4.27-28.79-2.41-60.13-3.21-89.3-.32-11.78-4.15-22.47-4.63-34.28-1.36-33.25.29-66.67-.93-99.94-1.07-29.02-9.83-57.76-10.91-86.62-.59-15.73,5.7-31.78,4.21-47.43-1.64-17.2-8.18-34.19-9.07-51.43-.76-14.75,3.5-29.79,3.56-44.63.09-20.97-2.92-42.11-3.37-63.13-.74-34.38.86-68.86-.65-103.22l-15.31-328.47c-.89-18.97-4.22-37.82-4.98-56.76-.62-15.59,4.4-30.83,3.61-46.58-.83-16.46-3.62-32.81-4.66-49.26-1.67-26.56-1.37-53.19-3.24-79.78-2.26-32.18-7.47-69.32-2.45-101.28l.17-1.06-3.2-3.77-.32.03c-4.03,6.35-6.96,11.93-7.55,19.54-2.72,34.76,1.89,72.34,2.82,107.37l8.39,253.09,23.63,643.57c1.31,30.12,13.38,168.51,8.9,182.52-31.1-388.36-40.11-778.93-48.97-1168.35-1.66-72.89-7.34-145.62-8.71-218.54Z"/>
    <path class="cls-11" d="M689.41,1091.38h368.12c7.73,6.62,15.54,14.39,24.41,19.41,18.31,18.68,73.66,55.08,83.65,72.83-34.4,43.62-85.83,75.88-135.89,98.52-11.34,5.13-62.75,22.51-67.1,27.36-21.22,9.95-76.41,30.52-99.1,30.52-37.19-4.06-110.6,26.63-152.87,26.47l-21.2-275.11Z"/>
    <path class="cls-11" d="M898.3,1025.66l297.8,65.72c35.37,17.59,77.41,23.89,115.71,32.39l11.74-32.39h186.84c-4.26,2.96-9.28,6.79-14.28,8.28-26.01,7.74-124.88-8.59-159.1-.09-34.1,8.47-15.91,71.76-48.83,72.81-8.73-4.91-16.82-12.37-25.59-16.58-7.1-3.41-15.4-4.09-23.05-7.85-27.57-13.54-65.42-42.1-94.45-47.68-20.91-4.02-46.53-1.2-67.89-1.13l-2.06,2.48,6.79,9.17c-8.87-5.03-175.89-78.51-183.63-85.13Z"/>
    <path class="cls-11" d="M1196.1,1091.38h127.45l-11.74,32.39c-38.29-8.49-80.33-14.79-115.71-32.39Z"/>
    <path class="cls-15" d="M1522.66-200.04h71.4c-1.51,133.91-21.42,1559.58-17.64,1693.37.63,22.26-3.69,48.37-1.28,69.81-5.89,83.11-6.67,173.11.92,256.13l2.25-3.37,3.03.52c.37,25.6,1.27,50.76,3.74,76.28,19.15-17.19,37.68-31.67,61.06-42.67,1.56-29.21,2.29-58.45,2.18-87.7-.25-17.42-2.28-38.23,1.71-55.1,4.03,24.28,2.67,115.65-.49,140.99-1.54,17.36-3.4,34.99-3.27,52.42.23,28.79,7.69,66.76-.8,94.37-1.94-22.36-.67-45.56-.61-68.02-17.84,7.12-38.87,13.49-55.34,23.28-5.63,3.34-5.72,4.1-7.28,10.25-19.68,37.41-46.61,71.09-72.72,104.19-47.41,60.1-99.03,117.94-144.59,179.29,18.7-10.25,36.36-23.03,55.16-32.74l8.75,2.81c-17.16,10.54-34.37,25.74-49.28,39.37-17.22,15.74-31.83,33.24-42.44,54.1-18.37,36.12-63.21,198.5-64.95,236.66l4.97,3.3c10.14-2.24,34.28-36.28,41.76-45.42,31.34-38.26,59.13-79.33,90.96-117.11,44.09-52.33,92.34-101.25,134.63-155.13,17.66-22.51,30.12-48.9,47.9-71.19l1.29-1.61c4.69,53.88,12.3,107.3,17.6,161.09-.68,7.62-.63,20.15-4.6,26.56-1.27-12.87-2-31.93-10.86-41.83-15.29,2.96-105.69,94.16-117.83,112.07-2.7,3.98-4.71,8.5-6.35,13.01-7.73,12.32-16.62,22.81-26.23,33.67,18.44-38.14,35.3-74.37,41.18-116.77-19.97,31.59-41.49,61.54-63.69,91.62-9.08,13.63-21.22,28.69-26.49,44.14,3.23,2.09,6.79,3.74,8.88,7.02-34.02,56.84-135.38,504.33-148.18,556.54-1.99,8.14,1.08,17.56,3.07,25.49.63,2.57,1.28,5.13,1.94,7.69,5.85,2.45,9.44,2.84,15.59.48,20.86-8.01,56.59-366.72,74.45-385.05l1.18.69c-8.9,15.88,3.3,326.11-5.51,341.68-4.85,8.58-6.73,18.56-10.33,27.67-16.19,40.96-20.46,61.77-12.97,105.49,106.7-96.02,177.36-498.74,271.77-606.59,43.21-14.75,5.58-66.52,22.79-87.09,2.61-3.12,2.98-7.14,3.73-11.04l.42-2.2c4.25,12.36-.19,32.45,7.14,42.54l4.07-4.78,1.39,1.75c-.42,6.49-1.45,10.92-4.17,16.76l-.8,1.69,1.4,3.09,4.99-5.62c5.52-39.43.74-73.47-2.51-112.76-1.11-13.46-.42-26.93-1.6-40.45,2.97-69.04.89-139.55,7.11-208.24,2.19,19.06-4.18,97.21,2.74,106.94,3.25-4.07,3-7.9,3.34-12.99,2.51-38.53-.16-78.12.66-116.81.45-21.03,3.52-41.89,4.26-62.89,1.14-32.3.55-65.22.47-97.56-.06-23.18-2.55-46.33-2.57-69.46-.01-9.41,2.32-18.14,1.89-28.01l2.58-.7c.31-3.12.6-6.17,1.25-9.24l1.16,7.02,2.63-1.37c-1.12-40.17-3.34-79.76-.98-119.99,1.88-32.15,7.56-64.35,10.3-96.55,1.15-13.49,9.78-27.11,9.66-39.36-.16-16.3-11-32.24-11.53-50.02l1.74-1.79-.18-4.3c2.02-2.24,4.26-4.98,6.7-6.79,3.98-2.96,6.52-2.4,10.95-1.58,6.57-2.39-1.05-24.08.66-31.87.65-2.94,6.46-9.38,8.26-12.34,5.01-8.23-.31-12.85-2.35-20.97l6.38,2.89c26.32-4.61,51.92-7.33,78.67-8.71,26-1.35,82.83,6.39,104.07-3.42.42-.19.82-.42,1.23-.63,2.48,2.37,4.41,3.46,7.47,4.85l7.49-4.22,9.88,3.63,4.76-3.86c5.7,4.09,19.41,2.57,22.74,6.07,9.07,9.51-.4,51.19,14.97,66.11,6.85,6.65,13.29,10.55,22.59,10.01l2.17-.33c7.84-1.22,17.15-6.08,24.44-6.32,5.63-.18,6.33,5.41,12.52,1.99,8.42-4.65,22.64-19.51,32.33-15.96-.37,6.08-2.01,9.44-5.32,14.5-5.04,2.21-17.31,6.16-19.31,11.3-9.79,25.22-.25,15.65-23.49,34-1.8,1.42-3.11,2.07-5.26,2.79-11.16,5.67-25.81,17.41-33.09,27.56-7.71,26.68-3.11,105.15,1.59,133.69l.26-1.37,8.32,167.13c1.84,33.09,5.89,65.99,7.13,99.17.7,18.78-.44,37.58.11,56.4l1.36-.26,3.07-14.75c1.84,27.91-2.54,62.64,4.19,89.19,1.88-25.04-2.28-51.71,1.27-76.23,5.74,31.99,2.98,66.32,5.31,98.84-3.34,21.33.01,46.24.77,67.91-86.16,40.36-171.53,83.22-256.95,125.16-20.94,10.28-40.03,25.1-61.28,34.46-4.84,2.13-8.4,5.55-12.24,9.09,4.46,1.33,4.78.97,8.95-.55l2.97,5.61c35.25-2.66,109.9-30.73,147.74-42.92,58.1-18.71,117.48-35.61,174.4-57.65.29,23.21-3.04,162.15,2.65,173.91,2.2,85.94,32.72,469.42,32.49,555.33-.04,14.16-2.82,121.88.02,127.52.63,1.25,1.8,2.14,2.7,3.2l1.44.46c-23.41,44.94-48.62,91.3-82.43,129.35-7.26-6.6-16.43-11.57-24.74-16.78-35.75,11.2-57.95,27.71-85.69,52.27.34-14.17.63-29.27-2.64-43.13-3.01-12.78-9.46-29.38-21.71-36.08-6.11-3.35-12.11-4.01-18.78-1.95-19.3,5.97-29.3,31.53-37.43,48.02-3.49-13.39-6.42-27.52-12.66-39.92-4.03-8.01-9.91-15.01-18.85-17.58-10.55-3.04-16.35,1.42-25.42,6.16-5.36-31.47-15.95-62.38-23.94-93.29-12.33-47.7-47.6-396.88-52.92-445.9-1.23-11.38-.87-41.96-9.46-49.15-16.86,9.22-261.69,608.22-277.83,632.14l-22.35,20.13c-13.84-22.23-32.75-39.55-54.96-53.24-37.65,15.94-49.57,48.5-76.81,76.02-.41-11.9.2-24.97-3.13-36.46-1.55-5.59-3.49-11.07-5.81-16.39-6.48-14.64-16.27-21.94-30.88-27.55,14.72-44.6,18.11-98.83,24.86-145.31,18.25-118.38,6.61-534.65,14.69-654.16,5.25-74.22,4.03-151.33,14.68-224.8,1.7,12.42,1.22,25.51,1.5,38.05,5.6-10.48,4.54-127.49,9.38-134.44-.44-8.99,2-15.94,2.47-24.53,1.18-21.71,1.41-42.97,3.93-64.65l.58,1.3c1.43-3.3,6.57-262.9,4.62-270.53-1.19,8.55-2.62,16.87-4.61,25.27-1.03-27.62,1.94-55.59,3.06-83.21,1.14-37.15,1.92-74.31,2.33-111.48,5.04-27.94,3.53-60.11,4.52-88.7-1.1-22.64.75-45.24,4.06-67.63,2.51,9.63,1.48,21.87,3.13,32.12,1.38-14.84,3.45-33.2-.95-47.58,6.66-15.17,2.17-170.13,2.36-200.43-21.73-22.55-47.93-40.32-70-62.61-9.98-17.75-65.34-54.15-83.65-72.83l-6.79-9.17,2.06-2.48c21.35-.06,46.98-2.89,67.89,1.13,29.03,5.59,66.88,34.15,94.45,47.68,7.65,3.76,15.95,4.44,23.05,7.85,8.77,4.21,16.86,11.67,25.59,16.58,32.91-1.06,27-1355.76,61.1-1364.23,34.23-8.5,57.65-.44,83.66-8.19-18.25-1299.69,85.45,2.96,89.71,0ZM1369.5,1990.53c-11.6,17.46-22.76,40.65-29.39,60.63-11.32,42.41-13.51,89.73-18.9,133.27-3.5,28.29-10.33,58.87-9.78,87.33-4.35,24.51-9.48,49.16-11.39,74,6.38-15.53,13.45-31.1,18.79-47,27.51-74.91,40.2-154.91,58.31-232.47,2.32-19.07,6.8-37.76,8.9-56.96,6.61-36.57,15.8-72.8,24.97-108.8-19.02,24.62-28.3,61.64-41.48,90.01ZM1357.62,1572.2c1.14,34.04-6.41,70.64-9.86,104.6-9.84,104.86-21.11,209.59-33.82,314.14-4.78,37.56-11.88,74.94-17.27,112.44l-29.42,216.64c-3.29,23.85-18.25,89.83-11.74,108.59,2.02,5.83,1.68,10.92,1.18,16.96,5.24-17.06,5.6-38.19,8.14-56.06l20.73-151.96c11.75-85.88,27.12-171.24,38.49-257.15,8.92-67.4,14.16-135.47,21.18-203.11,6.85-65.91,18.06-136.16,14.45-202.19l-2.07-2.92Z"/>
    <path class="cls-59" d="M1581.79,1091.38h80.73c-2.38,88.45-.11,176.98-1.63,265.43-.71,41.35-8.76,112.09-2.76,149.3l-1.57,13.64c-.54-12.06-1.29-24.05-.14-36.1l-2.99-4.03c-19.53,2.49-50.35,23.56-68.04,19.1-13.38,17.19,6.15,47.52-10.26,64.42-2.41-21.44,1.9-47.55,1.28-69.81-3.78-133.79,3.86-268.05,5.37-401.96Z"/>
    <path class="cls-26" d="M1693.63-363.39l185.48,127.38c.59,13.02,87.99,1351.52,86.41,1364.18-2.96,23.79-3.27,49.62.2,73.36,2.79,103-2.61,206.52,2.02,309.32-.23,11.45-3.61,36.01,4.03,44.67l.39,1.86c-9.3.54-15.74-3.36-22.59-10.01-15.37-14.91-5.9-56.6-14.97-66.11-3.33-3.49-17.04-1.98-22.74-6.07l-4.76,3.86-9.88-3.63-7.49,4.22c-3.06-1.4-4.99-2.49-7.47-4.85-.41.21-.81.43-1.23.63-21.24,9.81-78.07,2.07-104.07,3.42-26.75,1.38-52.35,4.1-78.67,8.71l-6.38-2.89c2.04,8.12,7.37,12.74,2.35,20.97-1.8,2.96-7.61,9.4-8.26,12.34-1.71,7.79,5.91,29.48-.66,31.87-4.43-.82-6.97-1.38-10.95,1.58-2.44,1.81-4.68,4.55-6.7,6.79l.18,4.3-1.74,1.79c-8.66-17.25-3.63-39.29-8.01-58.19-6-37.22,2.05-107.95,2.76-149.3,1.52-88.44,30.36-1631.74,32.74-1720.2Z"/>
    <path class="cls-59" d="M2016.62,1091.38h10.17c15.24,41.83,42.61,102.54,85.74,122.26,13.64,6.23,32.17,8.42,46.43,2.96,12.89-4.93,20.65-15.81,25.77-28.19,3.23-7.81,5.35-16.97,6.2-25.39,1.04,4.47,1.88,9.01,2.01,13.6.56,20.98-12.19,133.61-24.07,146.31-13.17,4.53-36.93-4.49-49.04-10.03-43.85-20.07-75.95-68.07-91.77-112.3-10.01-27.98-24.5-81.57-11.44-109.22Z"/>
    <path class="cls-59" d="M2026.8,1091.38h178.95c-6.08,23.63-11.89,47.36-14.82,71.64-.85,8.42-2.97,17.58-6.2,25.39-5.12,12.38-12.88,23.25-25.77,28.19-14.26,5.46-32.79,3.27-46.43-2.96-43.13-19.72-70.5-80.42-85.74-122.26Z"/>
    <path class="cls-11" d="M3604.46,1091.38h71.46c65.43,64.9,137.91,112.45,215.81,160.71-.62,155.44,20.19,310.27,39.18,464.02,3.61,29.2,2.17,68.87,9.85,96.04l-3.02,8.62c-11.91,2.28-27.69,2.44-35.44,13.22-8.35,11.56.02,24.62-16.4,31.63-4.71,10.32,1.67,54.5-3.19,57.96-5.38-22.53-4.04-61.71.22-84.53l-2.79-.67c-1.27,1.9-2.57,2.89-2.54,5.23.12-67.05.22-133.97,3.17-200.97-63.39-26.71-115.95-57.94-168.87-101.99l-5.11-2.05c-1.5-10.64-60.15-66.49-68.32-91.63-6.48-14.21-11.74-29.21-17.4-43.78,10.37-9.89,11.29-20.67,13.83-33.99l-30.16,4.15c-46.91,10.74-131.83,24.84-172.49,44.47-14.91,7.21-30.88,11.38-45.59,19.21,6.43,2.36,19.59-5.79,28.04-4.88l.67,3.3c-26.89,6.73-117.42,37.86-135.4,36.25,17.55-14.55,46.39-24.66,66.8-36.05,57.01-31.82,126.15-70.81,163.49-125.72,15.65-23.03,26.97-49.34,39.06-74.39,22.73-47.22,40.85-93.73,55.14-144.14Z"/>
    <path class="cls-2" d="M3675.92,1091.38h51.2c33.05,17.48,71.79,29.89,107.6,40.66,15.4,4.64,32.35,8.03,47.08,14.26-39.56,6-111.42-37.18-153.02-45.25-11.74-2.27-24.18-1.37-36.04-.8,40.53,39.24,243.7,106.07,257.16,134.61,4.79,10.16,4.81,26.71,4.99,37.98,1.25,73.75,1.62,147.25-9.32,220.33-4.04,26.94-20.64,55.6-20.89,82.18-.55,59.16,27.97,191.24,19.09,238.48-1.57-.46-2.17-.22-3.02-1.69-7.68-27.17-6.23-66.84-9.85-96.04-18.99-153.74-39.81-308.58-39.18-464.02-77.89-48.26-150.38-95.81-215.81-160.71Z"/>
    <path class="cls-2" d="M3945.94,1091.38h95.47l9.82,2.54-1.37,1.81c-10.07,1.26-22.43,1.4-30.96,7.28-2.12,8.02,31.41,88.78,34.67,107.77l-2.22.9-3.14-3.56c-2.19,2.37-3.04,4.14-4.09,7.18-17.87-37.94-38.68-81.64-63.98-115.18-9.2-.39-20.61-2.13-29.26.96-2.02,17.37,5.28,37.46-6.58,51.65-14.91,6.82-36.79,4.86-52.07-.71-3.51-1.29-6.31-2.67-8.67-5.65l17.17,2.36c10.72,2.48,22.98,2.26,34.02,3.02.37-20.45,6.36-40.6,11.19-60.36Z"/>
    <path class="cls-16" d="M4041.4,1091.38h176.65c5.78,87.47-.72,177.43-1.57,265.11-.9,93.15,3.34,186.8,7.8,279.82,1.2,25.24,1.37,51.04,3.79,76.15,1.72,17.71,6.38,36.46,6.01,54.16-.1,4.96-1.74,9.14-3.96,13.53,2.77,2.36,5.06,2.13,8.6,2.64-40.26,6.36-62.02,20.12-86.04,53.23-17.55,24.22-36.87,53.98-47.23,82.09-28.02,62.8-66.5,120.48-88.04,186.37-14.86,45.41-15.83,95.29-19.64,142.58-6.16,76.04-10.19,151.81-14.13,227.97-1.97,37.68-7.63,76.82-7.63,114.3-3.44,29.36-8.92,59.79-7.3,89.35l1.62,1.52c9.62-27.74,6.71-60.22,17.17-86.93,20.02-97.56,46.51-193.84,71.49-290.19,19.99-77.13,38.01-154.59,58.75-231.57-1.05,80.01-18.54,159.64-30.11,238.59-27.02,184.37-59.38,803.16-88.42,987.18-33.7,1.85-60.94,16.72-83.13,41.7-13.81,15.57-24.33,36.01-39.91,49.48-7.5-7.29-13.53-13.9-24.78-13.81-9,.07-17.6,5.39-26.57,6.87,1.5-25.48,5.68-51.29,8.28-76.75,4.64-47.62,8.7-95.29,12.19-143,16.48-230.76,28.6-910.73,26.2-1141.63l-.1-1.2c6.75-28.98,3.14-92.62,4.89-126.14.35-16.41.8-32.81,1.32-49.22-.02-2.34,1.27-3.33,2.54-5.23l2.79.67c-4.26,22.82-5.61,62-.22,84.53,4.86-3.46-1.52-47.64,3.19-57.96,16.43-7.01,8.05-20.07,16.4-31.63,7.75-10.78,23.53-10.94,35.44-13.22l3.02-8.62c.85,1.47,1.45,1.23,3.02,1.69,8.87-47.24-19.64-179.32-19.09-238.48.25-26.59,16.85-55.25,20.89-82.18,10.94-73.09,10.57-146.58,9.32-220.33-.17-11.27-.2-27.81-4.99-37.98-13.46-28.54-216.63-95.37-257.16-134.61,11.86-.57,24.3-1.48,36.04.8,41.6,8.07,113.46,51.25,153.02,45.25l1.74.06c2.37,2.98,5.16,4.36,8.67,5.65,15.28,5.57,37.16,7.53,52.07.71,11.86-14.19,4.56-34.28,6.58-51.65,8.65-3.09,20.07-1.36,29.26-.96,25.3,33.53,46.11,77.24,63.98,115.18,1.05-3.04,1.89-4.81,4.09-7.18l3.14,3.56,2.22-.9c-3.27-18.98-36.79-99.75-34.67-107.77,8.52-5.88,20.89-6.02,30.96-7.28l1.37-1.81-9.82-2.54ZM3969.12,2129.57c6.03-10.86,15.63-70.48,20.54-88.52,13.41-49.18,31.33-97.19,46.01-146.02,12.76-42.55,22.26-85.66,31.86-129.01,4.91-22.09,11.29-44.86,14.28-67.26-60.99,124.76-101.57,258.5-120.22,396.11-3.46,24.53-9.45,52.31-8,77.02-1.97,22.66-8.7,50.34-1.79,72.44l1.45-.96c9.75-34.57,12.64-77.93,15.88-113.82Z"/>
    <path class="cls-11" d="M4212.17,915.16l29.27,176.22c-3.54,73.65,1.92,148.24,4.86,221.86,2.64,66.34,3.19,132.86,5.63,199.27,1.67,44.45-2.24,106.05,5.58,148.08l-1.2,7.4c2.72,60.46,1.55,122,6.06,182.16-.27,8.03,2.34,32.5-1.62,38.47l-.45-.95c-2.87,3.63-5.51,7.33-8.08,11.17-.57-38.6-12.26-77.07-13.51-116.06-3.54-.5-5.83-.28-8.6-2.64,2.22-4.39,3.86-8.56,3.96-13.53.37-17.7-4.29-36.45-6.01-54.16-2.42-25.12-2.59-50.92-3.79-76.15-4.46-93.02-8.7-186.67-7.8-279.82.85-87.68,1.47-353.85-4.32-441.32Z"/>
    <path class="cls-11" d="M4241.43,1091.38h184.2c4.14,69.19,2.04,139.51,1.72,208.79l-.82,253.72-.4-1.86c-2.62-12.44-2.87-25.48-3.66-38.15h-2.32c-3.86,11.97-7.73,13.33-18.64,18.94-40.5,20.79-80.36,24.58-125.05,23.77-4.29-.08-15.13-1.72-16.9,3.46-10.24,29.53,1.74,69.31-2.04,100.54-7.83-42.04-3.91-103.63-5.58-148.08-2.44-66.42-2.99-132.94-5.63-199.27-2.94-73.63-8.4-148.22-4.86-221.86Z"/>
    <path class="cls-13" d="M4425.63-236.01h224.33c2.14,52.15,6.33,1434.11,3.64,1486.14-5.38-8.17-3.32-28.61-3.39-38.8-4.74,9.54,1.52,344.16,4.49,378.12l1.55,2.1c2.47,27.82-1.79,83.46,4.69,105.25l-1.6,8.01c-.2-.51-.4-1.01-.55-1.52-8.05-24.67-1.02-133.09-23.06-145.2-18.35-10.08-56.73.13-76.92,4.25-11.19,2.28-39.48,24.96-46.89,23.09l-1.77-5.74c-8.8,7.26-56.16,41.48-58.5,48.8l3.56,5.16c-6.61,16.68-18.84,35.2-22.61,52.28-4.79,21.69.55,47.2-8.08,67.98l-5.36-1.72.95-7.46,2.97-1.74c2.42-19.69,1-41.2,1.45-61.09,1-42.66,2.59-85.33,1.99-128l.82-253.72c.32-69.27,2.42-1466.98-1.72-1536.17Z"/>
    <path class="cls-11" d="M4649.96,1091.38h358.61c-6.01,71.1-11.84,157.97-8.15,228.84-1.15-5.07-.8-8.65-5.36-11.63-40.33,4.78-80.44,11.08-120.64,16.69-19.99,2.79-40.75,4.08-60.52,7.91l-8.8.25c-6.56.65-14.71.24-19.74,4.84-30.33,98.6-51.32,146.8-126.2,221.03-.27,45.74,5.51,91.81,1.77,137.5-6.48-21.79-2.22-77.44-4.69-105.25,4.39-112.93,2.07-228.41-2.64-341.42,2.69-52.03-1.5-106.61-3.64-158.76Z"/>
    <path class="cls-14" d="M5008.57,1091.38h41.18c1.4,60.43,4.31,120.45,11.47,180.49,1.69,14.22,2.27,31.02,6.11,44.69,5.36,17.73,5.23,39.97,7.15,58.54,8.45-26.85,17.25-53.64,24.73-80.78,19.34-54.78,41.2-145.02,49.75-202.95h32.78c-6.08,28.22-7.33,57.86-10.42,86.54-4.16,38.68-9.85,77.78-17.5,115.93-.35,1.72-.2,1.25.05,3.47-13.73,57.95-26.82,118.02-56.18,170.47-4.56,11.52-9.5,25.51-16.33,35.89-26.1,49.53-48.61,92.1-88.09,132.85-17.57,15.66-35.49,31.58-55.09,44.69-39.58,24.96-80.76,47.32-123.23,66.95-34.47,15.15-112.46,49.91-147.71,54.05-6.78-17.67-8.67-77.55-7.9-97.41l1.6-8.01c50.52-11.62,100.95-24.92,149.68-42.7,4.76-2.34,9.85-3.88,14.86-5.58,2.52.64,5.21,1.1,7.83.73,20.04-2.83,85.52-41.02,96.24-57.23,1.4-6.79,11.59-15.37,16.38-20.59l-1.84-4.29c11.19-13.93,22.58-26.62,31.16-42.45,8.92-14.52,15.1-31.32,21.86-46.97,3.07-11.78,7.45-23.28,8.97-35.44,4.94-39.47-5.98-79.97-5.68-119.59l.05-2.48c-3.69-70.86,2.14-157.74,8.15-228.84Z"/>
    <path class="cls-11" d="M5049.75,1091.38h99.2c-8.55,57.93-30.41,148.16-49.75,202.95-9.67.64-21.44.02-29.19,6.44-2.99,5.38-2.79,9.87-2.69,15.79-3.84-13.67-4.41-30.47-6.11-44.69-7.15-60.04-10.07-120.06-11.47-180.49Z"/>
    <path class="cls-11" d="M5181.73,1091.38h132.43c-3.39,110.89-4.49,221.41-5.98,332.33-7.83-23.94-1.52-126.84-1.05-155.68-36.79,1.91-106.06,10.06-141.13,18.75-7.5,1.86-8.25,4.15-12.14,10.54-.25-2.23-.4-1.76-.05-3.47,7.65-38.14,13.34-77.25,17.5-115.93,3.09-28.68,4.34-58.32,10.42-86.54Z"/>
    <path class="cls-11" d="M5314.16,1091.38l21.16-766.34c-2.92,63.2,61.27,893.7,65.93,956.71-2.44,98.62,11.91,197.13,12.36,295.41,4.89,260.8,13.51,521.52,25.85,782.08-.52,17.18-2.57,183.72-2.14,184.98l-1.57.71-4.06-4.72c-23.7,2.71-38.46,13.07-59.37,22.63-5.86,2.68-12.09,3.57-17.62,7.12-11.91,7.64-22.03,17.92-34.57,24.64l-1.84-12.12-2.62.31-2.47,27.53c-2.02-43.39-3.07-86.81-3.14-130.24-.1-24.09,1.57-49.65-1-73.54l1-660.56-.37-70.66-.07-119.7c-.22-43.97-.7-87.93-1.42-131.9,1.5-110.92,2.59-221.44,5.98-332.33Z"/>
    <path class="cls-11" d="M5469.15,1091.38h20.51c4.74,73.84,20.26,149.16,33.03,222.09,7.98,36.63,15.33,71.08,32.18,104.89l-.65,3.54c-9.8-4.92-19.94-38.86-23.43-49.42-18-54.79-18.94-114.51-38.49-168.1,3.09-8.08,2.99-8.47.27-16.71-5.58,13.93,2.94,19.55,1.65,31.11-.82,7.48-13.81,7.29-16.13,11.82-7.08,13.84,2.59,124.97,4.36,145.74,1.77,21.07,21.19,56.96,17.87,74.66-25.5-49.79-28.34-105.83-33.23-160.49,1.1-66.38-1.2-132.79,2.04-199.13Z"/>
    <path class="cls-24" d="M7015.89,1091.38h316.94c-2.84,65.31-10.08,130.17-11.98,195.28-8.77,11.07-4.76,44.81-4.41,58.89l-1.35.04-2.02-18.21c-38.71-8.71-78.79-19.28-117.03-30.07-11.94-12.76-22.91-26.03-33.75-39.75-11.69-22.4-30.71-44.35-44.99-65.48-16.65-40.67-67.3-75.17-101.42-100.7Z"/>
    <path class="cls-2" d="M7985.12,1091.38l157.48-162.83c-48.18,94.5-233.1,256.87-269.12,277.84-7.1-3.06-17.22-1.94-24.88-1.93,43.57-41.06,88.51-77.34,136.52-113.08Z"/>
    <path class="cls-2" d="M8005.94,1091.38l136.67-162.83c-29.69,46.9-154.44,262.58-231.16,290.89-24.53,12.01-51.37,19.79-76.87,29.6l-.85-3.13c5.11-6.21,14.68-4.65,21.93-10.7,1.25-6.82,4.91-13.01,7.98-19.18l9.85-9.65c36.02-20.97,102.02-84.17,132.46-115.01Z"/>
    <path class="cls-11" d="M962.58,1309.5c4.35-4.85,55.76-22.23,67.1-27.36,50.06-22.64,101.49-54.91,135.89-98.52,22.07,22.29,48.27,40.06,70,62.61-.18,30.3,4.3,185.26-2.36,200.43-1.45-8.21-3.06-16.39-3.69-24.72-6.28-1.78-8.62-.15-14.58,2l-4.29,4.96c5.3,7.87,9.96,12.97,10.23,22.67-7.12,1.29-18.11-9.43-23.55-2.98-65.11-19.63-137.25-56.55-190.25-98.17-15.87-12.46-29.01-28.02-44.52-40.93Z"/>
    <path class="cls-11" d="M5663.27,1267.48c2.04-18.57.97-38.34,1.87-57.13.65,30.47-1.5,268.05,4.51,277.53,5.43-25.51,9.67-219.29,3.27-236.76l24.05-23.51c13.88-1.66,28.64-4.53,42.62-3.2,12.26,9.7,73.8,61.6,74.98,74.23,1.42,15.08,1.65,30.46,2.32,45.59l.65-5.24c2.17,27.86-1.15,98.56,9.15,119.61-.3-13.02-1.05-26,1.37-38.87,7.33,38.41,8.3,109.44,8.9,150.05,14.03,150.76,16.4,303.62,24.75,454.86,1.45,26.08-2.19,84.09,3.44,105.18,2.74,52.43,8.6,107.01,7.7,159.38-2.27,53.46,6.01,108.05,4.36,161.57l-2.42.11c-27.44,1.48-147.26,65.53-166.16,86.9-5.51,6.22-10.47,14.57-17.9,18.4l-4.66.09v-1.79c0-7.75-2.04-14.93-2.22-22.52-.45-20.81,1.92-41.78-.12-62.53,1.27-20.49.92-44.07-2.07-64.34-4.04,18.47.15,38.23-2.82,56.87-1.52-13.38-1.57-32.48-7.03-44.59l-.87-2.73c3.14-33.22-3.09-67.56-.22-101.09,9.85-28.48,3.32-117.34,2.87-151.83-.47-39.52.8-78.83-.4-118.41l-1.22-.2c.45,13.78,0,26.94-1.35,40.67-2.97-27.25-1.67-55.87-1.62-83.3.15-70.16,3.91-142.01-.5-211.99-5.41-35.13.47-202.65-9.32-217.98-15.98-4.78-31.83-11.15-47.04-18.04-45.76-20.77-93.27-52.37-111.82-101.46,3.31-17.7-16.1-53.59-17.87-74.66-1.77-20.76-11.44-131.9-4.36-145.74,2.32-4.54,15.3-4.34,16.13-11.82,1.3-11.56-7.23-17.18-1.65-31.11,2.72,8.23,2.82,8.63-.27,16.71,19.54,53.59,20.49,113.31,38.49,168.1,3.49,10.56,13.63,44.49,23.43,49.42l.65-3.54c21.19,28.99,51.65,65.84,88.51,74.54,7.35,1.73,11.79.47,18.15-3.48,7.35-20.78,2.19-186.67,1.74-221.93Z"/>
    <path class="cls-2" d="M6443.67,1343.43c40.93-14.55,84.25-21.79,124.55-38.53,29.96-12.45,58.95-28.85,88.01-43.35,46.11-23.01,93.7-45.4,141.45-64.83-27.47,23.76-63.04,42.09-94.04,61.19-54.34,33.46-108.98,66.89-161.32,103.43-1.07,16.57-2.52,33.17-2.04,49.78-3.02-15.66-1.82-32.64-1.77-48.58-37.29,6.26-63.56,2.95-94.84-19.1Z"/>
    <path class="cls-2" d="M8082.71,1052.5l9.12,179.72c-.67,29.3,1.5,57.84,2.59,87.05.05,61.23.37,122.45,1.05,183.68.37,38.62-1.57,82.67,5.36,120.57l.82,49.6c-1,84.14,8.35,168.94,5.23,252.9l-.85,6.32-.45,2.23c-1.92,9.38-.85,28.08-4.71,35.83-.5-10.6-1.12-21.21-.95-31.82-39.73,23.92-85.89,40.5-121.96,70.06-3.76-17.34.37-36.23-3.74-53.03.2-48.79-1.62-98.23-4.59-146.94-4.41-87.81-4.29-175.62-4.59-263.53,5.01-23.86,1.3-56.09,1.02-80.64-1.05-53.95-1.4-107.91-1.05-161.87,5.06-8.61.87-24.6,1.3-34.42.37-9.08,2.62-11.61,8.85-17.49l.22-11.9c17.11-56.85,75.14-171.13,107.31-186.35ZM8088.91,1319.85c-1.72,23.04-5.83,153.06-.12,162.96l2.34-1.31c.4-26.95,4.29-142-2.22-161.65ZM8094.97,1640.98c-.22,38.03-7.95,87.98,2.27,124.23l.42,1.54c2.34-20.95,5.91-110.26-2.69-125.77Z"/>
    <path class="cls-5" d="M4656.25,1591.55l-1.55-2.1c-2.97-33.96-9.22-368.58-4.49-378.12.07,10.19-1.99,30.63,3.39,38.8,4.71,113.01,7.03,228.49,2.64,341.42Z"/>
    <path class="cls-17" d="M508.36,1797.78c.74-1.27,2.48-3.47,2.8-4.8,3.37-13.76-9.27-75.62-11.24-93.01-8.53-75.39-15.77-151.11-23.32-226.61-4.2-41.98-10.88-85.33-11.59-127.46,32.99-41.42,66.93-82.23,98.45-124.78-.74,39.51-5.02,78.85-7.69,118.25-4.42,68.62-8.4,137.26-11.95,205.93-5.88,120.79-5.06,242.06-11.37,362.69-2.5-20.17-13.48-40.61-20.24-59.79-3.56-10.09-11.9-31.73-7.11-41.47,1.03-2.1.59-.95,1.45-3.5l1.8-5.45Z"/>
    <path class="cls-11" d="M5153.86,1297.32c3.89-6.39,4.64-8.68,12.14-10.54,35.07-8.69,104.34-16.84,141.13-18.75-.47,28.84-6.78,131.74,1.05,155.68.72,43.96,1.2,87.93,1.42,131.9-21.83-4.12-43.45-9.52-65.06-14.6-14.33-3.19-30.76-5.47-44.24-11.12l-44.02-10.95c-19.39-2.23-38.81-6.8-58.18-9.83-5.38-2.19-11.17-3.7-16.75-5.43,6.83-10.38,11.76-24.37,16.33-35.89,29.36-52.45,42.45-112.52,56.18-170.47Z"/>
    <path class="cls-11" d="M5067.32,1316.56c-.1-5.93-.3-10.41,2.69-15.79,7.75-6.42,19.52-5.8,29.19-6.44-7.48,27.14-16.28,53.93-24.73,80.78-1.92-18.57-1.79-40.81-7.15-58.54Z"/>
    <path class="cls-11" d="M4813.9,1333.18c19.77-3.83,40.53-5.12,60.52-7.91,40.21-5.6,80.31-11.91,120.64-16.69,4.56,2.98,4.21,6.56,5.36,11.63l-.05,2.48c-.3,39.62,10.62,80.13,5.68,119.59-1.52,12.15-5.91,23.65-8.97,35.44l-10.34-4.24c-14.61-5.19-27.42-12.35-40.8-20.06-22.78-14.43-43.74-33.37-64.46-50.71-18.35-24.32-46.14-47.46-67.57-69.53Z"/>
    <path class="cls-11" d="M962.58,1309.5c15.51,12.91,28.65,28.46,44.52,40.93,52.99,41.63,125.14,78.55,190.25,98.17,11,4.69,23.04,8.29,33.69,13.51-3.3,22.39-5.16,44.99-4.06,67.63l-3.79-2.49c-8.46,17.46-9.15,46.69-13.22,66.14-3.04,17.35-5.85,34.73-8.44,52.14-8.08,16.8-13.14,91.33-16.09,114.8-7.8,61.96-17.24,124.14-23,186.3-11.65,125.68-16.95,251.51-25.31,377.36-5.8,87.26-15.59,174.97-19.16,262.26-2.8,68.41,25.33,433.84,22.79,502.12l-4.95,160.49c-.41,17.63-3.59,36.95-2.23,54.36-18.35-18.08-48.97-45.28-76.24-44.67-11.16.25-19.77,5.96-27.17,13.93-15.09,16.24-26.52,39.1-38.28,57.86-4.49-.74-8.03-1.92-12.19-3.75-.16-.41-.29-.82-.47-1.22-5.48-12.24-27.33-19.41-39.15-24.45,14.79-94.47,8.37-485.32,23.39-579.68,5.43-34.15,8.28-68.74,13.36-102.97,24.81-164.79,46.66-330.01,65.54-495.58-52.32-87.91-71.37-166.25-85.45-266.29-4.49-31.88-10.02-65.71-7.44-97.87-53.48-9.64-99.57-19.3-137.71-60.9-4.77-17.7,16.49-38.41,23.16-54.96,3.8-9.43,5.34-20.74.86-30.23-10.45-22.18-50.69-38.94-72.77-46.21-11.96-3.94-33.19-12.63-45.16-6.6-2.17,8.33-1.77,17.15-1.9,25.7-4.39-16.62-2.16-36.71-2.92-54.03-2.33-52.93-2.19-106.97-7.95-159.58,48.34-6.16,112.33-15.67,158.36-31.74,22.69,0,77.88-20.57,99.1-30.52ZM965.03,1759.33c20.83,78.17,23.71,132.23,66.77,207.81,4.93,8.65,11.64,22.62,19.94,28.16,3.84-4.25,2.87-10.4,2.79-16.08-.24-74.3,14.52-145.88,20.59-219.52-36.28,4.92-73.69,1.89-110.1-.37Z"/>
    <path class="cls-2" d="M8088.79,1482.81c-5.71-9.89-1.6-139.91.12-162.96,6.51,19.65,2.62,134.7,2.22,161.65l-2.34,1.31Z"/>
    <path class="cls-23" d="M4659.16,1559.3c74.88-74.23,95.86-122.43,126.2-221.03,5.04-4.59,13.19-4.19,19.74-4.84-2.52,31.33-.85,63.34-.2,94.75,1.55,75.35,6.58,150.51,5.71,225.91-48.73,17.78-99.15,31.08-149.68,42.7,3.74-45.68-2.04-91.76-1.77-137.5Z"/>
    <path class="cls-52" d="M4805.1,1333.43l8.8-.25c21.44,22.07,49.23,45.2,67.57,69.53,8.35,64.49,20.61,126.01,36.49,189.06-28.81,24.73-58.03,41.07-92.5,56.75-5.01,1.71-10.1,3.24-14.86,5.58.87-75.41-4.16-150.56-5.71-225.91-.65-31.41-2.32-63.42.2-94.75Z"/>
    <path class="cls-18" d="M2090.78,1347.07c11.55,6.48,27.24,14,36.7,23.17l-.04,2.41c-.49,43.26,12.07,78.19-6.97,120.24-18.86,44.36-72.32,73.43-108.77,102.2l-12.43,8.94-9.02-4.67c2.15-.72,3.46-1.37,5.26-2.79,23.25-18.35,13.7-8.78,23.49-34,2-5.14,14.27-9.1,19.31-11.3,3.31-5.06,4.95-8.42,5.32-14.5-9.68-3.55-23.91,11.31-32.33,15.96-6.19,3.42-6.89-2.17-12.52-1.99-7.3.23-16.61,5.09-24.44,6.32l-2.17.33-.39-1.86c30.7-20.11,73.76-41.93,91.88-74.93,23.4-26.34,17.68-98.77,27.12-133.52Z"/>
    <path class="cls-11" d="M3604.73,1373.34l30.16-4.15c-2.54,13.32-3.46,24.1-13.83,33.99l-6.03-14.82-10.29-15.02Z"/>
    <path class="cls-11" d="M3415.37,1435.44l-.67-3.3c-8.45-.91-21.61,7.24-28.04,4.88,14.71-7.84,30.68-12.01,45.59-19.21,40.65-19.63,125.58-33.73,172.49-44.47l10.29,15.02c-39.16,7.42-77.37,18.81-116.58,26.08,23.18,96.79,27.74,232.61,122.71,290.94,5.56,3.39,11.19,6.66,16.9,9.82-.2-36.43-.2-72.85,0-109.28,3.89,27.46,7.73,238.88,2.14,247.46l-.2-13.35c-.67-25.01-.2-50.12-.17-75.14-18.57-5.84-37.11-14.16-53.94-23.94-111.24-64.71-111.84-200.89-141.25-312.26l-29.26,6.75Z"/>
    <path class="cls-11" d="M3498.45,1414.44c39.21-7.26,77.42-18.66,116.58-26.08l6.03,14.82c5.66,14.57,10.92,29.57,17.4,43.78-.4,52.99-.55,105.97-.4,158.96-.2,36.43-.2,72.85,0,109.28-5.71-3.16-11.34-6.44-16.9-9.82-94.97-58.32-99.53-194.14-122.71-290.94Z"/>
    <path class="cls-59" d="M4881.47,1402.71c20.71,17.34,41.68,36.28,64.46,50.71,1.47,20.72,13.63,48.57,23.01,67.33l6.28,3.94c-8.57,15.83-19.97,28.52-31.16,42.45-8.6,8.14-17.05,17.02-26.1,24.63-15.88-63.05-28.14-124.57-36.49-189.06Z"/>
    <path class="cls-11" d="M1197.35,1448.6c5.45-6.46,16.43,4.26,23.55,2.98-.27-9.7-4.93-14.8-10.23-22.67l4.29-4.96c5.95-2.16,8.3-3.79,14.58-2,.63,8.32,2.24,16.51,3.69,24.72,4.4,14.38,2.34,32.74.95,47.58-1.66-10.26-.63-22.49-3.13-32.12-10.65-5.22-22.69-8.82-33.69-13.51Z"/>
    <path class="cls-10" d="M7010.83,1429.7l-3.14-4.38-4.51,1.12c-8.65,15.42-8.5,41.86-9.95,59.32-.32.68-.67,1.34-1,2.02-5.04,10.92-5.68,30.94-6.71,43.03-1.35-9.95-1.15-13.61-7.43-21.69-9.82-5.23-18.25-3.43-28.42-.25-13.24,4.13-25.6,8.78-37.74,15.55,13.61-14.63,80.01-93.18,89.96-99.59,3.61-2.34,4.59-1.42,8.62-.59l.3,5.45Z"/>
    <path class="cls-11" d="M3638.46,1446.96c8.18,25.14,66.83,80.99,68.32,91.63-4.54,39.77-1.35,82.76-1.37,122.88-.02,61.85.12,123.29,2.84,185.09,1.07,24.3,1,49.81,4.89,73.84,2.97-75.94.35-151.5-.5-227.44-.32-30.13-2.72-62.04-.42-92,5.68,45,3.71,92.06,3.96,137.42l1.37,182.99c-.02,26.71-2.29,54.52-.37,81.04-.1,30.53.37,61.23-.55,91.74l.3,603.29c-.07,64.27,7.6,564.23,4.01,628.5-.15-.42-.3-.83-.45-1.26-7.38-22.89-1.02-59.94-4.19-85.58-1.74,32.63-1.47,65.75-3.61,98.23-27.72,22.32-56.78,45.67-81.73,70.98,9.77-38.69-1.42-157.39-1.84-203.41-.07-8.61,3.69-17.92,4.99-26.51,1.52-10.24,1.6-456.12,1.83-466.45,1.52-70.41-.75-140.72-2.49-211.09.02,15.22,1.72,33.54-2.62,48.11-.17.63-.4,1.25-.57,1.87-2.74-145.42,11.07-291.28,4.44-436.67,2.22-27.32.55-55.7,1-83.2.85-59.21,2.37-118.4,4.54-177.57,5.58-8.57,1.74-219.99-2.14-247.46-.15-52.99,0-105.98.4-158.96ZM3713.33,2248.34c-12.84,31.92-5.53,305.57-2.09,354.25,8.23-23.5,2.22-306.65,2.09-354.25Z"/>
    <path class="cls-12" d="M4968.94,1520.75c-9.37-18.75-21.54-46.61-23.01-67.33,13.39,7.71,26.2,14.87,40.8,20.06-5.13,14.84-17.62,31.79-17.8,47.26Z"/>
    <path class="cls-59" d="M1575.14,1563.14c16.41-16.9-3.12-47.23,10.26-64.42,17.69,4.46,48.51-16.61,68.04-19.1l2.99,4.03c-1.15,12.05-.4,24.04.14,36.1-1.13,25.43-2.76,50.95-2.96,76.41-25.02-3.95-50.62-6.99-75.35-12.44.38,34.04.47,68.1,2.25,102.1-3.91,42.85-1.1,86.98-2.19,130.06l-2.25,3.37c-7.59-83.02-6.81-173.01-.92-256.13Z"/>
    <path class="cls-12" d="M4968.94,1520.75c.17-15.48,12.66-32.42,17.8-47.26l10.34,4.24c-6.76,15.65-12.94,32.45-21.86,46.97l-6.28-3.94Z"/>
    <path class="cls-2" d="M6911.95,1524.42c12.14-6.77,24.5-11.41,37.74-15.55,10.17-3.18,18.59-4.97,28.42.25,6.28,8.08,6.08,11.74,7.43,21.69,1.02-12.09,1.67-32.11,6.71-43.03.32-.68.67-1.35,1-2.02.57,42.92-5.18,86.8-7.05,129.82-.97,17.54.05,36.6-2.67,53.82l-1.02,1.38c-45.54,21.07-93.25,38.59-139.98,56.9-46.99,18.4-94.32,38.35-142.9,52.09l-1.42-1.27c-1.99-52.37-1.12-105.54-.77-157.98,14.31-.66,30.23-6.49,44.07-10.56,61.74-18.2,121.39-43.09,170.47-85.53ZM6704.37,1624.57c-3.32,20.65-3.42,37.33.5,57.91l-.7-3.36c6.21-18.22,9.87-34.81,1.05-52.88-.27-.56-.55-1.11-.85-1.66Z"/>
    <path class="cls-12" d="M5081.35,1503.67c5.58,1.73,11.37,3.24,16.75,5.43l.35,36.42c-1.87,77.78,2.37,156.09,5.91,233.78-47.98-42.46-84.3-83.93-111.09-142.78,39.48-40.75,61.99-83.33,88.09-132.85Z"/>
    <path class="cls-3" d="M5098.1,1509.1c19.37,3.03,38.78,7.6,58.18,9.83,3.44,24.31,6.43,48.67,8.95,73.09-.32,16.68,2.07,117.96.87,120.92-14.03-31.94,5.38-133.03-15.03-166.21l-2.59.67c-4.54,17.03-.95,32.06-2.67,48.94-1.92,11.02,2.07,34.49-2.64,42.75-6.56-38.3-6.38-79.5-4.71-118.27-9.72-3.49-19.69-5.51-29.79-7.64-14.88,22.83,4.74,101.62-4.66,133.07-3.34-23.1.87-85.04-5.11-99.76-.15-.33-.3-.65-.45-.97l-.35-36.42Z"/>
    <path class="cls-28" d="M1658.13,1506.11c4.38,18.9-.65,40.93,8.01,58.19.53,17.78,11.38,33.72,11.53,50.02.12,12.25-8.51,25.87-9.66,39.36-2.74,32.21-8.42,64.41-10.3,96.55-2.35,40.24-.14,79.82.98,119.99l-2.63,1.37-1.16-7.02c-.66,3.07-.95,6.13-1.25,9.24l-2.58.7c.06-8.67-1.01-17.64-1.54-26.32,3.16-25.34,4.52-116.71.49-140.99,2.05-36.99,3.25-74.01,3.57-111.05.19-25.46,1.82-50.98,2.96-76.41l1.57-13.64Z"/>
    <path class="cls-11" d="M4257.51,1660.59c3.79-31.23-8.2-71.01,2.04-100.54,1.77-5.18,12.61-3.54,16.9-3.46,44.69.81,84.55-2.98,125.05-23.77,10.92-5.61,14.78-6.97,18.64-18.95h2.32c.8,12.68,1.05,25.72,3.66,38.16l.4,1.86c.6,42.68-1,85.35-1.99,128-.45,19.9.97,41.41-1.45,61.09-4.01-33.26-.77-69.25.05-102.8-55.66,8.72-111.12,19.11-166.83,27.81l1.2-7.4Z"/>
    <path class="cls-19" d="M5098.45,1545.52c.15.32.3.64.45.97,5.98,14.71,1.77,76.66,5.11,99.76,9.4-31.45-10.22-110.24,4.66-133.07,10.09,2.13,20.07,4.14,29.79,7.64-1.67,38.77-1.84,79.97,4.71,118.27,4.71-8.25.72-31.72,2.64-42.75,13.58,49.08,4.16,153.34,4.44,206.56.35,68.52,3.96,137.36,5.18,205.93,2.44,128.32,2.89,256.66,1.35,384.99-.67,68.46-1.6,137.24-3.94,205.66-1.15,33.14-8.85,68.9-3.19,101.61-.22.37-.47.73-.67,1.1-12.51,23.44,8.82,529.07-6.96,545.94-9.37,10.01-28.49,17.78-40.53,24.83-5.98-4.06-7.2-11.45-8.52-18.44-5.01-26.88-3.19-56.22-2.32-83.42,4.84,3.86,7.95,21.09,9.85,27.47l1.6-.47c1.55-58.18-3.23-551.02-3.31-609.07l2.57-367.18c-6.51,24.05,2.74,49.87-5.81,75.67l.97-8.86c-11.14,36.31-6.98,291.5-6.21,346.77.3,21.16,5.8,503.36-1.9,522.06-5.18-115.83-1.41-668.26-1.29-784.22.17-145.01-2.22-288.97,2.89-434.02-76.85-64.53-106.03-172.3-151.82-258.01,19.59-13.12,37.51-29.04,55.09-44.69,26.8,58.84,63.11,100.32,111.09,142.78-3.54-77.7-7.78-156-5.91-233.78Z"/>
    <path class="cls-12" d="M5156.28,1518.93l44.02,10.95c15.3,63.07,48.98,142.52,87.61,194.17,6.58,8.81,15.68,14.08,22.13,21.92l-1,660.56c-2.42,33.26-1.98,884.59-.83,887.93l2.44,2.74-1.37,4.01c-18.52-1.08-30.93,3.03-47.48,10.48-10.52-26.18-23.83-38.89-49.23-51.06-5.51-24.48-4.69-51.36-5.83-76.42l-5.35-558.38c4.64-28.67-.75-66.75-1.74-96.26l-10.42-259.41c-4.49-172.72-10.52-345.4-18.07-518.02-2.44-53.44-.92-106.75-5.93-160.12-2.52-24.42-5.51-48.79-8.95-73.09Z"/>
    <path class="cls-46" d="M1209.98,1593.39c4.07-19.45,4.76-48.68,13.22-66.14l3.79,2.49c-.98,28.59.52,60.76-4.52,88.7l-3.6,1.04c.58-5.38,1.94-12.23.73-17.51-1.26-5.5-5-6.09-9.63-8.58Z"/>
    <path class="cls-59" d="M5200.3,1529.88c13.48,5.64,29.91,7.93,44.24,11.12,10.89,43.54,38.39,98.66,65.13,134.3l.37,70.66c-6.46-7.84-15.55-13.11-22.13-21.92-38.63-51.65-72.31-131.09-87.61-194.17Z"/>
    <path class="cls-11" d="M3706.78,1538.59l5.11,2.05c.02,20.04-.6,40.31.32,60.32-2.29,29.96.1,61.87.42,92,.85,75.94,3.46,151.5.5,227.44-3.89-24.03-3.81-49.54-4.89-73.84-2.72-61.8-2.87-123.24-2.84-185.09.02-40.12-3.17-83.11,1.37-122.88Z"/>
    <path class="cls-21" d="M3711.89,1540.64c52.92,44.05,105.49,75.27,168.87,101.99-2.94,67-3.04,133.92-3.17,200.97-.52,16.4-.97,32.81-1.32,49.22l-4.21-19.95c-27.42-8.12-58.9-4.1-87.22-8.24,8.15,21.49,15.78,43.38,24.88,64.47,6.16,14.78,11.96,29.86,19.39,44.06l4.51,15.39c-2.74.26-4.11-.22-6.16,1.73l13.04,10.68c-7.18,6-17.8,5.79-27.02,6.15-1.89,3.03-4.16,8.42-7.48,9.42-4.99-2.23-6.21-4.34-9.2-8.82-1.67-2.52-3.59-4.38-5.86-6.34-20.49-28.48-52.87-97.41-52.67-132.02.02-3.65-.6-5.69-2.14-9-5.88-1.5-9.72-2.84-15.63-.54-8.2,39.69,6.26,96.3-2.87,140.4l-.47,2.22c-1.92-26.52.35-54.33.37-81.04l-1.37-182.99c-.25-45.36,1.72-92.42-3.96-137.42-.92-20.01-.3-40.28-.32-60.32Z"/>
    <path class="cls-12" d="M5309.67,1675.31c-26.75-35.64-54.24-90.77-65.13-134.3,21.61,5.08,43.22,10.48,65.06,14.6l.07,119.7Z"/>
    <path class="cls-5" d="M5165.23,1592.02c5.01,53.37,3.49,106.68,5.93,160.12,7.55,172.62,13.58,345.3,18.07,518.02l10.42,259.41c1,29.51,6.38,67.59,1.74,96.26-9.37,49.83,3.98,570.33,3.61,625.79-17.17-.29-29.96-10.35-48.13-6.78-12.36-15.42,2.82-546.73-1.51-573.81l.37.97c-4.84,6.59-2.62,20.67-6.08,29.08-5.66-32.71,2.04-68.47,3.19-101.61,2.34-68.42,3.27-137.2,3.94-205.66,1.55-128.33,1.1-256.67-1.35-384.99-1.22-68.57-4.84-137.41-5.18-205.93-.27-53.23,9.15-157.48-4.44-206.56,1.72-16.87-1.87-31.9,2.67-48.94l2.59-.67c20.41,33.18,1,134.27,15.03,166.21,1.2-2.95-1.2-104.24-.87-120.92Z"/>
    <path class="cls-20" d="M4424.54,1753.9c8.62-20.78,3.29-46.28,8.08-67.98,3.76-17.08,16-35.6,22.61-52.28l-3.56-5.16c2.34-7.32,49.7-41.54,58.5-48.8l1.77,5.74c7.4,1.88,35.69-20.81,46.89-23.09,20.19-4.12,58.58-14.34,76.92-4.25,22.03,12.11,15.01,120.53,23.06,145.2.15.51.35,1.01.55,1.52-.77,19.87,1.12,79.74,7.9,97.41-2.52,34.78,1.37,71.38,2.74,106.27l8.65,203.5c6.06,133.03,14.46,265.67,23.28,398.58,8.4,126.14,15.5,684.92,38.53,809.52-5.83,15.43,2.37,37.71-4.26,49.95l-11.39-3.16-2.39,1.96.02.64c-12.16,6.89-17.47,14.04-21.26,27.51-2.94,10.48-3.76,22.54-9.27,32.01l-3.79-.16c-5.46-35.44-2.62-76.72-3.74-112.93-2.54-82.45-5.8-599.84-5.8-682.35-6.26-20.71-6.68-149.27-6.58-181.47l-9.62-241.56c-.62-16.97,2.27-33.83,1.32-50.66-.27-4.77-1.35-8.72-3.61-12.97-6.85,3.75-8.97,34.67-14.78,43.53-1.22,1.85-3.27,1.61-5.33,2.06-10.59-10.32-4.46-36.24-15.2-49.32-2.57-3.11-4.24-2.51-8-2.86-7.45,4.12-11.62,10.75-16.38,17.53-8.72,12.36-3.94,29.63-9.52,43.56-7.43,2.71-17.6-4.54-26.47-3.51-7.58,5.54-27.14,21.2-29.31,30.07-9.9,40.42-9.57,149.34-9.62,195.3-2.57,39.14-10.52,164.89-1.79,195.86,4.36-4.21,6.06-101.21,10.67-118.17,7-36.72,11.02-73.91,17.72-110.64,5.63,39.48,2.02,82.58,1.7,122.5-.2,41.23-.72,82.45-1.52,123.68-.9,33.39-4.62,502.62-.33,535.87,8.6,66.75,47.01,147.23,76.6,207.78-7.78,1.36-41.78,13.03-45.96,12.4-4.44-.66-20.24-51.7-47.06-64.19-61.77-28.74-110.55,38.68-133.7,39.98-17.32.98-16.87-11.4-43.6-1.4.37-10.4,1.62-20.42,3.19-30.7,3.09-23.61,4.04-47.89,5.91-71.65,3.49-21.81,3.99-45.85,4.84-67.92.95-37.97,3.57-511.15,7.56-548.91,2.32,14.65.4,30.8,2.07,45.99.62-26.78,15.18-81.98,4.66-105.49l-4.06,2.77c.27-43.2,4.49-86.53,6.95-129.65,5.36-92.98,11.39-186.51,14.66-279.56,3.02-86.88,7.08-173.9,9.17-260.78,1.02-41.83-1.07-126.31,6.43-162.12,5.21,26.37-.95,57.29,2.67,84.79,2.17-29.31,6.61-60.53,2.34-89.76Z"/>
    <path class="cls-2" d="M8103.84,1714.59c1.57-13.45.8-28.31-2.19-41.46l-.82-49.6c1.37-28.43-2.59-56.25-2.37-84.55"/>
    <path class="cls-12" d="M715.99,1585.36c.13-8.55-.27-17.37,1.9-25.7,11.97-6.03,33.2,2.66,45.16,6.6,22.08,7.27,62.31,24.03,72.77,46.21,4.47,9.49,2.94,20.8-.86,30.23-6.67,16.54-27.93,37.25-23.16,54.96,38.14,41.6,84.23,51.25,137.71,60.9-2.58,32.15,2.95,65.99,7.44,97.87,14.08,100.04,33.13,178.38,85.45,266.29-18.89,165.57-40.74,330.79-65.54,495.58-5.07,34.23-7.92,68.82-13.36,102.97-15.02,94.35-8.61,485.21-23.39,579.68-8.67-2.47-17.32-5.02-25.95-7.66,1.45-4.51,2.15-9.49,3.14-14.13,9.63-30.28,7.62-54.54,3.72-85.69-35.06,16.27-60.15,32.56-86.2,61.31l-5.28,4.87c-10.5-33.41-13.77-72.13-18.52-106.8-11.67-91.52-46.17-480.44-53.84-572.38-2.82-32.88-2.04-66.33-6.47-99.02l-34.71-896.07Z"/>
    <path class="cls-38" d="M4944.06,1567.14l1.84,4.29c-4.79,5.21-14.98,13.8-16.38,20.59-10.72,16.21-76.2,54.4-96.24,57.23-2.62.37-5.31-.09-7.83-.73,34.47-15.68,63.68-32.02,92.5-56.75,9.05-7.61,17.5-16.48,26.1-24.63Z"/>
    <path class="cls-37" d="M1256.7,2445.58c.5-6.05.84-11.14-1.18-16.96-6.51-18.76,8.45-84.74,11.74-108.59l29.42-216.64c5.39-37.5,12.49-74.88,17.27-112.44,12.71-104.55,23.98-209.28,33.82-314.14,3.45-33.97,11.01-70.57,9.86-104.6l2.07,2.92c3.61,66.03-7.6,136.29-14.45,202.19-7.03,67.63-12.27,135.7-21.18,203.11-11.37,85.91-26.74,171.27-38.49,257.15l-20.73,151.96c-2.54,17.87-2.9,39-8.14,56.06Z"/>
    <path class="cls-59" d="M1578.25,1583.73c24.73,5.45,50.33,8.49,75.35,12.44-.33,37.04-1.52,74.07-3.57,111.05-3.99,16.87-1.95,37.68-1.71,55.1l-3.61-1.56c-2.48-1.03-4.54-2.04-7.28-1.79-17.76,1.59-31.02-3.87-49.58,1.32l-3.17-2.51c-2.63-23.92-2.05-47.98-4.18-71.94-1.78-34-1.86-68.07-2.25-102.1Z"/>
    <path class="cls-48" d="M1209.98,1593.39c4.63,2.49,8.36,3.08,9.63,8.58,1.21,5.28-.15,12.13-.73,17.51.97,14.47-5.54,27.48-10.79,40.64h-.33c-1.91,3.04-1.92,3.38-5.23,4.62-1.77-6.59-1.38-12.5-.99-19.2,2.59-17.42,5.41-34.8,8.44-52.14Z"/>
    <path class="cls-28" d="M1984.48,2079.89c-3.54,24.53.61,51.19-1.27,76.23-6.74-26.55-2.35-61.28-4.19-89.19l-3.07,14.75-1.36.26c-.55-18.82.59-37.62-.11-56.4-1.24-33.18-5.29-66.08-7.13-99.17l-8.32-167.13-.26,1.37c-4.71-28.54-9.31-107.01-1.59-133.69,7.28-10.15,21.93-21.9,33.09-27.56l9.02,4.67c-11.13,7.28-22.4,14.35-33.8,21.22,1.3,45.08,3.53,90.77,1.99,135.84-1.7,41.2-2.82,95.68,6.82,135.62-.64,35.45,3,71.46,5.19,106.85,1.55,25.14,1.59,51.43,5,76.33Z"/>
    <path class="cls-12" d="M1218.87,1619.48l3.6-1.04c-.41,37.16-1.19,74.32-2.33,111.48-1.12,27.62-4.09,55.6-3.06,83.21-3.38,90.06-5.3,180.13-9.76,270.14-2.6,52.34-10.29,107.21-8.1,159.39-10.65,73.47-9.42,150.58-14.68,224.8-8.09,119.51,3.56,535.78-14.69,654.16-6.74,46.47-10.14,100.71-24.86,145.31-3.45,11.6-6.12,25.52-11.38,36.3-1.36-17.41,1.82-36.73,2.23-54.36l4.95-160.49c2.53-68.27-25.59-433.71-22.79-502.12,3.57-87.3,13.36-175,19.16-262.26,8.36-125.86,13.66-251.68,25.31-377.36,5.76-62.16,15.19-124.34,23-186.3,2.95-23.46,8.01-98,16.09-114.8-.39,6.7-.78,12.61.99,19.2,3.31-1.24,3.33-1.58,5.23-4.61h.33c5.25-13.17,11.76-26.18,10.79-40.65Z"/>
    <path class="cls-2" d="M6704.17,1679.12l.7,3.36c-3.91-20.58-3.81-37.26-.5-57.91.3.56.57,1.1.85,1.66,8.82,18.07,5.16,34.67-1.05,52.88Z"/>
    <path class="cls-49" d="M4256.31,1667.99c55.71-8.7,111.17-19.1,166.83-27.81-.82,33.55-4.06,69.54-.05,102.8l-2.97,1.74-3.04-6.24c-5.36,1.1-6.68,1.48-9.77,6.52-6.51,10.63-9.97,27.1-13.76,39.2-5.36-8.28-4.89-10.32-4.86-19.86-8.65-2.72-24.28,2.61-34.17,3.33l-2.09-5.76-.15-4.04c-22.23.48-46.09,10.97-68.57,14l-.77,2.21c-3.86,10.58-11.44,16.48-16.13,25.96-7.05,14.29-.42,33.81-1.45,49.22l-2.99.9c-4.51-60.16-3.34-121.7-6.06-182.16Z"/>
    <path class="cls-2" d="M8097.66,1766.75l-.42-1.54c-10.22-36.25-2.49-86.21-2.27-124.23,8.6,15.51,5.04,104.83,2.69,125.77Z"/>
    <path class="cls-2" d="M6699.61,1779.77c48.58-13.74,95.91-33.69,142.9-52.09,46.74-18.31,94.44-35.83,139.98-56.9,2.64,14.49,1.92,29.35,1.82,44.02-20.29-1-46.79,8.09-66.68,12.75-46.34,10.71-92.55,21.94-138.66,33.68-26.02,6.84-52.62,16.02-78.96,21.25l-.4-2.71Z"/>
    <path class="cls-2" d="M8109.75,1922.12c-.32.43-.65.89-.97,1.33-.4.53-.82,1.04-1.22,1.58-.22.32-.45.67-.67,1,3.12-83.96-6.23-168.77-5.23-252.9,2.99,13.15,3.76,28.01,2.19,41.46l.85,44.23"/>
    <path class="cls-12" d="M4814.95,1748.17c42.47-19.63,83.65-41.99,123.23-66.95,45.79,85.71,74.98,193.48,151.82,258.01-5.11,145.05-2.72,289.01-2.89,434.02-.12,115.96-3.9,668.4,1.29,784.22.1,28.41-.15,56.93,1.37,85.3,1.17,21.69,4.61,44.99,3.96,66.63-.12,4.34-.9,7.6-3.74,10.88-26.55-12.69-55.09-16.51-83.53-6.71-14.31,4.93-26.77,13.76-33.5,27.6-7.58,15.56-6.41,34.91-3.22,51.46-20.94-1.45-40.28-43.97-97.51-38.41-.35-.2-.8-.29-1.1-.59-.1-.11-2.67-3.75-2.77-3.98-6.18-17.67-7.38-140.94-8.92-170.33-9.9-157.27-18.61-749.86-26.41-907.24-7.65-174.21-16.92-349.57-18.1-523.92Z"/>
    <path class="cls-9" d="M1578.31,1815.9c1.08-43.08-1.72-87.21,2.19-130.06,2.12,23.96,1.55,48.02,4.18,71.94l3.17,2.51c18.57-5.19,31.82.28,49.58-1.32,2.74-.25,4.8.76,7.28,1.79-20.36,7.09-42.99,11.21-64.28,14.73.32,13.56,1.21,27.38.9,40.92l-3.03-.52Z"/>
    <path class="cls-2" d="M8104.69,1758.82l-.85-44.23"/>
    <path class="cls-5" d="M3969.12,2129.57c-.1-.33-.25-.66-.35-1-1.67-5.76.4-11.05,1.97-16.59l-1.45-2.96-2.42,3.74-2.19-5.49c-7.23,20.42-6.08,43.38-11.09,64.63-1.45-24.71,4.54-52.49,8-77.02,18.64-137.61,59.22-271.35,120.22-396.11-2.99,22.4-9.37,45.17-14.28,67.26-9.6,43.35-19.09,86.46-31.86,129.01-14.68,48.83-32.6,96.83-46.01,146.02-4.91,18.03-14.51,77.66-20.54,88.52Z"/>
    <path class="cls-12" d="M1969.79,1708.13c13.6,2.67,37.28.87,48.32,9.1,4.88,3.64,3.88,11.11,4.44,16.77-9.09,44.51-26.98,74.13-51.08,111.71-1.21-27.68-3.53-56.47-1.84-84.1,1.22-17.59.21-35.83.16-53.49Z"/>
    <path class="cls-2" d="M6700,1782.47c26.35-5.22,52.94-14.41,78.96-21.25,46.11-11.74,92.32-22.97,138.66-33.68,19.89-4.65,46.39-13.74,66.68-12.75-.17,66.03-2.99,136.02,4.24,201.51l-4.34,4.5c-31.11,16.5-280.96,154.8-290.63,155.07-.6-2.25-1.57-4.76-1.67-7.08,5.08-27.03,3.26-58.94,3.81-86.49.92-64.77,1.32-129.55,1.25-194.32l3.04-5.51Z"/>
    <path class="cls-46" d="M4393.55,1784.19c3.79-12.1,7.25-28.57,13.76-39.2,3.09-5.04,4.41-5.41,9.77-6.52l3.04,6.24-.95,7.46.35,6.69c-7.5,35.81-5.41,120.29-6.43,162.12-2.09,86.88-6.16,173.9-9.17,260.78-3.27,93.06-9.3,186.59-14.66,279.56-2.47,43.13-6.68,86.46-6.95,129.65-.55,17.72-4.64,39.55-2.67,56.74-3.99,37.77-6.61,510.94-7.56,548.91-12.09-4.29-22.68-.25-32.6-8.88-13.26-113.28-26.26-658.25-35.96-772.31-5.68-66.74-5.76-135.91-15.63-201.97,1-24.11-2.67-49.44-4.36-73.54-3.24-46.53-6.21-93.09-8.92-139.66-.77-17.28-2.09-34.53-3.96-51.73,2.74.37,5.23.43,7.85-.63,10.72-4.3,66.8-75.95,75.5-88.79,9.7-14.33,18.87-29.39,25.05-45.59,6.41-8.07,10.72-19.81,14.51-29.34Z"/>
    <path class="cls-11" d="M4667.24,1802.22c35.24-4.15,113.24-38.9,147.71-54.05,1.17,174.34,10.44,349.7,18.1,523.92,7.8,157.38,16.52,749.98,26.41,907.24,1.55,29.39,2.74,152.65,8.92,170.33.1.23,2.67,3.87,2.77,3.98.3.3.75.39,1.1.59-25.65,9.86-53.37,25.58-64.71,52.19-.42.97-.77,1.97-1.12,2.97-4.76,6.38-7.75,15.91-10.94,23.3l-2.99.48c-14.03-14.46-28.54-34.3-38.21-51.97-6.33-19.13-10.42-41.26-13.83-61.1-23.03-124.6-30.13-683.38-38.53-809.52-8.82-132.91-17.22-265.55-23.28-398.58l-8.65-203.5c-1.37-34.89-5.26-71.49-2.74-106.27Z"/>
    <path class="cls-5" d="M4419.18,1752.18l5.36,1.72c4.26,29.24-.17,60.45-2.34,89.76-3.61-27.49,2.54-58.42-2.67-84.79l-.35-6.69Z"/>
    <path class="cls-12" d="M4352.43,1761.91c-8.25,14.31-16.48,28.87-22.98,44.08-10.22,16.11-35.34,69.82-52.84,75.01-3.61,1.07-4.94.09-7.83-1.81-1.6-1.04-2.22-1.95-2.97-3.66l-.45-26.27c1.02-15.41-5.61-34.93,1.45-49.22,4.69-9.48,12.26-15.39,16.13-25.96l.77-2.21c22.48-3.02,46.34-13.52,68.57-14l.15,4.04Z"/>
    <path class="cls-12" d="M1054.54,1979.22c.07,5.68,1.04,11.83-2.79,16.08-8.31-5.54-15.01-19.5-19.94-28.16-43.06-75.58-45.94-129.64-66.77-207.81,36.41,2.26,73.82,5.29,110.1.37-6.07,73.64-20.84,145.22-20.59,219.52Z"/>
    <path class="cls-12" d="M1580.44,1775.49c21.28-3.52,43.91-7.64,64.28-14.73l3.61,1.56c.1,29.25-.62,58.49-2.18,87.7-23.39,11-41.92,25.48-61.06,42.67-2.47-25.52-3.37-50.68-3.74-76.28.3-13.55-.58-27.36-.9-40.92Z"/>
    <path class="cls-11" d="M4329.45,1805.99c6.51-15.21,14.73-29.77,22.98-44.08l2.09,5.76c9.9-.72,25.52-6.06,34.17-3.33-.02,9.54-.5,11.58,4.86,19.86-3.79,9.53-8.1,21.27-14.51,29.34-6.48,3.49-8.75,4.97-16.33,4.37-13.56-1.06-24.08-1.17-33.28-11.92Z"/>
    <path class="cls-5" d="M4105.44,1918.1c10.37-28.11,29.69-57.87,47.23-82.09,24.03-33.11,45.79-46.87,86.04-53.23,1.25,39,12.94,77.46,13.51,116.06,2.57-3.84,5.21-7.54,8.08-11.17l.45.95c3.96-5.97,1.35-30.43,1.62-38.47l2.99-.9.45,26.27c2.09,24.31,3.71,48.65,4.84,73.02,1.87,17.2,3.19,34.45,3.96,51.73l-2.29-3.09-1.99,1.14c.1,12.6,1.1,26.42-.22,38.92-.9,8.46-4.26,17.08-5.04,26.36l-1.79-1.45c-7.1-27.19-19.84-130.9-14.83-152.65-1.12-3.72-4.59-7.93-6.68-11.29-.4-.51-.85-1-1.25-1.53-13.11-17.72,5.98-53.97-9.27-70.26-7.25-1.15-51.4-12.38-54.99-9.86-31.01,21.75-41.7,78.23-70.81,101.52Z"/>
    <path class="cls-11" d="M1217.07,1813.13c1.99-8.4,3.41-16.72,4.61-25.27,1.95,7.63-3.19,267.23-4.62,270.53l-.58-1.3c-2.51,21.68-2.75,42.94-3.93,64.65-.47,8.59-2.91,15.53-2.47,24.53-4.85,6.96-3.78,123.96-9.38,134.44-.27-12.54.21-25.63-1.5-38.05-2.19-52.17,5.5-107.04,8.1-159.39,4.46-90.01,6.38-180.08,9.76-270.14Z"/>
    <path class="cls-5" d="M4265.81,1875.52c.75,1.71,1.37,2.62,2.97,3.66,2.89,1.9,4.21,2.88,7.83,1.81,17.5-5.19,42.62-58.91,52.84-75.01,9.2,10.75,19.72,10.86,33.28,11.92,7.58.6,9.85-.88,16.33-4.37-6.18,16.2-15.35,31.27-25.05,45.59-8.7,12.83-64.78,84.49-75.5,88.79-2.62,1.05-5.11,1-7.85.63-1.12-24.37-2.74-48.71-4.84-73.02Z"/>
    <path class="cls-5" d="M4105.44,1918.1c29.11-23.29,39.81-79.77,70.81-101.52,3.59-2.52,47.73,8.71,54.99,9.86,15.25,16.29-3.84,52.54,9.27,70.26.4.53.85,1.02,1.25,1.53.85,58.95,11.47,117.31,16.05,176.12,3.17,40.83,6.71,82.55,7.8,123.46.9,33.77-.8,67.47,1.15,101.26,4.04,70.77,14.18,141.75,15.23,212.62.1-21.54.55-43.07,1.35-64.6,4.04,64.85,7.95,130.02,14.23,194.68,4.14,42.58,10.34,520.18,14.25,562.78,5.11,55.92,4.81,114.82,15.15,169.9-10.92-5.96-22.66-11.35-34.7-14.62-27.59-7.5-56.38-7.16-81.63,7.23-8.65-4-17.82-8.11-26.94-10.92-20.74-6.39-38.29-2.94-57.23,6.77-40.85-36.29-72.19-58.24-127.27-65.61,29.04-184.02,61.4-802.81,88.42-987.18,11.57-78.95,29.06-158.59,30.11-238.59-20.74,76.98-38.76,154.44-58.75,231.57-24.98,96.35-51.47,192.63-71.49,290.19-1.12-4.42-2.99-8.67-4.61-12.93l-3.54-1.08-3.34,10.06c0-37.49,5.66-76.62,7.63-114.3,3.94-76.17,7.98-151.93,14.13-227.97,3.81-47.28,4.79-97.16,19.64-142.58,21.54-65.89,60.02-123.58,88.04-186.37Z"/>
    <path class="cls-28" d="M1645.48,1994.99c8.49-27.6,1.02-65.58.8-94.37-.14-17.43,1.72-35.06,3.27-52.42.53,8.67,1.6,17.65,1.54,26.32.43,9.87-1.9,18.6-1.89,28.01.03,23.13,2.51,46.28,2.57,69.46.09,32.34.68,65.25-.47,97.56-.74,21-3.82,41.86-4.26,62.89-.82,38.69,1.85,78.28-.66,116.81-.33,5.09-.08,8.92-3.34,12.99-6.92-9.73-.55-87.88-2.74-106.94-.94-53.08,4.45-107.03,5.18-160.31Z"/>
    <path class="cls-12" d="M3717.17,2002.41l.47-2.22c9.12-44.09-5.33-100.7,2.87-140.4,5.91-2.3,9.75-.96,15.63.54,1.55,3.31,2.17,5.35,2.14,9-.2,34.61,32.18,103.54,52.67,132.02l-1.22,2.91c-2.49,2.9-2.97,4.34-4.01,7.97-7.93,27.48-60.3,51.53-69.09,81.91.92-30.51.45-61.21.55-91.74Z"/>
    <path class="cls-12" d="M3784.84,1864.62c28.32,4.14,59.8.13,87.22,8.24l4.21,19.95c-1.74,33.52,1.87,97.16-4.89,126.14-4.59-30.49.2-66.61-.27-97.92-.15-4.92.85-21.45-1.7-24.63-2.09,8.13-2.09,16.07-9.7,20.85-10.94,6.86-37.19,12.67-50,11.84-9.1-21.1-16.73-42.99-24.88-64.47Z"/>
    <path class="cls-2" d="M8119.6,2081.21l-1.22-29.17-2.07-1.62,1.99,3.22-1.99-4.85c-2.02,9.36-2.42,18.57-2.84,28.11-8.9-45.96-2.34-97.43-7.43-144.56l.85-6.32c.22-.33.45-.67.67-1,.4-.54.82-1.05,1.22-1.58.32-.44.65-.9.97-1.33"/>
    <path class="cls-46" d="M3871.11,1921.03l-3.46,1.53c-1.1,10.41,5.41,30.73-2.74,37.45-8.33,6.85-27.94,4.89-33.18,12.29l-2.62.85c-7.43-14.21-13.24-29.28-19.39-44.06,12.81.83,39.06-4.97,50-11.84,7.6-4.78,7.6-12.72,9.7-20.85,2.54,3.18,1.55,19.71,1.7,24.63Z"/>
    <path class="cls-5" d="M4241.76,1898.23c2.09,3.36,5.56,7.57,6.68,11.29-5.01,21.74,7.73,125.45,14.83,152.65l1.79,1.45c.77-9.28,4.14-17.91,5.04-26.36,1.32-12.5.32-26.32.22-38.92l1.99-1.14,2.29,3.09c2.72,46.57,5.68,93.12,8.92,139.66,1.69,24.1,5.36,49.43,4.36,73.54l-5.86-10.46c-6.83-11.91-12.26-32.72-9.95-46.25-5.41,17.75.17,46.91,1.3,65.77,3.66,62.14,7.43,124.66,8.5,186.89.22,11.88,2.79,26.17,1.45,37.67-.8,21.52-1.25,43.06-1.35,64.6-1.05-70.88-11.19-141.85-15.23-212.62-1.94-33.79-.25-67.49-1.15-101.26-1.1-40.9-4.64-82.63-7.8-123.46-4.59-58.81-15.2-117.18-16.05-176.12Z"/>
    <path class="cls-32" d="M1369.5,1990.53c13.19-28.37,22.46-65.4,41.48-90.01-9.17,36-18.35,72.23-24.97,108.8-5.76-10.58-5.43-13.86-16.52-18.79Z"/>
    <path class="cls-48" d="M3831.73,1972.3c5.23-7.4,24.85-5.44,33.18-12.29,8.15-6.72,1.65-27.04,2.74-37.45l3.46-1.53c.47,31.32-4.31,67.44.27,97.92l.1,1.2-7.43,3.77c-11.64-16.5-24.2-33.08-32.33-51.63Z"/>
    <path class="cls-2" d="M6691.9,2068.8c.1,2.31,1.07,4.82,1.67,7.08,9.67-.26,259.53-138.57,290.63-155.07-1.07,43.32,7.45,86.47,9.07,129.69.3,11.83,1.1,23.87.62,35.69-.7-12.48-1.64-25-1.77-37.5-59,37.95-132.36,65.99-196.51,95.54-34.7,15.98-69.99,35.79-105.73,48.67,1.05-37.43,3.44-76.03.87-113.38-.02-3.61.65-7.15,1.15-10.71Z"/>
    <path class="cls-12" d="M1582.25,1960.49c1.56-6.15,1.66-6.9,7.28-10.25,16.47-9.79,37.5-16.16,55.34-23.28-.05,22.46-1.33,45.66.61,68.02-.73,53.28-6.12,107.22-5.18,160.31-6.22,68.7-4.14,139.21-7.11,208.24l-2.01-.75c-.12-9.15,1.19-20.93-4.33-28.6l-3.47.42c-5.27,9.2-5.24,17.48-5.42,27.88-3.11-14.54-2.01-30.33-6.64-44.41-5.3-53.79-12.91-107.21-17.6-161.09-2.14-8.62-2.12-18.68-2.94-27.58-4.75-55.93-10.08-112.76-8.52-168.93Z"/>
    <path class="cls-2" d="M8133.71,3376.49c-9.9-12.32-26.35-18.47-40.23-25.16-18.77,4.56-28.09,8.21-41.15,23.2-5.38-10.06-9.07-21.57-14.01-31.97-14.78-31.05-29.81-61.97-45.12-92.75-2.84-39-.02-587.99-.97-627.23-3.47-146.26-2.47-294.77-13.41-440.61.7-33.1-1.84-66.51-2.84-99.62-1.22-40.79-1.25-81.67-3.19-122.43l1.45-4.28c4.11,16.8-.02,35.69,3.74,53.03,36.07-29.56,82.23-46.15,121.96-70.06-.17,10.61.45,21.22.95,31.82,3.86-7.75,2.79-26.45,4.71-35.83l.45-2.23c5.08,47.12-1.47,98.6,7.43,144.56,2.14,62.19,3.56,124.58,6.9,186.71,2.94,54.73,7.88,109.42,10.37,164.14"/>
    <path class="cls-35" d="M1364.94,2243.96c45.56-61.35,97.18-119.18,144.59-179.29,26.1-33.09,53.04-66.78,72.72-104.19-1.56,56.16,3.77,112.99,8.52,168.93-19.56,17.64-130.5,95.19-151.54,95.32,3.19-21.51,22.74-33.76,37.09-48.44-18.88,11.41-37.62,23.05-56.22,34.92-18.8,9.71-36.46,22.49-55.16,32.74Z"/>
    <path class="cls-36" d="M150,2344.92c62.47-59.17,144.18-175.48,193.97-249.98,16.93-25.33,32.9-51.3,50.76-76,6.91-9.56,15.32-17.93,22.18-27.41,4.83-6.67,7.89-13.7,13.4-19.99l3.29,4.04c-35.69,97.96-83.54,202-127.67,297.02-28.3,60.94-58.24,122.2-81.81,185.18-17.53,46.83-34.55,94.61-47.15,143.02-5,19.19-19.38,98.6-26.95,108.57v-364.46Z"/>
    <path class="cls-6" d="M3829.11,1973.15l2.62-.85c8.13,18.55,20.69,35.13,32.33,51.63-2.17,16.89-.55,32.2,1.47,48.97-33.75-18.41-54.01-37.01-75.8-68.64l1.22-2.91c2.27,1.96,4.19,3.82,5.86,6.34,2.99,4.48,4.21,6.59,9.2,8.82,3.32-.99,5.58-6.39,7.48-9.42,9.22-.36,19.84-.15,27.02-6.15l-13.04-10.68c2.04-1.95,3.41-1.47,6.16-1.73l-4.51-15.39Z"/>
    <path class="cls-33" d="M1340.11,2051.16c6.64-19.98,17.79-43.17,29.39-60.63,11.09,4.92,10.76,8.21,16.52,18.79-2.09,19.2-6.58,37.9-8.9,56.96-.33-.15-.69-.27-1-.46-10.48-6.7-17.93-10.23-30.76-10.42l-2.08-.02-3.18-4.22Z"/>
    <path class="cls-2" d="M8130.74,2427.76c-2.49-54.72-7.43-109.41-10.37-164.14-3.34-62.13-4.76-124.52-6.9-186.71.42-9.54.82-18.75,2.84-28.11l1.99,4.85-1.99-3.22,2.07,1.62,1.22,29.17"/>
    <path class="cls-11" d="M5670.62,2083.77c1.35-13.72,1.8-26.88,1.35-40.67l1.22.2c1.2,39.58-.07,78.89.4,118.41.45,34.49,6.98,123.35-2.87,151.83-4.19-71.3-2.42-158.03-.1-229.78Z"/>
    <path class="cls-34" d="M1311.42,2271.76c-.54-28.46,6.28-59.04,9.78-87.33,5.39-43.54,7.59-90.86,18.9-133.27l3.18,4.22,2.08.02c12.83.19,20.28,3.72,30.76,10.42.31.2.67.31,1,.46-18.11,77.56-30.8,157.57-58.31,232.47-1.57-12.16.75-26.81-3.34-38.2l-4.06,11.21Z"/>
    <path class="cls-2" d="M6992.13,2048.69c.12,12.5,1.07,25.02,1.77,37.5l.05,26.94-193.42,155.25c-33.57,26.55-86.47,61.39-113.01,92.4,1.69-55.36-1.67-110.96,1.99-166.24l.37-1.63c35.74-12.88,71.04-32.69,105.73-48.67,64.16-29.55,137.51-57.58,196.51-95.54Z"/>
    <path class="cls-5" d="M3953.59,2171.9c5.01-21.25,3.86-44.21,11.09-64.63l2.19,5.49,2.42-3.74,1.45,2.96c-1.57,5.54-3.64,10.83-1.97,16.59.1.34.25.67.35,1-3.24,35.89-6.13,79.25-15.88,113.82l-1.45.96c-6.9-22.1-.17-49.78,1.79-72.44Z"/>
    <path class="cls-2" d="M6687.52,2360.78c26.55-31.01,79.44-65.85,113.01-92.4l193.42-155.25c.05,40.46,3.54,81.25,5.71,121.66,1.17,21.95.07,48.19,4.54,69.53l.02,1.9c-1.47-.1-4.39-.72-5.73-.4-16.95,4.09-51.22,24.3-69.54,32.28-80.61,35.12-162.24,73.47-244.94,103.19,3.09-26.64,2.92-53.73,3.51-80.52Z"/>
    <path class="cls-30" d="M1439.23,2224.73c21.04-.13,131.98-77.68,151.54-95.32.82,8.89.8,18.96,2.94,27.58l-1.29,1.61c-17.79,22.3-30.24,48.69-47.9,71.19-42.29,53.88-90.54,102.8-134.63,155.13-31.83,37.78-59.61,78.85-90.96,117.11-7.48,9.13-31.63,43.17-41.76,45.42l-4.97-3.3c1.73-38.16,46.58-200.54,64.95-236.66,10.61-20.86,25.22-38.35,42.44-54.1,14.91-13.63,32.12-28.83,49.28-39.37,4.25,2.32,5.61,3.79,7.78,8.08.94,1.86.53,1.16,2.59,2.63Z"/>
    <path class="cls-5" d="M4525.44,2423.25c.05-45.96-.27-154.88,9.62-195.3,2.17-8.86,21.74-24.53,29.31-30.07,8.87-1.04,19.04,6.22,26.47,3.51,5.58-13.92.8-31.2,9.52-43.56,4.76-6.78,8.92-13.41,16.38-17.53,3.76.35,5.43-.25,8,2.86,10.74,13.09,4.61,39.01,15.2,49.32,2.07-.45,4.11-.21,5.33-2.06,5.81-8.85,7.93-39.78,14.78-43.53,2.27,4.25,3.34,8.21,3.61,12.97.95,16.83-1.94,33.69-1.32,50.66l9.62,241.56c-.1,32.2.32,160.76,6.58,181.47,0,82.52,3.26,599.91,5.8,682.35,1.12,36.2-1.72,77.48,3.74,112.93l-4.26-1.32c-.15-.29-.32-.6-.5-.88-13.41-21.23-29.89-40.17-54.86-46.52-29.59-60.55-68-141.03-76.6-207.78-4.29-33.25-.57-502.48.33-535.87.8-41.22,1.32-82.45,1.52-123.68.32-39.91,3.94-83.02-1.7-122.5-6.7,36.74-10.72,73.92-17.72,110.64-.2-19.15,2.72-37.75,1.84-57.26-.47,6.86-1.07,13.71-1.84,20.55l-3.39,1.57c-4.61-8.43-.9-30.11-2.17-40.89l-3.32-1.64Z"/>
    <path class="cls-5" d="M4283.33,2447.09c1.35-11.5-1.22-25.79-1.45-37.67-1.07-62.23-4.84-124.76-8.5-186.89-1.12-18.86-6.7-48.02-1.3-65.77-2.32,13.53,3.12,34.34,9.95,46.25l5.86,10.46c9.87,66.06,9.95,135.23,15.63,201.97,9.7,114.06,22.7,659.02,35.96,772.31,4.29,31.01,7.13,62.71,12.79,93.46,1.32,14.54.7,43.56,9.07,55-1.57,10.28-2.82,20.3-3.19,30.7-7.75,4.09-18.82,11.87-27.57,10.36l-3.61-2.82c-10.34-55.08-10.05-113.98-15.15-169.9-3.91-42.61-10.11-520.2-14.25-562.78-6.28-64.66-10.19-129.83-14.23-194.68Z"/>
    <path class="cls-7" d="M1989.79,2178.74c5.25,20.53,2.53,47.04,3.18,68.54.83,37.83,10.41,223.6,3.83,246.49-5.7-11.76-2.37-150.7-2.65-173.91-56.92,22.04-116.3,38.93-174.4,57.65-37.84,12.19-112.49,40.27-147.74,42.92l-2.97-5.61c-4.16,1.53-4.49,1.88-8.95.55,3.84-3.54,7.4-6.96,12.24-9.09,21.25-9.36,40.34-24.18,61.28-34.46,85.43-41.93,170.79-84.8,256.95-125.16-.76-21.67-4.1-46.58-.77-67.91Z"/>
    <path class="cls-4" d="M1420.1,2211.22c18.6-11.87,37.34-23.51,56.22-34.92-14.35,14.67-33.9,26.92-37.09,48.44-2.07-1.47-1.65-.77-2.59-2.63-2.17-4.29-3.53-5.76-7.78-8.08l-8.75-2.81Z"/>
    <path class="cls-11" d="M5149.65,2701.08c3.46-8.42,1.25-22.49,6.08-29.08l-.37-.97c4.34,27.09-10.85,558.4,1.51,573.81,18.17-3.57,30.96,6.49,48.13,6.78.37-55.47-12.98-575.96-3.61-625.79l5.35,558.38c1.15,25.06.32,51.93,5.83,76.42-21.01-8.26-42.77-17.31-65.03-7.59-20.51,8.94-28.69,24.81-36.14,44.78-3.17,8.43-5.48,23.61-12.26,28.85-3.19-1.86-6.76-3.51-9.15-6.38,2.84-3.28,3.61-6.55,3.74-10.88.65-21.64-2.79-44.94-3.96-66.63-1.52-28.37-1.27-56.89-1.37-85.3,7.7-18.7,2.2-500.9,1.9-522.06-.77-55.27-4.94-310.46,6.21-346.77l-.97,8.86c8.55-25.8-.7-51.62,5.81-75.67l-2.57,367.18c.07,58.05,4.85,550.89,3.31,609.07l-1.6.47c-1.89-6.37-5.01-23.61-9.85-27.47-.87,27.2-2.69,56.55,2.32,83.42,1.32,6.99,2.54,14.38,8.52,18.44,12.04-7.05,31.16-14.82,40.53-24.83,15.78-16.87-5.55-522.5,6.96-545.94.2-.38.45-.74.67-1.1Z"/>
    <path class="cls-11" d="M3711.24,2602.59c-3.44-48.68-10.74-322.32,2.09-354.25.12,47.6,6.13,330.75-2.09,354.25Z"/>
    <path class="cls-31" d="M1311.42,2271.76l4.06-11.21c4.08,11.39,1.77,26.04,3.34,38.2-5.34,15.9-12.4,31.48-18.79,47,1.91-24.84,7.03-49.49,11.39-74Z"/>
    <path class="cls-56" d="M416.1,2288.07c3.29-5.95,5.15-12.03,11.25-15.25,1.45,7.45-3.96,15.92-7.76,22.17l-3.49-6.92Z"/>
    <path class="cls-29" d="M174.83,3068.21c11.71-16.99-3.92-336.72,5.66-355.28l64.02-123.14c54.36-102.53,112.76-201.78,171.59-301.72l3.49,6.92c-67.83,174.45-106.81,647.6-166.56,824.98l-45.2,132.38c-8.12,24.11-18.61,49.53-23.02,74.59"/>
    <path class="cls-11" d="M5872.84,2289.2c5.23,24.12,5.28,50.17,6.85,74.82l8.1,135.12,9.8,136.24c1.77,23.46,4.94,47.57,4.94,71.06-10.69,12.83-4.44,486.05-3.27,502.89,4.91-21.76,3.12-480.64,3.27-502.89,7.85,50.27,8.04,538.78,13.35,589.62-17.6-11.82-32.68-37.46-48.53-52.64-18.62-17.8-41.55-28.67-67.67-27.85-47.11,1.48-78.09,36.4-108.05,67.96-6.61.97-10.05-2.2-15.8-5.23-3.51-65.59-2.21-567.61-1.51-633.29,8.72,26.58-5.27,555.71,4.45,568.72-4.39-36.1.43-510.96.73-547.43.42-58.32-4.24-140.94,4.24-196.87,2.04,20.75-.32,41.72.12,62.53.17,7.59,2.22,14.78,2.22,22.52v1.79l4.66-.09c7.43-3.82,12.39-12.18,17.9-18.4,18.89-21.36,138.71-85.42,166.16-86.9l2.42-.11c1.64-53.52-6.63-108.11-4.36-161.57Z"/>
    <path class="cls-8" d="M1611.31,2318.08c4.63,14.07,3.54,29.87,6.64,44.41.41,27.18,3.34,57.11,12.89,82.71.22-27.36,1.29-55.08.34-82.41l2.01.75c1.18,13.52.49,26.99,1.6,40.45,3.25,39.28,8.03,73.33,2.51,112.76l-4.99,5.62-1.4-3.09.8-1.69c2.72-5.83,3.75-10.26,4.17-16.76l-1.39-1.75-4.07,4.78c-7.33-10.1-2.89-30.19-7.14-42.54l-.42,2.2c-.75,3.9-1.12,7.92-3.73,11.04-17.21,20.57,20.42,72.33-22.79,87.09,4.42-7.53,10.31-14.29,15.75-21.11-1.52-42.85-.23-87.17-4.21-129.73-3.21-34.18-15.36-68.03-13.26-102.73-18.8,15.67-37.95,31.31-55.14,48.76-22.97,23.32-43.86,48.73-67.82,71.06,1.64-4.51,3.65-9.03,6.35-13.01,12.14-17.92,102.54-109.12,117.83-112.07,8.86,9.9,9.59,28.96,10.86,41.83,3.97-6.4,3.92-18.93,4.6-26.56Z"/>
    <path class="cls-2" d="M6684,2441.3c82.7-29.71,164.34-68.06,244.94-103.19,18.32-7.98,52.59-28.18,69.54-32.28,1.35-.32,4.26.3,5.73.4l.85,10.4c3.79,58.86,5.36,117.82,9.22,176.67,4.34,65.95,11.04,132.5,11.62,198.59l-1.25,1.66c-53.24,26.88-104.49,58.15-156.73,86.94-20.66,11.4-41.78,24.57-63.56,33.54,2.87-62.25-55.61-146.35-85.87-198.63-11.67-20.17-21.83-42.5-35.67-61.23-1.42-36.94-1.05-76,1.17-112.88Z"/>
    <path class="cls-39" d="M1471.67,2427.89c23.95-22.33,44.84-47.75,67.82-71.06,17.19-17.45,36.34-33.09,55.14-48.76-2.1,34.7,10.06,68.55,13.26,102.73,3.99,42.57,2.7,86.89,4.21,129.73-5.43,6.82-11.33,13.58-15.75,21.11-94.41,107.85-165.07,510.57-271.77,606.59-7.49-43.72-3.22-64.53,12.97-105.49,3.59-9.1,5.48-19.09,10.33-27.67,8.81-15.57-3.39-325.8,5.51-341.68l-1.18-.69c-17.86,18.32-53.59,377.04-74.45,385.05-6.15,2.36-9.74,1.97-15.59-.48-.67-2.56-1.32-5.12-1.94-7.69-2-7.93-5.07-17.35-3.07-25.49,12.8-52.21,114.16-499.7,148.18-556.54,8.19-6.2,19.43-27.31,21.66-37.1,1.57-6.9-.41-8.38-4.05-14.06,22.2-30.07,43.72-60.02,63.69-91.62-5.88,42.39-22.75,78.63-41.18,116.77,9.61-10.86,18.5-21.35,26.23-33.67Z"/>
    <path class="cls-12" d="M1617.95,2362.49c.18-10.41.15-18.68,5.42-27.88l3.47-.42c5.52,7.67,4.22,19.45,4.33,28.6.95,27.33-.12,55.05-.34,82.41-9.55-25.6-12.48-55.53-12.89-82.71Z"/>
    <path class="cls-11" d="M5439.46,2359.24c6.01,78.4,3.94,158.77,4.89,237.44.85,71.18,4.45,577.48,5.55,648.65l.2,32.53c-15.9-9.4-30.76-18.09-49.95-13-21.19,5.61-34.65,25.44-48.48,40.79-13.53-5.6-26.17-9.97-41-8.47l-2.44-2.74c-1.15-3.33-1.59-854.66.83-887.93,2.57,23.89.9,49.46,1,73.54.07,43.43,1.12,86.86,3.14,130.24l2.47-27.53,2.62-.31,1.84,12.12c12.54-6.71,22.66-16.99,34.57-24.64,5.53-3.54,11.77-4.43,17.62-7.12,20.91-9.56,35.67-19.92,59.37-22.63l4.06,4.72,1.57-.71c-.42-1.26,1.62-167.8,2.14-184.98Z"/>
    <path class="cls-27" d="M5649.88,3279.21l-2.94-1.39,1.32-2.08c5.28.28,10.34.47,15.63.08l3.86-4.87c6.23-27.13,1.43-692.27-4.48-727.67l.17,9.66c-2.17-13.8-4.69-27.86-4.96-41.84-.27-13.12,6.51-117.04,8.87-123.38-.12,8.1-1.42,18.72,2.89,25.86.22.36.47.71.7,1.06l.87,2.73c1.42,75.74,3.39,151.92,2.49,227.65-.7,65.68-2,567.7,1.51,633.29l-25.95.9Z"/>
    <path class="cls-11" d="M5671.82,2417.36c5.46,12.11,5.51,31.21,7.03,44.59,2.97-18.64-1.22-38.4,2.82-56.87,2.99,20.27,3.34,43.85,2.07,64.34-8.47,55.93-3.81,138.55-4.24,196.87-.3,36.48-5.12,511.34-.73,547.43-9.72-13,4.27-542.14-4.45-568.72.9-75.74-1.07-151.91-2.49-227.65Z"/>
    <path class="cls-5" d="M4525.44,2423.25l3.32,1.64c1.27,10.79-2.44,32.47,2.17,40.89l3.39-1.57c.77-6.84,1.37-13.68,1.84-20.55.87,19.5-2.04,38.11-1.84,57.26-4.61,16.97-6.31,113.96-10.67,118.17-8.72-30.97-.77-156.72,1.79-195.86Z"/>
    <path class="cls-40" d="M1422.93,2436.41c3.64,5.68,5.62,7.16,4.05,14.06-2.22,9.79-13.46,30.9-21.66,37.1-2.09-3.28-5.65-4.93-8.88-7.02,5.27-15.44,17.41-30.51,26.49-44.14Z"/>
    <path class="cls-11" d="M3630.23,2550.83c.17-.63.4-1.25.57-1.87,4.34-14.57,2.64-32.89,2.62-48.11,1.74,70.37,4.01,140.69,2.49,211.09-.22,10.33-.31,456.21-1.83,466.45-1.3,8.6-5.06,17.91-4.99,26.51.42,46.03,11.62,164.72,1.84,203.41l-4.26.14c-7.68-13.8-1.1-73.15-2.24-92.74,1.05-40.36,1.55-80.73,1.52-121.11,3.79-69.44,3.77-574.26,4.27-643.78Z"/>
    <path class="cls-5" d="M3976,2589.33l3.34-10.06,3.54,1.08c1.62,4.26,3.49,8.51,4.61,12.93-10.47,26.71-7.55,59.19-17.17,86.93l-1.62-1.52c-1.62-29.56,3.86-59.99,7.3-89.35Z"/>
    <path class="cls-5" d="M4382.31,2590.99l4.06-2.77c10.52,23.52-4.04,78.71-4.66,105.49-1.67-15.18.25-31.33-2.07-45.99-1.97-17.19,2.12-39.02,2.67-56.74Z"/>
    <path class="cls-41" d="M1338.92,3304.41c16.14-23.92,260.97-622.92,277.83-632.14,8.58,7.18,8.23,37.77,9.46,49.15,5.32,49.01,40.59,398.2,52.92,445.9,7.99,30.91,18.58,61.82,23.94,93.29-20.35,6.86-32.34,22.34-41.74,40.95-2.67,5.29-4.97,10.8-7.25,16.27-7.6-8.67-14.84-16.7-24.04-23.76-42.13,7.35-74.27,20.43-111.24,41.95-13.3-25.59-33.48-65.09-63-73.96-29.33-8.8-70.1,14.71-95.1,28.77-7.41,4.17-14.17,10-21.78,13.57Z"/>
    <path class="cls-2" d="M6804.37,2814.04c21.79-8.97,42.9-22.14,63.56-33.54,52.24-28.79,103.49-60.06,156.73-86.94.9,19.22-.2,56.72,7.98,73.69l6.06,1.63c-28.69,6.22-132.65,84.01-158.98,106.14-1.37-2.47-1.92-5.87-2.72-8.6,6.61-17.78,5.13-36.13,4.19-54.68-10.22,6.86-20.91,12.8-31.63,18.82-10.24,5.58-27.79,13.22-34,23.12-2.37.76-3.99.7-6.43.68-3.94-12.77-3.86-27.03-4.76-40.31Z"/>
    <path class="cls-45" d="M5899.26,3209.32c-1.17-16.83-7.42-490.05,3.27-502.89-.15,22.24,1.64,481.12-3.27,502.89Z"/>
    <path class="cls-54" d="M5423.63,3476.44,5778.32,3426.58,8272.12,3035.45"/>
    <path class="cls-12" d="M4339.48,3187.75c9.92,8.64,20.51,4.59,32.6,8.88-.85,22.08-1.35,46.11-4.84,67.92-7.95,6.41-5.78,14.35-14.98,16.65-5.66-30.75-8.5-62.45-12.79-93.46Z"/>
    <path class="cls-11" d="M3712.68,3337.33c2.14-32.48,1.87-65.6,3.61-98.23,3.17,25.63-3.19,62.69,4.19,85.58.15.42.3.84.45,1.26l1.07,2.8c-2.99,2.82-6.03,6.14-9.32,8.59Z"/>
    <path class="cls-2" d="M6849.56,2830.55c10.72-6.02,21.41-11.96,31.63-18.82.95,18.56,2.42,36.9-4.19,54.68-9.85-5.92-17.52-26.72-27.44-35.87Z"/>
    <path class="cls-12" d="M4352.27,3281.21c9.2-2.3,7.03-10.24,14.98-16.65-1.87,23.76-2.82,48.04-5.91,71.65-8.37-11.44-7.75-40.46-9.07-55Z"/>
    <g>
      <path class="cls-2" d="M8142.6,928.54c-3.49,26.95-152.12,293.08-167.42,322.21-6.23,5.88-8.48,8.41-8.85,17.49-.42,9.82,3.76,25.81-1.3,34.42l-.57-44.38c-76.77,33.7-149.85,73.36-229.92,99.49.73,25.73,1.63,51.46,2.72,77.17,7.21,35.67,2.82,77.74,4.41,114.42.35,10.32-.17,21.62,1.9,31.72,1.64,15.56,1.82,31.07,2.04,46.71-.05,10.39.15,19.96,2.37,30.15,1.77,11.41,1.45,23.12,1.55,34.65l6.03,184.07c.92,34.13-1.55,71.62,4.04,105.02,1.67,19.35,4.18,39.04,4.28,58.45,4.99,54.89,7.16,116.17,21.19,169.6,1.79,16.27,3.84,32.69,6.75,48.81,3.89,72.49,16.53,145.52,27.77,217.22,3.82,24.43,5.24,50.97,11.12,74.83-.18,6.43.92,13.04-2.67,18.45l-3.79,1.36c-1.04,46.57,2.92,93.17,2.4,139.69,2.01,48.01,6.6,95.78,9.57,143.71-16.03,22.25-31.71,50.05-48.23,70.74l-3.19-2.18c-2.05-30.68-41.21-77.64-63.32-97.84-9.24,6.29-18.44,13.34-28.93,17.41l-2.1-3.14-17.7-13.21c-4.26,6.82-8.7,16.15-14.73,21.37-3.34,17.26-1.27,27.5,8.58,42.33,18.04,27.18,50.17,47.23,76.12,66.03-56.01.04-111.07,14.34-155.93,49.28.72-23.87-.58-47.09-2.42-70.86-2.25-20.38-6.48-36.65-16.3-54.82-11.17-14.9-23.83-27.52-41.43-34.5-36.72-14.56-79.84,2.52-113.84,17.22-41.25,27.5-69.09,56.58-91.42,101.21-4.64,9.28-10.72,19.94-12.99,30.09-.4,1.87-.72,3.76-.97,5.65l-2.94.24c-10.37-11.87-3.34-35.55-13.64-45.51-.15-18.15-1.99-36.3-2.02-54.53-.1-73.25,2.82-146.84,6.24-220.01,1.07-41.76,1.67-83.52,1.84-125.29,1.13-9.41,1.95-18.87,2.54-28.37.08,30.28,1.15,53.83,4.39,61.74,1.39-9.19,2.29-18.16,2.72-27.44-3.24-77.14-1.13-155.91,1.39-233.1,1.92-59.32,4.91-118.19,1.2-177.52-3.94-30.67-.2-66.31.12-97.52.85-80.25,3.24-160.42,3.42-240.67.02-22.66,4.09-56.88-3.87-77.87-3.98-33.47-.77-70.87.2-104.62.2-.36.4-.71.6-1.06,11.82-19.33,1.17-173.89,1.55-206.88.37-2.37,1.07-3.88,2.04-6.04.33,67.17,2.94,134.16,2.77,201.41l1.97-1.39c4.83-21.95,1.47-49.38,1.34-71.95-.42-36.52.15-73.06,1.72-109.55l.35,10.3c4.41-28.37,4.54-128.09-.5-156.3,1.9-65.11,89.11-1341.27,91.95-1406.58h272.89c-1.6,42.77,31.73,1173.93,31.73,1331.02,0,8.72-.1,14.44-.32,16.8,43.57-8.53,87.54-17.28,131.5-23.44,7.66,0,17.78-1.13,24.88,1.93l-9.84,9.65c-3.07,6.17-6.73,12.36-7.98,19.18-7.25,6.05-16.83,4.49-21.94,10.7l.85,3.13c25.5-9.82,50.35-19.59,74.87-31.6,50.88-24.93,84.06-83.17,113.75-130.07l119.41-158.83Z"/>
      <path class="cls-58" d="M7300.74,2319.58c-3.07,42.8-1.09,86.49-.28,130,1.14-53.04,2.55-106.33.28-130Z"/>
      <path class="cls-58" d="M7300.46,2449.58c-.57,26.47-1.07,52.88-1.01,75.53,1.55-24.97,1.48-50.22,1.01-75.53Z"/>
    </g>
    <path class="cls-12" d="M5310.66,3297.19c14.83-1.5,27.47,2.87,41,8.47l-6.7,34.89c-9.8-18.08-17.22-28.96-35.67-39.34l1.37-4.01Z"/>
    <path class="cls-5" d="M4722.42,3369.48l-.02-.64,2.39-1.96,11.39,3.16c6.63-12.25-1.57-34.52,4.26-49.95,3.41,19.84,7.5,41.97,13.83,61.1-10.67-3.57-21.66-6.96-31.86-11.71Z"/>
    <path class="cls-42" d="M1178.87,3338.47c3.51-3.66,2.58-21.94,2.8-27.61,3.33,11.48,2.72,24.55,3.13,36.46,27.24-27.52,39.16-60.08,76.81-76.02,22.21,13.69,41.12,31.02,54.96,53.24l22.35-20.13c7.61-3.57,14.37-9.4,21.78-13.57,25-14.07,65.77-37.57,95.1-28.77,29.52,8.86,49.7,48.36,63,73.96,36.97-21.52,69.11-34.6,111.24-41.95,9.21,7.06,16.45,15.09,24.04,23.76,2.28-5.47,4.58-10.98,7.25-16.27,9.4-18.62,21.39-34.1,41.74-40.95,9.08-4.74,14.88-9.19,25.42-6.16,8.95,2.57,14.82,9.57,18.85,17.58,6.24,12.41,9.17,26.53,12.66,39.92,8.13-16.49,18.14-42.05,37.43-48.02,6.67-2.06,12.67-1.4,18.78,1.95,12.25,6.71,18.7,23.3,21.71,36.08,3.27,13.86,2.98,28.96,2.64,43.13,27.74-24.56,49.94-41.07,85.69-52.27,8.32,5.22,17.49,10.18,24.74,16.78"/>
    <path class="cls-59" d="M976.96,3336.77l4.95-2.6"/>
    <path class="cls-47" d="M2015.41,3337.47l-2.48-.92"/>
    <path class="cls-55" d="M2012.93,3336.55l2.48.92"/>
    <path class="cls-43" d="M5007.73,1101.49s28.29-185.06,42.02-232.47v232.47h-42.02Z"/>
    <path class="cls-44" d="M5148.95,1091.38s-.15-54.08-6.07-92c0,0,46.31,37.05,38.85,92-7.45,54.95-32.78,0-32.78,0Z"/>
    <polygon class="cls-2" points="6704.86 1682.47 6663.41 1150.75 6961.39 1187.66 7037.45 1257.54 6986.18 1615.58 6704.86 1682.47"/>
    <polygon class="cls-2" points="6684 2441.3 6681.99 3251.62 7088.22 3251.62 7014.29 2493.3 6684 2441.3"/>
    <polygon class="cls-2" points="7310.43 2248.34 7257.07 3288.22 7848.6 3296.06 7819.59 2475.76 7310.43 2248.34"/>
  </g>
</svg>