<?xml version="1.0" encoding="UTF-8"?>
<svg id="_Слой_1" data-name="Слой 1" xmlns="http://www.w3.org/2000/svg" xmlns:xlink="http://www.w3.org/1999/xlink" viewBox="0 0 9220 3643.37">
  <defs>
    <style>
      .cls-1 {
        fill: none;
      }

      .cls-2 {
        fill: #335d21;
      }

      .cls-3 {
        clip-path: url(#clippath);
      }
    </style>
    <clipPath id="clippath">
      <rect class="cls-1" x="0" y="0" width="9220" height="3643.37"/>
    </clipPath>
  </defs>
  <g class="cls-3">
    <path class="cls-2" d="M3277.35,3562.51c-54.25-20.56-108.05-42.38-163.12-60.7-.91-.3-1.83-.61-2.74-.91-23.53-7.78-48.08-12.05-72.86-12.76-5.68-.16-11.37-.32-17.05-.48-93.48-3.25-188.88.41-281.89-8.05,73.98-17.38,137.86-48.16,197.06-95.97,10.29-8.31,24.43-17.84,31.25-29.16,2.91-4.83,2.89-5.95,1.69-11.19-10.82-5.89-35.8-1.35-48.14-.36-112.08,8.97-217.92,35.78-324.96,68.94-17.81,5.52-78.52,31.86-93.38,31.1-12.23-.62-40.06-11.07-56.9-13.4,53.37-19.94,102.66-54.71,148.79-87.73,23.53-19.23,72.14-69.93,74.53-100.82.32-4.2-.95-8.05-2.63-11.83-9.18-6.5-17.38-5.08-28.15-3.22-91.05,15.77-184.3,39.46-269.92,74.56-18.11,7.42-107.5,56.52-110.51,56.8-2.85,9.76-21.4,19.46-29.76,25.25-13.29-7.69-30.91-7.79-42.65-15.47l-1.46-2.69c2.72-10.63,28.51-30.72,36.79-39.9,28-31.02,40.16-63.6,38.23-105.31-49.56,13.72-99.28,25.98-148.51,41.02-23.61,8.74-47.22,17.31-70.17,27.72-30.69,17.44-61.41,34.18-89.18,56.14-2.95,3.12-5.72,6.31-9.3,8.73l-27.22,22.47c-23.07,1.93-37.86,11.39-59.3,16.57-26.89,6.5-56.68,6.22-84.25,7.77,60.17-21.64,111.53-54.71,156.88-100.01,4.49-6.26,14.72-12.86,20.78-18.05,21.68-18.89,40.27-41.63,59.69-62.8,10.9-12.42,20.02-26.58,29.5-40.1,6.19-9.46,11.4-19.16,16.56-29.2,3.77-17.75,16.39-35.76,22.21-53.69-13.59,1.19-27.2,3.25-40.74,4.97-66.37,11.33-130.43,26.4-195.28,44.55-22.93,6.42-47.79,12.07-69.93,20.79-42.76,5.53-116.4,40.11-156.5,59.05-58.38,30.16-94.17,63.85-131.67,117.11,12.14-29.73,30.1-63.67,35.79-95.24l-2.78-4.73c3.23-23.36-.04-91.58,5.22-106.05l3.55.65c4-52.19-39.91-148.76-62.25-198.76-91.32,35.41-171.92,75.08-237.38,150.43-13.47,15.51-28.3,32.66-37.8,50.85l4.42.9c-2.26,13.76-11.04,23.86-16.7,36.2-23.39,50.91-39.68,92.81-37.83,149.47l-2.28,1.39c-.51-12.33-.62-24.83-1.61-37.12l-3.15,16.83c.03,24.13,1.93,48.15,3.63,72.21-16.27-16.27-27.56-25.75-50.12-32v298.1h2436.37c-81.93-24.59-162.83-52.54-242.85-82.87Z"/>
    <path class="cls-2" d="M3277.35,3562.51c-10.4-3.94-20.79-7.93-31.17-11.93-100.25,3.48-200.44,8.44-300.55,14.88-49.88,3.66-99.7,8.04-149.45,13.12-28.61,2.72-57.78,6.81-86.54,6.58-27.99-.22-57.03-6.66-84.72-10.59-45.61-6.36-91.3-12.2-137.07-17.51-46.51-4.98-93.05-9.69-139.62-14.12,3.81,1.83,7.62,3.66,11.43,5.5,60.5,29.3,120.03,60.58,178.8,93.21,2.23,1.24,4.46,2.49,6.68,3.74h975.05c-81.93-24.59-162.83-52.54-242.85-82.87Z"/>
    <path class="cls-2" d="M8120.55,3207.06c-5.11-20.73-11.71-40.78-19.09-60.8-16.4-56.14-68.69-135.23-117.45-168.76-57.95,56.41-76.82,87.25-93.37,165.96-5.01,30.85,1.97,73.37,6.83,104.66,2.07,20.74,10.37,56.8,2.32,75.89l-3.81,1.06c-17.82-14.9-29.74-49.96-38.11-71.4-8.95-35.65-30.51-77.67-48.06-110.05-6.98-41.85-124.08-190.77-157.9-216.36-63.36,36.86-101.72,83.53-122.51,154.3-5.53,18.83-8.72,38.21-14.18,57.08-1.84,20.63-5.21,41.4-4.49,62.13,1.5-7.11,3.09-14.16,3.76-21.4,6.01,15.16,7.58,143.02,1.52,157.4-1.17,2.84-2.72,4.73-4.81,6.92-1.57,1.63-.9.77-1.97,3.31-.92-3.44-1.4-6.98-1.94-10.5-.37,11.54-9.92,21.6-16.48,30.59-17.25-14.37-37.71-26.22-56.43-38.55-13.58-11.14-29.26-20.8-43.67-30.95l-52.02-38.09c-57.25-45.35-126-80.75-190.06-115.55-29.59-12.84-59.07-25.92-88.44-39.23l-.47,36.78c2.54,39.58,10.34,90.97,33,124.7,8.43,15.72,18.47,31.71,25.52,48.03,12.16,19.73,24.05,39.64,37.86,58.29,12.86,17.65,25.57,35.41,38.14,53.27-55.38-17.58-111.17-34.12-166.4-52.06-56.88-16.77-115.58-29.38-171.79-47.97-16.62.41-103.59-24.13-128.27-29.27-37.69-7.84-75.72-12.67-113.76-18.37,2.02,18.84,8,33.63,17.03,50,18.12,23.87,36.81,46.66,58.23,67.74l15.08,14.72c20.32,17.28,43.87,34.72,59.1,56.76-45.56-3.26-91.7-17.25-135.9-28.31-24.08-6.03-49.58-10.92-73.06-18.68-43.05-5.29-88.24-21.72-130.79-31.83-88.04-20.96-176.52-40.02-265.38-57.19-9.12-.42-18.62-2.42-27.69-3.73,15.43,55.23,67.35,94.67,114.81,121.29,13.88,7.8,28.19,15.26,42.67,21.91-39.81-6.87-81.06-23.9-119.74-36.04-85.82-26.08-171.12-53.85-255.84-83.3,48.13,48.21,97.36,95.85,157.28,129.24-131.56-32.43-263.61-57.36-396.99-80.89-87.51-15.43-176.03-31.77-264.29-42.21,6.36,38.69,23.48,62.64,55.13,85.35,37.86,27.15,80.66,46.27,123.51,64.07-93.5-22.12-187.54-41.75-282.08-58.85-101.22-18.25-203.09-33.08-304.29-51.27,19.14,34,37.64,58.3,67.82,83.04,27.32,17.61,54.69,34.67,83.97,48.91-90.8-9.63-183.53-19-274.76-9.82-17.47-9.1-34.22-18.65-50.77-29.33-10.52-6.59-21.14-13.01-31.86-19.28,3.44,11.51,29.01,62.54,27.77,66.79l-4.29-.57c-42.47-4.84-83.83-20.42-126.42-23.62,19.34,9.87,38.54,19.3,58.63,27.56-64.22.48-128.42,1.7-192.6,3.64-96.73,2.93-190.63,32.92-271.27,86.42-.4.27-.8.53-1.2.8-7.06,4.68-14.14,9.33-21.25,13.94h3881.38v-327.35c-13.14-13.13-19.82-88.37-25.4-110.97Z"/>
    <path class="cls-2" d="M7961.28,3444.27s198.46-313.36,306.39-379.51c0,0,96.83,59.19,50.16,208.91,0,0,26.44-90.53,200.53-83.56,0,0,185.21,235.26,129.5,325.79-55.71,90.53,426.62,129.49,426.62,129.49l-771.99,56.54h-254.17"/>
    <path class="cls-2" d="M1168.38,3521.22l-84.55-173.93s-144.47-183.62-392.19-199.98c0,0-114.51,210.33,58.42,343.53,0,0-259.4-121.52-444.02-70.11,0,0-74.78,161.25,25.71,254.73,100.49,93.48,728.92,208.5,728.92,208.5l107.71-362.74Z"/>
  </g>
</svg>