<svg width="467" height="241" viewBox="0 0 467 241" fill="none" xmlns="http://www.w3.org/2000/svg">
<path d="M197.736 0.517357C211.347 0.513876 224.955 0.437324 238.563 0.291116C248.635 0.176238 258.788 -0.206688 268.853 0.204087C268.78 7.13158 268.759 14.059 268.79 20.9831C278.152 21.1362 287.542 21.0005 296.908 20.997C301.268 20.997 306.148 20.5479 310.432 21.3068C311.125 22.3964 310.843 24.05 310.818 25.3067C310.884 28.5998 310.905 31.8965 310.881 35.1896L325.119 35.1966L325.025 49.3301C329.64 49.3092 334.275 49.2117 338.89 49.2883C339.249 51.6276 339.158 53.9495 339.123 56.3063L346.145 56.3794C346.204 62.3739 346.988 96.068 345.333 98.6789L353.396 98.6997L367.37 98.658L367.331 112.913C386.191 112.899 405.11 113.209 423.963 112.833C423.945 117.139 424.133 121.557 423.719 125.839L424.349 126.744C428.853 127.464 433.889 126.967 438.462 126.981L438.26 137.511C438.357 138.914 438.201 139.642 439.089 140.762C442.31 141.915 445.602 141.058 448.966 141.257C450.366 141.257 450.944 141.044 452.08 141.908C452.522 143.429 452.31 144.915 452.202 146.468C452.258 149.392 452.278 152.316 452.268 155.237L466.276 155.073L466.032 162.387L465.949 169.517C461.313 169.914 456.615 169.774 451.965 169.771C452.045 171.891 452.338 174.143 451.718 176.194C451.366 176.357 450.972 176.594 450.596 176.681L451.495 177.349C452.059 181.718 451.324 186.205 451.728 190.612L438.166 190.564L438.274 204.715L395.623 204.69L395.717 218.81C374.799 218.838 353.717 219.398 332.816 218.831L332.879 226.065L305.622 226.11C300.895 226.127 295.598 226.594 290.959 225.87C290.868 225.925 290.76 225.957 290.684 226.033C289.082 227.655 289.97 237.615 289.994 240.174C266.391 239.227 242.53 239.822 218.902 239.756C186.02 239.658 153.02 239.192 120.155 240.014C120.26 237.183 119.612 227.885 120.842 225.981L120.18 225.713C115.192 226.273 109.898 225.96 104.876 225.964L77.7133 226.005C77.9536 222.413 76.9818 214.424 78.5143 211.611L78.0093 211.364L78.1033 198.027C73.7045 198.156 69.2917 198.069 64.8928 198.059C59.8496 197.519 54.5104 197.794 49.4289 197.766L21.148 197.631C21.148 192.158 20.1693 181.106 22.3531 176.503C26.6022 176.476 30.8687 176.524 35.1143 176.409C35.4034 171.95 35.0899 167.23 35.0516 162.749C37.2562 162.809 39.3912 162.906 41.582 162.575L42.6721 162.252L42.7035 148.814L42.693 141.347C42.5816 134.249 42.296 127.106 42.6164 120.015C44.8385 120.043 47.1128 119.987 49.3279 120.116L49.3139 105.892C65.9586 105.679 82.6171 105.815 99.2653 105.805L99.2165 91.6852L108.484 91.6609C117.509 90.4773 131.945 91.3232 141.432 91.3336L141.408 63.2477C141.373 58.6038 141.404 53.9635 141.502 49.3231L141.544 42.2529L155.646 42.2633L155.653 28.4014C160.222 28.1751 164.837 28.2656 169.414 28.2308L169.428 14.0138L197.712 13.9163C197.771 9.45695 197.722 4.98716 197.726 0.52781L197.736 0.517357Z" fill="#69CEF7"/>
<path d="M162.444 134.225L233.081 134.117L233.053 148.285L254.326 148.226L254.229 169.712C263.657 169.371 273.099 169.639 282.53 169.507C282.489 167.031 282.485 164.549 282.377 162.074C291.861 162.046 301.345 161.89 310.825 161.604L310.85 155.178L388.699 155.206L388.538 162.328H402.947L402.829 176.131C414.545 176.378 426.261 176.49 437.978 176.469C442.157 176.514 446.438 176.368 450.6 176.681L451.498 177.35C452.062 181.718 451.328 186.206 451.732 190.613L438.169 190.564L438.277 204.715L395.626 204.691L395.72 218.81C374.802 218.838 353.72 219.398 332.819 218.831L332.882 226.065L305.625 226.11C300.899 226.128 295.601 226.594 290.962 225.87C290.872 225.926 290.764 225.957 290.687 226.033C289.085 227.656 289.973 237.615 289.998 240.174C266.394 239.227 242.533 239.822 218.905 239.756C186.023 239.659 153.023 239.192 120.159 240.014C120.263 237.184 119.616 227.885 120.845 225.981L120.183 225.713C115.196 226.274 109.902 225.96 104.88 225.964L77.7167 226.006C77.9571 222.413 76.9853 214.424 78.5178 211.611L78.0128 211.364L78.1068 198.028C73.708 198.156 69.2952 198.069 64.8963 198.059C59.8531 197.519 54.5139 197.794 49.4324 197.767L21.1515 197.631C21.1515 192.158 20.1728 181.106 22.3565 176.504C26.6056 176.476 30.8722 176.525 35.1178 176.41C35.4068 171.95 35.0934 167.23 35.0551 162.75C37.2597 162.809 39.3947 162.906 41.5855 162.576L42.6756 162.252C53.6397 162.718 64.7779 162.325 75.7594 162.335L140.858 162.328L140.697 155.098C145.56 155.464 150.502 155.216 155.378 155.143L155.35 141.389L162.451 141.288L162.441 134.236L162.444 134.225Z" fill="#20A6FC"/>
<path d="M162.444 134.225L233.081 134.117L233.053 148.285L254.326 148.226L254.229 169.712C263.657 169.371 273.099 169.639 282.53 169.507C282.489 167.031 282.485 164.549 282.377 162.074C291.861 162.046 301.345 161.89 310.825 161.604C310.414 171.282 310.609 181.019 310.606 190.707L233.094 190.595L233.126 197.843C226.049 197.906 218.919 198.059 211.845 197.721L211.926 211.622C188.253 211.917 164.555 211.702 140.879 211.74C140.955 207.068 140.913 202.355 141.14 197.69C129.402 198.087 117.575 197.342 105.869 197.989C105.952 190.79 105.886 183.581 106.039 176.385C82.4116 176.42 58.7386 175.982 35.1143 176.406C35.4034 171.947 35.0899 167.226 35.0516 162.746C37.2562 162.805 39.3912 162.903 41.582 162.572L42.6721 162.248C53.6362 162.715 64.7744 162.321 75.7559 162.332L140.854 162.325L140.694 155.095C145.556 155.46 150.498 155.213 155.374 155.14L155.346 141.386L162.448 141.285L162.438 134.232L162.444 134.225Z" fill="#40B9F9"/>
<path d="M197.736 0.517357C211.347 0.513876 224.955 0.437324 238.563 0.291116C248.635 0.176238 258.788 -0.206688 268.853 0.204087C268.78 7.13158 268.759 14.059 268.79 20.9831C278.152 21.1362 287.542 21.0005 296.908 20.997C301.268 20.997 306.148 20.5479 310.432 21.3068C311.125 22.3964 310.843 24.05 310.818 25.3067C310.884 28.5998 310.905 31.8965 310.881 35.1896L325.119 35.1966L325.025 49.3301C329.64 49.3092 334.275 49.2117 338.89 49.2883C339.249 51.6276 339.158 53.9495 339.123 56.3063L346.145 56.3794C346.204 62.3739 346.988 96.068 345.333 98.6789L339.085 98.6928C339.127 102.188 339.13 105.683 339.092 109.178C338.921 107.852 338.956 106.504 338.18 105.39C324.544 105.321 310.853 105.934 297.211 106.034C297.357 110.661 297.413 115.287 297.371 119.914C290.342 119.869 282.551 118.796 275.641 119.601L276.003 112.976L261.288 113.042C261.233 108.252 261.288 103.458 261.295 98.6684L247.249 98.6823L247.336 77.7015L233.216 77.7676C233.38 72.988 233.272 68.1805 233.262 63.3974H183.62V77.5935L169.421 77.6005C169.483 82.307 169.435 87.0239 169.435 91.7305L162.431 91.6817L162.458 105.843L147.761 105.766C145.681 105.77 143.602 105.662 141.523 105.578C141.829 101.004 141.652 96.343 141.648 91.7549C130.695 91.7549 119.414 92.3606 108.498 91.6504C117.522 90.4668 131.959 91.3128 141.446 91.3232L141.422 63.2373C141.387 58.5934 141.418 53.953 141.516 49.3127L141.558 42.2424L155.66 42.2529L155.667 28.391C160.236 28.1647 164.851 28.2552 169.428 28.2204L169.442 14.0033L197.726 13.9059C197.785 9.44654 197.736 4.97671 197.74 0.517357H197.736Z" fill="#AFE7FA"/>
<path d="M197.736 0.517357C211.347 0.513876 224.955 0.437324 238.563 0.291116C248.635 0.176238 258.788 -0.206688 268.853 0.204087C268.78 7.13158 268.759 14.059 268.79 20.9831C278.152 21.1362 287.542 21.0005 296.908 20.997C301.268 20.997 306.148 20.5479 310.432 21.3068C311.125 22.3964 310.843 24.05 310.818 25.3067C310.407 28.5755 310.466 31.8721 310.449 35.1583C303.529 34.7684 296.587 35.2105 289.66 35.1792C289.667 39.8022 289.409 44.6479 289.761 49.2465L275.526 49.3544L275.54 35.1896L247.151 35.1757L247.277 49.3684C242.704 49.3684 238.12 49.3022 233.547 49.3823C228.682 49.424 223.813 49.4345 218.947 49.4136C204.869 48.9715 190.687 49.3126 176.599 49.3092L169.017 49.5668C164.681 49.6956 160.39 49.5668 156.057 49.4032C151.219 49.2639 146.354 49.3405 141.512 49.3127L141.554 42.2424L155.656 42.2529L155.663 28.391C160.233 28.1647 164.848 28.2552 169.424 28.2204L169.438 14.0033L197.722 13.9059C197.782 9.44654 197.733 4.97671 197.736 0.517357Z" fill="#F8FBFC"/>
<path d="M176.55 35.1616L218.975 35.179L218.947 49.4135C204.869 48.9714 190.687 49.3125 176.599 49.309C176.669 44.5955 176.581 39.8751 176.554 35.1616H176.55Z" fill="#B9EEFB"/>
<path d="M218.937 14.3062L232.736 14.4559C232.544 21.3312 232.565 28.2099 232.802 35.0817C228.194 35.1409 223.583 35.2523 218.975 35.1757L218.937 14.3027V14.3062Z" fill="#B9EEFB"/>
<path d="M233.126 35.1548L247.144 35.1792L247.27 49.3718C242.697 49.3718 238.113 49.3057 233.54 49.3857C233.505 44.6305 233.457 39.9031 233.122 35.1583L233.126 35.1548Z" fill="#B9EEFB"/>
<path d="M310.445 35.1617C310.463 31.872 310.404 28.5754 310.815 25.3101C310.881 28.6032 310.902 31.8998 310.877 35.193L325.115 35.2L325.021 49.3335C329.636 49.3126 334.272 49.2151 338.887 49.2917C337.591 54.8615 338.712 71.1185 338.824 77.677C322.507 77.1966 305.98 77.4229 289.66 77.8058C289.764 71.3204 290.84 54.6109 289.757 49.2465C289.409 44.6479 289.667 39.8021 289.656 35.1791C296.584 35.2104 303.525 34.7683 310.445 35.1582V35.1617Z" fill="#B9EEFB"/>
<path d="M141.509 49.3159C146.35 49.3438 151.216 49.2672 156.053 49.4064C155.82 54.0294 155.935 58.7115 155.625 63.3171C150.888 63.2335 146.152 63.2092 141.411 63.2405C141.377 58.5967 141.408 53.9563 141.505 49.3159H141.509Z" fill="#B9EEFB"/>
<path d="M156.053 49.4067C160.383 49.5704 164.677 49.6991 169.013 49.5703C169.142 54.1724 169.24 58.7745 169.306 63.3766C164.771 63.3975 160.153 63.6029 155.629 63.3174C155.938 58.7118 155.824 54.0297 156.057 49.4067H156.053Z" fill="#D6F8FC"/>
<path d="M99.2235 91.6782L108.491 91.6538C119.41 92.364 130.688 91.7583 141.641 91.7583C141.641 96.3429 141.822 101.008 141.516 105.582L141.265 106.142C134.202 106.323 127.142 106.351 120.079 106.222L119.995 113.773C119.94 115.876 119.835 117.975 120.02 120.074C120.03 127.033 119.515 134.427 120.169 141.33C94.4066 141.33 68.4384 140.623 42.7 141.333C42.5885 134.235 42.3029 127.092 42.6233 120.001C44.8454 120.029 47.1197 119.973 49.3348 120.102L49.3209 105.878C65.9655 105.665 82.6241 105.801 99.2722 105.791L99.2235 91.6712V91.6782Z" fill="#AFE7FA"/>
<path d="M99.2235 91.6782L108.491 91.6538C119.41 92.364 130.688 91.7583 141.641 91.7583C141.641 96.3429 141.822 101.008 141.516 105.582L141.265 106.142C134.202 106.323 127.142 106.351 120.079 106.222L119.995 113.773C117.933 113.696 115.833 113.703 113.785 113.46L113.66 120.241C99.2269 120.613 84.787 120.69 70.3505 120.478C63.43 120.422 56.2135 120.763 49.3383 120.105L49.3244 105.881C65.969 105.669 82.6276 105.805 99.2757 105.794L99.2269 91.6747L99.2235 91.6782Z" fill="#F8FBFC"/>
<path d="M353.393 98.7034L367.366 98.6616L367.328 112.917C386.187 112.903 405.106 113.213 423.959 112.837C423.942 117.143 424.13 121.561 423.715 125.842L423.353 126.765C421.337 126.946 419.254 126.911 417.23 126.977C416.979 131.729 417.039 136.484 417.049 141.24L367.359 141.281L367.453 134.465C364.952 134.504 362.514 134.49 360.017 134.291L360.055 126.754L359.989 119.924L353.65 119.618C353.623 117.394 353.727 115.176 353.814 112.955C354.807 110.821 353.685 101.558 353.393 98.6999V98.7034Z" fill="#F8FBFC"/>
<path d="M367.289 126.963C383.938 126.852 400.582 126.855 417.23 126.98C416.979 131.732 417.039 136.487 417.049 141.243L367.359 141.284L367.453 134.468C364.952 134.507 362.514 134.493 360.017 134.294C362.42 133.978 364.956 134.117 367.376 134.103L367.286 126.963H367.289Z" fill="#93E2FB"/>
<path d="M345.33 98.6822L353.393 98.7031C353.689 101.561 354.807 110.824 353.814 112.958C353.727 115.179 353.623 117.397 353.651 119.621L359.989 119.928L360.056 126.758C352.383 126.51 344.578 126.869 336.891 126.925L296.928 126.956C297.113 131.777 296.981 136.637 296.97 141.462L282.638 141.57L282.729 119.872C280.35 119.858 278.01 119.778 275.634 119.6C282.548 118.796 290.339 119.868 297.364 119.914C297.406 115.287 297.35 110.661 297.204 106.034C310.85 105.93 324.541 105.321 338.173 105.39C338.949 106.504 338.914 107.852 339.085 109.178C339.123 105.683 339.12 102.188 339.078 98.6926L345.326 98.6787L345.33 98.6822Z" fill="#93E2FB"/>
<path d="M345.33 98.6821L353.393 98.703C353.689 101.561 354.807 110.824 353.814 112.958C351.359 112.816 348.855 113.112 346.403 113.275L346.232 120.276L339.116 120.439L339.089 109.181C339.127 105.686 339.123 102.191 339.082 98.6961L345.33 98.6821Z" fill="#D6F8FC"/>
<path d="M423.353 126.765L423.715 125.842L424.346 126.747C428.849 127.468 433.885 126.97 438.458 126.984L438.256 137.515C438.354 138.917 438.197 139.645 439.085 140.766C442.307 141.918 445.598 141.062 448.963 141.26C450.363 141.26 450.941 141.048 452.076 141.911C452.519 143.433 452.306 144.919 452.198 146.472C452.254 149.396 452.275 152.32 452.264 155.241L466.273 155.077L466.029 162.391L465.945 169.52C463.841 169.298 461.665 169.398 459.551 169.388L438.054 169.552C437.734 164.824 437.8 160.052 437.755 155.317L423.694 155.293L423.614 141.229L417.042 141.246C417.032 136.491 416.969 131.736 417.223 126.984C419.247 126.918 421.333 126.953 423.346 126.772L423.353 126.765Z" fill="#B9EEFB"/>
<path d="M423.353 126.765L423.715 125.842L424.346 126.747C428.849 127.468 433.885 126.97 438.458 126.984L438.256 137.515C438.127 138.705 438.12 139.746 437.56 140.825C433.234 140.641 428.933 140.439 424.621 139.983C423.273 138.141 423.468 129.424 423.35 126.768L423.353 126.765Z" fill="#F8FBFC"/>
<path d="M120.079 106.223C127.142 106.348 134.202 106.324 141.265 106.143C141.265 110.8 141.425 115.521 141.129 120.168C134.345 120.666 126.808 120.635 120.016 120.074C119.835 117.975 119.936 115.876 119.992 113.773L120.075 106.223H120.079Z" fill="#93E2FB"/>
<path d="M141.133 120.168C141.032 124.802 141.035 129.435 141.14 134.065L120.326 133.905C120.312 136.366 120.406 138.876 120.166 141.33C119.511 134.423 120.027 127.033 120.016 120.074C126.808 120.635 134.345 120.663 141.129 120.168H141.133Z" fill="#69CEF7"/>
<path d="M141.516 105.582C143.595 105.666 145.671 105.774 147.754 105.77C147.879 110.511 147.886 115.256 147.771 119.997C145.605 120.018 143.268 119.855 141.133 120.172C141.429 115.524 141.265 110.804 141.269 106.146L141.519 105.586L141.516 105.582Z" fill="#7DDAFA"/>
<path d="M134.543 148.675H141.112L146.019 148.727L146.35 154.75C144.497 154.795 142.509 154.673 140.701 155.088C138.622 155.188 136.556 155.293 134.477 155.248L134.54 148.675H134.543Z" fill="#7DDAFA"/>
<path d="M28.0441 120.004H42.6234C42.3029 127.095 42.585 134.242 42.7 141.34L42.7104 148.807L42.6791 162.245L41.5889 162.568C39.3982 162.899 37.2632 162.802 35.0586 162.742C35.0934 167.223 35.4068 171.943 35.1213 176.403C30.8756 176.517 26.6091 176.469 22.36 176.497L0.21594 176.476L0.233354 162.405C-0.212453 157.764 0.0905567 152.943 0.177628 148.285L14.0429 148.292L14.1265 134.232C18.7448 134.061 23.384 134.11 28.0058 134.068L28.0441 120.004Z" fill="#F8FBFC"/>
<path d="M0.23684 162.408L14.3494 162.374C22.9869 162.391 33.1952 161.618 41.5889 162.569C39.3982 162.899 37.2632 162.802 35.0586 162.743C35.0934 167.223 35.4068 171.943 35.1213 176.403C30.8756 176.518 26.6091 176.469 22.36 176.497L0.215942 176.476L0.233357 162.405L0.23684 162.408Z" fill="#44C4FC"/>
<path d="M14.0569 148.703C23.5721 149.034 33.1883 148.776 42.7104 148.808L42.6791 162.245L41.5889 162.569C33.1987 161.618 22.9904 162.388 14.3494 162.374C14.036 157.813 14.0499 153.27 14.0569 148.703Z" fill="#B9EEFB"/>
</svg>
