<svg width="723" height="193" viewBox="0 0 723 193" fill="none" xmlns="http://www.w3.org/2000/svg">
<path d="M325.832 1.15038C349.63 0.763967 373.478 1.04946 397.283 1.10168C396.945 5.62021 397.112 10.2641 397.067 14.7966C398.906 15.8339 403.402 15.2735 405.6 15.3222C414.467 15.2143 423.338 15.2038 432.206 15.2908L432.073 29.0553C436.765 29.3164 441.46 29.3303 446.162 29.3721L446.071 43.4395L460.229 43.6204C460.208 48.1772 459.985 52.8281 460.267 57.371L460.427 57.5903L474.376 57.5137L474.366 71.9396L474.272 85.8363C483.334 85.1645 492.512 85.3734 501.588 85.4569C501.564 80.9454 501.295 76.2806 501.814 71.7934C502.173 76.6183 501.814 81.464 502.145 86.2784C506.938 86.4003 511.789 86.7275 516.578 86.6614C516.561 91.1033 516.495 95.5558 516.683 99.9942L502.291 100.053C502.215 104.325 501.438 110.173 502.615 114.239C502.755 118.932 502.654 123.638 502.626 128.331C507.039 128.317 511.601 128.077 515.997 128.348C520.347 130.388 538.447 129.427 544.128 129.201V141.772L475.028 142.335C470.218 142.44 465.404 142.489 460.595 142.489C459.39 139.986 460.257 131.297 460.302 128.178C450.839 128.247 441.38 128.265 431.917 128.237L432.021 114.135L340.077 114.159C340.098 118.876 340.105 123.583 340.324 128.296C333.014 128.233 325.703 128.216 318.393 128.247C311.441 128.435 304.485 128.533 297.534 128.54L297.6 121.602L283.463 121.65C283.519 116.759 283.609 111.865 283.735 106.977C278.754 107.078 273.77 107.113 268.786 107.085C268.817 95.7924 268.358 84.5518 268.166 73.2625C265.961 71.9396 259.511 72.7055 256.718 72.7577C256.711 76.0474 255.993 82.5606 256.962 85.436L258.501 85.248C259.612 86.0174 261.03 86.0243 262.339 86.1914L259.637 86.3377C258.292 86.3238 256.958 86.1601 255.621 86.0208L255.607 72.0057L269.256 71.8526L269.319 71.494C269.249 66.8989 269.302 62.2934 269.298 57.6982C274.15 57.6077 279.001 57.5903 283.853 57.646H290.606L290.662 43.4046C290.408 38.7503 290.533 34.0333 290.512 29.3721C295.214 29.3199 299.919 29.3164 304.621 29.3651L304.632 15.2317L325.815 15.2734L325.832 1.13304V1.15038Z" fill="#40B9F9"/>
<path d="M325.832 1.15038C349.63 0.763967 373.478 1.04946 397.283 1.10168C396.945 5.62021 397.112 10.2641 397.067 14.7966C398.906 15.8339 403.402 15.2735 405.6 15.3222C414.468 15.2143 423.338 15.2038 432.206 15.2908L432.073 29.0553C436.765 29.3164 441.46 29.3303 446.162 29.3721L446.071 43.4395L460.229 43.6204C460.208 48.1772 459.985 52.8281 460.267 57.371C455.524 58.0219 450.345 57.6774 445.556 57.6147L431.896 57.6739C424.812 57.4824 417.682 57.6495 410.595 57.646L410.706 43.5195L361.214 43.5403L361.232 57.6739C356.485 57.653 351.741 57.6773 346.994 57.7469C345.009 57.9001 342.968 57.7608 340.972 57.7191C340.944 53.7958 341.052 49.8239 340.491 45.9354C340.464 45.2705 340.349 44.724 340.206 44.0765C337.322 42.4125 329.384 43.4778 325.734 43.5265C325.571 39.4048 324.655 33.358 325.783 29.4626L325.557 29.3791C318.581 29.5009 311.601 29.5009 304.625 29.3756L304.635 15.2422L325.818 15.2839L325.835 1.14349L325.832 1.15038Z" fill="#93E2FB"/>
<path d="M325.832 1.15038C349.63 0.763967 373.478 1.04946 397.283 1.10168C396.945 5.62021 397.112 10.2641 397.067 14.7966C394.305 15.5624 391.456 14.8662 388.736 15.5554C390.272 17.4701 389.339 26.4375 389.384 29.3547C368.187 29.5775 346.973 29.0483 325.78 29.4661L325.553 29.3825C318.577 29.5044 311.597 29.5044 304.621 29.3791L304.632 15.2456L325.815 15.2874L325.832 1.14698V1.15038Z" fill="#F8FBFC"/>
<path d="M388.736 15.5591C390.272 17.4737 389.339 26.4411 389.384 29.3583C368.187 29.5811 346.973 29.052 325.78 29.4697L325.553 29.3862C325.926 24.8642 325.769 20.2238 325.811 15.6844C335.445 16.1369 345.162 15.9838 354.809 15.9907C366.122 16.0012 377.438 16.1091 388.74 15.5591H388.736Z" fill="#AFE7FA"/>
<path d="M388.736 15.5587C391.456 14.8694 394.305 15.5622 397.067 14.7998C398.906 15.8372 403.402 15.2767 405.6 15.3255C414.468 15.2175 423.338 15.2071 432.206 15.2941L432.073 29.0586C436.765 29.3197 441.46 29.3336 446.162 29.3753L446.071 43.4427L460.229 43.6237C460.208 48.1805 459.985 52.8313 460.267 57.3742C455.524 58.0252 450.345 57.6806 445.556 57.618L431.896 57.6771C431.934 53.0263 431.965 48.3859 431.819 43.7386C431.015 39.3836 431.554 34.1828 431.61 29.7409C427.002 30.1342 422.391 30.5694 417.783 30.0159C411.458 28.7871 403.528 29.4763 397.015 29.4102L389.384 29.3614C389.339 26.4442 390.272 17.4768 388.736 15.5622V15.5587Z" fill="#F8FBFC"/>
<path d="M431.819 43.7353C436.399 43.777 440.955 43.6448 445.531 43.4707C445.462 47.8952 444.768 53.2841 445.556 57.6147L431.896 57.6738C431.934 53.023 431.965 48.3826 431.819 43.7353Z" fill="#B9EEFB"/>
<path d="M388.736 15.5587C391.456 14.8694 394.305 15.5622 397.067 14.7998C398.906 15.8372 403.402 15.2767 405.6 15.3255C402.706 15.7188 400.034 15.5691 397.137 15.4926C397.109 20.1155 397.213 24.7942 397.011 29.4102L389.38 29.3614C389.335 26.4442 390.268 17.4768 388.733 15.5622L388.736 15.5587Z" fill="#D6F8FC"/>
<path d="M417.783 30.0128C422.394 30.5663 427.006 30.1312 431.61 29.7378C431.554 34.1797 431.015 39.3806 431.819 43.7355L417.668 43.9514L417.783 30.0128Z" fill="#B9EEFB"/>
<path d="M290.512 29.3862C295.214 29.334 299.919 29.3305 304.621 29.3792C311.597 29.5045 318.577 29.5045 325.553 29.3827L325.78 29.4662C324.651 33.3616 325.567 39.4084 325.731 43.5301C329.381 43.4814 337.318 42.4161 340.202 44.0801C340.345 44.7241 340.46 45.2742 340.488 45.9391C341.049 49.8275 340.941 53.7994 340.969 57.7227C342.964 57.7645 345.002 57.9072 346.99 57.7506C347.053 62.4606 347.081 67.1706 347.074 71.8806L340.429 72.0859C339.088 75.3547 340.011 82.3066 340.049 85.9793C321.322 85.6799 302.535 86.0036 283.804 86.2716L284.069 72.0651C279.144 72.0756 274.178 72.2148 269.263 71.8667L269.326 71.5081C269.256 66.913 269.308 62.3074 269.305 57.7123C274.157 57.6218 279.008 57.6044 283.86 57.6601H290.613L290.669 43.4187C290.415 38.7644 290.54 34.0474 290.519 29.3862H290.512Z" fill="#44C4FC"/>
<path d="M290.512 29.3862C295.214 29.334 299.919 29.3305 304.621 29.3792C311.597 29.5045 318.577 29.5045 325.553 29.3827L325.78 29.4662C324.651 33.3616 325.567 39.4084 325.731 43.5301C314.056 43.5475 302.326 43.7807 290.662 43.4187C290.408 38.7644 290.533 34.0474 290.512 29.3862Z" fill="#AFE7FA"/>
<path d="M269.302 57.712C274.153 57.6215 279.005 57.604 283.856 57.6597C283.78 62.3628 283.742 67.0658 283.738 71.7723C279.311 71.7967 273.606 72.4964 269.322 71.5113C269.253 66.9161 269.305 62.3106 269.302 57.7155V57.712Z" fill="#7DDAFA"/>
<path d="M340.488 45.939C341.049 49.8274 340.941 53.7994 340.969 57.7226C342.964 57.7644 345.002 57.9071 346.99 57.7505C347.053 62.4605 347.081 67.1705 347.074 71.8805L340.429 72.0858C340.693 63.369 340.282 54.6558 340.491 45.939H340.488Z" fill="#7DDAFA"/>
<path d="M460.267 57.3745L460.427 57.5939L474.376 57.5173L474.366 71.9432C469.869 71.6055 465.216 71.7482 460.699 71.6821L460.4 71.7586C455.684 71.6925 450.968 71.7204 446.252 71.8492L445.524 71.6856C444.688 67.4211 445.413 61.9871 445.552 57.6183C450.341 57.6809 455.52 58.029 460.264 57.3745H460.267Z" fill="#AFE7FA"/>
<path d="M460.427 57.5937L474.376 57.5171L474.366 71.943C469.869 71.6053 465.216 71.748 460.699 71.6819C460.076 67.2782 460.48 62.0809 460.427 57.5937Z" fill="#B9EEFB"/>
<path d="M502.145 86.2852C506.938 86.407 511.789 86.7343 516.578 86.6681C516.561 91.1101 516.495 95.5625 516.683 100.001L502.291 100.06L474.279 100.084L474.307 92.5826L502.274 92.5686C502.302 90.4695 502.222 88.3808 502.145 86.2852Z" fill="#93E2FB"/>
<path d="M460.403 71.7587L460.703 71.6821C465.22 71.7483 469.873 71.6055 474.369 71.9432L474.275 85.8399C469.591 85.9026 464.906 85.9339 460.218 85.9409H445.921C446.008 81.499 446.761 76.1937 446.256 71.8527C450.971 71.7274 455.687 71.696 460.403 71.7622V71.7587Z" fill="#7DDAFA"/>
<path d="M460.403 71.7587L460.703 71.6821C465.22 71.7483 469.873 71.6055 474.369 71.9432L474.275 85.8399C469.591 85.9026 464.906 85.9339 460.219 85.9409C460.497 81.2936 460.706 76.406 460.407 71.7622L460.403 71.7587Z" fill="#93E2FB"/>
<path d="M431.896 57.6773L445.556 57.6182C445.416 61.987 444.688 67.4245 445.528 71.6855L437.977 71.8247L431.868 71.9291L431.896 57.6808V57.6773Z" fill="#7DDAFA"/>
<path d="M437.973 71.8213L445.524 71.6821L446.252 71.8457C446.757 76.1902 446.005 81.492 445.918 85.9409L437.991 85.9548C438.033 81.2448 438.13 76.5279 437.973 71.8213Z" fill="#69CEF7"/>
<path d="M155.697 57.7505C169.023 57.3537 185.626 56.8942 198.801 57.956C199.15 61.3396 197.854 69.2279 199.494 71.8353C205.945 71.79 221.691 70.878 227.204 72.0337L227.037 85.9061L234.424 85.8817L248.185 85.9026C250.647 85.9375 253.169 85.8713 255.624 86.0384C256.962 86.1776 258.296 86.3412 259.64 86.3551L262.343 86.2089C261.033 86.0418 259.616 86.0349 258.505 85.2656L256.965 85.4536C256 82.5781 256.714 76.0614 256.721 72.7752C259.515 72.7229 265.965 71.9606 268.17 73.28C268.358 84.5694 268.821 95.81 268.79 107.103C273.774 107.131 278.754 107.096 283.738 106.995C283.613 111.886 283.522 116.777 283.466 121.668L297.603 121.619L297.537 128.557C304.492 128.55 311.444 128.453 318.396 128.265C318.42 132.989 318.504 137.716 318.403 142.436L304.722 142.45C302.8 142.405 300.007 141.911 298.432 143.067C298.091 144.059 298.147 144.706 298.265 145.74L298.074 149.893L198.557 149.761L198.648 156.18L191.999 156.222C191.895 160.438 191.341 164.872 191.661 169.06L191.519 170.22C188.75 171.891 180.746 170.731 177.329 170.724C177.34 173.05 177.451 175.42 177.281 177.742L177.375 186.296L184.02 186.181L184.229 191.897C160.775 191.618 137.287 191.897 113.83 191.966L113.816 184.837L107.16 185.209L107.171 177.749C104.973 178.101 101.64 178.874 99.5465 178.118C93.9391 177.029 79.4677 177.885 72.9165 177.896L15.1775 177.732C15.1531 175.375 15.2506 173.001 15.2889 170.644L15.2645 156.615L15.2228 149.796C19.5694 148.897 24.9191 149.465 29.3737 149.489C29.3388 144.943 29.1229 140.317 29.4921 135.781C34.1974 135.701 38.9063 135.676 43.6116 135.704L43.6499 121.504C49.1146 120.432 56.1813 121.184 61.7817 121.191L100.048 121.261L100.02 107.625C107.195 107.601 114.373 107.667 121.548 107.816C121.478 101.787 121.011 95.7229 121.356 89.7005C121.307 88.597 121.165 87.6467 121.725 86.6441C124.815 84.8026 131.07 85.8609 134.65 85.8887C134.664 81.21 134.703 76.5313 134.765 71.8527H155.683L155.697 57.7575V57.7505Z" fill="#44C4FC"/>
<path d="M121.356 89.6934C121.635 93.1189 121.659 96.5409 121.694 99.9768L127.43 100.081C129.586 100.485 131.61 100.659 133.794 100.729C134.062 102.769 134.337 104.774 134.393 106.835L134.734 107.138C135.545 111.708 135.218 116.693 135.145 121.33C130.767 121.274 124.174 120.429 120.064 121.497L114.143 121.542L114.178 134.802L114.185 149.761L106.638 149.799C104.544 149.761 102.444 149.764 100.355 149.646C100.316 154.077 100.623 158.885 99.9331 163.257C99.0415 167.772 99.5848 173.471 99.55 178.108C93.9426 177.018 79.4712 177.874 72.9199 177.885L15.181 177.721C15.1566 175.365 15.2541 172.99 15.2924 170.634L15.268 156.605L15.2262 149.785C19.5729 148.887 24.9225 149.454 29.3771 149.479C29.3423 144.932 29.1264 140.306 29.4955 135.77C34.2009 135.69 38.9097 135.666 43.6151 135.693L43.6534 121.494C49.118 120.422 56.1848 121.173 61.7852 121.18L100.052 121.25L100.024 107.614C107.198 107.59 114.377 107.656 121.551 107.806C121.482 101.777 121.015 95.7123 121.36 89.6899L121.356 89.6934Z" fill="#93E2FB"/>
<path d="M43.6499 121.494C50.1733 121.838 56.7908 121.497 63.3316 121.497L100.118 121.567C99.8286 126.329 99.7833 131.067 99.7694 135.836C95.0919 135.826 90.1671 135.533 85.521 136.08L85.5419 149.614C66.9782 149.381 48.3831 149.576 29.8125 149.58C29.7916 145.012 30.0075 140.306 29.4886 135.766C34.1939 135.686 38.9028 135.662 43.6081 135.69L43.6464 121.49L43.6499 121.494Z" fill="#F8FBFC"/>
<path d="M100.118 121.567L106.766 121.657L106.721 136.212C99.8843 136.268 92.2952 136.947 85.521 136.083C90.1671 135.537 95.0919 135.829 99.7694 135.84C99.7834 131.07 99.8286 126.333 100.118 121.57V121.567Z" fill="#B9EEFB"/>
<path d="M15.2193 149.785C19.9177 150.091 24.7101 149.83 29.4189 149.761L29.3319 156.406C24.6404 156.309 19.9316 156.789 15.2645 156.605L15.2228 149.785H15.2193Z" fill="#F8FBFC"/>
<path d="M155.697 57.7505C169.023 57.3537 185.626 56.8942 198.801 57.956C199.15 61.3396 197.854 69.2279 199.494 71.8353C205.945 71.79 221.691 70.878 227.204 72.0337L227.037 85.9061L234.424 85.8817C234.334 90.1427 234.877 95.1068 234.069 99.2598C232.815 99.7402 231.687 99.8655 230.367 99.9908L219.88 100.001L205.666 99.9908L205.687 114.497C200.908 114.364 196.13 114.27 191.348 114.215L190.989 107.117C172.269 107.117 153.444 106.668 134.734 107.141L134.393 106.838C134.34 104.777 134.062 102.772 133.794 100.732C131.606 100.663 129.586 100.489 127.43 100.085L121.694 99.9804C121.656 96.5445 121.635 93.1225 121.356 89.6971C121.307 88.5935 121.165 87.6432 121.725 86.6406C124.815 84.7991 131.07 85.8574 134.65 85.8852C134.664 81.2066 134.703 76.5279 134.765 71.8492H155.683L155.697 57.754V57.7505Z" fill="#AFE7FA"/>
<path d="M155.697 57.7505C169.023 57.3537 185.626 56.8942 198.801 57.956C198.237 62.464 198.523 67.2053 198.551 71.7482C186.831 71.8387 175.072 72.0372 163.356 71.804C163.534 76.6637 163.433 81.4989 163.328 86.3551L149.111 86.2403L149.17 100.141C141.975 100.102 134.612 99.7263 127.434 100.085L121.698 99.9804C121.659 96.5445 121.638 93.1225 121.36 89.6971C121.311 88.5935 121.168 87.6432 121.729 86.6406C124.818 84.7991 131.073 85.8574 134.654 85.8852C134.668 81.2066 134.706 76.5279 134.769 71.8492H155.687L155.701 57.754L155.697 57.7505Z" fill="#F8FBFC"/>
<path d="M199.494 71.8351C205.945 71.7898 221.691 70.8778 227.204 72.0335L227.037 85.906L234.424 85.8816C234.334 90.1425 234.877 95.1066 234.069 99.2596C232.815 99.74 231.687 99.8654 230.367 99.9907L219.88 100.001L219.9 86.087C213.548 87.187 205.75 86.2541 199.237 86.2401C199.557 81.7251 198.244 76.0856 199.494 71.8351Z" fill="#F8FBFC"/>
<path d="M199.494 71.8351C205.945 71.7898 221.691 70.8778 227.204 72.0335C220.082 72.5418 212.837 72.0092 205.69 72.225C205.819 76.7818 206.133 81.4222 205.837 85.9756C210.361 85.9338 215.463 85.4778 219.9 86.087C213.548 87.187 205.75 86.2541 199.237 86.2401C199.557 81.7251 198.244 76.0856 199.494 71.8351Z" fill="#B9EEFB"/>
<path d="M134.734 107.137C153.444 106.664 172.269 107.113 190.989 107.113L191.348 114.211C191.299 116.355 191.668 119.182 191.219 121.226L191.508 121.295C191.512 125.936 191.543 130.576 191.599 135.216C165.787 135.411 139.979 135.275 114.171 134.806L114.136 121.546L120.057 121.501C124.167 120.432 130.76 121.278 135.138 121.333C135.208 116.693 135.535 111.712 134.727 107.141L134.734 107.137Z" fill="#69CEF7"/>
<path d="M134.734 107.137C153.444 106.664 172.269 107.113 190.989 107.113L191.348 114.211C191.299 116.355 191.668 119.182 191.219 121.226C167.532 121.595 143.755 121.678 120.064 121.501C124.174 120.432 130.767 121.278 135.145 121.333C135.215 116.693 135.542 111.712 134.734 107.141V107.137Z" fill="#7DDAFA"/>
<path d="M114.021 163.473L127.988 163.539L127.813 177.871C144.298 177.607 160.803 178.205 177.281 177.732L177.375 186.285L184.02 186.17L184.229 191.886C160.775 191.608 137.287 191.886 113.83 191.956L113.816 184.827L107.16 185.199L107.171 177.739C109.372 177.516 111.737 177.676 113.959 177.673C113.931 172.938 113.955 168.208 114.025 163.473H114.021Z" fill="#20A6FC"/>
<path d="M234.424 85.8818L248.185 85.9027C248.185 90.4631 248.077 95.0512 248.23 99.608C242.431 99.8169 236.138 100.492 230.37 99.9909C231.69 99.8691 232.815 99.7403 234.072 99.2599C234.88 95.1069 234.337 90.1428 234.428 85.8818H234.424Z" fill="#7DDAFA"/>
<path d="M255.621 86.038C256.958 86.1773 258.292 86.3408 259.637 86.3548C260.326 86.5253 261.489 86.588 261.866 87.225C263.45 89.9299 262.231 96.102 262.263 99.2629C257.582 99.2559 252.904 99.3708 248.23 99.611C248.077 95.0542 248.188 90.4661 248.185 85.9058C250.647 85.9406 253.169 85.8744 255.624 86.0415L255.621 86.038Z" fill="#7DDAFA"/>
<path d="M191.348 114.211C196.126 114.267 200.908 114.361 205.687 114.493L205.722 121.288L191.508 121.295L191.219 121.226C191.668 119.182 191.299 116.355 191.348 114.211Z" fill="#7DDAFA"/>
<path d="M100.351 149.646C102.441 149.764 104.541 149.764 106.634 149.799L106.669 163.257H99.9296C100.619 158.888 100.313 154.078 100.351 149.646Z" fill="#7DDAFA"/>
<path d="M340.077 114.173L432.021 114.148L431.917 128.251C441.38 128.282 450.839 128.265 460.302 128.191C460.257 131.311 459.389 139.999 460.595 142.502C459.358 146.279 460.253 152.11 460.389 156.131C453.086 156.531 445.799 156.444 438.485 156.35C438.673 161.186 438.771 166.025 438.778 170.863C431.746 170.846 424.683 170.968 417.658 170.742L417.867 177.867L177.281 177.732C177.451 175.413 177.34 173.043 177.329 170.714C180.746 170.721 188.75 171.88 191.519 170.209L191.661 169.05C191.344 164.862 191.895 160.427 191.999 156.211L198.648 156.169L198.557 149.75L298.074 149.882L298.265 145.729C298.143 144.696 298.091 144.048 298.432 143.056C300.003 141.904 302.8 142.394 304.722 142.44L318.403 142.426C318.504 137.705 318.42 132.975 318.396 128.254C325.707 128.226 333.017 128.244 340.328 128.303C340.108 123.593 340.101 118.883 340.08 114.166L340.077 114.173Z" fill="#20A6FC"/>
<path d="M298.07 149.886L298.032 157.068L283.522 157.075L283.731 163.56L227.528 163.644C215.683 163.63 203.775 163.846 191.94 163.362C191.87 165.245 191.895 167.184 191.658 169.053C191.341 164.866 191.891 160.431 191.996 156.215L198.645 156.173L198.554 149.754L298.07 149.886Z" fill="#40B9F9"/>
<path d="M298.262 145.737C298.14 144.703 298.087 144.055 298.429 143.063C299.999 141.911 302.796 142.402 304.719 142.447C304.91 144.389 305.384 146.555 304.729 148.424C303.765 149.597 302.605 149.764 301.173 149.921C300.407 150.001 299.644 150.064 298.878 150.116C298.342 148.671 298.495 147.234 298.265 145.733L298.262 145.737Z" fill="#20A6FC"/>
<path d="M530.82 57.6701C545.096 57.5726 559.376 57.5657 573.652 57.6457C573.453 62.3418 573.394 67.0448 573.478 71.7479L601.7 71.7757C601.682 76.4579 601.619 81.147 601.654 85.8257C606.534 85.8118 611.438 85.7004 616.31 85.8257C616.209 90.5566 616.213 95.3153 615.934 100.036L629.879 100.078L629.862 112.349L629.744 121.278L657.352 121.257C661.89 121.246 668.034 120.554 672.423 121.619L672.322 135.342C677.006 135.356 681.691 135.324 686.375 135.394L686.33 142.436L686.058 149.245C681.475 149.419 676.811 149.687 672.231 149.412C665.321 149.503 658.105 149.144 651.247 149.841L650.31 149.98C650.247 154.505 650.09 159.052 650.178 163.581L594.525 163.605C594.584 159.055 594.612 154.505 594.605 149.955C594.382 142.635 594.518 135.289 594.535 127.965C578.12 128.908 561.41 128.317 544.96 128.324C535.591 128.397 526.222 128.39 516.857 128.31L515.997 128.365C511.601 128.094 507.035 128.334 502.626 128.348C502.654 123.655 502.751 118.949 502.615 114.256C501.438 110.187 502.215 104.338 502.291 100.071L516.683 100.011C516.495 95.5694 516.561 91.1205 516.578 86.6786C511.789 86.7447 506.938 86.4209 502.145 86.2956C501.814 81.4812 502.177 76.6355 501.814 71.8106C511.462 71.8001 521.169 71.553 530.806 71.9011L530.82 57.6841V57.6701Z" fill="#AFE7FA"/>
<path d="M530.82 57.6701C545.096 57.5726 559.376 57.5657 573.652 57.6457C573.454 62.3418 573.394 67.0448 573.478 71.7479L601.7 71.7757C601.682 76.4579 601.619 81.147 601.654 85.8257C606.534 85.8118 611.438 85.7004 616.31 85.8257C616.209 90.5566 616.213 95.3153 615.934 100.036L629.879 100.078L629.862 112.349L629.42 114.082C626.243 115.924 619.431 114.51 615.725 114.744C615.614 109.839 615.732 104.92 615.777 100.015L601.846 100.06C601.72 95.3153 601.64 90.574 601.606 85.8257C594.26 86.9884 586.654 86.5045 579.253 86.3652L552.121 85.9266C552.518 90.6401 552.264 95.4232 552.17 100.147L516.679 99.994C516.491 95.552 516.557 91.1031 516.575 86.6611C511.786 86.7273 506.934 86.4035 502.142 86.2782C501.811 81.4638 502.173 76.618 501.811 71.7932C511.458 71.7827 521.165 71.5356 530.802 71.8837L530.816 57.6666L530.82 57.6701Z" fill="#F8FBFC"/>
<path d="M502.291 100.06L516.683 100.001C516.7 104.711 516.773 109.431 516.725 114.141C542.794 114.305 568.853 114.037 594.918 114.702C594.629 119.123 594.584 123.533 594.542 127.962C578.127 128.905 561.417 128.313 544.967 128.32C535.598 128.393 526.229 128.386 516.864 128.306L516.004 128.362C511.608 128.09 507.042 128.331 502.633 128.344C502.661 123.652 502.758 118.945 502.622 114.253C501.445 110.183 502.222 104.335 502.298 100.067L502.291 100.06Z" fill="#7DDAFA"/>
<path d="M502.615 114.246L516.923 114.18C516.836 118.886 516.815 123.596 516.86 128.303L516 128.358C511.605 128.087 507.039 128.327 502.629 128.341C502.657 123.648 502.755 118.942 502.619 114.249L502.615 114.246Z" fill="#44C4FC"/>
<path d="M629.862 112.349L629.744 121.278L657.352 121.257C661.891 121.246 668.034 120.554 672.423 121.619L672.322 135.342C677.006 135.356 681.691 135.324 686.375 135.394L686.33 142.436L686.058 149.245C681.475 149.419 676.811 149.687 672.231 149.412L672.269 135.286C667.919 135.502 663.59 136.024 659.233 136.198C652.003 136.483 644.717 136.327 637.483 136.327C634.905 136.734 632.039 136.581 629.42 136.633L629.528 143.595C624.882 143.4 620.26 143.599 615.614 143.769L615.725 114.747C619.431 114.514 626.243 115.927 629.42 114.086L629.862 112.352V112.349Z" fill="#F8FBFC"/>
<path d="M629.862 112.349L629.744 121.278L657.352 121.257C661.891 121.246 668.034 120.554 672.423 121.619C667.285 122.089 661.981 121.838 656.819 121.831L629.434 121.8C629.28 126.6 629.253 131.404 629.357 136.205C632.042 136.215 634.811 136.104 637.483 136.323C634.905 136.731 632.039 136.577 629.42 136.63L629.528 143.592C624.882 143.397 620.26 143.595 615.614 143.766L615.725 114.744C619.431 114.51 626.243 115.924 629.42 114.082L629.862 112.349Z" fill="#D6F8FC"/>
<path d="M594.608 149.949L650.313 149.977C650.251 154.502 650.094 159.048 650.181 163.577L594.528 163.602C594.588 159.052 594.615 154.502 594.608 149.952V149.949Z" fill="#69CEF7"/>
<path d="M544.964 128.32C561.413 128.314 578.121 128.905 594.539 127.962C594.521 135.286 594.386 142.632 594.608 149.952C594.615 154.502 594.588 159.052 594.528 163.602L650.181 163.578C650.094 159.052 650.251 154.506 650.313 149.977L651.25 149.837C658.108 149.141 665.325 149.5 672.235 149.409C676.818 149.684 681.478 149.42 686.062 149.242L686.333 142.433L722.332 142.395L722.301 163.679C722.277 168.406 722.447 173.227 722.04 177.937C721.855 180.092 721.834 182.209 721.848 184.367C714.882 184.398 707.52 184.879 700.61 184.001C700.662 186.466 701.055 189.241 700.23 191.573C699.432 191.998 699.168 192.06 698.304 192.151C680.221 192.617 661.988 192.934 643.901 192.725L644.03 177.735C623.986 178.271 603.848 177.976 583.794 177.944L488.635 177.763L488.959 170.641C484.08 170.651 479.197 170.71 474.317 170.815C474.551 161.656 473.363 151.296 475.028 142.343L544.128 141.779V129.208C538.447 129.434 520.347 130.395 515.997 128.355L516.857 128.3C526.226 128.383 535.595 128.387 544.96 128.314L544.964 128.32Z" fill="#20A6FC"/>
<path d="M544.964 128.32C561.413 128.314 578.12 128.905 594.539 127.962C594.521 135.286 594.385 142.632 594.608 149.952C594.615 154.502 594.587 159.052 594.528 163.602L572.809 163.504L572.959 156.518L559.149 156.553L559.25 142.346L544.657 142.381C544.831 137.695 544.932 133.01 544.964 128.324V128.32Z" fill="#44C4FC"/>
<path d="M686.333 142.436L722.332 142.398L722.301 163.682C703.368 163.522 684.425 163.929 665.495 163.591L665.3 163.689L650.185 163.581C650.097 159.055 650.254 154.509 650.317 149.98L651.254 149.841C658.112 149.144 665.328 149.503 672.238 149.413C676.822 149.688 681.482 149.423 686.065 149.245L686.337 142.436H686.333Z" fill="#B9EEFB"/>
<path d="M650.313 149.977L651.25 149.837C656.029 150.13 660.846 149.956 665.631 149.893C665.091 153.98 664.503 159.578 665.495 163.588L665.3 163.685L650.185 163.577C650.097 159.052 650.254 154.506 650.317 149.977H650.313Z" fill="#93E2FB"/>
<path d="M665.492 163.591C684.421 163.929 703.368 163.525 722.297 163.682C722.273 168.409 722.444 173.231 722.036 177.941C703.34 177.011 684.23 177.812 665.492 177.84C665.541 173.401 666.112 168.033 665.293 163.685L665.488 163.588L665.492 163.591Z" fill="#69CEF7"/>
<path d="M460.595 142.502C465.404 142.502 470.218 142.45 475.028 142.349C473.363 151.303 474.55 161.663 474.317 170.821C479.197 170.717 484.076 170.658 488.959 170.647L488.635 177.77L583.794 177.951C603.848 177.982 623.986 178.278 644.03 177.742L643.901 192.732C490.68 193.278 337.454 193 184.236 191.893L184.027 186.177L177.382 186.292L177.288 177.738L417.874 177.874L417.665 170.748C424.69 170.975 431.756 170.853 438.785 170.87C438.778 166.031 438.68 161.193 438.492 156.357C445.806 156.448 453.089 156.538 460.396 156.138C460.26 152.117 459.365 146.286 460.602 142.509L460.595 142.502Z" fill="#199BFB"/>
<path d="M0.970856 170.7C5.74239 170.595 10.5139 170.575 15.2854 170.634C15.2471 172.99 15.1496 175.365 15.174 177.721L72.913 177.885C79.4677 177.875 93.9356 177.018 99.543 178.108C101.633 178.867 104.966 178.09 107.167 177.739L107.157 185.199L113.812 184.826L113.826 191.956C78.5448 192.248 43.2598 192.231 7.97839 191.904L1.02309 191.837L1.14849 177.819C0.925582 175.476 1.00917 173.053 0.970856 170.696V170.7Z" fill="#44C4FC"/>
<path d="M0.970856 170.7C5.74239 170.595 10.5139 170.575 15.2854 170.634C15.2471 172.99 15.1496 175.365 15.174 177.721L1.14849 177.822C0.925582 175.479 1.00917 173.057 0.970856 170.7Z" fill="#F8FBFC"/>
</svg>
