<svg width="215" height="120" viewBox="0 0 215 120" fill="none" xmlns="http://www.w3.org/2000/svg">
<path d="M171.409 33.7816L171.39 28.8121L170.701 28.6426C170.471 27.1717 170.598 25.5374 170.592 24.0424C168.389 24.0424 157.895 23.5036 156.751 24.0424L156.569 23.6973L156.376 23.6368V23.4855C157.023 22.6381 156.606 19.7266 156.563 18.5584H151.492L151.474 23.2615H151.323V18.5705C147.48 18.5221 143.631 18.631 139.788 18.522H138.226C138.335 17.0512 138.263 15.5561 138.238 14.0852L138.081 14.1095C138.172 12.4812 138.111 10.8348 138.105 9.20655C136.32 9.20655 134.541 9.21865 132.755 9.23681L132.78 4.78184C129.639 4.82421 126.492 4.80604 123.351 4.7334C123.466 3.17174 123.411 1.56772 123.43 0L101.964 0.0665737C100.172 1.09558 98.3749 2.11853 96.5715 3.12937C96.5836 3.8073 96.6501 4.4126 96.8619 4.79393L96.6199 4.84841C96.0692 4.7334 95.0827 4.67288 93.8784 4.64261C90.4288 6.56745 86.9732 8.47414 83.5237 10.399C77.9197 13.5163 72.243 16.573 66.8629 20.0656C61.8702 23.3039 57.065 26.8146 52.2598 30.3193C43.8901 36.4328 35.4841 42.6491 26.2732 47.4431C26.6424 47.4976 26.9389 47.5823 27.1144 47.7215C27.1144 49.2711 27.0599 50.8328 27.1144 52.3823C27.1265 53.9077 27.1265 55.433 27.1265 56.9644C27.1749 58.52 26.9268 60.4872 27.2717 61.9702C30.6063 62.2002 33.9772 62.0489 37.3178 62.1276L37.342 66.4494C39.0365 66.5523 40.7008 66.5099 42.3953 66.4615L42.4074 62.1034C47.6967 62.2244 53.0042 62.1639 58.2935 62.176L58.2814 57.037L52.986 57.0552L53.0042 52.8484L58.348 52.8302C58.5235 49.6888 58.4388 46.5049 58.4569 43.3573C61.8702 43.3573 68.3093 43.8416 71.3534 43.1758L71.5592 43.2121C71.6318 40.2219 71.7347 37.2378 71.7226 34.2476C72.8301 34.2234 74.7485 33.9389 75.747 34.3627C76.7032 34.7682 76.1162 37.3831 76.5459 38.3092C76.5822 38.3939 76.6306 38.4726 76.6669 38.5574C78.198 38.5574 79.7473 38.4968 81.2784 38.5452L81.3026 43.2181H86.5375L86.5738 48.4539L92.087 48.4842L92.0749 52.9452L117.856 52.9573C117.856 54.5069 117.844 56.0625 117.862 57.6121H122.812C122.885 59.1435 122.982 60.6688 123.127 62.1942L128.398 62.1155C130.94 62.1155 133.482 62.0973 136.017 62.1276V62.3213C137.651 62.3213 139.503 62.4968 141.101 62.1881L141.149 62.3213L145.198 62.3031C146.62 62.3031 148.061 62.2607 149.483 62.3031C149.477 60.8201 149.531 59.3553 149.61 57.8784C149.634 56.3954 149.362 54.3374 149.797 52.9634L153.108 52.9755C153.084 51.8557 153.023 50.7117 153.078 49.5919C153.108 48.9563 153.017 48.7929 153.483 48.3753C154.766 48.5205 156.122 48.466 157.417 48.4842L157.399 44.1987L157.598 44.1442C159.002 43.7992 160.866 44.005 162.313 44.005L162.452 43.8174L162.633 43.8053C162.555 42.3223 162.27 40.7243 162.767 39.3019C163.305 38.8116 163.62 38.9387 164.328 38.9205L164.382 38.7389C164.975 38.7571 165.532 38.8116 166.095 38.5816C167.1 37.5041 166.791 35.4582 166.785 34.0479C167.959 34.0782 170.489 34.405 171.427 33.7695L171.409 33.7816Z" fill="#D7ECDE"/>
<path d="M98.3749 0.0786133H96.6864C96.6864 0.357049 96.6622 0.689978 96.644 1.05921C97.225 0.732349 97.7999 0.405473 98.3809 0.0786133H98.3749Z" fill="#D7ECDE"/>
<path d="M96.6864 0.078673L123.411 0C123.393 1.56772 123.448 3.17174 123.333 4.7334C126.474 4.80604 129.621 4.81815 132.761 4.78184L132.737 9.23681C134.523 9.21865 136.308 9.20655 138.087 9.20655C138.099 10.8348 138.16 12.4812 138.063 14.1095L138.22 14.0852C138.244 15.5561 138.317 17.0512 138.208 18.522H139.769C143.618 18.631 147.461 18.5221 151.304 18.5705V23.2555L151.45 23.2615L151.468 18.5584H156.539C156.588 19.7266 156.999 22.6441 156.358 23.4855V23.6368L156.545 23.6973L156.727 24.0424C157.871 23.5036 168.364 24.0424 170.567 24.0424C170.567 25.5374 170.446 27.1717 170.676 28.6426L171.366 28.8121L171.384 33.7816C170.446 34.4171 167.911 34.0903 166.743 34.06C166.743 35.4703 167.057 37.5162 166.053 38.5937C165.49 38.8237 164.939 38.7632 164.34 38.751L164.286 38.9326C163.571 38.9508 163.263 38.8237 162.724 39.314C162.228 40.7304 162.512 42.3344 162.591 43.8174L162.409 43.8295L162.27 44.0171C160.818 44.0171 158.96 43.8113 157.556 44.1563L157.356 44.2108L157.374 48.4963C156.079 48.4782 154.724 48.5326 153.441 48.3874C152.975 48.805 153.065 48.9684 153.035 49.604C152.981 50.7238 153.035 51.8618 153.065 52.9876L149.755 52.9755C149.319 54.3495 149.586 56.4075 149.567 57.8905C149.489 59.3674 149.434 60.8383 149.44 62.3152C148.018 62.2729 146.578 62.3152 145.156 62.3152L141.107 62.3334L141.059 62.2002C139.455 62.5089 137.609 62.3395 135.975 62.3334V62.1397C133.433 62.1034 130.891 62.1276 128.35 62.1276L123.079 62.2063C122.933 60.6809 122.842 59.1556 122.764 57.6242H117.813C117.789 56.0686 117.813 54.519 117.807 52.9634L92.0265 52.9513L92.0386 48.4903L86.5253 48.46L86.489 43.2302H81.2542L81.23 38.5513L81.3571 38.4908C84.849 38.4666 88.3409 38.521 91.8328 38.5392C91.9054 37.0925 91.8994 35.658 91.8933 34.2113L97.3642 34.1932L97.3521 29.5808L107.441 29.72L107.428 25.4527C109.196 25.4224 110.957 25.3801 112.724 25.3195L112.7 19.315L118.334 19.2423C118.461 17.5112 118.419 15.7619 118.413 14.0247L107.507 14.1095L107.489 9.80579C103.924 9.86026 100.239 10.0297 96.6925 9.6363C97.0314 11.882 96.9648 14.2487 97.0314 16.5185L92.087 16.5427L92.0144 14.2245C88.8311 14.2002 85.6478 14.4242 82.4646 14.4484C82.5251 12.8868 82.5311 11.3251 82.4706 9.76341L82.2709 9.8179L82.053 9.32156C82.1741 7.86885 82.0712 6.31929 82.0651 4.86053C84.8853 4.72131 94.3262 4.38234 96.5896 4.84237L96.8316 4.78789C96.293 3.80126 96.6622 1.28928 96.6682 0.0726326L96.6864 0.078673Z" fill="#AFCACC"/>
<path d="M96.6865 0.078673L123.411 0C123.393 1.56772 123.448 3.17174 123.333 4.7334C126.474 4.80604 129.621 4.81815 132.762 4.78184L132.737 9.23681C134.523 9.21865 136.308 9.20655 138.087 9.20655C138.099 10.8348 138.16 12.4812 138.063 14.1095V18.5463C134.868 18.6128 131.672 18.6249 128.471 18.5826L128.374 14.055L123.133 14.0429V9.64236C118.062 10.169 112.609 9.8058 107.489 9.79974C103.924 9.85422 100.239 10.0237 96.6925 9.63026C97.0314 11.8759 96.9649 14.2426 97.0314 16.5125L92.0871 16.5367L92.0144 14.2184C88.8312 14.1942 85.6479 14.4181 82.4646 14.4424C82.5251 12.8807 82.5312 11.319 82.4707 9.75737L82.271 9.81184L82.0531 9.3155C82.1741 7.86279 82.0713 6.31323 82.0652 4.85447C84.8854 4.71525 94.3262 4.37628 96.5896 4.83631L96.8317 4.78184C96.2931 3.7952 96.6623 1.28322 96.6683 0.0665737L96.6865 0.078673Z" fill="#FBFBFA"/>
<path d="M96.6864 0.078673L123.411 0C123.393 1.56772 123.448 3.17174 123.333 4.7334C119.211 4.53971 115.011 4.67893 110.884 4.67893C106.218 4.67893 101.504 4.53971 96.8498 4.79393C96.3112 3.8073 96.6803 1.29532 96.6864 0.078673Z" fill="#1C378D"/>
<path d="M123.333 4.7395C126.474 4.81214 129.621 4.82425 132.761 4.78794L132.737 9.24291C134.523 9.22475 136.308 9.21265 138.087 9.21265C138.099 10.8409 138.16 12.4873 138.063 14.1155C136.471 14.0308 134.504 14.5695 133.1 13.7524C132.695 13.1894 132.786 12.566 132.792 11.9002C132.483 11.8638 132.174 11.8215 131.872 11.773C130.746 11.5975 129.875 11.4643 129.179 10.4959C129.155 10.4656 128.912 10.1145 128.876 10.0782C128.077 9.20054 124.725 9.74529 123.472 9.59397C123.411 9.58792 123.357 9.57582 123.296 9.56977L123.327 4.7395H123.333Z" fill="#1C378D"/>
<path d="M123.302 9.56976C126.395 9.21263 129.687 9.41237 132.798 9.41237C132.804 10.2356 132.846 11.0769 132.798 11.8941C132.489 11.8578 132.181 11.8154 131.878 11.767C130.752 11.5914 129.881 11.4583 129.185 10.4898C129.161 10.4595 128.919 10.1085 128.882 10.0721C128.083 9.19446 124.731 9.73924 123.478 9.58791C123.417 9.58186 123.363 9.56975 123.302 9.5637V9.56976Z" fill="#D4E8E5"/>
<path d="M82.0772 4.87262C84.8974 4.7334 94.3383 4.39444 96.6017 4.85446C96.4867 6.44034 96.4988 8.02015 96.5109 9.61208C94.2233 9.61813 83.7717 9.20049 82.4767 9.76946L82.2769 9.82394L82.0591 9.32761C82.1801 7.8749 82.0772 6.32533 82.0712 4.86656L82.0772 4.87262Z" fill="#1C378D"/>
<path d="M156.37 23.6367L156.563 23.6973L156.745 24.0423C157.889 23.5036 168.383 24.0423 170.586 24.0423C170.586 25.5374 170.464 27.1716 170.694 28.6425L171.384 28.812L171.403 33.7815C170.464 34.417 167.929 34.0902 166.761 34.0599L166.609 33.9691L165.744 33.6967C162.494 34.2052 155.432 33.7996 151.916 33.6786C151.928 32.0806 151.958 30.4947 151.831 28.9028L151.855 28.7878C151.673 27.093 151.637 25.3618 151.534 23.6609C153.144 23.6609 154.76 23.6609 156.37 23.6367Z" fill="#D7ECDE"/>
<path d="M156.745 24.0424C157.889 23.5037 168.383 24.0424 170.586 24.0424C170.586 25.5375 170.465 27.1718 170.694 28.6426C169.914 28.7879 169.067 28.7637 168.274 28.794C164.461 28.7092 160.624 28.7819 156.812 28.8606C156.812 27.2565 156.793 25.6525 156.745 24.0484V24.0424Z" fill="#1C378D"/>
<path d="M170.694 28.6364L171.384 28.8059L171.402 33.7754C170.464 34.4109 167.929 34.0841 166.761 34.0538L166.609 33.963L165.744 33.6907C165.98 32.1774 165.871 30.5794 165.853 29.0541C166.694 29.0299 167.457 28.9754 168.274 28.7817C169.066 28.7514 169.914 28.7817 170.694 28.6304V28.6364Z" fill="#FBFBFA"/>
<path d="M156.37 23.6367L156.563 23.6973L156.63 28.8907C155.069 28.9028 153.392 29.0299 151.855 28.7878C151.673 27.093 151.637 25.3618 151.534 23.6609C153.144 23.6609 154.76 23.6609 156.37 23.6367Z" fill="#FBFBFA"/>
<path d="M152.848 48.1875C153.065 48.2359 153.289 48.248 153.465 48.3873C152.999 48.8049 153.09 48.9683 153.059 49.6039C153.005 50.7237 153.059 51.8616 153.09 52.9875L149.779 52.9754C149.344 54.3494 149.61 56.4074 149.592 57.8904C149.513 59.3673 149.459 60.8382 149.465 62.3151C148.042 62.2727 146.602 62.3151 145.18 62.3151L141.131 62.3333L141.083 62.2001C141.083 60.7353 141.252 59.0405 140.925 57.618L141.034 57.5696C141.192 56.02 141.101 54.3857 141.101 52.8301L147.97 52.8059C147.891 51.3048 147.879 49.7915 147.831 48.2904C149.489 48.3025 151.208 48.4054 152.848 48.1875Z" fill="#50719B"/>
<path d="M149.586 57.8845C149.507 59.3614 149.453 60.8323 149.459 62.3092C148.036 62.2668 146.596 62.3092 145.174 62.3092C145.065 61.1107 144.678 59.3917 145.253 58.284C145.44 57.9208 145.906 57.9329 146.281 57.8481C147.383 57.8724 148.484 57.8845 149.586 57.8845Z" fill="#AFCACC"/>
<path d="M141.028 57.5698C142.777 57.6908 144.532 57.7211 146.275 57.8482C145.894 57.939 145.434 57.9208 145.246 58.284C144.672 59.3917 145.059 61.1108 145.168 62.3092L141.119 62.3274L141.071 62.1942C141.071 60.7294 141.24 59.0346 140.913 57.6122L141.022 57.5637L141.028 57.5698Z" fill="#4795D3"/>
<path d="M128.35 52.7637L135.975 52.7334C136.005 54.2103 135.612 55.7054 136.145 57.1157C136.725 57.6181 137.101 57.5334 137.851 57.6L140.925 57.6121C141.252 59.0345 141.089 60.7293 141.083 62.1942C139.479 62.5029 137.633 62.3334 135.999 62.3273V62.1336C133.457 62.0973 130.916 62.1215 128.374 62.1215L128.35 52.7697V52.7637Z" fill="#6182A5"/>
<path d="M137.845 57.606L140.919 57.6181C141.246 59.0405 141.083 60.7353 141.077 62.2002C139.473 62.5089 137.627 62.3394 135.993 62.3333V62.1396C136.03 61.3467 136.036 60.5235 135.975 59.7306C135.927 59.0587 135.939 58.6894 136.169 58.0478C136.719 57.5394 137.113 57.6544 137.845 57.606Z" fill="#32528A"/>
<path d="M139.776 18.522C143.625 18.6249 147.467 18.522 151.31 18.5704V23.2554C148.2 24.1391 141.706 23.2312 138.111 23.5096C138.087 21.839 138.093 20.1926 138.214 18.522H139.776Z" fill="#FBFBFA"/>
<path d="M151.48 18.5583H156.551C156.6 19.7266 157.011 22.6441 156.37 23.4855V23.6368C154.754 23.6549 153.138 23.661 151.528 23.661C151.631 25.3619 151.667 27.093 151.849 28.7878L151.825 28.9029L146.62 28.921C146.542 27.1475 146.523 25.4042 146.596 23.6307C143.812 23.6428 140.871 23.8305 138.105 23.5097C141.7 23.2312 148.194 24.1452 151.298 23.2554H151.45L151.468 18.5583H151.48Z" fill="#D7ECDE"/>
<path d="M151.48 18.5583H156.551C156.6 19.7266 157.011 22.6441 156.37 23.4855C154.784 23.3825 152.981 23.6913 151.456 23.2615L151.474 18.5583H151.48Z" fill="#1C378D"/>
<path d="M157.38 38.9811L162.428 38.9146V43.8296L162.295 44.0172C160.842 44.0172 158.984 43.8114 157.58 44.1564L157.38 44.2109L156.769 43.8901C157.09 43.7024 157.199 43.7388 157.302 43.3574C157.635 42.1287 157.393 40.2704 157.386 38.9811H157.38Z" fill="#50719B"/>
<path d="M152.757 43.8053C154.149 43.5752 155.389 43.5752 156.769 43.89L157.38 44.2108L157.399 48.4963C156.104 48.4781 154.748 48.5326 153.465 48.3873C153.289 48.2481 153.065 48.236 152.848 48.1876C152.775 46.7288 152.781 45.264 152.757 43.8053Z" fill="#50719B"/>
<path d="M162.47 33.9329L166.609 33.9692L166.761 34.06C166.761 35.4703 167.075 37.5162 166.071 38.5936C165.508 38.8236 164.957 38.7631 164.358 38.751C163.934 38.7571 163.087 38.86 162.791 38.5271C162.385 38.067 162.331 37.4496 162.367 36.8564C162.434 35.8819 162.446 34.9074 162.464 33.9329H162.47Z" fill="#50719B"/>
<path d="M76.9755 14.4665C78.4703 14.4665 79.9651 14.4423 81.46 14.3999L82.0833 14.6481C82.6945 16.5971 82.2891 19.4057 82.2891 21.4819C80.6187 21.2398 78.8456 21.379 77.2055 20.9795C77.0058 18.8004 76.9755 16.6516 76.9695 14.4665H76.9755Z" fill="#FBFBFA"/>
<path d="M42.244 29.9198L57.652 29.7866C57.646 31.0577 57.6762 32.3168 57.7549 33.5879C52.6834 33.606 47.5817 33.5213 42.5163 33.7089L42.2501 33.5395C42.0443 32.3652 42.1956 31.1062 42.2501 29.9258L42.244 29.9198Z" fill="#1C378D"/>
<path d="M32.1737 38.3092C33.9469 38.291 35.7322 38.2426 37.5054 38.3636L37.4449 42.8671C35.708 43.1213 33.8622 42.9881 32.1011 42.9942L32.1737 38.3092Z" fill="#1C378D"/>
<path d="M27.1386 43.0184C28.7 42.9942 30.2614 43.0063 31.8228 43.0002C31.7804 44.5014 31.7865 45.9783 31.847 47.4734C30.2917 47.4734 28.694 47.4008 27.1447 47.5158C26.9087 46.0267 27.06 44.5135 27.1386 43.0184Z" fill="#1C378D"/>
<path d="M37.4994 33.6362C38.9821 33.6241 40.5011 33.5454 41.9717 33.7452C41.9052 35.1918 41.8567 36.6385 41.7599 38.0791L37.6447 38.3152C37.3542 36.8261 37.4934 35.1555 37.4994 33.6302V33.6362Z" fill="#1C378D"/>
<path d="M57.7973 29.6716C59.4313 29.5687 61.0532 29.4718 62.6871 29.4839V33.8481C61.1742 33.9873 59.7399 34.0358 58.2269 33.9087L58.3964 38.7934C52.9679 38.9447 47.376 38.9871 41.9596 38.6663V42.5886C40.4648 42.6733 38.9155 42.6733 37.4388 42.8731L37.4994 38.3697L37.6386 38.3273L41.7538 38.0912C41.8506 36.6506 41.8991 35.1979 41.9656 33.7573L42.5103 33.715C47.5757 33.5273 52.6774 33.606 57.7488 33.5939C57.9183 32.347 57.7973 30.9487 57.7912 29.6837L57.7973 29.6716Z" fill="#FBFBFA"/>
<path d="M77.2056 20.9795C78.8396 21.385 80.6128 21.2398 82.2891 21.4819C82.2589 21.7603 82.3194 22.2567 82.0713 22.4322C81.2543 23.0012 78.9425 22.8922 77.9984 22.6622C77.5566 22.5533 77.3508 22.3959 77.0603 22.069C76.9393 23.207 76.8364 24.3147 76.8243 25.4647C71.9526 25.4405 64.8356 26.1124 60.2362 25.38V21.4213C62.5722 21.2821 64.9627 21.0582 67.3048 21.1792C70.5667 20.8039 73.9255 21.1792 77.2116 20.9855L77.2056 20.9795Z" fill="#FBFBFA"/>
<path d="M77.2055 20.9795C78.8395 21.385 80.6127 21.2398 82.2891 21.4819C82.2588 21.7603 82.3193 22.2567 82.0712 22.4322C81.2542 23.0012 78.9424 22.8922 77.9983 22.6622C77.5565 22.5533 77.3508 22.3959 77.0603 22.069L76.9029 21.5182C75.6199 20.7858 69.326 21.4335 67.3047 21.1732C70.5666 20.7979 73.9254 21.1732 77.2116 20.9795H77.2055Z" fill="#FBFBFA"/>
<path d="M62.8808 29.5686L71.4744 29.5989V33.8178C72.5093 33.7996 75.8378 33.4667 76.4672 34.2052C76.5217 34.2718 76.558 34.3444 76.6064 34.417C76.6911 35.7971 76.7879 37.1772 76.6306 38.5573C76.5882 38.4725 76.5459 38.3938 76.5096 38.3091C76.0799 37.383 76.6669 34.7681 75.7107 34.3626C74.7122 33.9388 72.7937 34.2233 71.6862 34.2475C71.6983 37.2377 71.5955 40.2218 71.5228 43.212L71.3171 43.1757V38.4604C69.9736 38.3696 68.6179 38.3636 67.2684 38.3394L67.2079 33.842C65.9007 33.4425 64.2425 33.6362 62.8808 33.6604C62.8687 32.2985 62.8384 30.9366 62.8929 29.5747L62.8808 29.5686Z" fill="#4795D3"/>
<path d="M67.2018 33.8359C68.5392 34.1689 70.0522 34.0296 71.426 34.0175C71.3776 35.4944 71.317 36.9774 71.317 38.4543C69.9735 38.3636 68.6119 38.3575 67.2684 38.3333L67.2078 33.8359H67.2018Z" fill="#91B2BE"/>
<path d="M31.9922 43.2483L37.4691 43.1877C37.4449 44.6768 37.4389 46.1658 37.3541 47.6548C35.5809 47.6548 33.7896 47.6972 32.0164 47.5822C32.1556 49.1015 32.1858 50.6268 31.9135 52.134L31.6412 52.3943C30.1343 52.3156 28.5971 52.3822 27.0841 52.3883C27.0357 50.8387 27.0841 49.277 27.0841 47.7275L27.1386 47.5217C28.6879 47.4067 30.2856 47.4854 31.8409 47.4793C31.9619 46.0871 31.9317 44.6526 31.9861 43.2543L31.9922 43.2483Z" fill="#FBFBFA"/>
<path d="M27.0963 56.9644C28.4095 57.1037 29.7288 57.0552 31.0421 56.9463C31.5444 57.3882 31.4899 57.7998 31.5383 58.4656C31.623 59.5854 31.5988 60.7354 31.5988 61.8552C30.1585 61.8794 28.6697 61.8371 27.2354 61.9702C26.8905 60.4873 27.1386 58.5261 27.0902 56.9644H27.0963Z" fill="#FBFBFA"/>
<path d="M27.0902 52.3824C28.6031 52.3763 30.1403 52.3098 31.6472 52.3885L31.629 52.564C31.508 53.9259 31.7561 55.3484 31.4293 56.6679L31.042 56.9403C29.7288 57.0432 28.4095 57.0916 27.0962 56.9584C27.0962 55.4331 27.0962 53.9078 27.0841 52.3764L27.0902 52.3824Z" fill="#1C378D"/>
<path d="M76.6124 34.4172C77.5747 34.7683 78.7487 34.6775 79.7654 34.7078L81.1997 36.0757C81.2239 36.8626 81.1755 37.7282 81.3752 38.4848L81.2481 38.5454C79.717 38.4969 78.1678 38.5514 76.6366 38.5575C76.794 37.1774 76.6972 35.7973 76.6124 34.4172Z" fill="#B5D1CC"/>
<path d="M180.456 43.551C181.533 43.4905 182.55 43.5087 183.627 43.5934C185.122 43.7689 186.659 43.66 188.16 43.6176V43.781C188.426 45.258 188.16 46.747 188.372 48.2239L188.39 48.4237C188.281 49.9611 188.426 51.5228 188.523 53.0602L188.547 53.1631C189.431 53.1813 190.315 53.1934 191.198 53.1994C191.888 53.1994 192.766 53.3266 193.262 52.8302L193.407 53.3508C194.956 53.3508 196.56 53.2721 198.103 53.3992L198.261 53.4113C200.028 53.3447 201.789 53.3205 203.556 53.3387V61.6918C205.293 61.6918 207.024 61.722 208.755 61.7765L209.293 61.8068C209.638 65.5717 209.638 69.7724 209.402 73.5495H214.97L214.976 92.6769H203.58L203.604 98.6511H198.061L198.097 103.251H192.663L192.705 107.186H187.658L187.646 110.66C182.272 110.46 176.728 110.4 171.354 110.594L171.281 110.376C170.023 109.964 168.316 110.14 166.991 110.14C159.68 110.424 152.248 110.164 144.926 110.188L144.871 81.2852C143.516 81.2549 142.154 81.1944 140.804 81.3215L140.859 85.722L135.921 85.7402C135.509 84.3843 136.017 82.8831 135.636 81.4849L135.594 81.2368C135.551 79.6872 135.551 78.1619 135.636 76.6183C136.132 75.3109 135.921 73.265 135.933 71.8486L135.963 71.7457C135.896 70.0388 135.939 68.3137 135.933 66.6007L135.969 62.3334C137.603 62.3334 139.449 62.5089 141.053 62.2002L141.101 62.3334L145.15 62.3152C146.572 62.3152 148.012 62.2728 149.434 62.3152C149.428 60.8322 149.483 59.3674 149.561 57.8905C149.586 56.4075 149.313 54.3495 149.749 52.9755L153.059 52.9876C153.035 51.8678 152.975 50.7238 153.029 49.604C153.059 48.9684 152.969 48.805 153.435 48.3874C154.718 48.5326 156.073 48.4781 157.368 48.4963L157.35 44.2108L157.55 44.1563C158.954 43.8113 160.818 44.0171 162.264 44.0171L162.403 43.8295L162.585 43.8174C163.91 43.8295 165.248 43.7931 166.567 43.8537L166.737 44.0776C166.67 45.5364 166.652 47.0012 166.676 48.46L167.275 48.6234L171.342 48.6839C171.578 47.1041 171.39 45.2761 171.378 43.666C172.885 43.5631 174.416 43.6055 175.923 43.5934C177.412 43.5873 178.937 43.6418 180.42 43.551H180.456Z" fill="#2A4586"/>
<path d="M193.268 52.8181L193.413 53.3386C194.962 53.3386 196.566 53.2599 198.109 53.387L198.267 53.3991C200.034 53.3326 201.795 53.3083 203.562 53.3265V61.6796C205.299 61.6796 207.03 61.7099 208.761 61.7643L209.299 61.7946C209.644 65.5595 209.644 69.7603 209.408 73.5373H214.976L214.982 92.6647H203.586L203.61 98.639H198.067L198.103 103.239H192.669L192.711 107.174H187.664L187.652 110.648C182.278 110.448 176.734 110.388 171.36 110.581L171.288 110.364C171.59 108.511 171.457 106.496 171.469 104.613C172.922 104.656 174.356 104.644 175.808 104.577L175.839 104.456C176.081 102.955 175.917 101.218 175.917 99.6922C174.779 99.0506 172.722 99.2806 171.451 99.3835C171.396 98.0095 171.76 96.1875 171.154 94.9467C170.107 94.0569 168.431 94.414 167.148 94.4806C167.209 93.0037 167.136 91.5025 167.112 90.0256C165.75 89.9711 164.413 89.959 163.045 90.0316C163.329 87.3441 162.96 84.3903 162.9 81.6725L166.743 81.7936C166.67 82.9497 166.295 85.0259 167.233 85.9338C168.371 87.0355 169.327 85.9035 170.531 86.1457C171.233 86.2849 170.979 89.723 171.505 90.4735C172.813 90.8428 174.441 90.5886 175.796 90.522C176.238 91.5207 175.633 92.9371 175.96 94.0569C175.984 94.1356 176.014 94.2021 176.044 94.2748C176.305 93.3245 176.141 92.0291 176.135 91.0365L176.044 90.189L176.056 90.0559C176.226 87.1262 176.105 84.1482 176.081 81.2065C174.87 80.8312 172.716 81.152 171.427 81.1822L171.396 76.9754H171.209L171.148 76.812C171.318 75.2261 171.209 73.5252 171.221 71.9273L171.324 71.7214L180.571 71.6851L180.559 66.9033L180.831 66.7944L183.833 66.637L183.978 66.5704C185.473 66.5886 186.968 66.5341 188.463 66.5098C188.432 65.0753 188.463 63.6468 188.523 62.2123L188.735 62.1275C188.148 60.7353 188.929 59.0163 188.402 57.5757L188.487 57.4486L188.541 53.1449C189.425 53.1631 190.308 53.1752 191.192 53.1812C191.882 53.1812 192.759 53.3084 193.256 52.812L193.268 52.8181Z" fill="#1C378D"/>
<path d="M209.408 73.5312H214.976L214.982 92.6586H203.586L203.611 98.6329H198.067L198.103 103.233H192.669L192.711 107.168H187.664L187.652 110.642C182.278 110.442 176.734 110.382 171.36 110.575L171.288 110.357C171.59 108.505 171.457 106.49 171.469 104.607C172.922 104.649 174.356 104.637 175.808 104.571C177.896 104.486 181.207 105.013 183.101 104.28C183.155 103.838 183.161 103.711 183.422 103.336C186.339 102.846 189.57 103.07 192.524 103.1L192.499 98.2878C194.315 98.4392 196.112 98.5118 197.934 98.5421C198.031 96.5143 197.97 94.4745 197.952 92.4468L203.496 92.4709C203.514 90.5098 203.489 88.5426 203.417 86.5814H209.42C209.481 82.2596 209.003 77.8289 209.39 73.5312H209.408Z" fill="#1C378D"/>
<path d="M183.845 66.6431C184.027 68.0534 183.839 69.488 183.99 70.9104C185.219 70.9649 187.791 70.6622 188.662 71.4733L188.795 72.1331C190.242 72.3571 191.773 72.2542 193.238 72.236C193.238 73.8219 193.044 75.6317 193.28 77.1873C192.874 78.749 192.814 80.2017 192.778 81.8118L192.808 86.1094L188.069 86.1396L183.609 86.1517V85.3649C183.373 84.0514 183.421 82.7137 183.428 81.3881C181.025 81.1581 178.507 81.2791 176.093 81.2125C174.882 80.8373 172.728 81.158 171.439 81.1883L171.409 76.9815H171.221L171.16 76.8181C171.33 75.2322 171.221 73.5313 171.233 71.9333L171.336 71.7275L180.583 71.6912L180.571 66.9094L180.843 66.8004L183.845 66.6431Z" fill="#193191"/>
<path d="M180.565 66.9095L180.837 66.8005C180.813 70.2205 180.71 73.6464 180.71 77.0663L183.446 77.145L183.422 81.3882C181.019 81.1581 178.501 81.2792 176.087 81.2126C174.876 80.8374 172.722 81.1581 171.433 81.1884L171.403 76.9816H171.215L171.154 76.8182C171.324 75.2323 171.215 73.5314 171.227 71.9334L171.33 71.7276L180.577 71.6913L180.565 66.9095Z" fill="#2A4586"/>
<path d="M171.33 71.7275L180.577 71.6912C180.541 73.4586 180.529 75.22 180.547 76.9875H171.409H171.221L171.16 76.818C171.33 75.2322 171.221 73.5313 171.233 71.9333L171.336 71.7275H171.33Z" fill="#4795D3"/>
<path d="M183.446 77.145L188.045 77.1874C188.093 78.2467 188.081 79.3422 188.233 80.3894C189.842 80.5891 190.908 80.916 192.408 81.4729L192.772 81.8119L192.802 86.1095L188.063 86.1397L183.603 86.1518V85.365C183.367 84.0515 183.415 82.7137 183.421 81.3882L183.446 77.145Z" fill="#50719B"/>
<path d="M183.446 77.145L188.045 77.1874C188.094 78.2467 188.081 79.3422 188.233 80.3894C189.843 80.5891 190.908 80.916 192.409 81.4729C189.455 81.5032 186.496 81.5455 183.543 81.606C183.579 82.8409 183.688 84.1362 183.597 85.365C183.367 84.0515 183.422 82.7137 183.422 81.3882L183.446 77.145Z" fill="#2C60C4"/>
<path d="M193.268 52.8181L193.413 53.3387C194.962 53.3387 196.566 53.26 198.109 53.3871L198.267 53.3992C200.034 53.3326 201.795 53.3084 203.562 53.3266V61.6797C201.995 61.716 199.943 62.0065 198.424 61.607L198.194 61.1591L197.982 61.601C196.512 61.9823 194.738 61.8249 193.207 61.8794L193.026 61.9641C191.598 62.0126 190.169 62.067 188.747 62.1336C188.16 60.7414 188.941 59.0224 188.414 57.5818L188.499 57.4547L188.554 53.151C189.437 53.1692 190.321 53.1813 191.204 53.1874C191.894 53.1874 192.772 53.3145 193.268 52.8181Z" fill="#4795D3"/>
<path d="M198.261 53.3932C200.028 53.3266 201.789 53.3024 203.556 53.3205V61.6736C201.989 61.7099 199.937 62.0005 198.418 61.601L198.188 61.1531C198.315 58.5806 198.249 55.9717 198.255 53.3932H198.261Z" fill="#1C378D"/>
<path d="M193.413 53.3388C194.962 53.3388 196.566 53.2601 198.109 53.3872L198.267 53.3993C198.261 55.9779 198.327 58.5806 198.2 61.1592L197.988 61.6011C196.518 61.9824 194.744 61.825 193.213 61.8795L193.389 57.6909L193.564 57.703C193.57 56.2503 193.631 54.7854 193.413 53.3448V53.3388Z" fill="#4795D3"/>
<path d="M193.413 53.3388C194.962 53.3388 196.566 53.2601 198.109 53.3872C198.043 54.8096 198.031 56.2381 198.067 57.6606C196.572 57.6727 195.059 57.6303 193.564 57.6969C193.57 56.2442 193.631 54.7794 193.413 53.3388Z" fill="#91B2BE"/>
<path d="M188.499 57.4548C189.897 57.9693 191.864 57.5516 193.383 57.6848L193.207 61.8734L193.026 61.9582C191.598 62.0066 190.169 62.0611 188.747 62.1277C188.16 60.7355 188.941 59.0164 188.414 57.5758L188.499 57.4487V57.4548Z" fill="#85A3BB"/>
<path d="M176.087 81.2126C178.501 81.2852 181.019 81.1642 183.421 81.3881C183.421 82.7137 183.367 84.0514 183.597 85.3649V86.1518L188.063 86.1397C188.051 87.5016 188.009 88.8635 188.027 90.2254L183.615 90.2134C182.163 90.2134 177.218 89.8804 176.286 90.5765L176.147 91.0365L176.056 90.1891L176.068 90.056C176.238 87.1263 176.117 84.1483 176.093 81.2065L176.087 81.2126Z" fill="#193191"/>
<path d="M183.603 86.1518L188.063 86.1396C188.051 87.5016 188.009 88.8635 188.027 90.2254L183.615 90.2133C182.163 90.2133 177.218 89.8804 176.286 90.5765L176.147 91.0365L176.056 90.1891L176.068 90.0559C178.574 89.9833 181.098 90.0317 183.609 90.0257V86.1457L183.603 86.1518Z" fill="#2C60C4"/>
<path d="M193.026 61.958C192.856 65.3174 193.008 68.6586 193.123 72.018C191.725 72.018 190.163 71.8909 188.79 72.133L188.656 71.4732C187.785 70.6561 185.213 70.9648 183.984 70.9103C183.833 69.4879 184.021 68.0594 183.839 66.643L183.984 66.5764C185.479 66.5945 186.974 66.5401 188.469 66.5159C188.439 65.0813 188.469 63.6528 188.529 62.2183L188.741 62.1335C190.169 62.0669 191.592 62.0125 193.02 61.964L193.026 61.958Z" fill="#50719B"/>
<path d="M208.755 61.7644L209.293 61.7947C208.936 65.6141 209.239 69.6817 209.263 73.5192C207.459 73.6221 205.656 73.604 203.846 73.5979C203.895 69.6817 203.756 65.7533 203.677 61.837C205.365 61.8734 207.06 61.8492 208.748 61.7705L208.755 61.7644Z" fill="#1C378D"/>
<path d="M193.207 61.8733L193.171 68.2592H198.255C198.261 71.2312 198.303 74.2031 198.23 77.1691L193.274 77.1873C193.044 75.6317 193.226 73.8158 193.232 72.236C191.767 72.2541 190.236 72.3631 188.79 72.1331C190.163 71.8909 191.719 72.0181 193.123 72.0181C193.008 68.6587 192.856 65.3235 193.026 61.958L193.207 61.8733Z" fill="#2C60C4"/>
<path d="M176.141 91.0366L176.28 90.5765C177.212 89.8804 182.163 90.2134 183.609 90.2134L183.597 94.0933C181.079 94.1841 178.562 94.2446 176.044 94.2749C176.305 93.3246 176.141 92.0292 176.135 91.0366H176.141Z" fill="#2C60C4"/>
<path d="M192.802 86.1094C193.02 87.4773 193.032 88.8393 193.068 90.2194C191.386 90.2738 189.709 90.3525 188.027 90.2254C188.015 88.8635 188.051 87.5015 188.063 86.1396L192.802 86.1094Z" fill="#193191"/>
<path d="M180.456 43.551C181.533 43.4905 182.55 43.5087 183.627 43.5934C185.122 43.7689 186.659 43.66 188.16 43.6176V43.781C188.426 45.258 188.16 46.747 188.372 48.2239L188.39 48.4237C188.281 49.9611 188.426 51.5228 188.523 53.0602L188.547 53.1631L188.493 57.4668L188.408 57.5939C188.935 59.0345 188.154 60.7475 188.741 62.1457L188.529 62.2304C188.469 63.665 188.439 65.0875 188.469 66.5281C186.974 66.5523 185.479 66.6067 183.984 66.5886L183.839 66.6552L180.837 66.8125L180.565 66.9215L180.577 71.7033L171.33 71.7397C169.762 71.6791 168.177 71.7336 166.609 71.7336C166.676 70.1538 166.597 68.5558 166.573 66.976C166.537 66.9639 166.501 66.9578 166.464 66.9457C165.03 66.522 163.632 66.9639 162.264 66.6068C161.544 67.1213 159.916 66.8912 159.045 66.8791L157.737 66.8307C157.604 65.4809 157.616 64.1008 157.58 62.7389C157.526 61.1228 157.604 59.4764 157.616 57.8542C156.067 57.0794 151.667 57.5878 149.737 57.6484C149.791 56.0928 149.882 54.525 149.767 52.9755L153.078 52.9876C153.053 51.8678 152.993 50.7238 153.047 49.604C153.078 48.9684 152.987 48.805 153.453 48.3874C154.736 48.5326 156.091 48.4781 157.386 48.4963L157.368 44.2108L157.568 44.1563C158.972 43.8113 160.836 44.0171 162.282 44.0171L162.422 43.8295L162.603 43.8174C163.929 43.8295 165.266 43.7931 166.585 43.8537L166.755 44.0776C166.688 45.5364 166.67 47.0012 166.694 48.46L167.293 48.6234L171.36 48.6839C171.596 47.1041 171.409 45.2761 171.397 43.666C172.903 43.5631 174.435 43.6055 175.941 43.5934C177.43 43.5873 178.955 43.6418 180.438 43.551H180.456Z" fill="url(#paint0_linear_1_3402)"/>
<path d="M180.456 43.551C181.533 43.4905 182.55 43.5087 183.627 43.5934C185.122 43.7689 186.659 43.66 188.16 43.6176V43.781C188.426 45.258 188.16 46.747 188.372 48.2239L188.39 48.4237C188.281 49.9611 188.426 51.5228 188.523 53.0602L188.547 53.1631L188.493 57.4668L188.408 57.5939C188.935 59.0345 188.154 60.7475 188.741 62.1457L188.529 62.2304C188.469 63.665 188.438 65.0875 188.469 66.5281C186.974 66.5523 185.479 66.6067 183.984 66.5886L183.839 66.6552L180.837 66.8125L180.565 66.9215C179.004 66.7702 177.37 66.9215 175.802 66.976C175.79 63.9313 175.681 60.8867 175.681 57.8421L171.584 57.8784L171.39 57.7271C171.33 56.3773 171.36 55.0335 171.384 53.6776L171.475 53.49C171.257 51.9162 171.336 50.288 171.372 48.7021C171.608 47.1223 171.421 45.2943 171.409 43.6842C172.915 43.5813 174.447 43.6237 175.953 43.6116C177.442 43.6055 178.967 43.66 180.45 43.5692L180.456 43.551Z" fill="#86AABA"/>
<path d="M181.213 53.1812L183.833 52.9814L183.821 57.8178C185.34 57.7633 186.907 57.7754 188.414 57.5817C188.941 59.0223 188.16 60.7353 188.747 62.1335L188.535 62.2183C188.475 63.6528 188.445 65.0753 188.475 66.5159C186.98 66.5401 185.485 66.5945 183.99 66.5764L183.845 66.643L180.843 66.8004L180.571 66.9093C179.01 66.758 177.376 66.9093 175.808 66.9638C175.796 63.9191 175.687 60.8745 175.687 57.8299L171.59 57.8662L171.397 57.7148C171.336 56.365 171.366 55.0213 171.39 53.6654L171.481 53.4778C172.244 53.3749 172.976 53.3204 173.745 53.3204C175.748 52.8241 178.792 53.5383 181.219 53.1812H181.213Z" fill="#6182A5"/>
<path d="M175.851 57.6848C177.43 57.7453 179.01 57.7514 180.583 57.709C180.583 59.0407 180.88 61.359 180.426 62.5635C178.895 62.8722 177.418 62.9146 175.863 62.963C175.863 61.2137 175.935 59.4402 175.851 57.6909V57.6848Z" fill="#32528A"/>
<path d="M184.021 62.2124C185.528 62.1882 187.028 62.1761 188.535 62.2124C188.475 63.6469 188.445 65.0694 188.475 66.51C186.98 66.5342 185.485 66.5887 183.99 66.5705L184.021 62.2063V62.2124Z" fill="#85A3BB"/>
<path d="M173.739 53.3204C174.507 53.3325 174.961 53.2357 175.627 53.6412C176.226 54.7973 175.778 56.3953 175.851 57.6846C174.356 57.618 172.885 57.6483 171.397 57.7148C171.336 56.365 171.366 55.0213 171.39 53.6654L171.481 53.4778C172.244 53.3749 172.976 53.3204 173.745 53.3204H173.739Z" fill="#32528A"/>
<path d="M171.409 43.6721C172.915 43.5692 174.447 43.6116 175.953 43.5995C177.442 43.5935 178.967 43.6479 180.45 43.5571C180.408 45.1551 180.341 46.7531 180.335 48.3511C178.901 48.4661 177.497 48.46 176.056 48.4298C175.693 49.828 175.917 51.7044 175.917 53.1632C177.654 53.1632 179.47 53.0421 181.2 53.1934C178.78 53.5445 175.736 52.8303 173.726 53.3327C172.958 53.3327 172.226 53.3871 171.463 53.49C171.245 51.9163 171.324 50.288 171.36 48.7021C171.596 47.1223 171.409 45.2943 171.396 43.6842L171.409 43.6721Z" fill="#85A3BB"/>
<path d="M175.96 43.5934C177.448 43.5873 178.973 43.6418 180.456 43.551C180.414 45.149 180.347 46.747 180.341 48.345C178.907 48.46 177.503 48.4539 176.062 48.4237C175.839 46.8862 175.972 45.1551 175.953 43.5995L175.96 43.5934Z" fill="#6182A5"/>
<path d="M180.456 43.551C181.533 43.4905 182.55 43.5087 183.627 43.5934C185.122 43.7689 186.659 43.66 188.16 43.6176V43.781C188.426 45.258 188.16 46.747 188.372 48.2239C186.913 48.2905 185.455 48.3026 183.996 48.2663L183.881 48.1392C182.701 48.2663 181.503 48.1271 180.341 48.345C180.347 46.747 180.414 45.149 180.456 43.551Z" fill="#91B2BE"/>
<path d="M180.456 43.551C181.533 43.4905 182.55 43.5087 183.627 43.5934C185.122 43.7689 186.659 43.66 188.16 43.6176V43.781C186.69 43.8355 185.225 43.8537 183.766 43.8355C183.803 45.264 183.785 46.7167 183.887 48.1392C182.707 48.2663 181.509 48.1271 180.347 48.345C180.353 46.747 180.42 45.149 180.462 43.551H180.456Z" fill="#6F94AC"/>
<path d="M183.996 48.2663C185.455 48.3026 186.913 48.2905 188.372 48.2239L188.39 48.4236C188.281 49.9611 188.426 51.5228 188.523 53.0602C186.998 53.151 185.467 53.1086 183.942 53.0965C183.918 51.4925 183.966 49.8824 183.99 48.2723L183.996 48.2663Z" fill="#4795D3"/>
<path d="M157.623 57.8482C159.008 58.2114 160.751 57.9148 162.198 57.8906V62.618C165.345 62.394 168.48 62.3456 171.62 62.3214L171.584 57.8664L175.681 57.8301C175.681 60.8747 175.796 63.9194 175.802 66.964C177.37 66.9035 179.004 66.7582 180.565 66.9095L180.577 71.6914L171.33 71.7277C169.763 71.6671 168.177 71.7216 166.61 71.7216C166.676 70.1418 166.597 68.5438 166.573 66.964C166.537 66.9519 166.501 66.9458 166.464 66.9337C165.03 66.51 163.632 66.9519 162.264 66.5948C161.544 67.1093 159.916 66.8793 159.045 66.8672L157.738 66.8187C157.604 65.4689 157.616 64.0888 157.58 62.7269C157.526 61.1108 157.604 59.4644 157.616 57.8422L157.623 57.8482Z" fill="#85A3BB"/>
<path d="M157.586 62.7328C159.135 62.7207 160.685 62.7327 162.234 62.6843L162.264 66.5946C161.544 67.1091 159.916 66.879 159.045 66.8669L157.737 66.8185C157.604 65.4687 157.616 64.0886 157.58 62.7267L157.586 62.7328Z" fill="#50719B"/>
<path d="M157.58 44.1503C158.984 43.8053 160.848 44.0111 162.295 44.0111C162.282 45.5122 162.246 47.0134 162.252 48.5145C160.83 48.8353 159.051 48.6598 157.586 48.6477L157.574 44.1503H157.58Z" fill="#86AABA"/>
<path d="M157.598 53.3448L162.276 53.3206C162.276 54.8398 162.319 56.3773 162.198 57.8905C160.751 57.9147 159.008 58.2113 157.622 57.8482L157.604 53.3448H157.598Z" fill="#FBFBFA"/>
<path d="M167.311 48.6235L171.378 48.684C171.342 50.2699 171.263 51.8981 171.481 53.4719L171.39 53.6596C170.592 53.0543 167.971 53.363 166.906 53.3872C166.96 52.2613 166.87 51.1234 166.912 49.9915C166.93 49.4164 166.876 49.029 167.311 48.6174V48.6235Z" fill="#2C60C4"/>
<path d="M162.615 43.8173C163.941 43.8294 165.278 43.7931 166.597 43.8537L166.767 44.0776C166.7 45.5364 166.682 47.0012 166.706 48.46C165.242 48.3207 163.723 48.4176 162.258 48.5144C162.252 47.0133 162.282 45.5122 162.301 44.011L162.44 43.8234L162.621 43.8113L162.615 43.8173Z" fill="#50719B"/>
<path d="M166.9 53.3933C167.965 53.3751 170.586 53.0604 171.384 53.6657C171.36 55.0155 171.336 56.3592 171.39 57.7151C169.896 57.939 168.34 57.8604 166.827 57.8543C166.785 56.3532 166.809 54.8884 166.894 53.3933H166.9Z" fill="#FBFBFA"/>
<path d="M149.586 57.8845C149.61 56.4015 149.337 54.3435 149.773 52.9695C149.888 54.519 149.791 56.0868 149.743 57.6424C151.667 57.5879 156.067 57.0734 157.622 57.8482C157.61 59.4704 157.532 61.1168 157.586 62.7329C157.616 64.0948 157.61 65.4689 157.743 66.8247C157.743 68.4711 157.701 70.1236 157.786 71.7639L157.75 71.9032H155.861C155.008 71.8245 154.161 71.8729 153.301 71.9032C152.182 72.3753 146.414 72.3026 145.337 71.9213C143.945 72.1271 142.469 72.1392 141.083 71.9213C139.473 71.6429 137.645 71.8245 135.993 71.7397C135.927 70.0328 135.969 68.3077 135.963 66.5947L135.999 62.3274C137.633 62.3274 139.479 62.5029 141.083 62.1942L141.131 62.3274L145.18 62.3092C146.602 62.3092 148.042 62.2668 149.465 62.3092C149.458 60.8262 149.513 59.3614 149.592 57.8845H149.586Z" fill="#91B2BE"/>
<path d="M149.586 57.8845C149.61 56.4015 149.337 54.3435 149.773 52.9695C149.888 54.519 149.791 56.0868 149.743 57.6424C151.667 57.5879 156.067 57.0734 157.622 57.8482C157.61 59.4704 157.532 61.1168 157.586 62.7329C157.616 64.0948 157.61 65.4689 157.744 66.8247L153.441 66.8671V62.3939C152.121 62.2729 150.784 62.3092 149.465 62.3092C149.459 60.8262 149.513 59.3614 149.592 57.8845H149.586Z" fill="#4795D3"/>
<path d="M141.077 62.1941L141.125 62.3273C141.077 63.8526 141.077 65.3719 141.101 66.9033C141.101 68.5618 141.18 70.2627 141.077 71.9212C139.467 71.6428 137.639 71.8244 135.987 71.7396C135.921 70.0327 135.963 68.3076 135.957 66.5946L135.993 62.3273C137.627 62.3273 139.473 62.5028 141.077 62.1941Z" fill="#6F94AC"/>
<path d="M141.077 62.1941L141.125 62.3273C141.077 63.8526 141.077 65.3719 141.101 66.9033C139.388 66.8125 137.67 66.7096 135.957 66.5946L135.993 62.3273C137.627 62.3273 139.473 62.5028 141.077 62.1941Z" fill="#6182A5"/>
<path d="M141.125 62.3334L145.174 62.3152C145.398 63.889 145.355 65.499 145.367 67.0849V71.776L145.337 71.9333C143.945 72.1391 142.469 72.1513 141.083 71.9333C141.186 70.2809 141.107 68.58 141.107 66.9155C141.083 65.3901 141.083 63.8708 141.131 62.3394L141.125 62.3334Z" fill="#91B2BE"/>
<path d="M145.361 67.079C146.566 67.0729 147.897 66.964 149.083 67.1638L149.192 67.2303L149.374 67.6782C150.602 67.8235 151.994 67.1577 153.283 67.1274C153.229 68.7315 153.193 70.3053 153.302 71.9093C152.182 72.3814 146.415 72.3088 145.337 71.9274L145.374 71.77V67.079H145.361Z" fill="#4795D3"/>
<path d="M145.361 67.079C146.566 67.0729 147.897 66.964 149.083 67.1638L148.98 71.9093C147.849 71.9093 146.457 72.0485 145.374 71.77V67.079H145.361Z" fill="#50719B"/>
<path d="M145.174 62.3091C146.596 62.3091 148.036 62.2667 149.458 62.3091C149.428 63.9192 149.513 65.6443 149.192 67.2302L149.083 67.1636C147.897 66.9639 146.566 67.0728 145.361 67.0789C145.349 65.493 145.392 63.8829 145.168 62.3091H145.174Z" fill="#6F94AC"/>
<path d="M135.987 71.7397C137.639 71.8244 139.467 71.6428 141.077 71.9213C142.463 72.1452 143.939 72.1331 145.331 71.9213C146.408 72.3026 152.182 72.3753 153.295 71.9031C154.155 71.8729 154.996 71.8245 155.855 71.9031L155.916 72.0968L153.453 72.0847C153.453 73.6343 153.495 75.196 153.441 76.7455C153.41 78.174 153.404 79.6025 153.423 81.037C151.916 81.6242 146.814 81.261 144.889 81.2731C143.534 81.2429 142.172 81.1823 140.823 81.3094L140.877 85.7099L135.939 85.7281C135.527 84.3722 136.036 82.8711 135.654 81.4729L135.612 81.2247C135.57 79.6751 135.57 78.1498 135.654 76.6063C136.151 75.2988 135.939 73.2529 135.951 71.8365L135.981 71.7336L135.987 71.7397Z" fill="#2C60C4"/>
<path d="M153.295 71.9092C154.155 71.8789 154.996 71.8305 155.855 71.9092L155.916 72.1028L153.453 72.0907C153.453 73.6403 153.495 75.202 153.441 76.7515C149.313 76.9815 145.029 76.7757 140.889 76.7757L141.077 71.9212C142.463 72.1452 143.939 72.1331 145.331 71.9212C146.408 72.3026 152.182 72.3752 153.295 71.9031V71.9092Z" fill="#85A3BB"/>
<path d="M135.757 81.2307C137.379 81.261 139.001 81.261 140.617 81.2368L140.816 81.3155L140.871 85.716L135.933 85.7341C135.521 84.3783 136.029 82.8771 135.648 81.4789L135.606 81.2307H135.751H135.757Z" fill="#6182A5"/>
<path d="M135.818 76.7032C137.44 76.7093 139.061 76.685 140.683 76.6245C140.665 78.1499 140.72 79.7176 140.623 81.2369C139.001 81.2611 137.379 81.2611 135.763 81.2308C135.757 79.7236 135.775 78.2104 135.818 76.7032Z" fill="#1C378D"/>
<path d="M153.55 90.2011H157.774C157.925 91.6296 158.064 93.0581 158.234 94.4745C160.987 94.4624 163.874 94.2808 166.616 94.5411L166.712 94.7227V99.3714C168.08 99.3835 169.484 99.329 170.834 99.4501C171.421 100.049 170.973 100.503 171.3 101.169C171.36 100.818 171.415 100.461 171.469 100.11C172.316 99.3108 174.731 99.7406 175.935 99.6861C175.935 101.211 176.099 102.949 175.857 104.45L175.826 104.571C174.374 104.637 172.94 104.65 171.487 104.607C171.475 106.484 171.608 108.505 171.306 110.357C170.047 109.946 168.34 110.121 167.015 110.121V109.97C167.251 108.197 167.082 106.29 167.051 104.498C165.508 104.238 163.759 104.401 162.186 104.407C162.046 102.809 162.095 101.169 162.059 99.565H153.646L153.568 99.5166C153.538 96.4236 153.386 93.2821 153.556 90.1951L153.55 90.2011Z" fill="#193191"/>
<path d="M171.3 101.175C171.36 100.824 171.415 100.467 171.469 100.116C172.316 99.3171 174.731 99.7468 175.935 99.6923C175.935 101.218 176.099 102.955 175.857 104.456C174.38 104.486 172.903 104.456 171.427 104.456C171.433 103.354 171.378 102.271 171.306 101.175H171.3Z" fill="#6182A5"/>
<path d="M153.531 81.4849C156.545 81.6847 159.626 81.5394 162.645 81.4668L162.676 90.2254L166.87 90.2133C166.821 91.5692 166.942 93.2398 166.609 94.5412C163.874 94.2809 160.981 94.4625 158.228 94.4746C158.058 93.0522 157.919 91.6297 157.768 90.2073H153.544C153.525 89.5657 153.404 88.8998 153.338 88.2703C153.295 86.2789 152.926 83.319 153.531 81.4849Z" fill="#2C60C4"/>
<path d="M162.264 66.5947C163.632 66.9519 165.03 66.51 166.464 66.9337C166.5 66.9458 166.537 66.9518 166.573 66.9639C166.591 68.5438 166.67 70.1478 166.609 71.7216C168.177 71.7216 169.768 71.6671 171.33 71.7276L171.227 71.9334C171.215 73.5314 171.318 75.2323 171.154 76.8182C169.708 76.7819 168.256 76.7637 166.809 76.7576L166.567 76.5942C164.316 77.363 161.647 76.564 159.293 76.9332C158.954 76.9453 158.621 76.9029 158.282 76.8787C157.211 75.6863 158.27 73.9612 157.653 72.4479C157.054 72 156.66 72.115 155.922 72.1029L155.861 71.9092H157.75L157.786 71.7639C157.701 70.1236 157.737 68.4651 157.743 66.8247L159.051 66.8732C159.922 66.8853 161.55 67.1153 162.27 66.6008L162.264 66.5947Z" fill="#6182A5"/>
<path d="M166.531 71.9091C168.098 71.8909 169.66 71.897 171.227 71.9333C171.215 73.5313 171.318 75.2322 171.154 76.818C169.708 76.7817 168.256 76.7635 166.809 76.7575L166.567 76.5941C166.494 75.0324 166.531 73.4647 166.531 71.903V71.9091Z" fill="#32528A"/>
<path d="M157.743 66.8247L159.051 66.8731C159.765 67.315 161.344 67.091 162.192 67.085L162.379 69.8814C161.018 69.8149 159.547 69.5122 158.294 70.1296C157.846 70.7168 157.967 71.086 157.786 71.7639C157.701 70.1236 157.737 68.4651 157.743 66.8247Z" fill="#85A3BB"/>
<path d="M162.264 66.5947C163.632 66.9519 165.03 66.51 166.464 66.9337C166.5 66.9458 166.537 66.9518 166.573 66.9639L162.434 66.9942L162.494 71.9274C160.999 71.9455 159.208 72.1695 157.75 71.9032L157.786 71.7639C157.967 71.086 157.852 70.7168 158.294 70.1297C159.547 69.5123 161.018 69.8088 162.379 69.8815L162.192 67.085C161.344 67.0911 159.765 67.3211 159.051 66.8732C159.922 66.8853 161.55 67.1153 162.27 66.6008L162.264 66.5947Z" fill="#6F94AC"/>
<path d="M171.215 76.9875H171.403L171.433 81.1944C172.722 81.1641 174.876 80.8433 176.087 81.2186C176.111 84.1542 176.238 87.1323 176.062 90.068L176.05 90.2012C174.513 90.2375 172.97 90.2375 171.433 90.2557L171.403 86.1699C171.427 84.7112 171.723 82.5684 171.257 81.2186C171.197 79.8143 171.227 78.3979 171.221 76.9936L171.215 76.9875Z" fill="#2C60C4"/>
<path d="M153.64 99.5771H162.052C162.083 101.175 162.04 102.822 162.18 104.413C159.523 104.861 156.352 104.51 153.652 104.468C153.616 102.834 153.58 101.205 153.64 99.5771Z" fill="#2C60C4"/>
<path d="M153.338 88.2764C153.41 88.9059 153.525 89.5717 153.544 90.2073C153.374 93.2943 153.525 96.4357 153.556 99.5288L149.422 99.6862C149.344 96.5447 149.337 93.3972 149.404 90.2557C150.518 90.2436 152.018 90.522 153.011 90.0257C153.422 89.4022 153.326 89.0209 153.332 88.2824L153.338 88.2764Z" fill="#2C60C4"/>
<path d="M162.343 104.553C163.898 104.644 165.49 104.656 167.039 104.504C167.069 106.296 167.239 108.203 167.003 109.976L162.391 110L162.349 104.553H162.343Z" fill="#2C60C4"/>
<path d="M166.954 81.2671C168.383 81.2489 169.823 81.2611 171.251 81.2126C171.717 82.5625 171.421 84.6991 171.397 86.164C169.932 85.9824 168.461 85.825 166.991 85.6979L166.954 81.2671Z" fill="#2C60C4"/>
<path d="M166.706 94.7288H171.045C171.112 96.1996 171.239 97.6947 171.1 99.1595L170.828 99.4561C169.478 99.3351 168.074 99.3895 166.712 99.3774V94.7288H166.706Z" fill="#2C60C4"/>
<path d="M166.809 76.7576C168.256 76.7576 169.708 76.7818 171.154 76.8181L171.215 76.9876C171.221 78.3919 171.191 79.8083 171.251 81.2126C169.823 81.261 168.389 81.2489 166.954 81.267C166.882 79.7659 166.833 78.2648 166.809 76.7576Z" fill="#4795D3"/>
<path d="M166.567 76.5942L166.809 76.7576C166.833 78.2588 166.888 79.766 166.954 81.2671H162.851C162.688 79.8386 162.64 78.398 162.573 76.9574C161.478 76.9937 160.382 76.9574 159.293 76.9332C161.647 76.564 164.316 77.363 166.567 76.5942Z" fill="#50719B"/>
<path d="M71.6862 34.2416C72.7937 34.2174 74.7121 33.9329 75.7107 34.3566C76.6669 34.7621 76.0798 37.377 76.5095 38.3031C76.5458 38.3879 76.5943 38.4666 76.6306 38.5513C78.1617 38.5513 79.711 38.4908 81.2421 38.5392L81.2663 43.2121H86.5011L86.5374 48.4479L92.0507 48.4781L92.0386 52.9392L117.819 52.9513C117.819 54.5008 117.807 56.0564 117.825 57.606H122.776C122.849 59.1374 122.945 60.6627 123.091 62.1881L128.362 62.1094C130.904 62.1094 133.445 62.0912 135.981 62.1215V62.3152L135.945 66.5825C135.945 68.2955 135.908 70.0146 135.975 71.7276L135.945 71.8305C135.933 73.2469 136.138 75.2928 135.648 76.6002C135.57 78.1498 135.57 79.6751 135.606 81.2186L135.648 81.4668C136.029 82.865 135.521 84.3661 135.933 85.722C136.169 87.0052 136.29 88.5185 135.914 89.7775C135.521 90.7762 135.818 92.1321 135.697 93.2156C131.66 93.2095 127.605 93.27 123.569 93.1369C123.551 94.5533 123.544 95.9697 123.508 97.38C111.102 97.3255 98.6472 97.604 86.247 97.3316C86.2046 95.9455 86.138 94.5533 86.1743 93.1672C80.6732 93.2095 75.1479 93.373 69.6528 93.2701L69.6044 87.659C71.5168 87.4289 73.532 87.5803 75.4565 87.6045C75.7591 85.5525 75.5594 83.2766 75.5594 81.2005C75.5473 79.7296 75.5594 78.2587 75.5836 76.7879L75.6986 71.7155L80.6611 71.7276L80.8548 71.5097C81.0968 69.948 81.0242 68.3561 81.0061 66.7823C80.9758 65.2388 81.0242 63.6892 81.0363 62.1457L86.3377 62.176V57.8239L86.3317 52.7213C84.6372 52.7152 82.9426 52.7394 81.2481 52.7515L81.236 48.4116L76.4188 48.3995L76.3945 43.3331C74.8392 43.3392 73.0418 43.5268 71.5349 43.1757C71.6075 40.1856 71.7104 37.2015 71.6983 34.2113L71.6862 34.2416Z" fill="#AFCACC"/>
<path d="M71.6863 34.2416C72.7938 34.2174 74.7122 33.9329 75.7108 34.3566C76.667 34.7621 76.0799 37.377 76.5096 38.3031C76.5459 38.3879 76.5943 38.4666 76.6306 38.5513C78.1618 38.5513 79.711 38.4908 81.2421 38.5392L81.2664 43.2121H86.5012L86.5375 48.4479L92.0507 48.4781L92.0386 52.9392L117.82 52.9513C117.82 54.5008 117.807 56.0564 117.826 57.606H122.776C122.849 59.1374 122.945 60.6627 123.091 62.1881L128.362 62.1094C130.904 62.1094 133.445 62.0912 135.981 62.1215V62.3152L135.945 66.5825C135.945 68.2955 135.908 70.0146 135.975 71.7276L135.945 71.8305C135.933 73.2469 136.138 75.2928 135.648 76.6002C133.73 76.6002 131.805 76.5881 129.887 76.5639L129.651 76.3641C129.687 74.863 129.663 73.3619 129.663 71.8607V71.6731L123.781 71.6489L123.805 66.7339C121.983 66.6431 120.143 66.6794 118.316 66.6733C118.443 65.2206 118.4 63.7498 118.4 62.2971C115.187 61.9944 111.852 62.1518 108.621 62.1457L92.0265 62.1881L92.0386 66.7399L86.3318 66.8852L86.3499 71.5218C84.5344 71.3826 82.6704 71.4976 80.8488 71.5218C81.0909 69.9601 81.0182 68.3682 81.0001 66.7944C80.9698 65.2509 81.0182 63.7013 81.0303 62.1578L86.3318 62.1881V57.836L86.3257 52.7334C84.6312 52.7273 82.9367 52.7515 81.2421 52.7636L81.23 48.4237L76.4128 48.4116L76.3886 43.3452C74.8332 43.3513 73.0358 43.5389 71.5289 43.1878C71.6016 40.1977 71.7044 37.2136 71.6923 34.2234L71.6863 34.2416Z" fill="#50719B"/>
<path d="M129.669 62.303L135.993 62.3272L135.957 66.5945C135.957 68.3075 135.921 70.0266 135.987 71.7396L135.957 71.8425C135.945 73.2588 136.151 75.3047 135.66 76.6122C133.742 76.6122 131.817 76.6001 129.899 76.5759L129.663 76.3761C129.699 74.875 129.675 73.3738 129.675 71.8727V71.6851V62.309L129.669 62.303Z" fill="#2A4586"/>
<path d="M129.887 71.6792C131.787 71.6853 134.129 71.4008 135.951 71.8487C135.939 73.2651 136.144 75.311 135.654 76.6184C133.736 76.6184 131.811 76.6063 129.893 76.5821C129.796 74.966 129.881 73.3075 129.893 71.6853L129.887 71.6792Z" fill="#1C378D"/>
<path d="M92.0266 62.2002L108.621 62.1578C111.852 62.1578 115.187 62.0004 118.401 62.3091C118.401 63.7618 118.437 65.2388 118.316 66.6854C120.143 66.6915 121.983 66.6551 123.805 66.7459L123.781 71.6609C121.941 71.7396 120.107 71.7215 118.267 71.7033L118.298 66.8368C115.405 67.2302 112.258 67.0123 109.329 67.0183C103.64 67.0486 97.9513 67.0365 92.2687 66.9881C92.311 68.5376 92.3231 70.0811 92.3171 71.6307C90.4047 71.6549 88.4862 71.6428 86.5739 71.6488C86.6646 73.2952 86.6465 74.9295 86.6344 76.5759L80.7883 76.7333C80.752 75.0688 80.8125 73.3981 80.8488 71.7275C82.6765 71.7094 84.5283 71.7517 86.3439 71.5399L86.3257 66.9033L92.0326 66.7581L92.0205 62.2062L92.0266 62.2002Z" fill="#FBFBFA"/>
<path d="M123.623 71.8425L129.669 71.8728C129.669 73.3739 129.693 74.8751 129.657 76.3762C129.645 76.3883 129.639 76.4065 129.627 76.4186C128.743 77.2599 124.912 76.9936 123.587 77.0118L123.623 71.8425Z" fill="#D7ECDE"/>
<path d="M75.6987 71.7336L80.6612 71.7458C80.6249 73.4164 80.6188 75.087 80.6249 76.7637L75.5776 76.806L75.6926 71.7336H75.6987Z" fill="#32528A"/>
<path d="M75.5836 76.806L80.6309 76.7637C80.7761 78.2345 80.6975 79.7236 80.6672 81.2005L75.5594 81.2186C75.5473 79.7478 75.5594 78.2769 75.5836 76.806Z" fill="#FBFBFA"/>
<path d="M135.654 81.479C136.036 82.8772 135.527 84.3784 135.939 85.7342C136.175 87.0174 136.296 88.5307 135.921 89.7897C135.527 90.7884 135.824 92.1443 135.703 93.2278C135.364 89.82 135.691 85.0805 135.654 81.479Z" fill="#91B2BE"/>
<path d="M71.3171 43.1758L71.5229 43.2121C73.0298 43.5632 74.8332 43.3755 76.3825 43.3695L76.4067 48.4358L81.224 48.4479L81.2361 52.7879C82.9306 52.7758 84.6251 52.7455 86.3196 52.7576V57.8603L86.3257 62.2124L81.0243 62.1821C81.0122 63.7256 80.9698 65.2751 80.994 66.8186C81.0122 68.3985 81.0848 69.9843 80.8427 71.546L80.6491 71.7639L75.6866 71.7518L75.5716 76.8242C75.5413 78.2951 75.5353 79.7659 75.5474 81.2368C75.5474 83.313 75.7471 85.5889 75.4445 87.6408C73.52 87.6166 71.5047 87.4653 69.5923 87.6953L69.4047 87.6408L69.4653 87.429C62.1546 87.1505 54.729 87.429 47.4002 87.4592V93.718C37.6628 93.8814 27.9254 93.9298 18.188 93.8572L18.1093 87.435H11.1799C11.1557 82.0539 11.1557 76.6729 11.1981 71.2978L11.0347 70.9891C11.1557 69.1067 11.0589 67.1637 11.0649 65.2751C11.0347 64.3551 11.0831 63.4229 11.0952 62.4968L11.2828 62.2426C12.1664 62.1337 13.0378 62.1276 13.9275 62.1155C13.0923 62.0065 12.2148 62.0429 11.3736 62.0308L11.3978 56.922C13.4433 56.9039 15.4888 56.8615 17.5283 57.0068C17.7643 57.0673 18.0972 57.1097 18.3029 57.2308C19.6646 57.3155 21.0202 57.3215 22.3879 57.3215L22.6542 57.1884C24.0461 57.1279 25.4381 57.0915 26.83 57.0734L27.0781 56.9886C27.1265 58.5443 26.8784 60.5115 27.2234 61.9945C30.5579 62.2245 33.9288 62.0731 37.2694 62.1518L37.2936 66.4736C38.9881 66.5765 40.6524 66.5342 42.3469 66.4857L42.359 62.1276C47.6483 62.2487 52.9558 62.1881 58.2451 62.2002L58.233 57.0613L52.9377 57.0794L52.9558 52.8726L58.2996 52.8545C58.4751 49.713 58.3904 46.5291 58.4085 43.3816C61.8218 43.3816 68.2609 43.8658 71.305 43.2L71.3171 43.1758Z" fill="#6182A5"/>
<path d="M71.3171 43.1758L71.5228 43.2121C73.0297 43.5632 74.8332 43.3755 76.3825 43.3695L76.4067 48.4358L81.2239 48.4479L81.236 52.7879C82.9306 52.7758 84.6251 52.7455 86.3196 52.7576V57.8603L86.3256 62.2124L81.0242 62.1821C81.0121 63.7256 80.9698 65.2751 80.994 66.8186C77.7986 66.8913 74.4822 67.0426 71.305 66.746V71.546L64.1275 71.5218L64.1456 76.5518L58.3237 76.5397C58.3843 78.1982 58.3116 79.8628 58.2632 81.5213C56.4961 81.6181 54.7169 81.5818 52.9497 81.5939L52.9679 76.5458H42.0382C42.014 74.8691 42.0382 73.1985 42.0382 71.5279H37.2754C37.2452 69.8391 37.2815 68.1443 37.2936 66.4555C38.9881 66.5584 40.6524 66.516 42.3469 66.4676L42.359 62.1095C47.6483 62.2305 52.9558 62.17 58.2451 62.1821L58.233 57.0431L52.9376 57.0613L52.9558 52.8545L58.2995 52.8363C58.475 49.6948 58.3903 46.511 58.4085 43.3634C61.8217 43.3634 68.2609 43.8477 71.305 43.1818L71.3171 43.1758Z" fill="#AFCACC"/>
<path d="M86.3318 57.8542V62.2063L81.0364 62.1761C81.0243 63.7196 80.9819 65.2691 81.0061 66.8126C77.8108 66.8853 74.4944 67.0366 71.3171 66.74C72.933 66.6008 74.5791 66.6674 76.201 66.6734C76.2373 63.7619 76.1768 60.8384 76.1586 57.9269C78.0226 58.0298 85.1577 58.8469 86.3318 57.8542Z" fill="#86AABA"/>
<path d="M11.4098 56.8977C13.4553 56.8795 15.5009 56.8372 17.5403 56.9824C17.7764 57.043 18.1092 57.0853 18.315 57.2064C19.6766 57.2911 21.0323 57.2972 22.4 57.2972L22.6662 57.164C24.0582 57.1035 25.4501 57.0672 26.842 57.049L27.0902 56.9643C27.1386 58.5199 26.8904 60.4871 27.2354 61.9701C30.57 62.2001 33.9408 62.0488 37.2815 62.1274L37.3057 66.4493C35.5264 66.4069 33.7472 66.3948 31.974 66.413C31.9014 69.851 31.7501 73.2891 31.7864 76.7272L37.2815 76.7817V81.8661C33.7048 81.7451 30.1342 81.7996 26.5576 81.7209C26.5818 80.0624 26.5697 78.3918 26.6302 76.7332C23.7435 76.7332 20.8325 76.8059 17.9458 76.703L17.9761 71.4793C15.9305 71.4914 13.3585 71.788 11.3796 71.3098L11.204 71.2856L11.0406 70.9769C11.1617 69.0944 11.0649 67.1514 11.0709 65.2629C11.0407 64.3428 11.0891 63.4107 11.1012 62.4846L11.2888 62.2303C12.1723 62.1214 13.0438 62.1154 13.9334 62.1033C13.0983 61.9943 12.2208 62.0306 11.3796 62.0185L11.4038 56.9098L11.4098 56.8977Z" fill="#AFCACC"/>
<path d="M11.4099 56.8977C13.4554 56.8795 15.5009 56.8372 17.5404 56.9824C17.7764 57.043 18.1092 57.0853 18.315 57.2064C19.6767 57.2911 21.0323 57.2972 22.4 57.2972C22.3879 58.877 22.3516 60.4629 22.3697 62.0427C23.8646 62.2364 25.4199 62.1456 26.9207 62.1335L26.8965 66.3524C24.4153 66.8548 21.2623 66.4493 18.7023 66.4372C16.3724 66.425 14.0364 66.5824 11.7064 66.4977C11.2101 66.1708 11.2343 65.8076 11.0709 65.2629C11.0407 64.3428 11.0891 63.4107 11.1012 62.4846L11.2888 62.2303C12.1724 62.1214 13.0439 62.1154 13.9335 62.1033C13.0983 61.9943 12.2208 62.0306 11.3796 62.0185L11.4038 56.9098L11.4099 56.8977Z" fill="#FBFBFA"/>
<path d="M11.4099 56.8977C13.4554 56.8795 15.5009 56.8372 17.5404 56.9824C17.7764 57.043 18.1093 57.0853 18.3151 57.2064C17.9338 57.503 17.9701 57.4909 17.9217 57.9449C17.7764 59.2826 17.9096 60.7595 17.9217 62.1093L13.9335 62.0911C13.0984 61.9822 12.2208 62.0185 11.3796 62.0064L11.4038 56.8977H11.4099Z" fill="#1C378D"/>
<path d="M11.0769 65.2568C11.2403 65.8077 11.2161 66.1648 11.7124 66.4917C14.0423 66.5764 16.3784 66.4251 18.7083 66.4311C21.2683 66.4432 24.4213 66.8427 26.9025 66.3464L26.9146 71.4369C21.7463 71.4067 16.5539 71.1827 11.3916 71.3038L11.2161 71.2795L11.0527 70.9708C11.1738 69.0884 11.0769 67.1454 11.083 65.2568H11.0769Z" fill="#E9F2EE"/>
<path d="M26.8482 57.0491C27.0902 58.6228 26.951 60.3237 26.9268 61.9157C25.4381 61.9157 23.8404 61.8006 22.3758 62.0427C22.3577 60.4629 22.394 58.8771 22.4061 57.2972L22.6724 57.1641C24.0643 57.1036 25.4562 57.0672 26.8482 57.0491Z" fill="#1C378D"/>
<path d="M69.8525 76.7938L75.3597 76.7817C75.3476 79.9414 74.9542 84.6445 75.4565 87.6286C73.532 87.6044 71.5167 87.4531 69.6044 87.6831L69.4167 87.6286L69.4773 87.4168C70.2519 86.4786 69.8585 78.41 69.8464 76.7999L69.8525 76.7938Z" fill="#2A4586"/>
<path d="M37.3359 82.0478L42.244 82.0901C42.2985 83.8395 42.25 85.5827 42.2198 87.332L37.3722 87.3018L37.3359 82.0417V82.0478Z" fill="#D4E8E5"/>
<path d="M5.72111 62.0306C6.9799 62.0488 8.24473 62.0306 9.50352 62.0427C10.1208 62.0548 10.6594 62.0125 11.1012 62.4785C11.0891 63.3986 11.0467 64.3368 11.0709 65.2568C11.0709 67.1454 11.1617 69.0884 11.0407 70.9708L11.2041 71.2795C11.1678 76.6546 11.1617 82.0357 11.1859 87.4107H18.1153L18.194 93.8389C27.9314 93.9116 37.6688 93.8632 47.4062 93.6997V87.4409C54.729 87.4107 62.1546 87.1323 69.4652 87.4107L69.4047 87.6225L69.5923 87.677L69.6407 93.2881L69.6286 105.327C69.6286 107.113 69.5742 108.917 69.6468 110.702L69.6165 115.394C65.937 115.648 62.1485 115.484 58.4569 115.484H38.1832L38.1469 110.824L38.1045 110.594C31.4838 110.388 24.8147 110.569 18.194 110.6L18.1819 105.588L18.0911 105.43H11.4643L11.4401 100.195C9.70928 100.195 7.88767 100.334 6.16895 100.182C5.67875 100.14 5.63034 100.195 5.30959 99.795C5.3338 98.2273 5.358 96.6717 5.46694 95.104L5.1825 94.7711C3.50614 94.5532 1.739 94.6742 0.0444806 94.6863C0.026325 90.074 -0.0584008 85.4556 0.068688 80.8432V76.3277C1.51508 76.4064 3.76637 76.7635 5.14619 76.3095C5.5214 76.1885 5.51535 75.9827 5.69085 75.6498C5.80584 71.1161 5.70901 66.5522 5.70901 62.0125L5.72111 62.0306Z" fill="#2A4586"/>
<path d="M64.6963 87.556C66.2698 87.5317 67.8494 87.556 69.4228 87.6286L69.6104 87.6831L69.6589 93.2941L69.6467 105.333C69.6467 107.119 69.5923 108.923 69.6649 110.709L69.6346 115.4C65.9551 115.654 62.1667 115.49 58.475 115.49H38.2013L38.165 110.83C39.4904 110.218 61.2226 110.648 64.6358 110.63C64.8537 102.961 64.8053 95.219 64.6963 87.5499V87.556Z" fill="#1C378D"/>
<path d="M0.0868248 76.34C1.52716 76.4187 3.7724 76.7759 5.15827 76.3219C5.53349 76.2008 5.52744 75.995 5.70294 75.6621L5.71504 76.5095L5.68478 80.8798C5.78766 85.5345 5.47902 90.2256 5.69084 94.8621L5.47902 95.1103L5.19458 94.7774C3.51822 94.5595 1.75108 94.6805 0.0565655 94.6926C0.03841 90.0803 -0.0463159 85.4619 0.0807729 80.8495V76.334L0.0868248 76.34Z" fill="#1C378D"/>
<path d="M0.0868624 76.34C1.5272 76.4187 3.77244 76.7759 5.15831 76.3219C5.53352 76.2008 5.52747 75.995 5.70298 75.6621L5.71508 76.5095L5.68482 80.8798L0.0808105 80.8556V76.34H0.0868624Z" fill="#6182A5"/>
<path d="M18.194 105.6C24.8207 105.63 31.5504 105.763 38.1711 105.491C38.1711 107.174 38.2861 108.935 38.1227 110.606C31.502 110.4 24.8328 110.581 18.2121 110.612L18.2 105.6H18.194Z" fill="#1C378D"/>
<path d="M5.72111 62.0308C6.97989 62.0489 8.24473 62.0307 9.50351 62.0428C10.1208 62.0549 10.6594 62.0126 11.1012 62.4787C11.0891 63.3987 11.0467 64.3369 11.0709 65.257C11.0709 67.1455 11.1617 69.0885 11.0407 70.971C10.9802 72.8353 10.962 74.6936 10.9923 76.5579C9.23118 76.5458 7.47009 76.5579 5.709 76.5155L5.6969 75.6681C5.81188 71.1344 5.71505 66.5705 5.71505 62.0308H5.72111Z" fill="#1C378D"/>
<path d="M11.5793 100.146C13.758 100.128 15.9729 100.183 18.1456 100.055C18.1456 101.817 18.2787 103.693 18.0971 105.443H11.4704L11.4462 100.207L11.5793 100.146Z" fill="#1C378D"/>
<path d="M5.69089 94.8619C7.47618 94.4503 9.62459 94.6622 11.4704 94.6501C11.4704 96.3873 11.2586 98.4513 11.5793 100.14L11.4462 100.201C9.71537 100.201 7.89376 100.34 6.17504 100.189C5.68484 100.146 5.63642 100.201 5.31567 99.8011C5.33988 98.2334 5.36409 96.6778 5.47302 95.1101L5.68484 94.8619H5.69089Z" fill="#1C378D"/>
<path d="M47.4849 95.9758C50.8921 95.9516 54.2933 95.9577 57.7005 96.0001L57.7126 100.776C54.2993 100.776 50.8921 100.727 47.4789 100.618C47.4668 99.0689 47.4668 97.5193 47.4849 95.9758Z" fill="#2C60C4"/>
<path d="M33.0754 96.3269L38.0864 96.3451V101.157L33.2873 101.212L33.0754 96.3269Z" fill="#32528A"/>
<path d="M135.939 85.7342L140.877 85.7161C140.913 87.1264 140.956 88.5307 140.907 89.941L140.871 105.037C132.18 105.412 123.381 105.092 114.672 105.104L69.6467 105.334L69.6588 93.2943C75.16 93.3912 80.6793 93.2338 86.1804 93.1915C86.1441 94.5776 86.2106 95.9698 86.253 97.3559C98.6532 97.6222 111.108 97.3438 123.514 97.4043C123.551 95.9879 123.557 94.5715 123.575 93.1612C127.611 93.2944 131.66 93.2278 135.703 93.2399C135.824 92.1564 135.527 90.8066 135.921 89.8018C136.296 88.5428 136.175 87.0295 135.939 85.7463V85.7342Z" fill="#6182A5"/>
<path d="M135.939 85.7342L140.877 85.7161C140.913 87.1264 140.956 88.5307 140.907 89.941C139.243 89.935 137.579 89.8502 135.921 89.7897C136.296 88.5307 136.175 87.0174 135.939 85.7342Z" fill="#86AABA"/>
<path d="M69.6408 105.328L114.667 105.098C123.375 105.085 132.175 105.412 140.865 105.031C140.841 108.384 140.683 111.738 140.683 115.085L76.7638 115.279C75.6382 115.279 74.458 115.339 73.3385 115.254C72.0797 115.224 70.8753 115.224 69.6226 115.394L69.6529 110.703C69.5803 108.917 69.6347 107.113 69.6347 105.328H69.6408Z" fill="#2C60C4"/>
<path d="M69.6589 110.709C72.0312 110.696 74.4157 110.654 76.788 110.69L76.7698 115.291C75.6442 115.291 74.4641 115.351 73.3445 115.266C72.0857 115.236 70.8814 115.236 69.6287 115.406L69.6589 110.715V110.709Z" fill="#2A4586"/>
<path d="M140.823 81.3155C142.172 81.1824 143.534 81.249 144.889 81.2792L144.944 110.182C152.273 110.158 159.698 110.412 167.009 110.134C168.334 110.134 170.041 109.958 171.3 110.37L171.372 110.588L171.33 115.654L143.528 115.606L143.546 119.782L73.3384 119.582L73.3505 115.267C74.4701 115.351 75.6502 115.291 76.7758 115.291L140.695 115.097C140.695 111.744 140.847 108.396 140.877 105.043L140.913 89.9471C140.962 88.5367 140.925 87.1324 140.883 85.7221L140.829 81.3216L140.823 81.3155Z" fill="#1C378D"/>
<path d="M166.761 34.0599C167.935 34.0902 170.464 34.4171 171.403 33.7815L171.475 34.072L171.403 34.2536L175.851 34.2718L175.881 38.9326L176.075 39.1202C176.026 37.4738 176.056 35.8092 176.044 34.1628H180.305H183.191V38.8599L183.282 39.1081C183.918 40.0887 183.639 42.4009 183.627 43.5873C182.556 43.5025 181.533 43.4844 180.456 43.5449C178.967 43.6357 177.448 43.5812 175.96 43.5873C174.453 43.5994 172.915 43.557 171.415 43.6599C171.427 45.27 171.614 47.098 171.378 48.6778L167.311 48.6173L166.712 48.4539C166.688 46.989 166.706 45.5303 166.773 44.0715L166.603 43.8476C165.284 43.7931 163.941 43.8233 162.621 43.8112C162.543 42.3283 162.258 40.7303 162.754 39.3079C163.293 38.8176 163.608 38.9447 164.316 38.9265L164.37 38.7449C164.963 38.7631 165.52 38.8176 166.083 38.5875C167.088 37.5101 166.779 35.4642 166.773 34.0539L166.761 34.0599Z" fill="#86AABA"/>
<path d="M166.761 34.0599C167.935 34.0902 170.465 34.4171 171.403 33.7815L171.475 34.072L171.403 34.2536L175.851 34.2718L175.881 38.9326L175.354 38.8781C172.54 39.0476 169.696 38.981 166.876 38.981C166.93 40.1068 167.402 43.2786 166.767 44.0715L166.597 43.8476C165.278 43.7931 163.935 43.8233 162.615 43.8112C162.537 42.3283 162.252 40.7303 162.748 39.3079C163.287 38.8176 163.602 38.9447 164.31 38.9265L164.364 38.7449C164.957 38.7631 165.514 38.8176 166.077 38.5875C167.082 37.5101 166.773 35.4642 166.767 34.0539L166.761 34.0599Z" fill="#AFCACC"/>
<path d="M171.409 34.2536L175.857 34.2718L175.887 38.9325L175.36 38.8781C174.005 38.7025 172.54 38.7933 171.173 38.7752C171.154 37.3527 170.979 35.6034 171.415 34.2476L171.409 34.2536Z" fill="#FBFBFA"/>
<path d="M164.31 38.9326L166.694 38.9023C166.718 40.4277 166.961 42.3889 166.597 43.8476C165.278 43.7931 163.935 43.8234 162.615 43.8113C162.537 42.3283 162.252 40.7303 162.748 39.3079C163.287 38.8176 163.602 38.9447 164.31 38.9266V38.9326Z" fill="#FBFBFA"/>
<path d="M176.05 34.1628H180.311H183.198V38.8599L183.288 39.1081L180.305 39.1444C178.895 39.1989 177.497 39.1747 176.087 39.1202C176.038 37.4738 176.068 35.8092 176.056 34.1628H176.05Z" fill="#2C60C4"/>
<path d="M180.305 34.1628H183.191V38.866L183.282 39.1142L180.299 39.1505V34.1628H180.305Z" fill="#1C378D"/>
<path d="M188.16 43.6176L188.414 42.6189L188.584 43.1697C189.685 43.7205 191.815 43.3271 193.08 43.3271L193.038 48.3087C193.988 48.3087 194.95 48.2723 195.907 48.3147L198.212 48.2905C198.206 49.9248 198.37 51.771 198.115 53.3811C196.572 53.2539 194.968 53.3387 193.419 53.3326L193.274 52.8121C192.772 53.3084 191.9 53.1813 191.21 53.1813C190.327 53.1752 189.443 53.1631 188.56 53.145L188.535 53.0421C188.445 51.5046 188.293 49.949 188.402 48.4055L188.384 48.2058C188.166 46.7349 188.439 45.2398 188.16 43.7629V43.5995V43.6176Z" fill="#2C60C4"/>
<path d="M195.9 48.3208L198.206 48.2966C198.2 49.9309 198.363 51.7771 198.109 53.3872C196.566 53.2601 194.962 53.3448 193.413 53.3388L193.268 52.8182C193.225 51.6258 193.165 50.4394 193.08 49.253L193.201 48.6961C193.873 48.2361 195.102 48.3632 195.9 48.3208Z" fill="#1C378D"/>
<path d="M188.396 48.4177C189.794 48.4479 191.567 48.3087 192.874 48.7869L193.08 49.253C193.159 50.4394 193.225 51.6318 193.268 52.8182C192.766 53.3145 191.894 53.1874 191.204 53.1874C190.321 53.1814 189.437 53.1693 188.553 53.1511L188.529 53.0482C188.438 51.5107 188.287 49.9551 188.396 48.4116V48.4177Z" fill="#91B2BE"/>
<path d="M22.5694 47.4732C23.574 47.4611 26.3821 47.1464 27.0902 47.7214C27.0902 49.271 27.0357 50.8326 27.0902 52.3822C27.1023 53.9075 27.1023 55.4329 27.1023 56.9643L26.8541 57.049C25.4622 57.0672 24.0703 57.1035 22.6784 57.164L22.4121 57.2972C21.0444 57.2972 19.6887 57.2972 18.3271 57.2064C18.1213 57.0853 17.7885 57.0369 17.5524 56.9824C17.7764 55.5479 17.5645 53.8349 17.5464 52.3701C19.1985 52.3822 20.8386 52.3761 22.4907 52.3156C22.4242 50.7297 22.3516 49.047 22.5815 47.4732H22.5694Z" fill="#1C378D"/>
<path d="M22.5695 47.4732C23.5741 47.4611 26.3821 47.1464 27.0902 47.7214C27.0902 49.271 27.0357 50.8326 27.0902 52.3822L22.5937 52.364L22.4847 52.3156C22.4182 50.7297 22.3455 49.047 22.5755 47.4732H22.5695Z" fill="#1C378D"/>
<path d="M27.0902 52.3822C27.1023 53.9076 27.1023 55.4329 27.1023 56.9643L26.8542 57.0491C25.4623 57.0672 24.0704 57.1035 22.6784 57.1641C22.1096 56.1714 22.4364 53.5202 22.5937 52.3701L27.0902 52.3883V52.3822Z" fill="#FBFBFA"/>
<path d="M138.226 14.0852C140.423 13.4496 148.563 13.837 151.456 13.7523C151.438 15.3079 151.438 16.8635 151.395 18.413C147.546 18.3586 143.612 18.2072 139.776 18.522H138.214C138.323 17.0511 138.251 15.556 138.226 14.0852Z" fill="#1C378D"/>
<path d="M171.384 28.8121C172.903 28.7092 174.41 28.7092 175.929 28.7153L175.905 34.1266L171.481 34.0782L171.409 33.7876L171.39 28.8182L171.384 28.8121Z" fill="#1C378D"/>
<path d="M183.192 38.8659L188.535 38.7751C188.517 40.0463 188.572 41.3658 188.414 42.6248L188.16 43.6236C186.659 43.6659 185.122 43.7749 183.627 43.5994C183.645 42.413 183.918 40.0947 183.282 39.1202L183.192 38.872V38.8659Z" fill="#2C60C4"/>
<path d="M57.7549 23.3523H54.2388V33.2549H57.7549V23.3523Z" fill="#1C378D"/>
<path d="M66.7116 21.155H54.2388V25.719H66.7116V21.155Z" fill="#1C378D"/>
<path d="M69.3139 11.8154H64.9021V25.7191H69.3139V11.8154Z" fill="#1C378D"/>
<path d="M77.0482 9.22461H71.9525V14.3212H77.0482V9.22461Z" fill="#1C378D"/>
<path d="M82.0712 9.22461H76.9756V14.3212H82.0712V9.22461Z" fill="#1C378D"/>
<path d="M72.1583 9.22461H69.314V14.3212H72.1583V9.22461Z" fill="#1C378D"/>
<defs>
<linearGradient id="paint0_linear_1_3402" x1="174.842" y1="56.1683" x2="155.848" y2="44.1846" gradientUnits="userSpaceOnUse">
<stop stop-color="#6688AB"/>
<stop offset="1" stop-color="#92B0C4"/>
</linearGradient>
</defs>
</svg>
