<svg width="357" height="303" viewBox="0 0 357 303" fill="none" xmlns="http://www.w3.org/2000/svg">
<g opacity="0.63">
<g opacity="0.51">
<path d="M309.209 121.9L133.979 157.84L133.059 164C133.059 164 63.6489 181.42 62.1389 182.48C60.6289 183.54 46.1389 187.08 50.8189 194.29C55.4989 201.5 72.3989 211.61 72.3989 211.61L156.459 219.44C156.459 219.44 173.749 246.75 138.239 258.46L127.049 260.51V282.59L149.209 289.78L161.909 284.65V294.92L183.929 302.18L342.879 255.39V232.8L301.589 220.48C301.589 220.48 280.539 213.22 309.199 186.08C309.199 186.08 335.689 166.5 356.099 161.44L356.709 137.82L309.199 121.91L309.209 121.9Z" fill="#706C69"/>
<path d="M205.209 190.33L135.179 167.08V160.29L205.209 183.69V190.33Z" fill="#5B5754"/>
<path d="M130.809 169.95C130.809 169.95 53.9989 183.99 62.9689 190.32C71.9489 196.66 174.239 197.89 192.519 191.16L130.809 169.95Z" fill="url(#paint0_linear_196_1784)"/>
<path d="M165.669 222.021L201.859 230.181L203.299 195.681C203.299 195.681 188.449 225.801 165.669 222.021Z" fill="#5B5754"/>
<path d="M130.809 262.62C130.809 262.62 128.849 278.41 130.809 279.12C132.769 279.83 147.859 286.92 147.859 286.92V267.48L130.809 262.62Z" fill="#7F7F7F"/>
<path d="M164.279 274.771V293.491L181.559 298.281L184.489 277.061L164.279 274.771Z" fill="#7F7F7F"/>
<path d="M352.659 141.881V160.291C352.659 160.291 296.319 174.871 289.019 212.031C289.019 212.031 292.289 240.431 340.429 235.301L340.229 256.151L186.849 298.281V277.401C186.849 277.401 228.049 267.761 207.489 230.171L209.829 182.811L352.649 141.881H352.659Z" fill="url(#paint1_linear_196_1784)"/>
<path d="M150.729 267.3C151.639 267.3 165.049 259.45 175.699 262.62C186.349 265.79 162.199 272.13 161.899 272.43C161.599 272.73 161.449 283.45 161.449 283.45L150.729 286.92V267.3Z" fill="url(#paint2_linear_196_1784)"/>
<path d="M192.519 193.98C192.519 193.98 188.159 215.18 165.669 215.88C143.179 216.58 75.1185 207.68 75.1185 207.68L55.2285 193.98C55.2285 193.98 143.149 214.39 192.519 193.98Z" fill="#7F7F7F"/>
<path d="M145.919 160.29C145.919 160.29 205.209 177.34 206.569 177.65C207.929 177.96 307.809 128.57 307.809 128.57L145.929 160.3L145.919 160.29Z" fill="#7F7F7F"/>
<path d="M162.649 224.891C162.649 224.891 202.449 234.941 203.299 234.971C204.149 235.001 216.099 248.331 205.149 256.531L162.649 248.061C162.649 248.061 171.399 234.101 162.649 224.891Z" fill="#7F7F7F"/>
<path d="M299.459 220.081C298.909 219.681 306.929 233.641 336.659 231.831C336.659 231.831 308.439 226.601 299.459 220.081Z" fill="#5B5754"/>
<path d="M235.549 113.211C235.549 113.211 197.819 155.621 198.269 165.881C198.719 176.141 273.279 121.511 277.349 116.981L257.519 113.211C257.519 113.211 274.629 99.8408 277.349 98.8308C280.069 97.8208 264.109 94.4108 258.209 98.8308C252.309 103.251 247.619 111.551 247.619 111.551L235.549 113.211Z" fill="#38302D"/>
<path d="M232.979 109.881C232.979 109.881 195.249 152.291 195.699 162.551C196.149 172.811 270.709 118.181 274.779 113.651L254.949 109.881C254.949 109.881 272.059 96.5107 274.779 95.5007C277.499 94.4907 261.539 91.0807 255.639 95.5007C249.729 99.9207 245.049 108.221 245.049 108.221L232.979 109.881Z" fill="url(#paint3_linear_196_1784)"/>
<path d="M207.509 25.9204C207.509 25.9204 183.199 2.7704 179.299 0.210403C175.399 -2.3496 150.039 19.2204 148.079 23.1604C146.119 27.1004 140.649 66.7104 140.649 66.7104L137.379 96.9004L137.759 100.96C148.599 116.17 170.809 127.26 170.809 127.26C210.039 113.33 207.389 106.11 207.389 106.11C212.839 87.1404 207.499 25.9104 207.499 25.9104L207.509 25.9204Z" fill="#706C69"/>
<path d="M0.348722 150.86C-2.78128 176.68 16.1887 179.67 16.1887 179.67L137.309 96.9302L140.579 66.7402L0.348722 150.86Z" fill="#7A5338"/>
<path d="M138.959 98.5707C138.599 97.9007 167.229 77.4507 173.619 77.5207C180.009 77.5907 205.219 105.961 205.219 105.961C205.219 105.961 184.389 122.861 171.109 124.671C171.109 124.671 147.419 114.411 138.959 98.5607V98.5707Z" fill="#8E8C8A"/>
<path d="M177.739 1.52051C177.739 1.52051 151.479 17.0705 149.519 22.8005C147.559 28.5305 138.949 95.4405 138.949 95.4405C138.949 95.4405 169.289 73.7005 172.079 74.1305L177.739 1.52051Z" fill="#605E5C"/>
<path d="M135.329 87.2507C135.329 87.2507 10.2187 168.741 7.80874 169.051C5.39874 169.361 15.3587 177.651 15.3587 177.651L135.339 95.4407L137.389 85.4307L135.339 87.2407L135.329 87.2507Z" fill="#60412B"/>
<path d="M27.119 147.311C27.119 147.311 21.839 150.631 25.009 155.311C28.179 159.991 30.899 156.061 30.899 156.061C30.899 156.061 25.159 154.701 27.129 147.311H27.119Z" fill="#9B6C4C"/>
<path d="M48.5585 134.57C48.5585 134.57 47.0485 146.25 49.6085 145.2C52.1685 144.15 48.2685 137.8 50.9785 133.58C53.6885 129.36 48.5585 134.58 48.5585 134.58V134.57Z" fill="#9B6C4C"/>
<path d="M118.429 89.0605C118.429 89.0605 111.899 98.0505 114.039 101.101C116.179 104.151 117.229 98.4206 117.229 97.9706C117.229 97.5206 116.319 94.8005 118.439 89.0705L118.429 89.0605Z" fill="#9B6C4C"/>
<path d="M205.059 93.2803C205.059 93.2803 204.609 103.54 199.779 104.3C194.949 105.05 206.269 111.39 205.059 93.2803Z" fill="#605E5C"/>
<path d="M206.569 58.7207C206.569 58.7207 208.679 67.5907 206.569 69.3507C204.459 71.1107 206.569 58.7207 206.569 58.7207Z" fill="#605E5C"/>
<path d="M220.459 89.0605L206.119 137.361C206.119 137.361 224.839 108.041 225.589 106.931C226.339 105.821 220.459 89.0605 220.459 89.0605Z" fill="#EFDFD5"/>
<path d="M225.279 131.33L209.889 146.02L229.359 135.75L225.279 131.33Z" fill="#EFDFD5"/>
<path d="M181.559 180.65L135.139 197.11L146.899 201.68L181.559 180.65Z" fill="#EFDFD5"/>
<path d="M192.519 179.61L187.039 211.79L174.519 210.42L192.519 179.61Z" fill="#EFDFD5"/>
</g>
</g>
<defs>
<linearGradient id="paint0_linear_196_1784" x1="62.2389" y1="182.81" x2="192.519" y2="182.81" gradientUnits="userSpaceOnUse">
<stop stop-color="#474744"/>
<stop offset="0.37" stop-color="#54514E"/>
<stop offset="0.71" stop-color="#5B5754"/>
</linearGradient>
<linearGradient id="paint1_linear_196_1784" x1="259.909" y1="286.531" x2="289.999" y2="123.481" gradientUnits="userSpaceOnUse">
<stop stop-color="#474744"/>
<stop offset="0.37" stop-color="#54514E"/>
<stop offset="0.71" stop-color="#5B5754"/>
</linearGradient>
<linearGradient id="paint2_linear_196_1784" x1="150.729" y1="274.39" x2="178.409" y2="274.39" gradientUnits="userSpaceOnUse">
<stop stop-color="#474744"/>
<stop offset="0.37" stop-color="#54514E"/>
<stop offset="0.71" stop-color="#5B5754"/>
</linearGradient>
<linearGradient id="paint3_linear_196_1784" x1="234.129" y1="150.891" x2="240.929" y2="71.7907" gradientUnits="userSpaceOnUse">
<stop stop-color="#F2E82C"/>
<stop offset="0.1" stop-color="#ECA426"/>
<stop offset="0.21" stop-color="#E5561F"/>
<stop offset="0.36" stop-color="#8C4C32"/>
<stop offset="0.71" stop-color="#414442"/>
</linearGradient>
</defs>
</svg>
