<svg width="317" height="316" viewBox="0 0 317 316" fill="none" xmlns="http://www.w3.org/2000/svg">
<path d="M223.246 162.425C222.945 161.208 198.013 2.14062 198.013 2.14062L5.69971 35.666L39.8902 204.008L223.249 162.425H223.246Z" fill="#634D2D"/>
<path d="M0 33.5254L30.8985 205.434L40.6004 202.459L10.6854 35.6663L198.016 2.14087L185.193 0L0 33.5254Z" fill="#B29A56"/>
<path d="M40.6006 205.434L217.932 164.645L316.969 231.825L159.554 286.37C159.554 286.37 115.692 295.743 114.473 294.458C113.254 293.172 47.0105 219.698 47.0105 219.698L40.6006 205.43V205.434Z" fill="#594525"/>
<path d="M48.4341 195.989L222.945 155.504L314.118 216.85L308.589 226.621L124.649 273.2L51.0875 205.435L48.4341 195.989Z" fill="#56242F"/>
<path d="M214.398 169.279C215.822 169.83 297.022 224.042 297.022 224.042L269.955 231.176L192.316 174.823L214.398 169.279Z" fill="#E0D0A9"/>
<path d="M188.55 177.839C189.974 178.389 271.175 232.602 271.175 232.602L244.108 239.736L166.469 183.383L188.55 177.839Z" fill="#E0D0A9"/>
<path d="M136.864 181.334L126.141 189.727L123.201 208.095C123.201 208.095 161.015 224.224 162.422 224.449C163.829 224.675 177.98 221.891 181.16 224.569C184.339 227.247 187.962 227.107 189.496 228.796C191.032 230.489 204.46 230.475 206.243 231.484C208.025 232.493 263.385 247.161 263.385 247.161C263.385 247.161 268.996 239.158 270.591 238.204C272.185 237.25 272.708 220.482 272.708 220.482L136.864 181.331V181.334Z" fill="#E5D8B5"/>
<path opacity="0.79" d="M125.875 191.402C127.494 192.247 146.013 200.096 146.013 200.096L182.338 210.082C182.338 210.082 220.09 218.642 220.801 219.357C221.511 220.071 264.249 229.343 264.249 229.343L263.385 247.164L220.903 235.742L197.381 230.848L188.843 228.796L179.965 225.718C179.965 225.718 163.32 225.537 161.865 224.008C160.411 222.479 123.198 208.098 123.198 208.098L125.872 191.406L125.875 191.402Z" fill="url(#paint0_linear_223_4780)"/>
<path d="M124.496 195.578C125.749 197.613 127.105 199.692 129.055 201.122C131.244 202.726 133.685 202.705 136.263 202.292C137.708 202.059 139.19 201.779 140.652 202.038C141.669 202.22 142.626 202.623 143.517 203.143C145.347 204.217 146.881 205.718 148.492 207.083C150.104 208.447 151.706 209.665 153.666 210.298C156.408 211.183 159.198 210.39 161.903 209.778C164.399 209.213 167.517 208.81 169.566 210.725C170.471 211.57 171.076 212.678 171.854 213.629C172.558 214.484 173.415 215.15 174.443 215.571C178.554 217.25 183.106 214.873 187.252 216.269C188.512 216.693 189.373 217.579 190.336 218.451C191.207 219.234 192.194 219.822 193.327 220.133C195.694 220.783 198.194 220.366 200.594 220.205C201.817 220.123 203.063 220.075 204.279 220.28C205.577 220.499 206.704 221.046 207.786 221.782C208.869 222.517 209.968 223.444 211.198 224.056C212.318 224.613 213.52 224.942 214.753 225.116C219.646 225.807 225.271 224.001 229.639 226.983C231.496 228.252 232.965 230.03 234.908 231.18C235.789 231.699 236.772 232.055 237.804 232.072C239.047 232.093 240.146 231.563 241.232 231.015C242.455 230.396 243.654 229.907 245.03 230.314C246.334 230.701 247.417 231.638 248.339 232.602C249.172 233.478 249.886 234.671 251.071 235.109C252.358 235.581 253.956 235.017 255.244 234.777C256.832 234.483 258.42 234.189 260.008 233.895C260.657 233.775 260.38 232.787 259.735 232.907C258.147 233.201 256.559 233.495 254.971 233.789C254.202 233.933 253.431 234.107 252.655 234.213C251.812 234.329 251.166 234.141 250.552 233.546C249.623 232.647 248.889 231.593 247.874 230.769C246.952 230.02 245.897 229.388 244.712 229.193C243.527 228.998 242.38 229.319 241.29 229.842C240.116 230.403 238.985 231.121 237.633 231.043C235.424 230.913 233.675 229.015 232.108 227.654C230.311 226.091 228.44 224.901 226.06 224.48C223.679 224.059 221.057 224.251 218.557 224.285C216.057 224.319 213.38 224.179 211.13 222.862C208.879 221.546 207.114 219.709 204.446 219.282C202.008 218.892 199.56 219.336 197.118 219.439C195.94 219.49 194.738 219.466 193.594 219.152C192.293 218.793 191.357 218.016 190.387 217.107C188.721 215.547 186.832 214.884 184.565 214.826C182.297 214.767 180.187 215.174 177.991 215.157C176.956 215.15 175.911 215.044 174.938 214.678C173.821 214.258 172.978 213.468 172.274 212.524C171.571 211.58 170.918 210.506 169.976 209.737C169.047 208.978 167.917 208.557 166.735 208.389C164.013 208.006 161.411 208.93 158.775 209.429C157.334 209.703 155.845 209.819 154.411 209.449C153.424 209.196 152.508 208.745 151.648 208.201C148.229 206.036 145.668 202.353 141.642 201.214C138.972 200.462 136.404 201.484 133.73 201.549C131.063 201.614 129.041 200.117 127.439 198.106C126.674 197.145 126.015 196.102 125.37 195.055C125.025 194.494 124.137 195.007 124.485 195.571L124.496 195.578Z" fill="#826931"/>
<path d="M124.817 204.511C125.735 204.518 126.596 204.716 127.159 205.496C127.555 206.046 127.771 206.703 128.146 207.267C129.335 209.049 131.619 209.025 133.443 208.317C134.723 207.821 135.963 207.079 137.384 207.175C138.552 207.254 139.6 207.886 140.491 208.608C142.404 210.157 143.893 212.219 146.034 213.492C148.513 214.969 151.501 215.167 154.312 214.911C155.732 214.781 157.143 214.545 158.543 214.282C159.393 214.121 160.318 213.899 161.176 214.138C161.838 214.323 162.35 214.788 162.757 215.328C163.474 216.286 163.928 217.411 164.669 218.355C165.509 219.422 166.646 220.208 167.917 220.68C169.187 221.152 170.464 221.221 171.752 220.991C173.302 220.718 174.941 219.89 176.539 220.232C177.864 220.516 178.722 221.648 179.633 222.551C180.545 223.454 181.577 224.127 182.843 224.384C185.367 224.897 187.904 224.056 190.438 224.206C191.975 224.299 193.071 224.931 194.243 225.892C195.219 226.696 196.234 227.311 197.494 227.547C199.884 227.995 202.292 227.342 204.665 227.113C205.816 227 207.008 226.963 208.128 227.301C209.466 227.712 210.221 228.724 211.174 229.675C213.175 231.672 215.801 231.326 218.349 230.858C219.756 230.598 221.221 230.29 222.655 230.519C223.891 230.718 224.987 231.354 225.974 232.096C228.013 233.628 229.758 235.625 232.282 236.371C235.068 237.195 237.998 236.497 240.84 236.579C242.288 236.624 243.701 236.911 244.934 237.705C246.03 238.412 246.925 239.377 247.905 240.228C248.803 241.008 249.787 241.733 250.948 242.055C252.194 242.397 253.482 242.198 254.715 241.894C255.947 241.59 257.242 241.101 258.546 241.162C259.929 241.227 260.875 242.243 262.047 242.848C262.917 243.3 263.911 243.484 264.615 242.657C265.041 242.157 264.321 241.429 263.891 241.932C263.136 242.814 261.538 241.309 260.848 240.878C259.793 240.222 258.676 240.034 257.45 240.201C256.152 240.379 254.916 240.841 253.632 241.083C252.259 241.343 251.006 241.172 249.821 240.413C247.68 239.042 246.246 236.829 243.746 236.001C241 235.095 238.056 235.783 235.239 235.735C233.825 235.711 232.432 235.482 231.175 234.801C230.025 234.179 229.038 233.307 228.047 232.465C226.145 230.844 224.175 229.401 221.566 229.411C218.957 229.422 216.146 230.817 213.578 230.006C212.134 229.551 211.42 228.221 210.307 227.311C209.47 226.631 208.466 226.241 207.404 226.091C205.013 225.752 202.626 226.45 200.253 226.624C199.109 226.71 197.931 226.692 196.838 226.303C195.428 225.8 194.512 224.545 193.204 223.871C190.94 222.701 188.328 223.276 185.917 223.461C184.643 223.56 183.298 223.591 182.102 223.074C180.907 222.558 180.071 221.433 179.108 220.543C178.145 219.654 177.089 219.121 175.788 219.124C174.272 219.131 172.855 219.774 171.373 220.01C169.891 220.246 168.443 219.931 167.186 219.189C165.929 218.447 165.236 217.442 164.556 216.255C163.979 215.253 163.385 214.182 162.381 213.546C161.121 212.749 159.659 213.023 158.283 213.28C155.391 213.823 152.324 214.319 149.404 213.683C147.99 213.375 146.679 212.784 145.539 211.884C144.586 211.132 143.746 210.246 142.885 209.395C141.314 207.838 139.484 206.139 137.134 206.122C134.72 206.105 132.312 208.608 129.901 207.493C128.597 206.891 128.464 205.096 127.381 204.22C126.654 203.635 125.735 203.475 124.827 203.468C124.168 203.461 124.168 204.487 124.827 204.494L124.817 204.511Z" fill="#826931"/>
<path d="M82.8128 197.186L73.0323 206.659L72.0352 225.236C72.0352 225.236 111.334 237.294 112.755 237.373C114.179 237.448 127.958 233.19 131.401 235.519C134.843 237.848 138.432 237.325 140.136 238.847C141.84 240.369 155.196 238.943 157.071 239.76C158.949 240.574 215.542 249.336 215.542 249.336C215.542 249.336 220.282 240.789 221.767 239.671C223.253 238.553 222.013 221.826 222.013 221.826L82.8128 197.189V197.186Z" fill="#E5D8B5"/>
<path opacity="0.79" d="M72.9401 208.354C74.6373 209.025 93.8772 214.88 93.8772 214.88L131.049 220.988C131.049 220.988 169.488 225.526 170.273 226.162C171.059 226.798 214.531 231.521 214.531 231.521L215.542 249.335L172.097 242.444L148.192 240.054L139.487 238.911L130.335 236.784C130.335 236.784 113.762 238.354 112.157 236.989C110.552 235.621 72.0352 225.235 72.0352 225.235L72.9401 208.354Z" fill="url(#paint1_linear_223_4780)"/>
<path d="M72.0554 212.708C73.5443 214.637 75.163 216.644 77.352 217.814C79.7629 219.1 82.1807 218.703 84.7044 218.012C86.0089 217.657 87.327 217.297 88.693 217.373C89.7414 217.431 90.7727 217.739 91.7255 218.173C93.6789 219.066 95.3863 220.416 97.1519 221.617C98.9174 222.817 100.768 223.925 102.872 224.274C105.717 224.746 108.363 223.604 111.006 222.732C113.492 221.911 116.552 221.336 118.721 223.214C119.694 224.055 120.415 225.15 121.395 225.981C122.156 226.627 123.037 227.099 124.007 227.342C128.266 228.402 132.521 225.57 136.755 226.661C137.967 226.972 138.876 227.715 139.859 228.443C140.843 229.171 141.871 229.637 143.045 229.825C145.405 230.204 147.785 229.578 150.097 229.161C151.31 228.942 152.539 228.764 153.775 228.812C155.158 228.867 156.401 229.301 157.61 229.958C158.73 230.567 159.799 231.268 160.981 231.753C162.162 232.239 163.371 232.455 164.614 232.52C169.518 232.786 174.945 230.3 179.603 232.677C181.713 233.754 183.434 235.491 185.606 236.456C186.549 236.873 187.563 237.119 188.598 237.003C189.789 236.87 190.787 236.271 191.773 235.632C192.972 234.855 194.164 234.216 195.636 234.527C196.985 234.814 198.176 235.662 199.198 236.555C200.102 237.345 200.939 238.426 202.182 238.672C203.494 238.928 204.993 238.214 206.226 237.848C207.732 237.4 209.238 236.955 210.743 236.507C211.375 236.319 211.105 235.331 210.47 235.519C208.964 235.967 207.458 236.411 205.952 236.859C204.658 237.242 202.893 238.166 201.629 237.342C200.533 236.627 199.689 235.55 198.607 234.797C197.524 234.045 196.387 233.518 195.12 233.422C193.853 233.327 192.747 233.805 191.712 234.455C190.677 235.105 189.619 235.919 188.324 236.004C186.033 236.151 184.018 234.349 182.263 233.125C180.299 231.757 178.301 230.837 175.884 230.686C173.363 230.526 170.857 231.035 168.364 231.323C165.871 231.61 163.286 231.706 160.96 230.632C159.704 230.05 158.566 229.243 157.313 228.658C156.254 228.163 155.151 227.868 153.98 227.8C151.562 227.66 149.192 228.354 146.826 228.72C145.644 228.901 144.411 229.018 143.223 228.819C141.946 228.607 140.938 227.988 139.921 227.212C139.006 226.514 138.07 225.926 136.94 225.652C135.949 225.41 134.918 225.379 133.904 225.454C131.725 225.618 129.614 226.241 127.443 226.47C125.271 226.699 123.191 226.388 121.572 224.743C120.715 223.874 119.995 222.872 119.011 222.137C118.027 221.401 116.853 221.035 115.634 220.95C112.861 220.752 110.31 221.966 107.728 222.759C105.228 223.525 102.869 223.57 100.495 222.421C96.7489 220.608 93.7233 217.034 89.4443 216.422C86.8182 216.046 84.4653 217.236 81.9212 217.609C79.1926 218.009 76.9558 216.658 75.1152 214.76C74.2717 213.891 73.517 212.941 72.7793 211.983C72.3764 211.46 71.6558 212.192 72.0554 212.708Z" fill="#826931"/>
<path d="M73.2099 221.505C74.0841 221.419 74.9549 221.477 75.6004 222.134C76.0682 222.609 76.3619 223.235 76.7649 223.762C77.9704 225.331 80.0091 225.369 81.7234 224.624C82.9938 224.069 84.1275 223.105 85.5242 222.876C86.7536 222.674 87.9318 223.112 88.9699 223.734C91.1828 225.061 92.9176 227.103 95.2842 228.187C97.9683 229.418 100.98 229.281 103.811 228.714C105.362 228.403 106.864 227.941 108.381 227.506C109.2 227.271 110.085 227.062 110.911 227.383C111.529 227.623 112.004 228.105 112.417 228.604C113.213 229.562 113.821 230.67 114.78 231.487C115.74 232.305 117.007 232.924 118.304 233.146C119.674 233.382 120.989 233.204 122.29 232.742C123.686 232.25 125.22 231.395 126.746 231.757C128.037 232.065 128.98 233.163 130.004 233.933C131.029 234.702 132.108 235.106 133.354 235.181C135.943 235.338 138.395 234.155 140.973 234.172C142.482 234.182 143.565 234.835 144.798 235.629C145.839 236.299 146.929 236.706 148.168 236.778C150.548 236.918 152.853 236.015 155.155 235.55C156.292 235.318 157.505 235.164 158.649 235.43C160.004 235.748 160.848 236.716 161.907 237.541C164.085 239.233 166.677 238.553 169.095 237.838C170.41 237.448 171.759 237.031 173.145 237.065C174.532 237.099 175.696 237.657 176.813 238.337C179.015 239.675 181.006 241.497 183.639 241.904C186.491 242.346 189.267 241.361 192.095 241.179C193.532 241.087 194.963 241.234 196.258 241.911C197.419 242.52 198.416 243.382 199.485 244.127C200.461 244.808 201.523 245.403 202.715 245.577C204.006 245.765 205.27 245.41 206.472 244.965C207.674 244.521 208.958 243.884 210.286 243.874C211.615 243.864 212.588 244.719 213.728 245.177C214.705 245.57 215.678 245.598 216.324 244.664C216.699 244.12 215.812 243.607 215.439 244.148C214.811 245.058 212.841 243.58 212.151 243.265C211.027 242.756 209.863 242.773 208.688 243.091C207.424 243.433 206.25 244.032 204.99 244.377C203.665 244.739 202.422 244.64 201.202 243.99C198.88 242.752 197.152 240.67 194.434 240.242C191.716 239.815 188.967 240.738 186.235 240.954C184.797 241.066 183.369 240.954 182.034 240.372C180.877 239.866 179.835 239.121 178.797 238.409C176.683 236.963 174.545 235.776 171.902 236.121C170.567 236.296 169.293 236.73 168.002 237.096C166.783 237.441 165.458 237.794 164.188 237.523C162.767 237.219 161.927 236.07 160.793 235.277C159.875 234.634 158.782 234.326 157.672 234.281C155.305 234.182 153.021 235.099 150.733 235.543C149.596 235.762 148.39 235.892 147.25 235.625C145.839 235.297 144.825 234.251 143.531 233.669C141.253 232.65 138.733 233.385 136.417 233.85C135.161 234.104 133.822 234.333 132.552 234.045C131.196 233.738 130.25 232.787 129.195 231.952C128.221 231.183 127.149 230.612 125.875 230.656C124.438 230.708 123.143 231.385 121.805 231.836C118.885 232.818 116.047 231.788 114.244 229.336C113.568 228.416 112.926 227.407 111.953 226.771C110.723 225.968 109.326 226.169 107.988 226.556C104.989 227.424 101.902 228.372 98.7435 228.061C95.8135 227.773 93.7577 226.067 91.5414 224.312C89.769 222.91 87.7405 221.484 85.3569 221.87C83.1133 222.233 80.856 224.945 78.4655 223.881C77.2225 223.327 76.9083 221.679 75.7711 220.944C75.0164 220.455 74.0944 220.39 73.2202 220.475C72.5713 220.537 72.5645 221.566 73.2202 221.501L73.2099 221.505Z" fill="#826931"/>
<path d="M103.562 243.207L98.9893 256.042L106.318 273.134C106.318 273.134 146.881 266.5 148.192 265.935C149.5 265.371 159.97 255.436 164.085 255.997C168.2 256.555 171.188 254.496 173.387 255.101C175.59 255.706 186.928 248.501 188.973 248.398C191.015 248.295 245.624 231.025 245.624 231.025C245.624 231.025 246.088 221.258 246.925 219.596C247.762 217.933 239.245 203.491 239.245 203.491L103.565 243.203L103.562 243.207Z" fill="#E5D8B5"/>
<path opacity="0.79" d="M99.6587 257.601C101.479 257.447 121.316 254.154 121.316 254.154L157.341 243.125C157.341 243.125 193.806 230.129 194.789 230.348C195.773 230.567 236.831 215.502 236.831 215.502L245.624 231.022L203.63 244.133L181.143 252.601L172.834 255.443L163.689 257.601C163.689 257.601 149.531 266.366 147.485 265.853C145.44 265.34 106.318 273.131 106.318 273.131L99.6587 257.598V257.601Z" fill="url(#paint2_linear_223_4780)"/>
<path d="M100.7 261.852C103.255 263.097 106.096 264.424 109.016 264.069C111.672 263.744 113.431 261.893 115.374 260.252C116.371 259.411 117.451 258.71 118.721 258.364C119.858 258.056 121.046 258.019 122.218 258.087C124.769 258.238 127.262 258.891 129.816 258.99C132.299 259.086 134.594 258.508 136.581 256.976C138.76 255.293 140.365 252.944 142.728 251.494C143.91 250.769 145.286 250.273 146.689 250.478C148.093 250.683 149.336 251.449 150.685 251.839C152.635 252.4 154.554 251.952 156.292 250.984C159.663 249.113 162.777 245.013 167.032 245.625C168.32 245.81 169.525 246.155 170.837 245.981C171.841 245.847 172.79 245.492 173.681 245.023C175.669 243.977 177.332 242.424 179.193 241.182C180.071 240.598 180.999 240.061 182.01 239.736C183.421 239.278 184.875 239.356 186.337 239.449C187.72 239.538 189.089 239.575 190.449 239.264C191.48 239.028 192.474 238.628 193.416 238.152C197.384 236.159 200.905 232.239 205.584 232.062C208.135 231.966 210.611 232.903 213.158 232.773C214.268 232.718 215.364 232.431 216.269 231.764C217.263 231.032 217.843 229.965 218.472 228.932C219.155 227.811 219.964 226.904 221.282 226.579C222.522 226.275 223.85 226.467 225.073 226.768C226.295 227.069 227.665 227.77 228.969 227.39C230.274 227.01 231.23 225.759 232.155 224.897C233.327 223.809 234.498 222.725 235.669 221.638C236.154 221.186 235.427 220.465 234.945 220.913C233.743 222.028 232.541 223.146 231.339 224.261C230.298 225.225 229.212 226.713 227.631 226.419C226.357 226.179 225.168 225.67 223.874 225.499C222.71 225.345 221.491 225.359 220.384 225.793C219.278 226.227 218.492 227.021 217.857 227.995C217.174 229.038 216.658 230.256 215.603 230.991C213.537 232.431 210.638 231.559 208.363 231.237C206.089 230.916 203.938 231.022 201.779 231.938C199.696 232.824 197.856 234.172 195.977 235.42C194.109 236.661 192.142 237.886 189.912 238.33C187.201 238.871 184.418 237.875 181.737 238.744C179.661 239.414 177.933 240.799 176.215 242.096C174.555 243.347 172.735 244.743 170.604 244.985C169.228 245.143 167.92 244.643 166.561 244.548C165.608 244.479 164.645 244.643 163.751 244.968C161.879 245.649 160.295 246.901 158.72 248.087C157.146 249.274 155.565 250.512 153.652 250.943C151.119 251.517 149.097 249.736 146.672 249.448C144.053 249.137 141.68 250.731 139.856 252.444C137.944 254.243 136.243 256.524 133.695 257.458C128.997 259.178 123.994 256.357 119.189 257.215C116.703 257.66 114.975 259.264 113.134 260.861C112.185 261.685 111.164 262.468 109.944 262.837C108.442 263.292 106.857 263.104 105.372 262.677C103.886 262.249 102.565 261.627 101.216 260.97C100.625 260.683 100.106 261.565 100.7 261.856V261.852Z" fill="#826931"/>
<path d="M105.751 269.253C106.553 268.754 107.393 268.459 108.309 268.836C108.988 269.116 109.562 269.598 110.248 269.868C112.297 270.679 114.179 269.126 115.302 267.54C116.122 266.387 116.832 265.118 118.215 264.568C119.547 264.038 121.057 264.236 122.423 264.499C125.288 265.05 128.04 265.908 130.95 265.077C133.764 264.273 136.154 262.427 138.306 260.508C139.412 259.523 140.645 257.861 142.24 257.796C143.742 257.735 145.088 258.863 146.413 259.421C148.936 260.484 151.918 259.999 153.997 258.224C154.977 257.386 155.725 256.302 156.729 255.488C158.075 254.397 159.492 254.581 161.08 254.964C162.391 255.283 163.675 255.484 164.99 255.088C166.052 254.766 167.005 254.168 167.893 253.514C169.675 252.201 171.458 250.313 173.76 250.012C175.238 249.818 176.697 250.385 178.185 250.136C179.234 249.958 180.217 249.493 181.105 248.915C182.956 247.711 184.455 246.045 186.299 244.835C187.153 244.274 188.102 243.805 189.13 243.716C190.585 243.593 191.9 244.37 193.341 244.39C195.718 244.428 197.511 242.632 199.136 241.131C200.014 240.32 200.912 239.506 201.981 238.956C203.34 238.258 204.87 238.241 206.355 238.388C207.841 238.535 209.415 238.874 210.966 238.901C212.342 238.925 213.65 238.648 214.903 238.077C217.259 237 219.124 235.122 221.395 233.901C222.583 233.262 223.843 232.889 225.203 232.937C226.76 232.992 228.269 233.457 229.82 233.593C231.203 233.717 232.586 233.508 233.76 232.728C234.751 232.072 235.536 231.165 236.339 230.3C237.093 229.49 237.92 228.59 239.009 228.252C240.099 227.913 241.239 228.207 242.329 228.087C243.237 227.985 244.108 227.588 244.244 226.589C244.333 225.943 243.346 225.666 243.257 226.316C243.111 227.379 241.43 227.102 240.659 227.085C239.556 227.065 238.555 227.181 237.606 227.79C235.632 229.052 234.512 231.569 232.227 232.352C230.707 232.872 229.068 232.475 227.542 232.202C226.138 231.952 224.728 231.767 223.317 232.068C220.811 232.609 218.817 234.377 216.757 235.792C215.709 236.514 214.603 237.195 213.377 237.564C211.915 238.002 210.385 237.889 208.893 237.691C206.065 237.318 203.248 236.829 200.721 238.501C198.778 239.787 197.36 241.815 195.27 242.882C193.966 243.549 192.757 243.327 191.394 242.961C190.247 242.653 189.12 242.554 187.966 242.889C183.854 244.082 181.433 249.404 176.847 249.175C175.412 249.103 174.074 248.761 172.66 249.199C171.591 249.53 170.635 250.132 169.74 250.792C167.958 252.109 166.141 254.045 163.815 254.274C162.313 254.421 160.885 253.72 159.403 253.6C158.082 253.49 156.934 253.973 155.937 254.814C154.94 255.655 154.165 256.784 153.13 257.612C151.972 258.538 150.476 258.993 149.005 258.949C147.434 258.901 146.198 258.142 144.828 257.471C143.629 256.886 142.328 256.49 141.031 257.02C139.733 257.55 138.657 258.815 137.585 259.769C136.434 260.792 135.239 261.77 133.928 262.584C132.616 263.398 131.305 263.993 129.843 264.277C128.382 264.561 126.862 264.38 125.387 264.075C122.853 263.552 119.954 262.557 117.468 263.771C114.981 264.985 114.558 268.312 111.922 268.99C110.429 269.373 109.323 267.871 107.919 267.649C106.956 267.495 106.048 267.851 105.239 268.353C104.679 268.702 105.194 269.588 105.754 269.239L105.751 269.253Z" fill="#826931"/>
<path d="M48.4341 223.269V195.988L126.073 264.64L314.118 216.85V243.908L123.939 300.306L48.4341 223.269Z" fill="#AF5656"/>
<path d="M40.6006 205.435V234.203L123.225 315.997C123.225 315.997 317.034 261.784 317 260.714C316.966 259.644 316.966 231.826 316.966 231.826L123.225 284.612L40.6006 205.435Z" fill="#D3BC71"/>
<path d="M183.335 4.76712C183.335 4.76712 203.238 160.318 204.238 159.843C205.239 159.368 222.946 155.503 222.946 155.503L198.016 2.14062L183.339 4.76712H183.335Z" fill="#4F3C23"/>
<path d="M123.201 287.742L123.225 313.918L315.583 260.717V233.04L123.201 287.742Z" fill="#E5D098"/>
<path d="M124.987 267.095L123.963 281.801L312.468 231.186V217.849L124.987 267.095Z" fill="#CE7676"/>
<path d="M108.814 244.322L236.786 205.438L236.011 212.349C236.011 212.349 113.52 250.724 111.911 249.336C110.303 247.947 108.814 244.322 108.814 244.322Z" fill="#EFE5CE"/>
<path d="M84.3187 197.452L79.1929 203.495C79.1929 203.495 172.141 220.294 172.64 220.27C173.138 220.246 184.899 217.852 184.899 217.852L84.3187 197.456V197.452Z" fill="#EFE5CE"/>
<path d="M137.855 183.431L131.134 187.411L212.584 208.858L222.498 207.086L137.855 183.431Z" fill="#EFE5CE"/>
<path d="M245.621 214.247C245.621 214.247 248.376 221.289 249.176 221.278C249.975 221.268 271.885 225.529 271.175 225.28C270.464 225.03 271.175 221.278 271.175 221.278L245.621 214.247Z" fill="#EFE5CE"/>
<path d="M187.139 179.888L176.816 182.654L189.188 192.199L220.264 202.459L187.139 179.888Z" fill="#EFE5CE"/>
<path d="M213.093 171.68C212.41 171.68 200.458 174.074 200.116 174.758C199.775 175.442 234.17 196.146 234.17 196.146C234.17 196.146 240.071 198.013 238.705 199.039C237.339 200.065 235.307 200.226 235.307 200.226L245.621 202.459L247.915 208.786L272.708 216.778L276.765 219.281L275.799 223.372L287.802 220.954L213.097 171.68H213.093Z" fill="#EFE5CE"/>
<path opacity="0.2" d="M117.229 137.618C154.547 130.941 182.003 109.852 178.553 90.5149C175.103 71.1779 142.054 60.9152 104.736 67.5924C67.4174 74.2697 39.9617 95.3583 43.4116 114.695C46.8615 134.032 79.9105 144.295 117.229 137.618Z" fill="#EFE5CE"/>
<defs>
<linearGradient id="paint0_linear_223_4780" x1="123.201" y1="219.281" x2="264.252" y2="219.281" gradientUnits="userSpaceOnUse">
<stop offset="0.03" stop-color="#C9A667"/>
<stop offset="0.4" stop-color="#B68F53"/>
<stop offset="0.76" stop-color="#A87D43"/>
</linearGradient>
<linearGradient id="paint1_linear_223_4780" x1="73.1987" y1="236.364" x2="213.471" y2="221.568" gradientUnits="userSpaceOnUse">
<stop offset="0.03" stop-color="#C9A667"/>
<stop offset="0.4" stop-color="#B68F53"/>
<stop offset="0.76" stop-color="#A87D43"/>
</linearGradient>
<linearGradient id="paint2_linear_223_4780" x1="112.304" y1="282.58" x2="231.56" y2="207.153" gradientUnits="userSpaceOnUse">
<stop offset="0.03" stop-color="#C9A667"/>
<stop offset="0.4" stop-color="#B68F53"/>
<stop offset="0.76" stop-color="#A87D43"/>
</linearGradient>
</defs>
</svg>
