<svg width="407" height="409" viewBox="0 0 407 409" fill="none" xmlns="http://www.w3.org/2000/svg">
<g opacity="0.5">
<mask id="mask0_223_4620" style="mask-type:luminance" maskUnits="userSpaceOnUse" x="0" y="0" width="195" height="406">
<path d="M194.65 0H0V405.364H194.65V0Z" fill="white"/>
</mask>
<g mask="url(#mask0_223_4620)">
<mask id="mask1_223_4620" style="mask-type:luminance" maskUnits="userSpaceOnUse" x="36" y="21" width="316" height="369">
<path d="M194.395 389.005C281.361 389.005 351.861 306.806 351.861 205.409C351.861 104.012 281.361 21.8135 194.395 21.8135C107.429 21.8135 36.9287 104.012 36.9287 205.409C36.9287 306.806 107.429 389.005 194.395 389.005Z" fill="white"/>
</mask>
<g mask="url(#mask1_223_4620)">
<path d="M38.7659 232.366C38.7659 232.366 43.2956 165.599 42.2405 154.311C41.2035 143.004 42.386 62.6041 42.4042 60.2047C42.4224 57.8052 107.312 21.3042 121.574 17.6505C135.836 13.9967 245.459 19.3955 272.6 24.0854C299.742 28.7753 314.186 27.0484 330.013 32.9562C345.84 38.8639 348.277 148.93 348.277 148.93V237.056C348.277 237.056 197.778 239.983 193.503 240.019C189.228 240.056 38.7295 232.403 38.7295 232.403L38.7659 232.366Z" fill="url(#paint0_linear_223_4620)"/>
<path d="M201.708 234.802C214.728 234.802 225.284 224.255 225.284 211.244C225.284 198.233 214.728 187.686 201.708 187.686C188.687 187.686 178.131 198.233 178.131 211.244C178.131 224.255 188.687 234.802 201.708 234.802Z" fill="#DBC567"/>
<path d="M34.6728 188.758C50.0811 189.776 90.9575 205.772 103.31 208.208C115.662 210.644 134.799 213.08 144.368 213.425C153.937 213.77 171.201 215.334 175.967 216.988C180.733 218.642 235.198 215.334 245.804 216.988C256.41 218.642 287.736 218.987 293.994 220.896C300.252 222.805 314.878 213.08 317.661 214.988C320.444 216.897 317.843 216.024 320.444 216.897C323.046 217.77 341.837 205.772 342.547 208.208C343.256 210.644 362.212 200.392 362.212 200.392C362.212 200.392 360.229 224.404 355.736 228.84C351.243 233.275 301.489 233.893 294.012 235.493C286.535 237.093 183.134 236.002 146.26 236.547C109.404 237.093 35.5096 236.693 32.3443 235.493C29.179 234.293 26.3957 215.879 27.6145 214.661C28.8333 213.443 34.6546 188.794 34.6546 188.794L34.6728 188.758Z" fill="#115B1E"/>
<path d="M17.5361 220.896C17.5361 220.896 37.0193 327.291 37.8925 332.872C38.7657 338.452 -18.8288 375.299 69.564 383.297C157.957 391.295 310.202 405.383 310.202 405.383C310.202 405.383 361.539 332.017 358.392 327.327C355.244 322.638 358.537 228.786 358.537 228.786C358.537 228.786 114.643 234.312 112.205 234.312C109.767 234.312 17.5543 220.933 17.5543 220.933L17.5361 220.896Z" fill="url(#paint1_linear_223_4620)"/>
<path d="M35.1457 226.114L336.562 225.096L312.185 248.418C312.185 248.418 293.502 304.133 272.109 303.515C250.716 302.897 223.92 319.311 200.271 313.222C176.622 307.132 158.721 305.914 151.863 302.224C145.005 298.534 143.149 279.465 121.174 280.32C99.2164 281.192 96.797 283.592 92.7221 281.101C88.6471 278.611 94.2138 253.253 81.2432 248.672C68.2726 244.091 34.5454 243.728 34.6546 242.019C34.7637 240.31 35.1275 226.077 35.1275 226.077L35.1457 226.114Z" fill="#1281CC"/>
<path opacity="0.53" d="M34.6729 242.055L81.2615 244.727L91.4851 254.798C91.4851 254.798 80.17 262.978 81.3888 265.395C82.6076 267.813 91.4851 288.481 91.4851 288.481L114.461 275.484L137.073 277.92C137.073 277.92 134.817 289.39 137.073 295.479C139.329 301.569 135.327 307.477 145.951 305.041C156.556 302.605 153.609 299.133 162.487 299.133C171.364 299.133 177.804 305.041 184.935 312.167C192.066 319.292 179.023 322.074 200.944 323.291C222.865 324.509 231.16 320.51 235.271 313.112C239.383 305.714 218.517 295.116 250.006 300.333C281.496 305.55 272.619 309.022 281.496 305.55C290.374 302.078 289.118 313.73 295.049 295.461C300.979 277.193 301.907 280.992 304.399 267.631C306.892 254.252 311.603 246.309 315.169 242.037C318.734 237.765 332.996 233.039 336.562 233.475C340.127 233.911 341.801 221.932 343.584 220.878C345.367 219.824 348.859 220.26 350.679 228.912C352.498 237.565 334.925 256.506 330.049 258.251C325.174 259.996 312.167 256.343 308.674 269.812C305.163 283.282 304.472 287.281 302.744 300.842C300.997 314.403 311.658 327.872 296.85 323.491C282.042 319.111 285.535 321.128 264.305 314.548C243.075 307.968 256.119 312.167 243.075 319.801C230.032 327.436 225.684 329.872 214.533 331.617C203.4 333.362 198.524 335.616 187.919 332.144C177.313 328.672 170.873 334.743 167.908 325.182C164.943 315.62 177.822 307.277 162.523 308.495C147.206 309.713 140.475 319.383 134.108 314.548C127.741 309.713 127.723 310.403 124.066 301.533C120.41 292.662 116.244 283.791 105.62 290.226C94.9961 296.661 97.6157 305.695 86.8281 300.315C76.0405 294.934 67.8543 270.758 67.8543 266.577C67.8543 262.396 76.7318 259.615 70.8195 255.979C64.9072 252.344 53.0463 248.853 48.2801 248.508C43.514 248.163 34.7274 242.019 34.7274 242.019L34.6729 242.055Z" fill="#006AA5"/>
<path d="M94.0864 236.365C96.5241 235.838 128.705 230.112 132.543 230.276C136.382 230.439 164.524 236.365 164.524 236.365C164.524 236.365 128.159 236.02 126.358 236.365C124.557 236.711 94.0864 236.365 94.0864 236.365Z" fill="#409DE2"/>
<path d="M133.071 253.053C134.29 252.707 158.648 252.871 170.036 253.053C181.424 253.235 201.617 253.053 201.617 253.053C201.617 253.053 168.69 256.361 161.231 255.925C153.773 255.489 133.071 253.053 133.071 253.053Z" fill="#409DE2"/>
<path opacity="0.65" d="M148.897 83.7264C160.031 76.9461 167.689 68.2571 183.352 63.5672C199.015 58.8774 174.129 39.409 234.161 56.7869C294.194 74.1649 308.274 68.2571 306.364 75.3828C304.454 82.5085 275.402 100.25 236.071 100.25C196.741 100.25 156.21 93.9968 149.425 94.3422C142.64 94.6876 148.897 83.7446 148.897 83.7446V83.7264Z" fill="#A4DCFF"/>
<path opacity="0.65" d="M1.18213 155.693C25.3587 151.694 57.9034 139.878 83.6627 139.878C109.422 139.878 98.7981 129.444 122.465 142.132C146.133 154.82 172.583 146.658 174.148 149.785C175.712 152.912 114.989 187.158 94.8141 181.251C74.6397 175.343 41.0581 181.596 23.3031 176.906C5.54811 172.216 1.20032 155.693 1.20032 155.693H1.18213Z" fill="#A4DCFF"/>
<path d="M84.2992 261.16C82.6983 266.195 81.8615 272.575 83.7535 277.647C85.4635 282.246 90.1751 284.391 94.8503 284.409C100.271 284.427 105.147 281.919 110.058 279.974C115.461 277.847 121.101 276.847 126.904 277.338C131.343 277.702 136.6 278.629 137.582 283.682C138.328 287.572 137.419 291.644 137.855 295.57C138.328 299.769 140.347 303.569 144.495 305.114C149.734 307.077 154.792 304.677 159.667 302.932C164.542 301.187 170.018 301.351 174.602 304.296C178.877 307.041 181.188 311.839 184.48 315.548C191.32 323.255 201.762 324.291 211.458 324.564C221.154 324.837 231.469 323.8 234.907 313.621C235.708 311.276 235.944 308.677 235.944 306.204C235.944 305.041 235.708 303.841 235.78 302.696C235.871 301.151 237.781 301.187 239.146 301.06C245.149 300.46 251.407 302.423 257.246 303.587C264.068 304.968 270.872 306.332 277.694 307.713C280.495 308.277 284.206 309.676 287.081 309.022C290.191 308.295 291.21 305.277 292.338 302.678C297.85 289.899 302.58 276.829 306.491 263.487C307.492 260.069 302.416 258.779 301.234 262.032C297.977 270.994 294.048 280.047 288.827 288.063C286.753 291.262 284.024 294.68 280.277 295.934C276.002 297.352 271.163 295.134 267.106 293.825C258.12 290.899 249.024 286.118 239.455 285.609C235.198 285.391 230.76 286.154 227.03 288.263C223.301 290.372 221.027 293.589 218.644 296.843C216.079 300.369 213.223 303.405 209.039 305.005C205.237 306.459 201.125 306.604 197.251 305.459C193.085 304.223 189.41 301.787 185.754 299.533C181.879 297.17 177.913 295.061 173.62 293.571C169.327 292.08 164.56 291.171 159.885 290.917C157.648 290.79 155.428 290.917 153.191 290.99C151.117 291.044 149.571 290.771 148.879 288.626C147.551 284.5 149.898 279.956 149.025 275.684C148.297 272.121 145.787 269.267 142.749 267.413C138.91 265.068 134.435 264.232 130.015 263.777C124.575 263.232 119.081 263.487 113.697 264.432C108.312 265.377 102.564 267.831 97.0151 266.777C93.2131 266.068 88.9744 262.487 90.4298 258.288C91.5758 254.961 86.3185 253.543 85.1724 256.833C83.7898 260.833 85.2815 264.977 88.1376 267.922C91.2666 271.139 95.5598 272.503 99.9803 272.412C105.147 272.321 110.095 270.558 115.134 269.667C120.61 268.704 126.376 268.613 131.87 269.431C135.381 269.958 139.438 270.994 141.966 273.666C145.314 277.211 143.058 281.992 143.094 286.245C143.113 290.281 144.823 294.534 148.916 295.934C151.026 296.661 153.263 296.388 155.446 296.316C158.011 296.225 160.576 296.316 163.123 296.661C168.071 297.315 172.983 298.806 177.44 301.06C181.897 303.314 185.517 306.004 189.719 308.186C197.76 312.348 207.001 313.039 214.933 308.131C218.899 305.677 221.482 302.096 224.192 298.424C226.903 294.752 230.105 292.044 234.78 291.262C239.455 290.481 244.349 291.626 248.86 293.116C253.954 294.807 258.92 296.825 263.996 298.533C269.071 300.242 274.892 302.678 280.459 301.514C285.08 300.551 288.736 297.243 291.538 293.607C294.721 289.481 297.122 284.736 299.415 280.065C302.07 274.666 304.417 269.122 306.473 263.468L301.215 262.014C297.941 273.175 294.103 284.173 289.7 294.934C288.663 297.461 287.826 300.624 286.298 302.896C285.462 304.168 284.479 303.532 283.06 303.241C281.641 302.951 280.168 302.66 278.713 302.369C272.909 301.205 267.106 300.024 261.321 298.861C255.536 297.697 249.988 296.279 244.239 295.698C240.019 295.261 232.288 295.08 230.614 300.115C229.905 302.242 230.523 304.732 230.487 306.931C230.432 309.258 230.105 311.676 228.94 313.748C226.794 317.638 222.209 318.765 218.098 319.056C213.569 319.383 208.911 319.147 204.4 318.711C199.888 318.274 195.195 317.22 191.429 314.548C187.664 311.876 185.262 307.295 182.17 303.75C179.077 300.206 174.802 297.588 170.109 296.679C164.961 295.679 160.413 296.788 155.628 298.642C152.19 299.969 146.023 302.242 143.913 297.661C142.439 294.443 143.313 290.281 143.276 286.863C143.24 283.028 142.567 278.938 139.656 276.156C135.8 272.466 129.523 271.794 124.43 271.721C118.136 271.63 112.223 273.157 106.475 275.557C102.054 277.411 96.2147 280.374 91.3939 278.283C88.8107 277.156 88.3923 274.63 88.265 272.048C88.1012 268.794 88.5742 265.668 89.5566 262.56C90.6117 259.197 85.3543 257.779 84.2992 261.105V261.16Z" fill="#5AB7DB"/>
<path opacity="0.88" d="M5.78443 139.678C10.4051 133.97 25.9407 86.7442 28.6148 86.7078C31.289 86.6715 55.0472 98.5415 55.0472 98.5415C55.0472 98.5415 57.9033 76.2556 66.7808 72.6019C75.6582 68.9481 103.328 77.9825 106.966 83.1995C110.604 88.4165 106.966 136.969 106.966 136.969L126.467 155.947C126.467 155.947 109.931 197.447 104.619 195.956C99.3073 194.466 98.0339 224.732 93.3586 229.676C88.6834 234.62 101.072 243.346 101.054 248.381C101.035 253.416 79.9151 279.829 74.2029 277.92C68.4908 276.011 39.3115 248.381 39.3115 248.381L10.8963 224.314L17.9364 174.87L5.74805 139.66L5.78443 139.678Z" fill="url(#paint2_linear_223_4620)"/>
<path d="M26.9233 271.848C37.3653 269.412 63.3611 248.872 63.3247 241.4C63.2883 233.929 60.3958 232.221 63.3247 211.516C66.2535 190.812 69.4007 157.128 75.8223 151.184C82.2439 145.24 91.1214 125.608 92.3402 120.391C93.5591 115.174 97.7249 108.212 97.7249 108.212L92.3402 136.206C92.3402 136.206 76.5318 164.327 75.8223 166.872C75.1128 169.416 74.7854 190.957 75.8223 200.264C76.8592 209.571 72.2385 226.858 72.2022 233.075C72.1658 239.292 80.0245 261.905 75.8223 265.722C71.62 269.54 43.8415 285.336 42.6045 288.299C41.3674 291.262 43.2048 303.441 43.2048 303.441L26.9233 271.812V271.848Z" fill="#634C15"/>
<path d="M15.4987 241.383C15.4987 241.383 36.4917 230.967 38.4018 225.059C40.312 219.151 39.4388 203.827 38.4018 189.921C37.3649 176.015 41.9674 139.496 44.969 136.206C47.9706 132.916 51.4452 121.609 51.4452 121.609C51.4452 121.609 43.6228 155.856 44.3141 162.982C45.0054 170.108 51.4452 210.335 51.4452 213.862C51.4452 217.388 48.6073 239.129 44.3687 242.782C40.13 246.436 26.9048 263.941 26.9048 263.941L15.4805 241.365L15.4987 241.383Z" fill="#634C15"/>
</g>
</g>
<mask id="mask2_223_4620" style="mask-type:luminance" maskUnits="userSpaceOnUse" x="194" y="3" width="196" height="406">
<path d="M389.3 3.63574H194.65V409H389.3V3.63574Z" fill="white"/>
</mask>
<g mask="url(#mask2_223_4620)">
<mask id="mask3_223_4620" style="mask-type:luminance" maskUnits="userSpaceOnUse" x="36" y="21" width="316" height="369">
<path d="M194.395 389.005C281.362 389.005 351.862 306.806 351.862 205.409C351.862 104.012 281.362 21.8135 194.395 21.8135C107.429 21.8135 36.9292 104.012 36.9292 205.409C36.9292 306.806 107.429 389.005 194.395 389.005Z" fill="white"/>
</mask>
<g mask="url(#mask3_223_4620)">
<path d="M38.7668 232.366C38.7668 232.366 43.2966 165.599 42.2414 154.311C41.2045 143.004 42.387 62.6041 42.4052 60.2047C42.4234 57.8052 107.313 21.3042 121.575 17.6505C135.837 13.9967 245.459 19.3955 272.601 24.0854C299.743 28.7753 314.187 27.0484 330.014 32.9562C345.841 38.8639 348.278 148.93 348.278 148.93V237.056C348.278 237.056 197.779 239.983 193.504 240.019C189.229 240.056 38.7305 232.403 38.7305 232.403L38.7668 232.366Z" fill="url(#paint3_linear_223_4620)"/>
<path d="M201.709 234.802C214.729 234.802 225.285 224.255 225.285 211.244C225.285 198.233 214.729 187.686 201.709 187.686C188.688 187.686 178.132 198.233 178.132 211.244C178.132 224.255 188.688 234.802 201.709 234.802Z" fill="#E87446"/>
<path d="M34.6733 188.758C50.0816 189.776 90.958 205.772 103.31 208.208C115.662 210.644 134.8 213.08 144.368 213.425C153.937 213.77 171.201 215.334 175.967 216.988C180.733 218.642 235.199 215.334 245.805 216.988C256.41 218.642 287.736 218.987 293.994 220.896C300.252 222.805 314.878 213.08 317.661 214.988C320.445 216.897 317.843 216.024 320.445 216.897C323.046 217.77 341.838 205.772 342.547 208.208C343.257 210.644 362.213 200.392 362.213 200.392C362.213 200.392 360.23 224.404 355.736 228.84C351.243 233.275 301.489 233.893 294.012 235.493C286.536 237.093 183.135 236.002 146.26 236.547C109.404 237.093 35.5101 236.693 32.3448 235.493C29.1795 234.293 26.3961 215.879 27.615 214.661C28.8338 213.443 34.6551 188.794 34.6551 188.794L34.6733 188.758Z" fill="#E5E5E5"/>
<path d="M17.5371 220.896C17.5371 220.896 37.0203 327.291 37.8935 332.872C38.7667 338.452 -18.8278 375.299 69.565 383.297C157.958 391.295 310.203 405.383 310.203 405.383C310.203 405.383 361.54 332.017 358.393 327.327C355.245 322.638 358.538 228.786 358.538 228.786C358.538 228.786 114.644 234.312 112.206 234.312C109.768 234.312 17.5553 220.933 17.5553 220.933L17.5371 220.896Z" fill="url(#paint4_linear_223_4620)"/>
<path d="M35.1467 226.114L336.563 225.096L312.186 248.418C312.186 248.418 293.503 304.133 272.11 303.515C250.717 302.897 223.921 319.311 200.272 313.222C176.623 307.132 158.722 305.914 151.864 302.224C145.006 298.534 143.15 279.465 121.175 280.32C99.2174 281.192 96.7979 283.592 92.723 281.101C88.6481 278.611 94.2147 253.253 81.2441 248.672C68.2736 244.091 34.5464 243.728 34.6555 242.019C34.7647 240.31 35.1285 226.077 35.1285 226.077L35.1467 226.114Z" fill="url(#paint5_linear_223_4620)"/>
<path opacity="0.32" d="M148.898 83.7264C160.032 76.9461 167.69 68.2571 183.353 63.5672C199.016 58.8774 174.13 39.409 234.162 56.7869C294.194 74.1649 308.275 68.2571 306.365 75.3828C304.455 82.5085 275.403 100.25 236.072 100.25C196.742 100.25 156.211 93.9968 149.426 94.3422C142.641 94.6876 148.898 83.7446 148.898 83.7446V83.7264Z" fill="#CFEFFF"/>
<path opacity="0.32" d="M269.581 136.643C280.187 136.115 283.498 131.607 322.482 128.99C361.467 126.372 348.06 140.115 348.06 140.115C348.06 140.115 310.13 152.294 295.159 150.367C280.187 148.458 254.773 139.606 254.773 139.606L269.581 136.624V136.643Z" fill="#CFEFFF"/>
<path d="M362.831 278.775C358.211 277.048 339.619 249.29 337.09 240.492C334.562 231.694 334.998 195.72 334.434 190.576C333.87 185.432 317.516 157.656 315.952 147.549C314.387 137.443 309.584 126.663 309.584 126.663C309.584 126.663 312.295 161.364 315.952 169.581C319.608 177.797 330.559 204.991 328.467 211.208C326.393 217.425 327.412 242.092 328.467 248.109C329.522 254.126 341.547 275.121 341.529 278.793C341.511 282.465 342.22 298.461 343.948 298.988C345.677 299.516 358.483 306.659 358.483 306.659L362.831 278.793V278.775Z" fill="#5E564D"/>
<path d="M372.709 252.853C371.6 251.145 355.173 218.715 355.136 211.208C355.1 203.701 357.628 168.363 355.136 161.165C352.644 153.966 343.293 126.663 343.293 126.663C343.293 126.663 348.824 184.977 349.861 187.195C350.898 189.413 347.587 210.117 350.988 219.333C354.39 228.55 362.831 264.651 362.831 264.651L372.709 252.853Z" fill="#5E564D"/>
<path d="M319.463 172.216C319.463 172.216 314.988 170.871 311.204 169.053C307.42 167.235 294.959 161.454 295.741 158.891C296.523 156.328 292.885 150.875 292.885 150.875C292.885 150.875 293.321 156.001 294.013 158.891C294.704 161.782 298.106 168.998 300.944 169.943C303.782 170.889 318.68 176.088 318.68 176.088L319.463 172.216Z" fill="#5E564D"/>
<path d="M352.462 177.796C352.462 177.796 342.766 173.27 343.293 171.162C343.821 169.053 340.183 152.693 338.363 152.693C336.544 152.693 334.725 145.422 334.725 145.422L339.309 161.618C339.309 161.618 338.363 174.506 340.183 174.506C342.002 174.506 350.788 183.522 350.788 183.522L352.462 177.796Z" fill="#5E564D"/>
<path d="M316.88 158.891C316.534 156.328 321.991 150.875 321.991 147.239C321.991 143.604 319.463 130.716 319.463 130.716C319.463 130.716 325.63 147.239 325.63 149.057C325.63 150.875 320.5 163.527 321.245 164.472C321.991 165.417 316.88 158.891 316.88 158.891Z" fill="#5E564D"/>
<path d="M330.032 199.956C330.032 199.956 316.534 199.956 314.715 198.138C312.896 196.32 289.247 183.596 289.247 183.596C289.247 183.596 305.619 194.502 305.619 196.32C305.619 198.138 331.087 214.498 331.087 214.498L330.032 199.956Z" fill="#5E564D"/>
<path opacity="0.36" d="M248.297 225.096L251.044 232.676L252.863 241.765C252.863 241.765 279.641 241.765 278.987 241.765C278.332 241.765 283.789 249.036 283.789 249.036L278.332 239.947H254.683L252.863 230.858L251.044 225.405L248.297 225.096Z" fill="#BBE5FF"/>
<path opacity="0.36" d="M265.597 241.765L271.055 250.854L260.14 258.125L272.874 250.854L267.416 241.765H265.597Z" fill="#BBE5FF"/>
<path opacity="0.36" d="M220.482 225.495L211.023 249.035C211.023 249.035 201.927 247.218 200.108 247.218C198.289 247.218 191.176 258.124 192.013 258.124C192.849 258.124 178.132 262.887 178.132 262.887L194.778 259.288L200.599 249.054L213.151 249.962L219.336 234.82L225.285 225.513H220.482V225.495Z" fill="#BBE5FF"/>
<path opacity="0.36" d="M196.469 254.489L203.746 261.76V270.849L214.661 279.938L204.728 269.849L205.565 260.015L196.469 252.671V254.489Z" fill="#BBE5FF"/>
<path opacity="0.36" d="M233.253 306.641L241.948 298.115L261.959 294.48C261.959 294.48 263.778 276.302 263.778 274.484C263.778 272.666 279.023 266.304 279.023 266.304L278.514 262.887L280.315 266.304L266.052 274.957L263.778 296.297L243.768 299.933L240.129 307.204L233.253 306.641Z" fill="#BBE5FF"/>
<path opacity="0.36" d="M263.778 278.12L256.793 275.52L252.863 261.76L258.321 274.484L263.778 276.302V278.12Z" fill="#BBE5FF"/>
<path opacity="0.36" d="M314.715 225.404L305.619 227.222L296.705 235.039C296.705 235.039 303.8 230.858 305.619 229.04C307.438 227.222 316.534 225.404 316.534 225.404H314.715Z" fill="#BBE5FF"/>
</g>
</g>
</g>
<defs>
<linearGradient id="paint0_linear_223_4620" x1="188.719" y1="-7.21672" x2="196.221" y2="301.988" gradientUnits="userSpaceOnUse">
<stop offset="0.03" stop-color="#AECEF4"/>
<stop offset="0.42" stop-color="#78B3E9"/>
<stop offset="0.81" stop-color="#499BE0"/>
<stop offset="1" stop-color="#3792DD"/>
</linearGradient>
<linearGradient id="paint1_linear_223_4620" x1="188.264" y1="165.236" x2="187.519" y2="505.96" gradientUnits="userSpaceOnUse">
<stop offset="0.43" stop-color="#A5A46F"/>
<stop offset="0.68" stop-color="#5EA149"/>
<stop offset="0.87" stop-color="#2FA02F"/>
<stop offset="0.97" stop-color="#1DA026"/>
</linearGradient>
<linearGradient id="paint2_linear_223_4620" x1="96.1601" y1="143.568" x2="6.39095" y2="224.181" gradientUnits="userSpaceOnUse">
<stop stop-color="#12932A"/>
<stop offset="0.6" stop-color="#0A6D12"/>
<stop offset="0.97" stop-color="#075B07"/>
</linearGradient>
<linearGradient id="paint3_linear_223_4620" x1="188.72" y1="-7.21672" x2="196.222" y2="301.988" gradientUnits="userSpaceOnUse">
<stop offset="0.03" stop-color="#AECEF4"/>
<stop offset="0.35" stop-color="#718ED3"/>
<stop offset="0.62" stop-color="#435FBB"/>
<stop offset="0.76" stop-color="#324DB2"/>
</linearGradient>
<linearGradient id="paint4_linear_223_4620" x1="188.265" y1="165.236" x2="187.52" y2="505.96" gradientUnits="userSpaceOnUse">
<stop offset="0.43" stop-color="#D6E3E8"/>
<stop offset="0.58" stop-color="#9FB3BE"/>
<stop offset="0.73" stop-color="#70899A"/>
<stop offset="0.8" stop-color="#5E798C"/>
</linearGradient>
<linearGradient id="paint5_linear_223_4620" x1="187.265" y1="106.613" x2="183.359" y2="408.237" gradientUnits="userSpaceOnUse">
<stop offset="0.4" stop-color="#72C9E8"/>
<stop offset="0.57" stop-color="#4485BC"/>
<stop offset="0.72" stop-color="#21519B"/>
<stop offset="0.79" stop-color="#143D8E"/>
</linearGradient>
</defs>
</svg>
