<svg width="385" height="287" viewBox="0 0 385 287" fill="none" xmlns="http://www.w3.org/2000/svg">
<g opacity="0.4" clip-path="url(#clip0_213_4143)">
<g opacity="0.4">
<path d="M70.97 25.4802L75.89 37.7602L74.47 40.6402C74.47 40.6402 87.6 48.0902 87.93 50.9702C88.26 53.8502 100.26 56.5502 98.79 59.0602C97.32 61.5702 92.9 73.7602 92.9 73.7602C92.9 73.7602 88.31 79.5502 86.01 79.8102C83.71 80.0702 73.06 78.9702 73.06 78.9702L60.36 90.3702C60.36 90.3702 64.02 106.89 46.06 103.12C46.06 103.12 38.34 97.0002 28.46 122.68L17.66 115.17L0 164.52C0 164.52 4.53 169.25 5.57 167.67C6.61 166.09 18.51 147.78 10.93 173.18C10.93 173.18 11.02 179.01 12.75 178.81C14.48 178.61 25.21 170.36 26.94 170.16C28.67 169.96 53.79 169.98 53.79 169.98L53.57 178.18L62.79 177.11L60.77 184.94L65.74 192.54L57.18 199.37C57.18 199.37 56.27 211.74 56.98 212.83C57.69 213.92 53.79 230.72 53.79 230.72L61.77 239.14C61.77 239.14 97.99 229.11 103.12 227.94C108.24 226.76 143.04 199.38 143.64 204.57L144.55 212.48C144.55 212.48 150.29 201.47 152.44 209.98C152.44 209.98 159.29 223.79 143.29 226.81C143.29 226.81 130.23 245.26 118.71 246.59L172.58 242.7L187.39 244.49C187.39 244.49 184.48 239.51 186.69 238.41C188.9 237.31 199.14 234.96 200.43 235.98C201.72 237 207.59 232.23 207.59 232.23L203.84 222.52L212.11 225.87L210.74 234.21L218.79 243.21C218.79 243.21 222.43 249.4 207.24 251.94C207.24 251.94 216.55 259.24 186.62 258.03L182.41 277.21L190.06 282.75L200.04 278.09C200.04 278.09 211.02 277.04 211.21 286.25L241.41 282.76L251.15 270.43L269.82 260.1L267.11 256.91L274.87 258.35C274.87 258.35 278.37 253.27 281.83 252.87C285.29 252.47 302.45 249.32 303.22 250.98C303.99 252.64 308.03 267.36 313.91 262.6C319.79 257.84 314.83 245.45 317.28 246.39C319.73 247.33 338.95 271.5 338.95 271.5L346.48 266.43C346.48 266.43 342.89 250.49 380.31 250.84C380.31 250.84 379.96 260.95 376.76 239.66C376.4 237.27 366.24 199.89 366.24 199.89C366.24 199.89 353.41 210.13 346.07 202.22C338.73 194.31 346.93 179.34 346.93 179.34L330.43 157.88L325.78 163.09C325.78 163.09 318.82 183.75 316.87 146.6C316.87 146.6 270.51 139.69 280.26 128.05C280.26 128.05 384.93 134.06 384.79 132.91L383.76 123.98C383.76 123.98 376.45 126.87 375.67 124.92C374.89 122.97 375.82 115.85 375.82 115.85L381.31 102.69C381.31 102.69 376.43 100.93 378.76 80.6302L324.16 98.4502L324.31 74.4802L315.22 61.5102L307.15 62.4402L304.75 41.6902L288.23 30.1602C288.23 30.1602 275.84 9.98023 281.89 1.10023L242.19 5.69023L240.94 -0.00976562L230.74 1.17023L232.23 15.6002L202.63 17.2702L201.85 13.4602C201.85 13.4602 190.32 16.9402 190.68 9.89023L182.03 10.8902C182.03 10.8902 176 24.4402 176.09 7.49023C176.09 7.49023 169.31 1.85023 167.64 17.8102L149.06 18.7902L118.58 22.9002L96.72 35.9402L70.98 25.4802H70.97Z" fill="url(#paint0_linear_213_4143)"/>
<g opacity="0.53">
<path d="M380.46 250.93C379.94 250.93 379.43 250.93 378.92 250.93C380.27 256.33 380.46 250.93 380.46 250.93Z" fill="#445E99"/>
<path d="M378.93 250.93C378.43 248.94 377.78 245.49 376.92 239.76C376.56 237.37 366.4 199.99 366.4 199.99C366.4 199.99 353.57 210.23 346.23 202.32C338.89 194.41 347.09 179.44 347.09 179.44L330.59 157.98L325.94 163.19C325.94 163.19 318.98 183.85 317.03 146.7C317.03 146.7 270.67 139.79 280.42 128.15C280.42 128.15 385.09 134.16 384.95 133.01L383.92 124.08C383.92 124.08 376.61 126.97 375.83 125.02C375.05 123.07 375.98 115.95 375.98 115.95L381.47 102.79C381.47 102.79 376.59 101.03 378.92 80.7299L324.32 98.5499L324.47 74.5798L315.38 61.6098L307.31 62.5398L304.91 41.7898L288.39 30.2598C288.39 30.2598 276 10.0798 282.05 1.19984L242.35 5.78984L241.1 0.0898438L230.9 1.26984L232.39 15.6998L202.79 17.3698L202.01 13.5598C202.01 13.5598 190.48 17.0398 190.84 9.98984L182.19 10.9898C182.19 10.9898 176.16 24.5398 176.25 7.58984C176.25 7.58984 169.47 1.94984 167.8 17.9098L149.22 18.8898L141.27 19.9598C147.45 25.8698 154.99 31.3698 161.64 30.2998C174.83 28.1898 223.85 27.7898 236.4 25.1698C248.95 22.5498 260.61 7.18984 275.07 31.2198C289.53 55.2498 302.44 91.1398 302.44 91.1398C302.44 91.1398 309.76 108.99 318.4 107.99C327.05 106.99 356.38 103.02 356.64 105.32C356.9 107.62 352.1 121.62 337.93 120.33C323.76 119.04 281.4 116.35 278 117.32C274.6 118.29 267.67 129.03 268 131.91C268.33 134.79 265.3 159.09 275.3 159.69C285.3 160.29 302.97 156.49 305.36 162.06C307.75 167.63 336.18 206.4 334.34 210.7C332.5 215 340.51 228.68 323.15 230.1C305.79 231.52 301.8 227.31 286.88 229.62C271.96 231.93 249.59 245.61 241.17 253.59C232.75 261.57 247.89 266.25 223.92 266.1C209.98 266.01 196.25 264.32 185.56 263.68L182.57 277.3L190.22 282.84L200.2 278.18C200.2 278.18 211.18 277.13 211.37 286.34L241.57 282.85L251.31 270.52L269.98 260.19L267.27 257L275.03 258.44C275.03 258.44 278.53 253.36 281.99 252.96C285.45 252.56 302.61 249.41 303.38 251.07C304.15 252.73 308.19 267.45 314.07 262.69C319.95 257.93 314.99 245.54 317.44 246.48C319.89 247.42 339.11 271.59 339.11 271.59L346.64 266.52C346.64 266.52 343.15 251.02 378.93 250.93Z" fill="#445E99"/>
</g>
</g>
<path d="M317.08 208.61C311.29 208.98 305.5 209.33 299.72 209.74C298.04 209.86 296.34 209.79 294.67 210.14C294.11 210.19 293.54 209.85 292.98 210.16C290.41 210.31 287.84 210.45 285.28 210.6C279.76 210.95 274.24 211.31 268.72 211.66C261.11 212.15 253.49 212.64 245.88 213.12C241.95 213.37 238.01 213.59 234.08 213.84C227.51 214.25 220.95 214.67 214.38 215.09C209.36 215.4 204.35 215.7 199.33 216.01C192.69 216.42 186.05 216.85 179.41 217.26C174.29 217.58 169.16 217.87 164.03 218.19C157.57 218.59 151.11 219.02 144.65 219.43C139.6 219.75 134.54 220.04 129.49 220.36C122.89 220.77 116.28 221.2 109.68 221.61C104.56 221.93 99.4299 222.22 94.2999 222.54C87.7699 222.95 81.2399 223.38 74.7099 223.79C70.9199 224.03 67.1299 224.25 63.3399 224.48C56.6999 224.89 50.0599 225.32 43.4199 225.73C38.2199 226.05 33.0199 226.34 27.8299 226.67C21.3699 227.07 14.9099 227.48 8.45992 227.92C5.96992 228.09 5.97992 228.13 6.45992 225.76C7.59992 220.13 8.52992 214.47 9.37992 208.79C9.48992 208.08 9.68992 207.38 9.84993 206.68C11.4399 206.71 13.0199 206.6 14.6099 206.51C17.8199 206.33 21.0299 206.51 24.2499 206.32C27.9999 206.11 31.7599 206.29 35.5099 206.07C38.3899 205.9 41.2799 206.09 44.1699 205.88C47.6199 205.63 51.0999 205.9 54.5699 205.65C57.7699 205.42 60.9899 205.68 64.2099 205.44C67.5899 205.19 70.9899 205.47 74.3899 205.22C77.6599 204.98 80.9599 205.25 84.2499 205.01C87.5999 204.76 90.9599 205.04 94.3199 204.79C97.6299 204.55 100.96 204.82 104.28 204.57C107.59 204.32 110.92 204.59 114.24 204.35C117.66 204.1 121.1 204.38 124.53 204.13C127.8 203.89 131.1 204.16 134.39 203.92C137.77 203.67 141.17 203.95 144.57 203.7C147.81 203.46 151.06 203.73 154.32 203.49C157.7 203.24 161.1 203.52 164.5 203.27C167.77 203.03 171.07 203.3 174.36 203.06C177.71 202.81 181.07 203.09 184.43 202.84C187.74 202.6 191.07 202.87 194.39 202.62C197.7 202.37 201.03 202.65 204.35 202.4C207.7 202.15 211.06 202.43 214.42 202.18C217.69 201.94 220.99 202.21 224.28 201.97C227.66 201.72 231.06 202 234.46 201.75C237.63 201.51 240.81 201.67 243.99 201.56C248.43 201.41 252.87 201.33 257.32 201.29C262.34 201.25 267.36 200.92 272.39 201.04C272.5 201.04 272.61 201.04 272.72 201.04C276.07 200.66 279.43 200.89 282.79 200.87C282.67 201.38 282.25 201.25 281.91 201.26C279.02 201.36 276.14 201.22 273.24 201.44C269.82 201.7 266.38 201.41 262.95 201.66C259.5 201.92 256.02 201.62 252.55 201.88C249.1 202.14 245.62 201.83 242.15 202.1C238.91 202.35 235.66 202.05 232.4 202.32C229.31 202.57 226.2 202.28 223.09 202.54C220.03 202.79 216.96 202.5 213.89 202.76C211.12 203 208.34 202.73 205.55 202.97C202.64 203.22 199.71 202.94 196.78 203.19C193.91 203.43 191.01 203.17 188.12 203.4C185.14 203.65 182.13 203.37 179.13 203.62C176.36 203.86 173.58 203.59 170.79 203.83C167.88 204.08 164.95 203.81 162.02 204.05C159.07 204.29 156.1 204.01 153.14 204.27C150.34 204.51 147.51 204.25 144.69 204.48C141.78 204.72 138.85 204.45 135.92 204.7C133.15 204.94 130.37 204.68 127.58 204.91C124.63 205.16 121.66 204.88 118.7 205.14C116.04 205.37 113.36 205.24 110.69 205.33C105.21 205.52 99.7199 205.54 94.2399 205.81C91.6099 205.94 88.9699 205.89 86.3399 205.98C81.1099 206.17 75.8799 206.29 70.6499 206.44C65.5299 206.59 60.3999 206.72 55.2799 206.87C50.1899 207.02 45.0999 207.05 40.0199 207.33C37.5299 207.47 35.0399 207.41 32.5499 207.49C28.9399 207.6 25.3299 207.79 21.7199 207.78C19.1899 207.78 16.6799 208.07 14.1399 208.04C13.2899 208.03 12.4299 208.23 11.5599 208.23C11.1599 208.23 10.8599 208.45 10.7399 208.83C10.6099 209.26 10.9399 209.49 11.2399 209.69C11.6499 209.97 12.1199 209.96 12.5999 209.96C17.7299 209.92 22.8599 210.05 27.9899 209.75C30.6199 209.6 33.2499 209.78 35.8899 209.57C39.0499 209.32 42.2399 209.59 45.4199 209.34C48.3999 209.1 51.4099 209.38 54.4099 209.13C57.4999 208.88 60.6099 209.16 63.7199 208.91C66.6999 208.66 69.7099 208.95 72.7099 208.7C75.6899 208.45 78.6999 208.73 81.6999 208.48C84.6499 208.23 87.6099 208.51 90.5799 208.26C93.5299 208.01 96.4999 208.3 99.4599 208.04C102.33 207.79 105.23 208.07 108.12 207.82C110.96 207.58 113.82 207.85 116.67 207.6C119.36 207.36 122.08 207.63 124.79 207.39C127.48 207.15 130.2 207.41 132.91 207.17C135.64 206.93 138.39 207.2 141.14 206.95C143.87 206.71 146.62 206.98 149.37 206.74C152.13 206.5 154.92 206.77 157.71 206.52C160.33 206.28 162.97 206.55 165.61 206.31C168.3 206.06 171.02 206.34 173.73 206.09C176.39 205.85 179.07 206.11 181.74 205.88C184.5 205.64 187.29 205.91 190.08 205.66C192.63 205.43 195.2 205.55 197.76 205.47C203.32 205.29 208.88 205.26 214.43 204.99C217.03 204.86 219.63 204.92 222.23 204.82C227.6 204.63 232.98 204.58 238.36 204.33C240.49 204.23 242.62 204.25 244.74 204.17C249.64 203.99 254.55 203.94 259.46 203.68C261.66 203.57 263.86 203.59 266.06 203.51C271.25 203.33 276.45 203.27 281.65 203.03C284.35 202.9 287.06 203.03 289.77 202.86C293.37 202.62 296.99 202.73 300.6 202.65C305.22 202.54 309.85 202.43 314.47 202.39C315.14 202.39 315.3 202.15 315.35 201.51C315.43 200.59 314.46 200.65 314.21 200.09C314.72 200.06 315.24 200.03 315.75 200.01C316.13 202.9 316.45 205.8 317.08 208.65V208.61Z" fill="#878787"/>
<path d="M297.27 47.2498C297.27 46.1998 297.28 45.1398 297.29 44.0898C297.41 43.2798 296.92 43.4798 296.51 43.6398C294.06 44.6198 291.62 45.6098 289.18 46.5898C281.71 49.5798 274.33 52.7898 266.95 55.9998C260.56 58.7798 254.22 61.6698 247.87 64.5298C239.41 68.3498 230.96 72.1798 222.52 76.0198C216.57 78.7298 210.64 81.4798 204.69 84.1698C197.75 87.3098 190.8 90.4298 183.84 93.5098C176.45 96.7698 169.05 100.05 161.6 103.19C152.42 107.05 143.21 110.82 133.96 114.51C126.55 117.46 119.1 120.29 111.62 123.05C102.95 126.24 94.2401 129.33 85.5301 132.4C77.6301 135.18 69.7101 137.88 61.7901 140.62C54.4201 143.17 47.0501 145.71 39.6901 148.27C30.7901 151.37 21.9601 154.63 13.2001 158.09C12.7701 158.26 12.2801 158.45 12.0801 157.92C11.8401 157.29 12.4801 157.29 12.8501 157.15C18.3401 155.14 23.8101 153.09 29.3301 151.14C39.3401 147.62 49.3701 144.15 59.4001 140.68C65.6101 138.53 71.8501 136.48 78.0601 134.31C88.8901 130.51 99.7301 126.75 110.48 122.71C116.66 120.38 122.85 118.1 129 115.7C135.52 113.16 142.01 110.53 148.48 107.88C154.16 105.55 159.8 103.16 165.44 100.75C170.22 98.7098 174.97 96.6098 179.72 94.4998C185.2 92.0698 190.67 89.6198 196.13 87.1498C199.91 85.4398 203.67 83.6698 207.45 81.9398C214.08 78.8998 220.72 75.8798 227.35 72.8498C231.65 70.8798 235.95 68.8998 240.26 66.9498C246.38 64.1898 252.51 61.4498 258.65 58.7198C264.26 56.2298 269.86 53.7198 275.5 51.2998C282.17 48.4398 288.88 45.6898 295.54 42.8398C296.21 42.5498 297.05 42.2898 297.28 41.3998C297.24 38.0198 297.21 34.6398 297.15 31.2598C297.14 30.6098 297.32 30.3598 297.99 30.3798C299.07 30.4098 300.15 30.3498 301.23 30.3398C301.07 30.7998 300.6 31.0498 300.54 31.6398C300.29 34.1498 300.33 36.6598 300.35 39.1798C300.37 40.7598 300.77 41.0298 302.26 40.6098C303.22 40.6298 304.18 40.6398 305.14 40.6598C305.21 42.1398 304.88 43.6398 305.36 45.1098C304.94 45.1198 304.5 45.0798 304.09 45.1598C303.55 45.2598 302.85 44.8798 302.48 45.6098C301.69 45.5198 301.32 45.8498 301.19 46.6598C301 47.8398 301 48.9798 301.14 50.1698C301.27 51.2098 301.66 51.3998 302.54 51.0298C302.84 51.3798 303.2 51.1998 303.54 51.1498C304.22 51.0598 304.89 50.9798 305.58 51.0798C305.23 51.9098 305.34 52.7798 305.36 53.6398C305.38 54.2998 305.75 54.6198 306.43 54.4998C306.43 54.7398 306.43 54.9798 306.42 55.2198C305.18 55.1798 303.94 55.1998 302.75 55.5898C301.79 55.3798 301.29 55.7198 301.24 56.7498C301.19 57.6698 301.24 58.5898 301.4 59.5198C301.66 61.0098 301.63 61.0298 302.88 60.3598C303.66 60.8898 304.55 60.4398 305.36 60.6498C305.37 62.2698 305.57 63.8798 305.8 65.4798C304.93 65.5898 304.07 65.6998 303.2 65.8098C302.4 65.1598 301.91 65.2398 301.65 66.1898C301.12 68.0698 301.53 69.9498 301.76 71.8298C301.8 72.1198 302.02 72.3398 302.38 72.3098C302.66 72.2898 302.85 72.1598 302.94 71.8798C303.01 71.6498 302.96 71.3698 303.22 71.2098C303.29 71.7198 303.46 72.0698 304.1 71.8898C304.51 71.7798 304.94 71.7798 305.36 71.7398C305.36 73.2798 305.14 74.8498 305.79 76.3298C305.02 76.3598 304.25 76.3898 303.47 76.4098C302.46 76.3398 302 76.7798 302.07 77.8098C302.11 78.3798 302.13 78.9698 302.05 79.5398C301.61 82.7698 301.98 85.9798 302.27 89.1998C302.37 90.2898 302.9 90.4498 303.8 90.1098C304.28 90.6098 304.85 90.0598 305.35 90.2498C305.3 90.7498 305.26 91.2498 305.21 91.7498C305.03 93.5798 304.98 95.4098 305.99 97.0698C305.99 97.1398 305.99 97.1998 305.99 97.2698C305.44 97.4598 304.89 97.5498 304.31 97.5098C302.96 97.0198 302.26 97.4598 302.31 98.8898C302.39 101.02 302.12 103.14 302.01 105.26C301.85 108.38 301.48 111.48 301.21 114.6C301.04 116.5 300.91 118.4 300.73 120.29C300.47 123.01 300.18 125.72 299.91 128.43C299.74 130.15 299.6 131.86 299.42 133.58C299.16 136.15 298.86 138.72 298.61 141.29C298.36 143.83 298.16 146.37 297.92 148.91C297.66 151.66 297.35 154.41 297.1 157.16C296.85 159.88 296.67 162.61 296.41 165.32C296.08 168.79 295.68 172.25 295.36 175.71C295.1 178.57 294.93 181.44 294.68 184.31C294.34 188.25 293.8 192.18 293.84 196.14C293.85 196.99 293.55 197.17 292.77 197.16C290.75 197.12 288.72 197.16 286.69 197.16C286.75 196.66 286.83 196.16 286.88 195.66C287.27 191.99 287.65 188.33 288.05 184.66C288.75 178.12 289.45 171.58 290.15 165.04C290.76 159.29 291.37 153.54 291.99 147.79C292.67 141.39 293.37 135 294.05 128.6C294.68 122.67 295.31 116.74 295.94 110.81C296.14 108.96 296.31 107.11 296.51 105.15C296.05 105.42 296.05 105.78 295.94 106.07C292.43 115.64 288.94 125.22 285.43 134.8C278 155.03 270.4 175.19 263.17 195.49C262.98 196.01 262.56 196.5 262.85 197.13C262.6 197.32 262.36 197.53 262.1 197.7C261.38 198.19 260.9 197.98 260.62 197.04C262.21 192.89 263.83 188.75 265.38 184.58C272.17 166.28 278.92 147.97 285.7 129.67C289.37 119.77 293.08 109.89 296.77 100.01C297.13 99.0498 297.46 98.0798 297.25 96.7598C296.5 98.2598 295.86 99.5398 295.22 100.82C279.97 131.35 264.53 161.8 249.05 192.22C248.28 193.74 247.62 195.29 247.3 196.98C246.99 198.21 245.46 198.38 245.05 199.54C244.99 199.7 244.78 199.77 244.59 199.65C244.42 199.55 244.28 199.33 244.37 199.2C244.95 198.44 244.2 197.73 244.32 196.99C245.64 196.56 246.08 195.34 246.61 194.28C254.89 177.72 263.11 161.13 271.4 144.58C279.9 127.61 288.39 110.62 297.08 93.7398C297.23 93.4498 297.45 93.1498 297.45 92.8498C297.48 90.3698 297.47 87.8898 297.47 85.3798C296.86 85.4498 296.75 85.8398 296.55 86.1098C290.79 94.0898 285.23 102.2 279.67 110.32C270.83 123.24 261.89 136.1 252.88 148.91C241.68 164.86 230.51 180.83 219.33 196.79C218.86 197.42 218.41 198.06 217.93 198.67C217.52 199.2 216.91 199.3 216.39 198.99C215.79 198.63 216.18 198.15 216.44 197.7C216.6 197.43 216.66 197.1 216.77 196.8C217.57 196.38 218.03 195.61 218.52 194.92C222.44 189.4 226.34 183.88 230.22 178.33C240.68 163.35 251.13 148.36 261.59 133.39C272.84 117.28 284.48 101.45 295.61 85.2698C296.9 83.3998 297.79 81.5798 297.44 79.2698C297.34 78.5998 297.44 77.8998 297.44 77.2098C297.51 76.3898 296.83 76.7798 296.48 76.6198C296.72 76.1498 297.33 75.8898 297.33 75.2798C297.33 73.3098 297.33 71.3398 297.33 69.3498C296.81 69.3998 296.64 69.6998 296.41 69.9098C289.63 76.2098 282.86 82.5298 276.08 88.8298C264.98 99.1398 253.86 109.43 242.77 119.76C226.39 135.02 210.05 150.32 193.67 165.57C183.08 175.43 172.44 185.22 161.84 195.07C161.41 195.47 160.66 195.69 160.71 196.51C160.24 196.48 159.92 196.75 159.59 197.06C158.86 197.75 158.11 198.41 157.36 199.08C156.82 199.56 156.33 199.25 155.94 198.89C155.56 198.53 155.71 198.14 156.07 197.77C156.43 197.39 156.97 197.13 157 196.51C157.43 196.39 157.76 196.12 158.08 195.82C164.42 189.89 170.78 183.98 177.11 178.04C195.32 160.97 213.8 144.19 232.09 127.21C247.89 112.55 263.69 97.8698 279.49 83.2098C284.74 78.3398 290.02 73.4998 295.27 68.6198C295.98 67.9598 297.02 67.2898 297.17 66.4798C297.47 64.8698 297.26 63.1598 297.26 61.3498C296.78 61.6498 296.5 61.8198 296.24 61.9998C278.45 74.3598 260.67 86.7498 242.87 99.0898C216.45 117.42 190.03 135.75 163.58 154.03C143.43 167.95 123.35 181.97 103.01 195.61C102.81 195.74 102.52 195.8 102.5 196.12C102.09 196.29 101.63 196.39 101.28 196.64C100.56 197.15 100.36 196.84 100.33 196.14C100.67 196.12 100.94 195.96 101.21 195.76C110.2 189.11 119.42 182.78 128.59 176.39C152.13 159.99 175.68 143.6 199.26 127.25C226.53 108.35 253.83 89.4898 281.11 70.6198C286.23 67.0798 291.35 63.5498 296.47 59.9998C296.81 59.7598 297.29 59.5998 297.29 59.0698C297.3 57.9398 297.29 56.8098 297.29 55.5198C296.79 55.8098 296.48 55.9798 296.17 56.1598C276.37 68.1498 256.56 80.1398 236.76 92.1298C210.49 108.04 184.2 123.92 157.95 139.86C127.4 158.4 96.8601 176.97 66.2001 195.34C65.9701 195.48 65.6301 195.53 65.5901 195.89C65.2601 195.89 64.9901 196.01 64.7001 196.19C63.9801 196.64 63.2201 197.03 62.4701 197.44C62.1101 197.64 61.6801 197.79 61.4101 197.38C61.1301 196.95 61.5801 196.76 61.8701 196.57C62.1201 196.4 62.3401 196.24 62.3301 195.91C62.7801 195.9 63.1501 195.68 63.5201 195.45C89.1701 179.64 114.95 164.03 140.73 148.42C166.38 132.89 192.02 117.32 217.66 101.77C243.64 86.0098 269.61 70.2298 295.61 54.4898C296.83 53.7498 297.55 52.9998 297.3 51.5098C297.19 50.8798 297.3 50.2098 297.3 49.5598C297.35 48.6898 296.88 48.9198 296.41 49.1398C293.69 50.3898 290.93 51.5798 288.25 52.9198C281.19 56.4298 274.1 59.8798 267.13 63.5598C262.46 66.0198 257.78 68.4498 253.11 70.8898C246.35 74.4198 239.62 77.9998 232.82 81.4598C219.58 88.1998 206.25 94.7698 192.75 100.96C189.07 102.64 185.4 104.33 181.69 105.93C175.53 108.59 169.36 111.23 163.16 113.8C155.4 117.03 147.63 120.25 139.82 123.35C128.79 127.73 117.72 132 106.65 136.3C97.7401 139.76 88.8001 143.16 79.9101 146.66C67.2201 151.66 54.5201 156.63 41.9401 161.9C33.4901 165.44 25.0401 168.99 16.5701 172.5C15.7901 172.82 15.0301 173.37 13.8801 173.21C15.5201 172.12 17.1701 171.48 18.7801 170.8C25.6501 167.86 32.5301 164.97 39.4201 162.07C48.3701 158.31 57.3901 154.72 66.4101 151.15C75.0401 147.75 83.6901 144.41 92.3301 141.04C99.2901 138.33 106.25 135.63 113.22 132.93C121.43 129.75 129.65 126.61 137.84 123.38C147.57 119.54 157.26 115.59 166.9 111.51C175.31 107.95 183.68 104.3 191.99 100.53C198.87 97.4198 205.72 94.2398 212.5 90.9198C221.27 86.6298 230 82.2598 238.63 77.6898C245.17 74.2198 251.76 70.8198 258.32 67.3898C261.01 65.9798 263.7 64.5798 266.37 63.1398C272.09 60.0498 277.88 57.0798 283.7 54.1898C287.94 52.0898 292.24 50.1198 296.51 48.0698C296.84 47.9098 297.33 47.8498 297.27 47.2898V47.2498Z" fill="#6F6F6F"/>
<path d="M157.04 196.45C157.01 197.08 156.47 197.34 156.11 197.71C155.76 198.08 155.6 198.47 155.98 198.83C156.37 199.2 156.86 199.5 157.4 199.02C158.15 198.35 158.91 197.69 159.63 197C159.96 196.69 160.27 196.43 160.75 196.45C169.62 196.48 178.49 196.52 187.35 196.55C187.46 196.55 187.56 196.59 187.67 196.61C187.68 197.11 187.31 197.37 187 197.65C186.61 198.01 186.52 198.3 186.96 198.7C187.34 199.04 187.66 199.18 188.06 198.76C188.72 198.06 189.39 197.37 190.05 196.67C190.22 196.65 190.39 196.63 190.56 196.61C199.31 196.66 208.05 196.7 216.8 196.75C216.69 197.05 216.63 197.38 216.47 197.65C216.2 198.09 215.82 198.57 216.42 198.94C216.94 199.25 217.54 199.15 217.96 198.62C218.44 198 218.89 197.36 219.36 196.74C223.83 196.78 228.3 196.83 232.77 196.86C236.63 196.89 240.48 196.91 244.34 196.93C244.22 197.67 244.97 198.38 244.39 199.14C244.29 199.27 244.44 199.48 244.61 199.59C244.8 199.71 245.02 199.64 245.07 199.48C245.47 198.32 247 198.15 247.32 196.92C251.76 196.95 256.2 196.97 260.64 197C260.93 197.94 261.4 198.15 262.12 197.66C262.38 197.48 262.62 197.28 262.87 197.09C263.41 197.09 263.95 197.07 264.49 197.07C271.9 197.09 279.31 197.12 286.72 197.14C288.75 197.14 290.77 197.1 292.8 197.14C293.58 197.16 293.88 196.97 293.87 196.12C293.82 192.16 294.37 188.23 294.71 184.29C294.96 181.43 295.13 178.55 295.39 175.69C295.71 172.22 296.11 168.76 296.44 165.3C296.7 162.58 296.88 159.86 297.13 157.14C297.38 154.39 297.69 151.64 297.95 148.89C298.19 146.35 298.39 143.81 298.64 141.27C298.89 138.7 299.19 136.13 299.45 133.56C299.63 131.84 299.77 130.13 299.94 128.41C300.21 125.7 300.5 122.98 300.76 120.27C300.94 118.37 301.07 116.47 301.24 114.58C301.51 111.47 301.88 108.36 302.04 105.24C302.15 103.12 302.41 101 302.34 98.8705C302.29 97.4505 302.99 97.0105 304.34 97.4905C304.26 98.3205 304.17 99.1405 304.1 99.9705C303.56 106.27 303.01 112.58 302.48 118.88C301.79 127.06 301.09 135.24 300.41 143.42C299.94 149.11 299.51 154.8 299.03 160.49C298.49 167.01 297.93 173.53 297.36 180.04C296.89 185.4 296.41 190.76 295.87 196.12C295.78 197.06 296 197.27 296.91 197.27C303.79 197.27 310.66 197.32 317.54 197.35C317.87 198.19 317.79 199.07 317.76 199.95C317.1 199.95 316.44 199.95 315.78 199.96C315.27 199.99 314.75 200.02 314.24 200.04C310.78 200.15 307.32 200.25 303.86 200.36C303.71 200.16 303.57 200.16 303.43 200.36C301.41 200.38 299.4 200.41 297.38 200.43C296.28 200.41 295.18 200.4 294.08 200.38C293.78 200.38 293.51 200.4 293.39 200.74C292.48 200.6 291.56 200.57 290.64 200.63C288.43 200.62 286.22 200.61 284.01 200.6C283.79 200.6 283.58 200.62 283.45 200.84C283.24 200.84 283.03 200.84 282.81 200.84C279.45 200.85 276.09 200.62 272.74 201.01C272.63 201.02 272.52 201.01 272.41 201.01C267.39 200.88 262.37 201.22 257.34 201.26C252.9 201.3 248.45 201.37 244.01 201.53C240.83 201.64 237.65 201.48 234.48 201.72C231.08 201.98 227.68 201.69 224.3 201.94C221.01 202.18 217.72 201.91 214.44 202.15C211.08 202.4 207.71 202.12 204.37 202.37C201.04 202.61 197.72 202.34 194.41 202.59C191.08 202.84 187.76 202.56 184.45 202.81C181.09 203.06 177.72 202.78 174.38 203.03C171.09 203.27 167.8 203 164.52 203.24C161.12 203.49 157.72 203.21 154.34 203.46C151.09 203.7 147.83 203.43 144.59 203.67C141.19 203.92 137.79 203.65 134.41 203.89C131.12 204.13 127.83 203.86 124.55 204.1C121.12 204.35 117.68 204.07 114.26 204.32C110.93 204.56 107.61 204.29 104.3 204.54C100.97 204.79 97.6501 204.51 94.3401 204.76C90.9801 205.01 87.6101 204.73 84.2701 204.98C80.9801 205.22 77.6901 204.95 74.4101 205.19C71.0101 205.44 67.6101 205.16 64.2301 205.41C61.0101 205.65 57.7901 205.39 54.5901 205.62C51.1201 205.87 47.6501 205.6 44.1901 205.85C41.3001 206.06 38.4101 205.87 35.5301 206.04C31.7801 206.26 28.0101 206.08 24.2701 206.29C21.0501 206.47 17.8401 206.31 14.6301 206.48C13.0401 206.57 11.4601 206.68 9.87012 206.65C10.5401 203.14 11.3901 199.68 12.2501 196.22C12.4101 195.59 12.7601 195.48 13.3401 195.49C25.9601 195.59 38.5801 195.67 51.2001 195.76C54.9201 195.79 58.6501 195.81 62.3701 195.84C62.3701 196.17 62.1601 196.33 61.9101 196.5C61.6301 196.68 61.1701 196.87 61.4501 197.31C61.7201 197.72 62.1501 197.57 62.5101 197.37C63.2601 196.96 64.0201 196.57 64.7401 196.12C65.0301 195.94 65.3001 195.82 65.6301 195.82C67.1501 195.82 68.6601 195.82 70.1801 195.84C80.2501 195.91 90.3101 195.99 100.38 196.07C100.42 196.77 100.61 197.08 101.33 196.57C101.68 196.32 102.14 196.22 102.55 196.05C115.63 196.13 128.71 196.2 141.78 196.29C146.87 196.32 151.97 196.4 157.06 196.46L157.04 196.45Z" fill="#5B5B5B"/>
<path d="M317.73 199.95C317.76 199.07 317.84 198.2 317.51 197.35C317.4 194.1 316.88 190.88 316.55 187.65C315.97 181.94 315.31 176.23 314.69 170.52C314.15 165.6 313.63 160.68 313.09 155.76C312.47 150.09 311.84 144.42 311.22 138.74C310.68 133.79 310.15 128.83 309.61 123.87C308.99 118.2 308.36 112.53 307.74 106.85C307.42 103.94 307.12 101.03 306.81 98.1203C306.76 97.6303 306.66 97.1703 306 97.2203C306 97.1503 306 97.0903 306 97.0203C306.64 97.0703 306.66 96.6603 306.65 96.1903C306.61 94.1303 307.14 92.0703 306.64 90.0203C306.57 85.4603 306.5 80.9003 306.44 76.3503C306.77 74.7603 306.97 73.1703 306.43 71.5803C306.43 69.5503 306.43 67.5203 306.44 65.4803C306.41 65.0803 306.5 64.7103 306.59 64.3203C306.91 62.9903 307.12 61.6503 306.44 60.3603C306.44 58.6303 306.42 56.9103 306.41 55.1803C306.41 54.9403 306.41 54.7003 306.42 54.4603C306.43 53.4403 306.54 52.4203 306.23 51.4303C306.42 51.2903 306.4 51.0703 306.41 50.8703C306.34 48.9603 306.27 47.0503 306.21 45.1403C306.26 44.7503 306.34 44.3603 306.35 43.9603C306.4 42.8103 307.04 41.6203 306.19 40.5103C306.19 37.2203 306.21 33.9203 306.16 30.6303C306.15 29.6903 306.26 29.3003 307.33 29.6803C308.79 30.2003 310.29 30.6103 311.8 30.9903C312.52 31.1703 312.68 31.5303 312.68 32.2103C312.68 36.2303 312.72 40.2403 312.72 44.2603C312.72 45.3503 312.82 46.4203 312.98 47.4903C312.6 47.7903 312.78 48.2203 312.72 48.5903C312.59 49.4003 313.03 50.2103 312.73 51.0303C312.75 51.6403 312.76 52.2603 312.78 52.8703C312.89 56.0003 312.62 59.1603 313.21 62.2703C312.61 63.1303 313.07 64.0903 312.96 64.9903C312.97 67.1303 312.77 69.2703 313.18 71.4003C312.77 71.7403 313.01 72.2103 312.93 72.6203C312.82 73.1903 313.27 73.7503 312.95 74.3103C313.04 76.1303 312.84 77.9803 313.3 79.7803C312.86 80.0203 312.93 80.4403 312.94 80.8303C312.95 81.7203 312.98 82.6103 313 83.4903C313.23 84.3403 313.09 85.2103 313.13 86.0703C313.29 89.1503 312.72 92.2803 313.81 95.2803C312.93 95.3303 313.12 95.8303 313.35 96.3603C314.13 102.3 314.53 108.29 315.77 114.17C315.46 114.41 315.52 114.76 315.56 115.07C315.75 116.5 315.98 117.93 316.19 119.37C316.47 121.92 316.66 124.49 317.3 126.99C316.93 127.31 317.1 127.69 317.16 128.08C317.3 129.03 317.6 129.95 317.51 130.93C317.79 133 318.09 135.07 318.35 137.15C319.04 142.71 319.71 148.26 320.39 153.82C321.08 159.41 321.78 165 322.48 170.59C323.11 175.64 323.74 180.7 324.35 185.75C324.82 189.62 325.28 193.49 325.74 197.37C325.81 197.82 325.97 198.28 325.94 198.73C325.89 199.53 326.18 199.85 326.98 199.74C327.22 199.71 327.48 199.76 327.72 199.78C327.61 200.93 328.36 201.23 329.27 201.24C330.82 201.26 332.37 201.09 333.9 201.09C338.44 201.09 342.98 200.83 347.52 200.81C349.28 200.81 351.05 200.71 352.81 200.67C358.17 200.53 363.54 200.45 368.9 200.19C369.52 201.59 369.78 203.08 370.15 204.55C370.31 205.2 370.11 205.36 369.49 205.4C367.72 205.49 365.96 205.65 364.19 205.76C354.23 206.37 344.26 206.97 334.3 207.57C332.21 207.7 330.12 207.87 328.02 207.95C327.25 207.98 327.13 208.28 327.22 208.95C327.72 212.86 328.18 216.77 328.66 220.67C329.34 226.16 330.01 231.64 330.71 237.12C330.8 237.84 330.58 238.06 329.86 238.08C327.48 238.15 325.08 237.99 322.73 238.52C322.19 238.64 322.07 238.39 322.02 237.89C321.69 234.73 321.32 231.57 320.97 228.41C320.34 222.74 319.72 217.06 319.1 211.39C319 210.46 318.9 209.52 318.8 208.59C318.44 205.71 318.08 202.83 317.72 199.94L317.73 199.95ZM311.86 39.4003C311.86 37.1603 311.86 34.9103 311.86 32.6703C311.86 32.3703 311.96 31.9203 311.46 31.9603C311.08 31.9903 310.77 32.2703 310.86 32.7103C311.15 34.1203 310.84 35.5003 310.8 36.9003C310.65 41.6303 310.91 46.3603 310.59 51.1003C310.35 54.6603 310.46 58.2503 310.4 61.8203C310.24 72.1303 310.35 82.4403 310.33 92.7603C310.33 94.0203 311.3 95.2503 310.42 96.5303C310.39 96.5803 310.48 96.7203 310.54 96.8103C310.9 97.3403 310.9 97.9603 310.99 98.5603C311.5 101.9 312.01 105.24 312.47 108.58C312.82 111.14 313.09 113.72 313.38 116.29C313.63 118.58 313.84 120.87 314.1 123.16C314.49 126.59 314.94 130.01 315.33 133.43C315.66 136.29 315.93 139.15 316.25 142.01C316.58 144.94 316.95 147.86 317.28 150.79C317.6 153.58 317.88 156.37 318.2 159.15C318.53 162.01 318.9 164.86 319.24 167.71C319.56 170.42 319.83 173.14 320.16 175.85C320.56 179.17 321.01 182.48 321.41 185.8C321.8 189.05 322.14 192.3 322.54 195.55C323.01 199.4 323.53 203.25 324.02 207.1C324.4 210.09 324.77 213.09 325.17 216.08C325.57 219.11 326.01 222.13 326.41 225.16C326.79 228.05 327.15 230.93 327.51 233.82C327.55 234.14 327.67 234.38 328.01 234.44C328.38 234.51 328.63 234.36 328.81 234.04C329.02 233.67 329.04 233.3 328.98 232.89C328.84 231.93 328.71 230.97 328.6 230.01C328.29 227.15 328 224.29 327.68 221.43C327.35 218.57 326.97 215.73 326.65 212.87C326.32 209.94 326.06 207 325.72 204.07C325.33 200.72 324.89 197.37 324.47 194.02C324.12 191.24 323.77 188.46 323.44 185.68C323.05 182.5 322.69 179.33 322.29 176.15C321.98 173.65 321.64 171.16 321.31 168.67C320.98 166.1 320.66 163.54 320.34 160.97C320.01 158.33 319.69 155.69 319.36 153.05C319.04 150.56 318.71 148.06 318.39 145.57C318.07 143.08 317.75 140.58 317.42 138.09C317.03 135.17 316.61 132.25 316.23 129.33C315.83 126.23 315.48 123.12 315.08 120.02C314.53 115.78 313.89 111.55 313.42 107.3C313.04 103.87 312.6 100.44 312.46 96.9803C312.44 96.4603 312.9 95.5603 311.84 95.3103C311.6 95.2503 311.74 94.9303 311.88 94.7603C312.11 94.4803 312.08 94.1503 312.09 93.8303C312.17 90.6903 312.22 87.5403 312.24 84.4103C312.29 76.0203 312.38 67.6403 312.15 59.2503C311.97 52.6403 311.92 46.0203 311.87 39.4103L311.86 39.4003Z" fill="#878787"/>
<path d="M313.01 83.5105C312.99 82.6205 312.96 81.7305 312.95 80.8505C312.95 80.4605 312.87 80.0405 313.31 79.8005C313.49 80.8905 313.96 81.8905 314.32 82.9205C319.84 98.9305 325.92 114.751 331.76 130.641C331.86 130.901 331.83 131.251 332.26 131.421C332.14 131.021 332.04 130.681 331.92 130.351C329.6 123.401 327.04 116.541 324.75 109.581C321.09 98.4605 317.17 87.4205 313.69 76.2305C313.49 75.5905 313.43 74.8805 312.97 74.3305C313.29 73.7605 312.84 73.2005 312.95 72.6405C313.03 72.2305 312.79 71.7605 313.2 71.4205C314.5 75.3705 315.8 79.3105 317.09 83.2605C321.23 95.9505 325.72 108.511 330.05 121.131C337.93 144.091 346.23 166.881 355.69 189.251C355.94 189.831 356.18 190.421 356.55 191.29C356.55 190.861 356.58 190.751 356.55 190.661C353.6 181.901 350.82 173.08 347.54 164.43C336.22 134.62 325.66 104.551 315.97 74.1705C315 71.1105 313.99 68.0705 312.99 65.0205C313.1 64.1205 312.64 63.1605 313.24 62.3005C313.35 62.6005 313.48 62.9005 313.58 63.2105C317.99 76.4405 322.4 89.6805 326.82 102.911C328.77 108.731 330.69 114.571 332.76 120.351C333.48 122.381 334.02 124.491 335.07 126.401C335.09 126.601 335.11 126.801 335.13 127.001C335.7 129.371 336.71 131.581 337.62 133.831C336.96 131.461 336.44 129.041 335.43 126.781C335.34 126.631 335.25 126.481 335.16 126.331C335.21 125.961 335.05 125.62 334.95 125.281C334.19 122.851 333.43 120.421 332.68 117.981C330.09 109.631 327.5 101.281 324.9 92.9405C320.84 79.9005 317.21 66.7405 313.64 53.5605C313.41 52.7105 313.34 51.7905 312.77 51.0605C313.07 50.2505 312.63 49.4405 312.76 48.6205C312.82 48.2505 312.64 47.8205 313.02 47.5205C314.64 52.0505 315.97 56.6705 317.3 61.2805C324.88 87.5505 332.34 113.851 341.19 139.73C347.24 157.421 353.28 175.12 359.86 192.62C360.33 193.87 360.76 195.141 361.1 196.441C361.33 197.291 361.66 197.701 362.63 197.641C364.22 197.551 365.81 197.661 367.4 197.641C368.15 197.631 368.51 197.871 368.33 198.661C367.95 198.941 367.51 198.891 367.08 198.891C365.74 198.911 364.41 198.891 363.07 198.961C362.36 199.001 361.65 199.21 360.96 198.9C361.03 198.41 360.74 198.031 360.54 197.631C360.59 197.211 360.37 196.87 360.23 196.501C359.11 193.531 357.97 190.561 356.84 187.59C356.55 186.57 356.14 185.611 355.58 184.701C355.68 185.721 355.97 186.681 356.39 187.601C357.48 190.941 358.57 194.281 359.65 197.62C359.48 197.82 359.33 197.801 359.22 197.561C358.63 196.061 358.04 194.561 357.46 193.061C357.57 194.411 358.31 195.58 358.37 196.93C358.04 196.9 358.04 196.611 357.94 196.391C354.78 188.87 351.63 181.35 348.46 173.84C348.34 173.55 348.35 173.09 347.86 173.09C347.82 173.131 347.77 173.171 347.78 173.191C349.02 176.34 350.25 179.491 351.5 182.631C353.34 187.271 355.2 191.901 357.06 196.521C357.24 196.971 357.29 197.54 357.93 197.65C357.89 197.951 358.03 198.34 357.57 198.43C357.26 198.49 357.04 198.331 356.86 198.071C356.74 197.901 356.57 197.77 356.42 197.62C356.14 196.38 355.53 195.271 355.04 194.111C345.73 172.291 337.3 150.131 329.19 127.84C325.82 118.57 322.65 109.241 319.09 100.041C319.12 98.9005 318.48 97.9905 318.04 97.0105C318.15 98.0405 318.29 99.0505 318.75 99.9805C318.9 100.601 319.05 101.221 319.2 101.841C319.03 102.031 319.09 102.161 319.29 102.271C319.32 102.391 319.35 102.511 319.38 102.631C319.25 102.871 319.31 103.051 319.53 103.201C319.62 103.591 319.71 103.981 319.81 104.371C319.69 104.601 319.76 104.791 319.96 104.931C320.85 108.501 321.74 112.081 322.64 115.651C322.51 115.891 322.58 116.071 322.79 116.221C323.32 118.271 323.85 120.331 324.38 122.381C324.25 122.621 324.32 122.8 324.53 122.951C325.2 125.44 325.87 127.931 326.54 130.421C326.41 130.66 326.48 130.841 326.7 130.991C326.86 131.601 327.02 132.211 327.19 132.811C327.07 133.05 327.14 133.23 327.35 133.37C328.6 137.89 329.84 142.401 331.09 146.921C331 147.131 331.03 147.3 331.24 147.43C332.79 152.69 334.32 157.961 335.9 163.221C338.76 172.731 342.08 182.09 345.17 191.531C345.81 193.48 346.44 195.44 346.66 197.51C346.52 198.361 346.22 197.701 345.98 197.581C346.07 197.281 345.98 197.011 345.88 196.741C345.23 194.711 344.64 192.66 343.93 190.65C335.94 167.93 328.93 144.921 322.89 121.611C319.68 109.231 316.63 96.8005 313.49 84.4005C313.41 84.1005 313.58 83.6205 313.05 83.5305L313.01 83.5105ZM341.4 156.301C341.42 156.391 341.43 156.481 341.45 156.581C341.49 156.561 341.52 156.541 341.56 156.521C341.5 156.451 341.45 156.381 341.39 156.321L341.32 156.021C341.32 156.021 341.26 156.061 341.23 156.081C341.29 156.161 341.34 156.241 341.4 156.321V156.301ZM340.96 155.221C340.98 155.321 341.01 155.421 341.03 155.521C341.06 155.501 341.09 155.481 341.12 155.461C341.06 155.381 341.01 155.301 340.95 155.221C340.9 155.131 341.06 154.911 340.79 154.971C340.85 155.051 340.9 155.131 340.96 155.211V155.221ZM339.66 151.741C339.71 151.831 339.55 152.041 339.82 151.991C339.76 151.911 339.71 151.831 339.65 151.751C339.6 151.661 339.76 151.441 339.49 151.501C339.55 151.581 339.6 151.661 339.66 151.741ZM340.31 153.48C340.36 153.57 340.2 153.781 340.47 153.73C340.41 153.65 340.36 153.571 340.3 153.491C340.25 153.401 340.41 153.191 340.14 153.241C340.2 153.321 340.25 153.4 340.31 153.48ZM338.35 148.281C338.37 148.37 338.39 148.471 338.4 148.561C338.44 148.541 338.48 148.511 338.52 148.491C338.46 148.421 338.41 148.351 338.35 148.281C338.33 148.191 338.31 148.09 338.29 148.001C338.25 148.021 338.21 148.051 338.17 148.071C338.23 148.141 338.28 148.211 338.34 148.281H338.35ZM339.87 140.471C339.9 140.571 339.93 140.66 339.96 140.76C339.99 140.741 340.04 140.711 340.04 140.701C339.99 140.62 339.94 140.541 339.88 140.461C339.88 140.221 339.91 139.971 339.67 139.811C339.56 138.65 339.16 137.58 338.62 136.561C338.56 136.471 338.5 136.37 338.44 136.281C338.42 136.37 338.39 136.461 338.37 136.551C338.81 137.641 338.99 138.831 339.65 139.831C339.66 140.071 339.62 140.32 339.87 140.48V140.471ZM356.8 191.711C356.77 191.591 356.74 191.471 356.72 191.351C356.69 191.371 356.65 191.391 356.65 191.411C356.63 191.551 356.67 191.661 356.82 191.691C356.8 192.051 356.86 192.391 357.21 192.721C357.16 192.271 357.07 191.951 356.8 191.701V191.711ZM342.48 159.131C342.46 159.041 342.44 158.941 342.42 158.851C342.38 158.871 342.34 158.901 342.3 158.921C342.36 158.991 342.41 159.061 342.47 159.131C342.48 159.481 342.38 159.87 342.85 160.09C342.91 159.65 342.76 159.361 342.47 159.131H342.48ZM336.98 145.15C337.09 145.11 337.19 145.061 337.3 145.021C335.73 140.631 334.15 136.241 332.58 131.851C332.43 131.901 332.28 131.96 332.14 132.01L336.99 145.15H336.98ZM347.55 172.781C347.7 172.721 347.85 172.671 348.01 172.611C346.54 168.941 345.07 165.26 343.59 161.59C343.49 161.631 343.38 161.671 343.28 161.711C344.7 165.401 346.13 169.09 347.55 172.781ZM339.13 150.331C339.15 150.231 339.21 150.12 339.18 150.04C339.13 149.89 339.08 149.55 338.84 149.84C338.72 149.98 338.88 150.231 339.13 150.331ZM343.29 161.191C343.29 161.071 343.34 160.961 343.31 160.881C343.25 160.751 343.18 160.441 343 160.631C342.82 160.821 342.97 161.091 343.29 161.191ZM342.17 158.37C342.19 158.271 342.25 158.161 342.22 158.081C342.16 157.931 342.12 157.59 341.88 157.87C341.76 158.01 341.92 158.26 342.17 158.37ZM337.85 146.861C337.86 146.741 337.91 146.631 337.87 146.551C337.81 146.421 337.75 146.101 337.56 146.301C337.38 146.491 337.52 146.75 337.85 146.87V146.861ZM338.04 147.301C338.04 147.301 337.97 147.341 337.97 147.361C337.97 147.411 338 147.471 338.02 147.521C338.04 147.501 338.09 147.481 338.09 147.471C338.09 147.421 338.06 147.361 338.04 147.311V147.301ZM337.45 145.62C337.45 145.62 337.41 145.571 337.39 145.551C337.36 145.601 337.33 145.65 337.32 145.701C337.32 145.72 337.36 145.751 337.38 145.771C337.41 145.721 337.43 145.671 337.46 145.62H337.45ZM340.46 142.031C340.46 142.031 340.46 141.97 340.47 141.951C340.43 141.951 340.39 141.961 340.36 141.971C340.36 142.001 340.37 142.03 340.39 142.04C340.4 142.04 340.43 142.041 340.46 142.031ZM340.22 141.26C340.22 141.26 340.16 141.261 340.15 141.281C340.14 141.3 340.14 141.331 340.13 141.361C340.17 141.361 340.21 141.351 340.24 141.34C340.23 141.311 340.22 141.29 340.21 141.26H340.22ZM338.31 135.641C338.31 135.641 338.27 135.591 338.25 135.571C338.22 135.621 338.19 135.671 338.18 135.721C338.18 135.741 338.22 135.76 338.24 135.79C338.27 135.74 338.29 135.691 338.32 135.641H338.31ZM340.66 154.281C340.66 154.281 340.6 154.281 340.59 154.301C340.57 154.321 340.58 154.361 340.57 154.391C340.61 154.391 340.65 154.371 340.69 154.361C340.68 154.331 340.67 154.301 340.66 154.271V154.281ZM341.78 157.171C341.78 157.171 341.75 157.11 341.73 157.09C341.72 157.09 341.68 157.121 341.66 157.131C341.69 157.171 341.72 157.211 341.75 157.251C341.76 157.221 341.77 157.191 341.79 157.161L341.78 157.171ZM337.88 134.43C337.85 134.37 337.83 134.32 337.8 134.26C337.78 134.28 337.73 134.311 337.73 134.331C337.75 134.391 337.78 134.441 337.8 134.501C337.82 134.481 337.85 134.45 337.87 134.43H337.88ZM338.74 149.12C338.74 149.12 338.7 149.07 338.68 149.04C338.66 149.06 338.61 149.101 338.61 149.111C338.63 149.151 338.67 149.181 338.7 149.211C338.71 149.181 338.72 149.15 338.73 149.12H338.74ZM340.04 152.601C340.04 152.601 340 152.551 339.99 152.521C339.97 152.541 339.92 152.581 339.93 152.581C339.95 152.621 339.99 152.65 340.02 152.68C340.02 152.65 340.04 152.62 340.05 152.59L340.04 152.601ZM338.1 135.081C338.08 135.031 338.05 134.971 338.03 134.921C338.01 134.94 337.96 134.97 337.96 134.98C337.97 135.04 338.01 135.09 338.03 135.141C338.05 135.121 338.08 135.101 338.1 135.071V135.081ZM339.38 150.941C339.38 150.941 339.39 150.881 339.4 150.84C339.36 150.84 339.32 150.86 339.28 150.87C339.29 150.9 339.3 150.931 339.32 150.951C339.32 150.951 339.37 150.95 339.39 150.93L339.38 150.941Z" fill="#6F6F6F"/>
<path d="M297.28 41.4006C297.05 42.2906 296.21 42.5606 295.54 42.8406C288.87 45.6906 282.16 48.4406 275.5 51.3006C269.86 53.7206 264.26 56.2306 258.65 58.7206C252.51 61.4506 246.39 64.1906 240.26 66.9506C235.95 68.8906 231.65 70.8806 227.35 72.8506C220.72 75.8806 214.08 78.9106 207.45 81.9406C203.67 83.6706 199.91 85.4306 196.13 87.1506C190.67 89.6206 185.2 92.0706 179.72 94.5006C174.97 96.6106 170.21 98.7106 165.44 100.751C159.8 103.161 154.15 105.551 148.48 107.881C142 110.541 135.51 113.161 129 115.701C122.85 118.101 116.65 120.391 110.48 122.711C99.7399 126.751 88.8899 130.521 78.0599 134.311C71.8599 136.481 65.6199 138.541 59.3999 140.681C49.3699 144.151 39.3399 147.611 29.3299 151.141C23.8199 153.081 18.3399 155.141 12.8499 157.151C12.4799 157.281 11.8399 157.291 12.0799 157.921C12.2799 158.451 12.7799 158.261 13.1999 158.091C21.9599 154.631 30.7999 151.371 39.6899 148.271C47.0499 145.711 54.4299 143.171 61.7899 140.621C69.6999 137.881 77.6299 135.191 85.5299 132.401C94.2399 129.331 102.95 126.241 111.62 123.051C119.1 120.291 126.56 117.461 133.96 114.511C143.21 110.831 152.42 107.051 161.6 103.191C169.05 100.061 176.44 96.7806 183.84 93.5106C190.81 90.4306 197.75 87.3106 204.69 84.1706C210.65 81.4806 216.57 78.7306 222.52 76.0206C230.97 72.1806 239.42 68.3506 247.87 64.5306C254.22 61.6606 260.56 58.7706 266.95 56.0006C274.33 52.7906 281.71 49.5806 289.18 46.5906C291.62 45.6106 294.06 44.6206 296.51 43.6406C296.92 43.4806 297.41 43.2706 297.29 44.0906C296.63 43.7306 296.09 44.1806 295.56 44.4106C288.98 47.1406 282.39 49.8406 275.83 52.6406C263.89 57.7406 252.04 63.0606 240.23 68.4506C224.63 75.5706 209.05 82.7306 193.42 89.7706C173.37 98.8006 153.15 107.451 132.67 115.471C120.61 120.191 108.47 124.691 96.2699 129.021C79.1899 135.091 61.9999 140.841 44.8899 146.811C34.3699 150.481 23.8899 154.271 13.5199 158.361C13.3199 158.441 13.1199 158.541 12.9099 158.581C12.3199 158.681 11.8099 158.551 11.6099 157.901C11.3999 157.221 11.9699 157.121 12.3899 156.961C16.1599 155.571 19.9199 154.181 23.6999 152.821C41.4399 146.441 59.2999 140.421 77.1199 134.261C98.0799 127.011 118.92 119.421 139.5 111.151C153.5 105.521 167.37 99.6006 181.15 93.4506C195.82 86.9106 210.4 80.1606 225 73.4806C247.53 63.1706 270.11 52.9506 293.04 43.5506C294.51 42.9506 295.93 42.2506 297.27 41.3906L297.28 41.4006Z" fill="#6F6F6F"/>
<path d="M297.27 47.25C297.33 47.81 296.84 47.87 296.51 48.03C292.24 50.07 287.94 52.05 283.7 54.15C277.87 57.03 272.09 60 266.37 63.1C263.7 64.54 261.01 65.94 258.32 67.35C251.76 70.79 245.17 74.18 238.63 77.65C230 82.22 221.27 86.6 212.5 90.88C205.72 94.19 198.87 97.37 191.99 100.49C183.67 104.25 175.3 107.91 166.9 111.47C157.26 115.55 147.57 119.49 137.84 123.34C129.65 126.57 121.43 129.71 113.22 132.89C106.26 135.59 99.29 138.29 92.33 141C83.69 144.36 75.04 147.7 66.41 151.11C57.38 154.67 48.36 158.26 39.42 162.03C32.54 164.93 25.65 167.81 18.78 170.76C17.17 171.45 15.52 172.08 13.88 173.17C15.03 173.33 15.79 172.78 16.57 172.46C25.03 168.95 33.49 165.4 41.94 161.86C54.52 156.58 67.22 151.61 79.91 146.62C88.8 143.12 97.74 139.72 106.65 136.26C117.71 131.96 128.78 127.68 139.82 123.31C147.63 120.21 155.4 116.99 163.16 113.76C169.36 111.18 175.53 108.55 181.69 105.89C185.4 104.29 189.08 102.61 192.75 100.92C206.26 94.73 219.58 88.15 232.82 81.42C239.62 77.96 246.35 74.38 253.11 70.85C257.79 68.41 262.47 65.98 267.13 63.52C274.1 59.84 281.2 56.39 288.25 52.88C290.93 51.54 293.69 50.36 296.41 49.1C296.88 48.88 297.35 48.65 297.3 49.52C296.9 49.21 296.54 49.47 296.19 49.63C288.31 53.2 280.57 57.06 272.89 61.03C268.39 63.36 263.88 65.67 259.4 68.02C245.08 75.53 230.79 83.11 216.26 90.23C200.47 97.96 184.48 105.28 168.27 112.1C147.33 120.91 126.18 129.19 104.98 137.36C88.24 143.82 71.5 150.27 54.86 156.98C42.18 162.09 29.58 167.4 16.98 172.71C16.31 172.99 15.64 173.25 14.96 173.5C14.49 173.67 13.88 173.93 13.62 173.32C13.35 172.69 14.05 172.57 14.43 172.4C17.53 171 20.63 169.6 23.76 168.26C39.39 161.56 55.14 155.16 70.98 148.97C87.32 142.59 103.69 136.26 120.06 129.93C137.64 123.13 155.17 116.2 172.48 108.73C185.1 103.28 197.64 97.63 210.02 91.66C225.28 84.31 240.29 76.46 255.26 68.55C265.85 62.96 276.41 57.31 287.2 52.09C290.55 50.47 293.92 48.88 297.28 47.27L297.27 47.25Z" fill="#6F6F6F"/>
<path d="M285.27 210.6C287.84 210.45 290.41 210.31 292.97 210.16C292.95 210.54 292.49 210.69 292.52 211.11C292.69 213.71 292.08 216.24 291.89 218.81C291.71 221.2 291.3 223.57 291.15 225.97C290.99 228.4 290.68 230.82 290.59 233.25C290.53 234.77 290.97 235.14 292.51 235.11C292.6 235.55 292.48 235.77 291.97 235.78C289.01 235.86 286.05 235.96 283.09 236.08C282.31 236.11 282.5 235.62 282.56 235.23C283.13 231.92 283.37 228.57 283.74 225.24C284.27 220.36 284.76 215.48 285.27 210.6Z" fill="#6F6F6F"/>
<path d="M360.93 198.87C361.63 199.18 362.33 198.97 363.04 198.93C364.37 198.86 365.71 198.88 367.05 198.86C367.48 198.86 367.92 198.91 368.3 198.63C368.66 199.08 368.88 199.59 368.91 200.18C363.55 200.44 358.18 200.52 352.82 200.66C351.06 200.71 349.3 200.8 347.53 200.8C342.99 200.82 338.45 201.08 333.91 201.08C332.38 201.08 330.82 201.25 329.28 201.23C328.37 201.22 327.62 200.92 327.73 199.77C329.53 199.69 331.34 199.58 333.14 199.53C336.97 199.43 340.8 199.35 344.63 199.27C344.93 199.27 345.22 199.26 345.52 199.25C347.07 199.31 348.61 199.16 350.15 199.11C353.74 199 357.34 199.13 360.93 198.86V198.87Z" fill="#A9A9A9"/>
<path d="M292.5 235.11C290.96 235.13 290.53 234.77 290.58 233.25C290.67 230.82 290.98 228.4 291.14 225.97C291.3 223.57 291.71 221.21 291.88 218.81C292.07 216.24 292.68 213.7 292.51 211.11C292.48 210.69 292.95 210.54 292.96 210.16C293.52 209.85 294.09 210.2 294.65 210.14C294.94 211.79 294.56 213.42 294.41 215.05C294.02 219.33 293.91 223.62 293.6 227.91C293.47 229.71 293.3 231.5 293.13 233.3C293.07 233.95 292.89 234.57 292.49 235.11H292.5Z" fill="#5B5B5B"/>
<path d="M302.26 40.6C300.77 41.02 300.37 40.75 300.35 39.17C300.32 36.66 300.29 34.14 300.54 31.63C300.6 31.05 301.06 30.79 301.23 30.33C301.95 30.19 302.55 30.28 302.52 31.21C302.44 34.34 302.35 37.47 302.26 40.6Z" fill="#5B5B5B"/>
<path d="M317.73 199.95C318.09 202.83 318.45 205.71 318.81 208.6C318.23 208.6 317.65 208.6 317.07 208.61C316.44 205.76 316.12 202.86 315.74 199.97C316.4 199.97 317.06 199.97 317.72 199.96L317.73 199.95Z" fill="#6F6F6F"/>
<path d="M306.2 40.5303C307.05 41.6403 306.4 42.8303 306.36 43.9803C306.34 44.3703 306.27 44.7603 306.22 45.1603C305.93 45.2103 305.64 45.2503 305.36 45.1003C304.89 43.6403 305.21 42.1403 305.14 40.6503C305.49 40.6103 305.85 40.5703 306.2 40.5303Z" fill="#5B5B5B"/>
<path d="M297.35 200.451C299.37 200.431 301.38 200.401 303.4 200.381C303.55 200.601 303.69 200.601 303.83 200.381C307.29 200.271 310.75 200.171 314.21 200.061C314.46 200.631 315.43 200.571 315.35 201.481C315.3 202.121 315.14 202.351 314.47 202.361C309.85 202.401 305.22 202.511 300.6 202.621C296.99 202.711 293.37 202.591 289.77 202.831C287.06 203.011 284.35 202.881 281.65 203.001C276.46 203.251 271.26 203.301 266.06 203.481C263.86 203.561 261.66 203.531 259.46 203.651C254.56 203.901 249.65 203.951 244.74 204.141C242.61 204.221 240.48 204.201 238.36 204.301C232.99 204.551 227.61 204.601 222.23 204.791C219.63 204.881 217.03 204.831 214.43 204.961C208.88 205.231 203.31 205.261 197.76 205.441C195.2 205.521 192.62 205.401 190.08 205.631C187.3 205.881 184.51 205.611 181.74 205.851C179.06 206.081 176.39 205.821 173.73 206.061C171.02 206.311 168.3 206.031 165.61 206.281C162.97 206.521 160.33 206.251 157.71 206.491C154.93 206.741 152.14 206.471 149.37 206.711C146.62 206.951 143.87 206.681 141.14 206.921C138.39 207.161 135.64 206.901 132.91 207.141C130.2 207.381 127.48 207.121 124.79 207.361C122.08 207.601 119.36 207.341 116.67 207.571C113.81 207.821 110.95 207.551 108.12 207.791C105.23 208.041 102.33 207.761 99.4601 208.011C96.5001 208.261 93.5301 207.981 90.5801 208.231C87.6201 208.481 84.6501 208.201 81.7001 208.451C78.7001 208.701 75.6901 208.421 72.7101 208.671C69.7101 208.921 66.7001 208.641 63.7201 208.881C60.6101 209.141 57.5001 208.851 54.4101 209.101C51.4101 209.351 48.4101 209.071 45.4201 209.311C42.2401 209.561 39.0501 209.291 35.8901 209.541C33.2501 209.751 30.6201 209.571 27.9901 209.721C22.8601 210.021 17.7301 209.891 12.6001 209.931C12.1301 209.931 11.6501 209.941 11.2401 209.661C10.9401 209.451 10.6101 209.231 10.7401 208.801C10.8501 208.421 11.1501 208.201 11.5601 208.201C12.4301 208.201 13.2901 208.001 14.1401 208.011C16.6701 208.041 19.1901 207.751 21.7201 207.751C25.3301 207.751 28.9401 207.571 32.5501 207.461C35.0401 207.381 37.5301 207.431 40.0201 207.301C45.1001 207.021 50.1901 206.991 55.2801 206.841C60.4001 206.691 65.5301 206.551 70.6501 206.411C75.8801 206.261 81.1201 206.141 86.3401 205.951C88.9801 205.861 91.6101 205.911 94.2401 205.781C99.7201 205.511 105.21 205.491 110.69 205.301C113.36 205.211 116.04 205.341 118.7 205.111C121.66 204.851 124.63 205.131 127.58 204.881C130.36 204.651 133.15 204.911 135.92 204.671C138.85 204.421 141.78 204.691 144.69 204.451C147.51 204.211 150.33 204.481 153.14 204.241C156.1 203.991 159.07 204.261 162.02 204.021C164.95 203.781 167.88 204.051 170.79 203.801C173.57 203.561 176.36 203.831 179.13 203.591C182.13 203.331 185.14 203.611 188.12 203.371C191.01 203.131 193.91 203.401 196.78 203.161C199.71 202.911 202.64 203.191 205.55 202.941C208.33 202.701 211.12 202.971 213.89 202.731C216.96 202.471 220.04 202.761 223.09 202.511C226.2 202.261 229.31 202.551 232.4 202.291C235.65 202.021 238.91 202.331 242.15 202.071C245.62 201.801 249.1 202.111 252.55 201.851C256.02 201.591 259.49 201.891 262.95 201.631C266.38 201.381 269.82 201.671 273.24 201.411C276.13 201.191 279.02 201.331 281.91 201.231C282.25 201.221 282.66 201.351 282.79 200.841C283 200.841 283.21 200.841 283.43 200.841C283.56 200.901 283.68 201.011 283.81 201.011C285.89 201.011 287.97 201.011 290.06 201.011C290.34 201.011 290.55 200.931 290.63 200.631C291.55 200.571 292.47 200.601 293.38 200.741C294.48 200.761 295.58 200.781 296.68 200.791C296.98 200.791 297.26 200.781 297.37 200.431L297.35 200.451Z" fill="#A9A9A9"/>
<path d="M303.47 76.39C303.63 80.67 303.8 84.95 303.96 89.24C303.97 89.52 303.86 89.81 303.8 90.09C302.91 90.44 302.37 90.28 302.27 89.18C301.98 85.96 301.6 82.76 302.05 79.52C302.13 78.95 302.11 78.37 302.07 77.79C302 76.76 302.46 76.32 303.47 76.39Z" fill="#5B5B5B"/>
<path d="M303.19 65.7806C303.19 67.5806 303.19 69.3906 303.2 71.1906C302.94 71.3406 302.99 71.6206 302.92 71.8606C302.84 72.1306 302.64 72.2606 302.36 72.2906C302.01 72.3206 301.78 72.0906 301.74 71.8106C301.51 69.9406 301.1 68.0506 301.63 66.1706C301.9 65.2206 302.39 65.1406 303.18 65.7906L303.19 65.7806Z" fill="#5B5B5B"/>
<path d="M305.36 90.23C305.79 90.17 306.22 90.1 306.65 90.04C307.15 92.1 306.62 94.16 306.66 96.21C306.66 96.68 306.64 97.09 306.01 97.04C305 95.38 305.04 93.55 305.23 91.72C305.28 91.22 305.33 90.72 305.37 90.22L305.36 90.23Z" fill="#5B5B5B"/>
<path d="M302.74 55.5699C302.97 57.1499 302.98 58.7399 302.88 60.3399C301.62 61.0099 301.66 60.9899 301.4 59.4999C301.24 58.5699 301.19 57.6499 301.24 56.7299C301.29 55.6999 301.79 55.3599 302.75 55.5699H302.74Z" fill="#5B5B5B"/>
<path d="M302.47 45.5899C302.75 47.3899 302.6 49.1999 302.53 51.0099C301.66 51.3899 301.27 51.1999 301.13 50.1499C300.98 48.9599 300.99 47.8199 301.18 46.6399C301.31 45.8199 301.69 45.4999 302.47 45.5899Z" fill="#5B5B5B"/>
<path d="M305.35 60.6306C305.66 60.3206 306.07 60.4406 306.43 60.3906C307.11 61.6906 306.9 63.0206 306.58 64.3506C306.49 64.7406 306.4 65.1106 306.43 65.5106C306.21 65.4906 306 65.4806 305.78 65.4606C305.55 63.8606 305.36 62.2506 305.34 60.6306H305.35Z" fill="#5B5B5B"/>
<path d="M305.36 71.7206C305.72 71.6806 306.07 71.6406 306.43 71.6006C306.97 73.1906 306.77 74.7806 306.44 76.3706C306.22 76.3506 306.01 76.3306 305.79 76.3106C305.13 74.8306 305.36 73.2606 305.36 71.7206Z" fill="#5B5B5B"/>
<path d="M305.57 51.0605C305.71 51.0605 305.85 51.0605 305.99 51.0605C305.99 51.2405 306.06 51.3805 306.23 51.4605C306.54 52.4605 306.43 53.4805 306.42 54.4905C305.74 54.6005 305.37 54.2805 305.35 53.6305C305.33 52.7705 305.21 51.9005 305.57 51.0705V51.0605Z" fill="#5B5B5B"/>
<path d="M297.46 77.1798C296.89 76.9198 296.87 77.7198 296.44 77.7198C296.42 77.4498 296.5 77.1198 296.07 77.0898C296.11 76.8398 296.28 76.6898 296.5 76.5898C296.84 76.7498 297.52 76.3598 297.45 77.1798H297.46Z" fill="#6F6F6F"/>
<path d="M254.07 125.19C253.99 125.28 253.91 125.37 253.83 125.46C253.07 125.88 252.37 126.35 252.18 127.28C252.08 127.4 251.98 127.51 251.88 127.63C251.12 128.05 250.42 128.52 250.23 129.46C250.14 129.72 249.98 129.91 249.73 130.03C249.09 130.28 248.56 130.64 248.49 131.41C248.4 131.66 248.24 131.86 247.99 131.98C247.23 132.31 246.66 132.81 246.47 133.66C246.39 133.89 246.24 134.04 246.03 134.15C245.27 134.49 244.68 134.98 244.52 135.85C244.44 135.93 244.36 136.02 244.28 136.1C243.56 136.47 242.93 136.91 242.77 137.78C242.68 138 242.55 138.17 242.33 138.27C241.58 138.61 240.99 139.1 240.82 139.96C240.74 140.19 240.59 140.34 240.38 140.44C239.74 140.69 239.23 141.06 239.14 141.81C239.05 142.07 238.9 142.27 238.64 142.39C237.95 142.65 237.47 143.09 237.34 143.85C237.2 144.16 236.97 144.39 236.69 144.57C236 144.83 235.51 145.27 235.39 146.03C235.31 146.26 235.16 146.42 234.94 146.51C234.32 146.78 233.8 147.14 233.71 147.89C233.55 148.22 233.32 148.5 233 148.69C232.36 148.94 231.85 149.31 231.76 150.06C231.62 150.41 231.35 150.65 231.05 150.86C230.4 151.11 229.88 151.48 229.81 152.24C229.67 152.59 229.41 152.84 229.1 153.03C228.52 153.2 228.11 153.52 228.07 154.18C227.98 154.44 227.82 154.64 227.57 154.76C226.87 155.09 226.27 155.52 226.12 156.36C225.97 156.7 225.73 156.96 225.41 157.16C224.82 157.33 224.41 157.65 224.38 158.31C224.18 158.74 223.83 159.05 223.47 159.33C222.87 159.49 222.46 159.81 222.43 160.49C222.23 160.92 221.89 161.23 221.51 161.51C220.99 161.6 220.68 161.88 220.68 162.44C220.53 162.79 220.3 163.05 219.97 163.24C219.32 163.49 218.82 163.86 218.72 164.61C218.57 164.95 218.34 165.22 218.02 165.41C217.36 165.65 216.85 166.02 216.77 166.79C216.67 167.04 216.5 167.23 216.27 167.36C215.63 167.61 215.11 167.98 215.03 168.74C214.82 169.16 214.48 169.47 214.12 169.76C213.6 169.85 213.29 170.13 213.28 170.68C212.99 171.17 212.62 171.59 212.16 171.93C211.64 172.02 211.33 172.3 211.33 172.85C211.04 173.34 210.67 173.76 210.21 174.1C209.69 174.19 209.37 174.47 209.38 175.03C209.13 175.42 208.88 175.81 208.47 176.05C207.96 176.14 207.65 176.42 207.64 176.97C207.42 177.39 207.12 177.73 206.73 178C206.22 178.09 205.91 178.37 205.9 178.92C205.65 179.31 205.38 179.68 204.99 179.95C204.4 180.11 203.99 180.44 203.95 181.1C203.61 181.55 203.3 182.02 202.83 182.35C202.3 182.43 201.99 182.71 201.99 183.28C201.77 183.7 201.45 184.02 201.08 184.3C200.56 184.39 200.25 184.66 200.24 185.22C199.95 185.71 199.57 186.12 199.13 186.48C198.6 186.56 198.29 186.84 198.29 187.4C198.05 187.8 197.76 188.15 197.38 188.42C196.87 188.51 196.56 188.79 196.55 189.34C196.26 189.83 195.88 190.24 195.44 190.6C194.92 190.68 194.61 190.96 194.6 191.52C194.36 191.92 194.07 192.28 193.69 192.55C193.1 192.72 192.69 193.04 192.65 193.7C192.4 194.09 192.12 194.45 191.74 194.72C191.15 194.88 190.75 195.21 190.7 195.86C190.59 195.98 190.48 196.11 190.38 196.23C190.11 196.26 190.03 196.44 190.03 196.68C189.37 197.38 188.7 198.07 188.04 198.77C187.65 199.19 187.32 199.05 186.94 198.71C186.5 198.31 186.59 198.01 186.98 197.66C187.29 197.38 187.66 197.11 187.65 196.62C189.13 195.61 190.1 194.11 191.29 192.83C193.65 190.31 195.95 187.73 198.27 185.18C198.57 185.18 198.71 185.01 198.69 184.72C200.58 182.63 202.46 180.54 204.35 178.45C204.65 178.44 204.78 178.28 204.77 177.99C206 176.62 207.24 175.26 208.47 173.89C208.77 173.89 208.91 173.72 208.89 173.43C209.34 172.81 209.83 172.22 210.42 171.72C210.72 171.72 210.86 171.56 210.84 171.26C211.31 170.65 211.78 170.04 212.38 169.56C212.68 169.55 212.81 169.39 212.79 169.09C213.32 168.41 213.87 167.73 214.53 167.16C214.84 167.16 214.97 166.99 214.95 166.69C215.43 166.09 215.89 165.48 216.49 164.99C216.79 164.98 216.93 164.82 216.91 164.52C217.39 163.92 217.85 163.3 218.45 162.82C218.88 162.79 219.1 162.57 219.08 162.13C219.54 161.51 220.02 160.92 220.62 160.43C221.06 160.4 221.28 160.18 221.25 159.73C221.64 159.19 222.05 158.67 222.58 158.26C223.02 158.23 223.23 158.01 223.21 157.57C223.58 157.01 224.02 156.52 224.54 156.09C224.97 156.06 225.19 155.84 225.17 155.4C225.54 154.84 225.98 154.35 226.5 153.92C227.02 153.83 227.33 153.55 227.33 153C227.71 152.45 228.14 151.95 228.66 151.53C229.19 151.45 229.5 151.17 229.5 150.6C229.79 150.11 230.18 149.71 230.62 149.36C231.14 149.27 231.45 148.99 231.45 148.43C231.74 147.94 232.14 147.54 232.57 147.18C233.23 147.03 233.6 146.62 233.68 145.94C233.97 145.5 234.31 145.11 234.74 144.78C235.27 144.7 235.58 144.42 235.58 143.85C235.87 143.36 236.25 142.96 236.7 142.61C237.3 142.46 237.72 142.13 237.75 141.46C237.98 141.05 238.29 140.72 238.66 140.44C239.26 140.29 239.67 139.96 239.71 139.29C239.93 138.87 240.25 138.55 240.62 138.27C241.22 138.11 241.63 137.79 241.66 137.12C241.96 136.64 242.33 136.22 242.78 135.88C243.44 135.73 243.82 135.32 243.89 134.64C244.1 134.27 244.39 133.96 244.74 133.71C245.35 133.56 245.76 133.23 245.78 132.55C246 132.14 246.32 131.81 246.69 131.54C247.29 131.39 247.7 131.06 247.74 130.39C248.03 129.9 248.41 129.49 248.86 129.15C249.53 129 249.9 128.59 249.97 127.9C250.18 127.53 250.46 127.22 250.82 126.97C251.49 126.82 251.86 126.41 251.93 125.73C252.14 125.36 252.42 125.05 252.78 124.8C253.44 124.65 253.82 124.24 253.89 123.55C254.11 123.18 254.39 122.87 254.74 122.62C255.47 122.39 255.95 121.93 256.06 121.15C256.21 120.86 256.42 120.63 256.7 120.45C257.43 120.22 257.91 119.76 258.02 118.98C258.17 118.69 258.38 118.45 258.66 118.28C259.39 118.05 259.87 117.59 259.98 116.81C260.12 116.51 260.34 116.29 260.62 116.11C261.22 115.95 261.63 115.63 261.66 114.96C261.89 114.55 262.2 114.22 262.57 113.94C263.29 113.71 263.77 113.25 263.89 112.47C264.04 112.18 264.25 111.94 264.53 111.77C265.25 111.53 265.73 111.08 265.85 110.3C266.06 109.93 266.34 109.61 266.69 109.37C267.36 109.22 267.73 108.81 267.8 108.12C268.01 107.89 268.23 107.65 268.44 107.42C269.22 107.1 269.81 106.6 269.97 105.72L270.6 105.02C271.34 104.8 271.81 104.33 271.92 103.55C272.06 103.25 272.28 103.02 272.56 102.85C273.28 102.62 273.76 102.16 273.88 101.38C274.1 101.01 274.37 100.7 274.73 100.45C275.46 100.22 275.94 99.7598 276.05 98.9798C276.2 98.6798 276.42 98.4598 276.7 98.2798C277.48 97.9598 278.06 97.4598 278.23 96.5898C278.45 96.2198 278.72 95.9098 279.07 95.6698C279.81 95.4498 280.28 94.9898 280.4 94.2098C280.62 93.8398 280.9 93.5298 281.25 93.2898C281.68 93.2598 281.89 93.0298 281.88 92.5998C282.38 91.8898 282.96 91.2398 283.64 90.6798C283.94 90.6798 284.07 90.5098 284.06 90.2198C284.55 89.4898 285.16 88.8698 285.81 88.2898C286.24 88.2598 286.46 88.0398 286.44 87.5998C286.94 86.8798 287.54 86.2498 288.19 85.6798C288.49 85.6798 288.63 85.5198 288.61 85.2198C289.13 84.5198 289.69 83.8498 290.37 83.2998C290.68 83.4198 290.79 83.6698 290.81 83.9798C290.57 84.2498 290.33 84.5298 290.09 84.7998C289.7 84.8498 289.49 85.0698 289.49 85.4698C289.11 85.8998 288.73 86.3298 288.35 86.7498C287.95 86.7998 287.75 87.0198 287.75 87.4298C287.44 87.7798 287.13 88.1398 286.82 88.4898C286.34 88.5998 286.05 88.8698 286.01 89.3798C285.7 89.7298 285.39 90.0898 285.08 90.4398C284.6 90.5498 284.31 90.8198 284.27 91.3398C283.96 91.6898 283.65 92.0498 283.34 92.3998C282.86 92.5098 282.56 92.7898 282.54 93.2998C282.23 93.6498 281.92 93.9998 281.61 94.3398C280.93 94.6898 280.3 95.0998 280.18 95.9498C280.08 96.0698 279.98 96.1798 279.88 96.2998C279.19 96.6498 278.57 97.0598 278.44 97.9098C278.34 98.0298 278.24 98.1398 278.15 98.2598C277.45 98.5998 276.84 99.0198 276.7 99.8598C276.61 100.12 276.45 100.31 276.2 100.43C275.55 100.68 275.04 101.05 274.96 101.81C274.86 101.93 274.76 102.04 274.66 102.16C273.87 102.61 273.15 103.11 272.95 104.08C272.87 104.16 272.79 104.25 272.71 104.33C272.02 104.68 271.41 105.09 271.27 105.93C271.17 106.18 271.02 106.39 270.77 106.5C270.01 106.84 269.43 107.33 269.26 108.2C269.18 108.28 269.1 108.37 269.02 108.45C268.26 108.87 267.56 109.34 267.37 110.28C267.28 110.54 267.12 110.73 266.87 110.85C266.11 111.19 265.52 111.68 265.35 112.55L265.33 112.58C264.57 113 263.88 113.48 263.68 114.4C263.6 114.67 263.42 114.85 263.17 114.97C262.43 115.32 261.82 115.79 261.66 116.66C261.58 116.75 261.5 116.83 261.42 116.92C260.64 117.37 259.91 117.87 259.71 118.83C259.56 118.99 259.42 119.15 259.27 119.31C258.51 119.64 257.92 120.14 257.75 121.01L257.72 121.04C256.9 121.55 256.11 122.07 255.86 123.09C255.76 123.21 255.66 123.32 255.56 123.44C254.82 123.79 254.22 124.27 254.05 125.13L254.07 125.19Z" fill="#6F6F6F"/>
<path d="M290.61 200.64C290.53 200.94 290.32 201.02 290.04 201.02C287.96 201.02 285.88 201.02 283.79 201.02C283.66 201.02 283.54 200.91 283.41 200.85C283.54 200.63 283.75 200.61 283.97 200.61C286.18 200.61 288.39 200.63 290.6 200.64H290.61Z" fill="#878787"/>
<path d="M297.35 200.45C297.24 200.8 296.96 200.82 296.66 200.81C295.56 200.79 294.46 200.77 293.36 200.76C293.48 200.42 293.75 200.39 294.05 200.4C295.15 200.42 296.25 200.44 297.35 200.45Z" fill="#878787"/>
<path d="M190.04 196.69C190.04 196.45 190.13 196.27 190.39 196.24C190.44 196.37 190.49 196.5 190.55 196.63C190.38 196.65 190.21 196.67 190.04 196.69Z" fill="#878787"/>
<path d="M303.83 200.37C303.69 200.6 303.54 200.6 303.4 200.37C303.54 200.16 303.69 200.16 303.83 200.37Z" fill="#878787"/>
<path d="M311.86 39.3998C311.91 46.0098 311.96 52.6298 312.14 59.2398C312.37 67.6298 312.28 76.0198 312.23 84.3998C312.21 87.5398 312.16 90.6798 312.08 93.8198C312.08 94.1398 312.1 94.4698 311.87 94.7498C311.73 94.9198 311.59 95.2398 311.83 95.2998C312.89 95.5598 312.43 96.4498 312.45 96.9698C312.59 100.43 313.03 103.85 313.41 107.29C313.88 111.54 314.52 115.77 315.07 120.01C315.47 123.11 315.82 126.22 316.22 129.32C316.6 132.24 317.02 135.16 317.41 138.08C317.74 140.57 318.06 143.07 318.38 145.56C318.7 148.05 319.04 150.55 319.35 153.04C319.68 155.68 320 158.32 320.33 160.96C320.65 163.53 320.97 166.09 321.3 168.66C321.62 171.15 321.96 173.65 322.28 176.14C322.67 179.31 323.04 182.49 323.43 185.67C323.77 188.45 324.12 191.23 324.46 194.01C324.88 197.36 325.32 200.71 325.71 204.06C326.05 206.99 326.31 209.93 326.64 212.86C326.96 215.72 327.34 218.56 327.67 221.42C328 224.28 328.28 227.14 328.59 230C328.7 230.96 328.83 231.92 328.97 232.88C329.03 233.29 329.01 233.67 328.8 234.03C328.62 234.35 328.37 234.51 328 234.43C327.66 234.36 327.54 234.13 327.5 233.81C327.14 230.92 326.78 228.03 326.4 225.15C326 222.12 325.56 219.1 325.16 216.07C324.76 213.08 324.4 210.08 324.01 207.09C323.52 203.24 323 199.4 322.53 195.54C322.13 192.29 321.79 189.04 321.4 185.79C321 182.47 320.55 179.16 320.15 175.84C319.82 173.13 319.55 170.41 319.23 167.7C318.9 164.85 318.52 161.99 318.19 159.14C317.87 156.35 317.59 153.56 317.27 150.78C316.94 147.85 316.57 144.93 316.24 142C315.92 139.14 315.64 136.28 315.32 133.42C314.93 129.99 314.48 126.57 314.09 123.15C313.83 120.86 313.62 118.57 313.37 116.28C313.08 113.71 312.81 111.13 312.46 108.57C312.01 105.22 311.49 101.89 310.98 98.5498C310.89 97.9598 310.89 97.3298 310.53 96.7998C310.47 96.7198 310.38 96.5698 310.41 96.5198C311.29 95.2398 310.32 94.0098 310.32 92.7498C310.34 82.4398 310.23 72.1198 310.39 61.8098C310.45 58.2398 310.34 54.6498 310.58 51.0898C310.9 46.3598 310.63 41.6198 310.79 36.8898C310.84 35.4898 311.14 34.0998 310.85 32.6998C310.76 32.2598 311.07 31.9798 311.45 31.9498C311.96 31.9098 311.85 32.3498 311.85 32.6598C311.85 34.8998 311.85 37.1498 311.85 39.3898L311.86 39.3998Z" fill="#A9A9A9"/>
<path d="M345.53 199.26C345.23 199.26 344.94 199.27 344.64 199.28C344.67 198.66 344.64 198.05 344.19 197.55C344.29 197.06 344.06 196.63 343.91 196.19C343.01 193.53 342.1 190.87 341.19 188.21C340 184.67 338.83 181.12 337.61 177.59C336.89 175.49 336.34 173.32 335.43 171.29C335.33 171.07 335.43 170.74 335.09 170.63H335.11C334.9 168.89 334.14 167.28 333.63 165.61C327.26 144.81 320.94 124 315.31 102.98C314.72 100.77 314.27 98.4998 313.36 96.3798C313.13 95.8598 312.93 95.3498 313.82 95.2998C314 95.8098 314.19 96.3198 314.35 96.8398C319.43 112.97 323.98 129.26 328.78 145.48C333.95 162.95 339.72 180.22 345.31 197.55C345.2 198.15 345.49 198.69 345.54 199.26H345.53Z" fill="#6F6F6F"/>
<path d="M315.78 114.181C318.66 122.851 321.51 131.541 324.43 140.201C327.35 148.901 330.34 157.581 333.3 166.261C333.72 167.481 334.11 168.721 334.56 169.931C334.66 170.191 334.52 170.741 335.12 170.641L335.1 170.631C334.82 170.881 335.02 171.141 335.09 171.401C335.02 171.701 335.12 171.961 335.22 172.241C336.95 177.351 338.67 182.471 340.41 187.581C340.49 187.821 340.43 188.201 340.85 188.231C341.58 191.391 342.7 194.431 343.58 197.551C343.47 197.971 343.85 198.661 343.28 198.771C342.8 198.861 342.88 198.131 342.68 197.781C342.63 197.691 342.54 197.621 342.46 197.551C342.46 197.411 342.49 197.261 342.44 197.131C341.32 193.761 340.2 190.391 339.08 187.031C339.05 186.821 339.05 186.591 338.98 186.391C337.03 180.691 335.08 175.001 333.12 169.311C333.04 169.081 333 168.811 332.72 168.701C332.83 168.241 332.58 167.851 332.44 167.451C331.33 164.181 330.22 160.901 329.09 157.641C328.07 154.681 327.03 151.731 325.99 148.781C322.92 139.821 319.95 130.831 317.08 121.811C316.82 121.001 316.71 120.121 316.21 119.401C316 117.971 315.77 116.541 315.58 115.101C315.54 114.801 315.48 114.441 315.79 114.201L315.78 114.181Z" fill="#6F6F6F"/>
<path d="M340.71 197.54C340.23 195.85 339.79 194.14 339.27 192.46C334.15 175.73 328.14 159.32 322.24 142.86C320.93 139.22 319.55 135.61 318.2 131.99C318.05 131.6 318.01 131.12 317.53 130.94C317.62 129.96 317.32 129.04 317.18 128.09C317.12 127.7 316.94 127.33 317.32 127C320.05 134.26 322.78 141.53 325.5 148.79C325.52 148.93 325.51 149.08 325.56 149.22C327.79 155.53 330.03 161.84 332.27 168.14C332.35 168.38 332.41 168.63 332.71 168.69C332.56 169.23 332.84 169.68 333 170.15C334.12 173.47 335.26 176.78 336.4 180.1C337.2 182.45 338.01 184.8 338.81 187.15C339.84 190.57 340.69 194.03 341.41 197.52C341.37 197.72 341.46 198.02 341.24 198.08C340.87 198.17 341.01 197.61 340.71 197.55V197.54Z" fill="#6F6F6F"/>
<path d="M340.71 197.54C341.01 197.6 340.86 198.16 341.24 198.07C341.46 198.02 341.38 197.71 341.41 197.51L342.45 197.54C342.52 197.62 342.61 197.69 342.67 197.77C342.88 198.12 342.79 198.85 343.27 198.76C343.85 198.65 343.47 197.96 343.57 197.54C343.78 197.54 343.99 197.54 344.19 197.54C344.65 198.04 344.67 198.65 344.64 199.27C340.81 199.35 336.98 199.43 333.15 199.53C331.35 199.58 329.54 199.69 327.74 199.77C327.49 199.76 327.24 199.7 327 199.73C326.2 199.84 325.91 199.51 325.96 198.72C325.99 198.27 325.83 197.81 325.76 197.36C330.74 197.42 335.73 197.47 340.71 197.53V197.54Z" fill="#5B5B5B"/>
<path d="M306.24 51.4499C306.07 51.3699 306 51.2299 306 51.0499C306.14 50.9899 306.28 50.9399 306.43 50.8799C306.43 51.0799 306.44 51.2999 306.25 51.4399L306.24 51.4499Z" fill="#6F6F6F"/>
<path d="M346.62 197.48C349.87 197.52 353.13 197.55 356.38 197.59C356.53 197.74 356.7 197.87 356.82 198.04C357 198.3 357.22 198.46 357.53 198.4C357.99 198.31 357.85 197.92 357.89 197.62L358.33 197.56H358.43H358.53C358.74 197.56 358.96 197.56 359.17 197.55C359.29 197.78 359.43 197.81 359.6 197.61C359.89 197.61 360.19 197.61 360.48 197.61C360.69 198.01 360.97 198.38 360.9 198.88C357.31 199.15 353.71 199.02 350.12 199.13C348.58 199.18 347.04 199.33 345.49 199.27C345.44 198.7 345.15 198.15 345.26 197.56H345.9C346.14 197.68 346.44 198.35 346.58 197.5L346.62 197.48Z" fill="#5B5B5B"/>
<path d="M339.64 139.82C338.98 138.82 338.8 137.63 338.36 136.54C338.45 136.54 338.53 136.54 338.62 136.54C339.16 137.56 339.56 138.63 339.67 139.79L339.65 139.81L339.64 139.82Z" fill="#6F6F6F"/>
<path d="M342.48 159.13C342.76 159.37 342.92 159.65 342.86 160.09C342.39 159.87 342.49 159.47 342.48 159.13Z" fill="#6F6F6F"/>
<path d="M339.13 150.33C338.88 150.23 338.72 149.98 338.84 149.84C339.08 149.56 339.12 149.9 339.18 150.04C339.21 150.12 339.15 150.23 339.13 150.33Z" fill="#6F6F6F"/>
<path d="M343.29 161.191C342.96 161.081 342.82 160.821 343 160.631C343.18 160.431 343.25 160.751 343.31 160.881C343.35 160.961 343.31 161.081 343.29 161.191Z" fill="#6F6F6F"/>
<path d="M342.17 158.37C341.92 158.26 341.76 158.01 341.88 157.87C342.12 157.59 342.16 157.94 342.22 158.08C342.25 158.16 342.19 158.27 342.17 158.37Z" fill="#6F6F6F"/>
<path d="M337.85 146.861C337.53 146.751 337.39 146.481 337.56 146.291C337.74 146.101 337.81 146.411 337.87 146.541C337.9 146.621 337.86 146.741 337.85 146.851V146.861Z" fill="#6F6F6F"/>
<path d="M331.06 146.9C331.26 147.03 331.43 147.16 331.21 147.41C331 147.29 330.97 147.11 331.06 146.9Z" fill="#6F6F6F"/>
<path d="M339.87 140.47C339.62 140.31 339.66 140.06 339.65 139.82L339.67 139.8C339.92 139.96 339.88 140.21 339.88 140.45H339.87V140.47Z" fill="#6F6F6F"/>
<path d="M338.35 148.28C338.29 148.21 338.24 148.14 338.18 148.07C338.22 148.05 338.26 148.02 338.3 148C338.32 148.09 338.34 148.19 338.36 148.28H338.35Z" fill="#6F6F6F"/>
<path d="M340.31 153.481C340.25 153.401 340.2 153.321 340.14 153.241C340.41 153.181 340.25 153.401 340.3 153.491H340.31V153.481Z" fill="#6F6F6F"/>
<path d="M338.04 147.3C338.06 147.35 338.08 147.41 338.09 147.46C338.09 147.47 338.05 147.5 338.02 147.51C338 147.46 337.98 147.41 337.97 147.35C337.97 147.34 338.01 147.31 338.04 147.29V147.3Z" fill="#6F6F6F"/>
<path d="M337.45 145.62C337.42 145.67 337.4 145.72 337.37 145.77C337.35 145.75 337.3 145.72 337.31 145.7C337.33 145.65 337.36 145.6 337.38 145.55C337.4 145.57 337.42 145.6 337.44 145.62H337.45Z" fill="#6F6F6F"/>
<path d="M340.46 142.03C340.46 142.03 340.4 142.05 340.39 142.04C340.37 142.02 340.37 141.99 340.36 141.97C340.4 141.97 340.44 141.96 340.47 141.95C340.47 141.98 340.47 142.01 340.46 142.03Z" fill="#6F6F6F"/>
<path d="M340.22 141.26C340.22 141.26 340.24 141.31 340.25 141.34C340.21 141.34 340.17 141.35 340.14 141.36C340.14 141.33 340.14 141.3 340.16 141.28C340.16 141.27 340.2 141.27 340.23 141.26H340.22Z" fill="#6F6F6F"/>
<path d="M339.88 140.45C339.93 140.53 339.99 140.61 340.04 140.69C340.04 140.69 339.99 140.73 339.96 140.75C339.93 140.65 339.9 140.56 339.87 140.46L339.88 140.45Z" fill="#6F6F6F"/>
<path d="M338.62 136.55C338.53 136.55 338.45 136.55 338.36 136.55C338.38 136.46 338.41 136.37 338.43 136.28C338.49 136.37 338.55 136.47 338.61 136.56L338.62 136.55Z" fill="#6F6F6F"/>
<path d="M338.31 135.64C338.28 135.69 338.26 135.74 338.23 135.79C338.21 135.77 338.17 135.74 338.17 135.72C338.19 135.67 338.22 135.62 338.24 135.57C338.26 135.59 338.28 135.62 338.3 135.64H338.31Z" fill="#6F6F6F"/>
<path d="M339.66 151.74C339.6 151.66 339.55 151.58 339.49 151.5C339.76 151.44 339.6 151.66 339.65 151.75H339.66V151.74Z" fill="#6F6F6F"/>
<path d="M340.96 155.22C340.9 155.14 340.85 155.06 340.79 154.98C341.06 154.92 340.9 155.14 340.95 155.23L340.96 155.22Z" fill="#6F6F6F"/>
<path d="M340.95 155.23C341.01 155.31 341.06 155.39 341.12 155.47C341.09 155.49 341.06 155.51 341.03 155.53C341.01 155.43 340.98 155.33 340.96 155.23H340.95Z" fill="#6F6F6F"/>
<path d="M339.65 151.75C339.71 151.83 339.76 151.91 339.82 151.99C339.55 152.05 339.71 151.83 339.66 151.74H339.65V151.75Z" fill="#6F6F6F"/>
<path d="M340.3 153.49C340.36 153.57 340.41 153.65 340.47 153.73C340.2 153.79 340.36 153.57 340.31 153.48H340.3V153.49Z" fill="#6F6F6F"/>
<path d="M340.66 154.28C340.66 154.28 340.68 154.34 340.69 154.37C340.65 154.37 340.61 154.39 340.57 154.4C340.57 154.37 340.57 154.33 340.59 154.31C340.59 154.29 340.64 154.3 340.66 154.29V154.28Z" fill="#6F6F6F"/>
<path d="M341.4 156.3C341.34 156.22 341.29 156.14 341.23 156.06C341.26 156.04 341.29 156.02 341.32 156L341.39 156.3H341.4Z" fill="#6F6F6F"/>
<path d="M341.39 156.31C341.45 156.38 341.5 156.45 341.56 156.51C341.52 156.53 341.49 156.55 341.45 156.57C341.43 156.48 341.42 156.39 341.4 156.29L341.39 156.31Z" fill="#6F6F6F"/>
<path d="M341.78 157.171C341.78 157.171 341.76 157.231 341.74 157.261C341.71 157.221 341.68 157.181 341.65 157.141C341.68 157.121 341.71 157.091 341.72 157.101C341.74 157.111 341.76 157.151 341.77 157.181L341.78 157.171Z" fill="#6F6F6F"/>
<path d="M337.88 134.43C337.88 134.43 337.83 134.48 337.81 134.5C337.78 134.44 337.75 134.39 337.74 134.33C337.74 134.31 337.79 134.29 337.81 134.26C337.84 134.32 337.86 134.37 337.89 134.43H337.88Z" fill="#6F6F6F"/>
<path d="M338.74 149.12C338.74 149.12 338.72 149.18 338.71 149.21C338.68 149.18 338.64 149.14 338.62 149.11C338.62 149.11 338.66 149.07 338.69 149.04C338.71 149.07 338.73 149.09 338.75 149.12H338.74Z" fill="#6F6F6F"/>
<path d="M340.04 152.6C340.04 152.6 340.02 152.66 340.01 152.69C339.98 152.66 339.95 152.63 339.92 152.59C339.92 152.59 339.96 152.55 339.98 152.53C340 152.56 340.02 152.58 340.03 152.61L340.04 152.6Z" fill="#6F6F6F"/>
<path d="M338.1 135.081C338.1 135.081 338.05 135.121 338.03 135.151C338.01 135.101 337.97 135.041 337.96 134.991C337.96 134.981 338 134.951 338.03 134.931C338.05 134.981 338.08 135.041 338.1 135.091V135.081Z" fill="#6F6F6F"/>
<path d="M342.48 159.131C342.42 159.061 342.37 158.991 342.31 158.921C342.35 158.901 342.39 158.871 342.43 158.851C342.45 158.941 342.47 159.041 342.49 159.131H342.48Z" fill="#6F6F6F"/>
<path d="M339.38 150.941C339.38 150.941 339.32 150.961 339.31 150.961C339.29 150.941 339.28 150.901 339.27 150.881C339.31 150.881 339.35 150.861 339.39 150.851C339.39 150.881 339.38 150.911 339.37 150.951L339.38 150.941Z" fill="#6F6F6F"/>
<path d="M338.35 148.271C338.41 148.341 338.46 148.41 338.52 148.48C338.48 148.5 338.44 148.531 338.4 148.551C338.38 148.461 338.36 148.361 338.35 148.271Z" fill="#6F6F6F"/>
<path d="M295.46 78.8206C294.84 79.6006 294.22 80.3806 293.48 81.0406C293.18 80.8706 293.2 80.5806 293.18 80.3006C293.63 79.6706 294.14 79.1006 294.73 78.6006C294.97 78.6706 295.22 78.7506 295.46 78.8206Z" fill="#6F6F6F"/>
<path d="M292.76 81.86C292.38 82.29 292.01 82.71 291.63 83.14C291.21 83.29 290.93 83.23 291 82.69C291.37 82.13 291.81 81.63 292.34 81.21C292.63 81.33 292.74 81.56 292.76 81.86Z" fill="#6F6F6F"/>
<path d="M292.76 81.8598C292.75 81.5598 292.64 81.3298 292.34 81.2098C292.52 80.8198 292.77 80.4898 293.17 80.2998C293.19 80.5798 293.17 80.8798 293.47 81.0398C293.37 81.4298 293.16 81.7298 292.76 81.8598Z" fill="#6F6F6F"/>
<path d="M269.97 105.771C269.81 106.651 269.23 107.151 268.44 107.471C268.8 106.771 269.35 106.241 269.97 105.771Z" fill="#6F6F6F"/>
<path d="M291 82.6799C290.92 83.2299 291.2 83.2799 291.63 83.1299C291.53 83.5799 291.23 83.8599 290.82 84.0399C290.8 83.7299 290.68 83.4799 290.38 83.3599C290.46 83.0199 290.68 82.7899 291.01 82.6699L291 82.6799Z" fill="#6F6F6F"/>
<path d="M278.23 96.6602C278.06 97.5302 277.48 98.0302 276.7 98.3502C277.05 97.6502 277.6 97.1202 278.23 96.6602Z" fill="#6F6F6F"/>
<path d="M296.08 77.0901C296.51 77.1201 296.43 77.4501 296.45 77.7201C296.31 77.8701 296.17 78.0101 296.04 78.1601C295.74 78.1401 295.59 77.9801 295.57 77.6801L296.09 77.0801L296.08 77.0901Z" fill="#6F6F6F"/>
<path d="M295.56 77.6807C295.58 77.9707 295.73 78.1407 296.03 78.1607C295.92 78.4507 295.73 78.6707 295.45 78.8207C295.21 78.7507 294.96 78.6707 294.72 78.6007C294.91 78.2107 295.16 77.8907 295.55 77.6907L295.56 77.6807Z" fill="#6F6F6F"/>
<path d="M265.85 110.34C265.73 111.11 265.25 111.57 264.53 111.81C264.82 111.19 265.29 110.73 265.85 110.34Z" fill="#6F6F6F"/>
<path d="M263.89 112.51C263.77 113.29 263.3 113.74 262.57 113.98C262.87 113.37 263.33 112.9 263.89 112.51Z" fill="#6F6F6F"/>
<path d="M276.05 99.0498C275.93 99.8298 275.46 100.29 274.73 100.52C275.04 99.9098 275.5 99.4398 276.05 99.0498Z" fill="#6F6F6F"/>
<path d="M259.98 116.851C259.87 117.631 259.39 118.091 258.66 118.321C258.97 117.711 259.43 117.241 259.98 116.851Z" fill="#6F6F6F"/>
<path d="M256.07 121.181C255.96 121.971 255.48 122.421 254.75 122.651C255.05 122.031 255.52 121.571 256.07 121.181Z" fill="#6F6F6F"/>
<path d="M280.4 94.2705C280.28 95.0505 279.81 95.5105 279.07 95.7305C279.38 95.1205 279.85 94.6605 280.4 94.2705Z" fill="#6F6F6F"/>
<path d="M258.03 119.021C257.92 119.811 257.44 120.261 256.71 120.491C257.01 119.871 257.48 119.411 258.03 119.021Z" fill="#6F6F6F"/>
<path d="M273.88 101.44C273.76 102.22 273.28 102.67 272.56 102.91C272.86 102.29 273.32 101.83 273.88 101.44Z" fill="#6F6F6F"/>
<path d="M271.93 103.601C271.81 104.381 271.34 104.841 270.61 105.071C270.92 104.461 271.38 103.991 271.93 103.601Z" fill="#6F6F6F"/>
<path d="M243.92 134.66C243.85 135.34 243.47 135.75 242.81 135.9C243.04 135.36 243.44 134.97 243.92 134.66Z" fill="#6F6F6F"/>
<path d="M233.71 145.96C233.63 146.63 233.26 147.04 232.6 147.2C232.83 146.66 233.23 146.28 233.71 145.96Z" fill="#6F6F6F"/>
<path d="M250 127.92C249.93 128.61 249.56 129.01 248.89 129.17C249.12 128.63 249.52 128.24 250 127.92Z" fill="#6F6F6F"/>
<path d="M251.95 125.76C251.88 126.44 251.51 126.85 250.84 127C251.07 126.46 251.47 126.07 251.95 125.76Z" fill="#6F6F6F"/>
<path d="M253.91 123.58C253.84 124.26 253.47 124.67 252.8 124.83C253.03 124.29 253.43 123.9 253.91 123.58Z" fill="#6F6F6F"/>
<path d="M267.8 108.17C267.73 108.86 267.36 109.27 266.69 109.42C266.92 108.88 267.32 108.49 267.8 108.17Z" fill="#6F6F6F"/>
<path d="M237.78 141.48C237.75 142.16 237.34 142.48 236.73 142.63C236.94 142.12 237.31 141.76 237.78 141.48Z" fill="#6F6F6F"/>
<path d="M247.77 130.41C247.74 131.08 247.33 131.41 246.72 131.56C246.92 131.05 247.3 130.68 247.77 130.41Z" fill="#6F6F6F"/>
<path d="M239.73 139.311C239.69 139.981 239.29 140.311 238.68 140.461C238.89 139.951 239.26 139.591 239.73 139.311Z" fill="#6F6F6F"/>
<path d="M241.69 137.141C241.66 137.811 241.25 138.141 240.65 138.291C240.86 137.781 241.23 137.421 241.69 137.141Z" fill="#6F6F6F"/>
<path d="M261.66 114.99C261.63 115.66 261.22 115.99 260.62 116.14C260.82 115.62 261.2 115.27 261.66 114.99Z" fill="#6F6F6F"/>
<path d="M245.81 132.57C245.79 133.25 245.37 133.57 244.77 133.73C244.97 133.22 245.36 132.86 245.81 132.57Z" fill="#6F6F6F"/>
<path d="M227.36 153C227.36 153.55 227.04 153.83 226.53 153.92C226.67 153.49 226.97 153.2 227.36 153Z" fill="#6F6F6F"/>
<path d="M235.61 143.87C235.61 144.44 235.3 144.72 234.77 144.8C234.92 144.37 235.21 144.08 235.61 143.87Z" fill="#6F6F6F"/>
<path d="M229.53 150.61C229.53 151.17 229.22 151.45 228.69 151.54C228.83 151.11 229.13 150.82 229.53 150.61Z" fill="#6F6F6F"/>
<path d="M231.49 148.44C231.49 149 231.18 149.28 230.66 149.37C230.81 148.94 231.1 148.65 231.49 148.44Z" fill="#6F6F6F"/>
<path d="M225.2 155.4C225.22 155.84 225 156.06 224.57 156.09C224.66 155.75 224.88 155.53 225.2 155.4Z" fill="#6F6F6F"/>
<path d="M223.24 157.57C223.26 158.01 223.04 158.24 222.61 158.26C222.7 157.92 222.92 157.7 223.24 157.57Z" fill="#6F6F6F"/>
<path d="M221.28 159.73C221.31 160.18 221.09 160.4 220.65 160.43C220.74 160.09 220.96 159.87 221.28 159.73Z" fill="#6F6F6F"/>
<path d="M219.11 162.13C219.13 162.57 218.91 162.79 218.48 162.82C218.57 162.48 218.79 162.26 219.11 162.13Z" fill="#6F6F6F"/>
<path d="M286.44 87.6699C286.46 88.1099 286.24 88.3299 285.81 88.3599C285.89 88.0199 286.12 87.7999 286.44 87.6699Z" fill="#6F6F6F"/>
<path d="M281.88 92.6699C281.89 93.0999 281.68 93.3299 281.25 93.3599C281.33 93.0199 281.55 92.7899 281.88 92.6699Z" fill="#6F6F6F"/>
<path d="M216.95 164.521C216.97 164.821 216.84 164.981 216.53 164.991C216.57 164.751 216.72 164.601 216.95 164.521Z" fill="#6F6F6F"/>
<path d="M214.99 166.69C215.01 166.99 214.87 167.15 214.57 167.16C214.62 166.92 214.76 166.77 214.99 166.69Z" fill="#6F6F6F"/>
<path d="M198.71 184.721C198.72 185.021 198.59 185.171 198.29 185.181C198.33 184.941 198.48 184.791 198.71 184.721Z" fill="#6F6F6F"/>
<path d="M212.83 169.09C212.85 169.38 212.71 169.54 212.42 169.56C212.46 169.32 212.6 169.16 212.83 169.09Z" fill="#6F6F6F"/>
<path d="M284.05 90.2803C284.07 90.5703 283.93 90.7303 283.63 90.7403C283.67 90.5003 283.81 90.3403 284.05 90.2803Z" fill="#6F6F6F"/>
<path d="M210.87 171.26C210.89 171.56 210.75 171.71 210.45 171.72C210.49 171.48 210.64 171.33 210.87 171.26Z" fill="#6F6F6F"/>
<path d="M288.61 85.29C288.63 85.59 288.49 85.74 288.19 85.75C288.23 85.51 288.38 85.36 288.61 85.29Z" fill="#6F6F6F"/>
<path d="M208.91 173.431C208.93 173.731 208.79 173.881 208.49 173.891C208.53 173.651 208.68 173.501 208.91 173.431Z" fill="#6F6F6F"/>
<path d="M204.79 177.99C204.8 178.28 204.67 178.44 204.37 178.45C204.41 178.21 204.55 178.05 204.79 177.99Z" fill="#6F6F6F"/>
<path d="M255.87 123.16C256.12 122.14 256.92 121.62 257.73 121.11C257.31 121.97 256.63 122.61 255.87 123.16Z" fill="#6F6F6F"/>
<path d="M272.97 104.15C273.17 103.18 273.9 102.68 274.68 102.23C274.31 103.05 273.66 103.62 272.97 104.15Z" fill="#6F6F6F"/>
<path d="M259.72 118.91C259.93 117.95 260.65 117.44 261.43 117C261.06 117.82 260.42 118.39 259.72 118.91Z" fill="#6F6F6F"/>
<path d="M263.69 114.47C263.89 113.55 264.59 113.07 265.34 112.65C264.99 113.44 264.38 114 263.69 114.47Z" fill="#6F6F6F"/>
<path d="M250.23 129.46C250.42 128.53 251.12 128.06 251.88 127.63C251.53 128.42 250.92 128.98 250.23 129.46Z" fill="#6F6F6F"/>
<path d="M252.18 127.28C252.38 126.35 253.07 125.88 253.83 125.46C253.47 126.24 252.88 126.81 252.18 127.28Z" fill="#6F6F6F"/>
<path d="M267.38 110.351C267.57 109.421 268.27 108.941 269.03 108.521C268.68 109.311 268.07 109.871 267.38 110.351Z" fill="#6F6F6F"/>
<path d="M242.78 137.781C242.93 136.911 243.57 136.461 244.29 136.101C243.98 136.831 243.42 137.351 242.78 137.781Z" fill="#6F6F6F"/>
<path d="M269.27 108.27C269.44 107.41 270.02 106.91 270.78 106.57C270.45 107.29 269.91 107.82 269.27 108.27Z" fill="#6F6F6F"/>
<path d="M240.83 139.961C241 139.101 241.59 138.611 242.34 138.271C242.02 139.001 241.47 139.521 240.83 139.961Z" fill="#6F6F6F"/>
<path d="M244.52 135.85C244.68 134.98 245.27 134.49 246.03 134.15C245.71 134.88 245.15 135.39 244.52 135.85Z" fill="#6F6F6F"/>
<path d="M265.36 112.62C265.53 111.75 266.12 111.26 266.88 110.92C266.56 111.65 266 112.17 265.36 112.62Z" fill="#6F6F6F"/>
<path d="M254.07 125.19C254.24 124.33 254.84 123.85 255.58 123.5C255.27 124.23 254.71 124.74 254.07 125.19Z" fill="#6F6F6F"/>
<path d="M257.76 121.08C257.93 120.22 258.52 119.72 259.28 119.38C258.95 120.11 258.4 120.63 257.76 121.08Z" fill="#6F6F6F"/>
<path d="M261.67 116.74C261.83 115.87 262.43 115.4 263.18 115.05C262.87 115.78 262.3 116.29 261.67 116.74Z" fill="#6F6F6F"/>
<path d="M246.47 133.66C246.65 132.81 247.23 132.31 247.99 131.98C247.66 132.7 247.12 133.23 246.47 133.66Z" fill="#6F6F6F"/>
<path d="M276.72 99.9301C276.86 99.0801 277.47 98.6601 278.17 98.3301C277.88 99.0401 277.35 99.5201 276.72 99.9301Z" fill="#6F6F6F"/>
<path d="M271.29 106C271.43 105.16 272.04 104.74 272.73 104.4C272.45 105.12 271.91 105.59 271.29 106Z" fill="#6F6F6F"/>
<path d="M280.19 96.0201C280.32 95.1701 280.94 94.7702 281.62 94.4102C281.35 95.1302 280.8 95.6001 280.19 96.0201Z" fill="#6F6F6F"/>
<path d="M278.46 97.9801C278.59 97.1301 279.21 96.7201 279.9 96.3701C279.63 97.0901 279.07 97.5601 278.46 97.9801Z" fill="#6F6F6F"/>
<path d="M226.12 156.37C226.27 155.53 226.87 155.111 227.57 154.771C227.27 155.471 226.74 155.96 226.12 156.37Z" fill="#6F6F6F"/>
<path d="M237.35 143.86C237.48 143.1 237.96 142.66 238.65 142.4C238.39 143.04 237.92 143.49 237.35 143.86Z" fill="#6F6F6F"/>
<path d="M235.39 146.04C235.51 145.28 235.99 144.83 236.69 144.58C236.43 145.22 235.95 145.67 235.39 146.04Z" fill="#6F6F6F"/>
<path d="M248.49 131.41C248.56 130.64 249.09 130.28 249.73 130.03C249.5 130.65 249.04 131.07 248.49 131.41Z" fill="#6F6F6F"/>
<path d="M239.14 141.82C239.23 141.07 239.74 140.7 240.38 140.45C240.15 141.07 239.7 141.5 239.14 141.82Z" fill="#6F6F6F"/>
<path d="M215.04 168.74C215.12 167.98 215.64 167.62 216.28 167.36C216.05 167.98 215.57 168.39 215.04 168.74Z" fill="#6F6F6F"/>
<path d="M229.81 152.25C229.89 151.49 230.4 151.12 231.05 150.87C230.81 151.49 230.35 151.9 229.81 152.25Z" fill="#6F6F6F"/>
<path d="M218.73 164.61C218.82 163.86 219.33 163.49 219.98 163.24C219.73 163.85 219.29 164.28 218.73 164.61Z" fill="#6F6F6F"/>
<path d="M216.78 166.8C216.86 166.03 217.37 165.66 218.03 165.42C217.78 166.03 217.32 166.45 216.78 166.8Z" fill="#6F6F6F"/>
<path d="M274.98 101.88C275.06 101.12 275.58 100.75 276.22 100.5C275.99 101.12 275.53 101.54 274.98 101.88Z" fill="#6F6F6F"/>
<path d="M233.71 147.89C233.8 147.14 234.31 146.78 234.94 146.51C234.72 147.14 234.26 147.55 233.71 147.89Z" fill="#6F6F6F"/>
<path d="M231.76 150.07C231.85 149.32 232.36 148.95 233 148.7C232.76 149.32 232.31 149.74 231.76 150.07Z" fill="#6F6F6F"/>
<path d="M224.38 158.32C224.42 157.66 224.83 157.33 225.41 157.17C225.24 157.71 224.85 158.05 224.38 158.32Z" fill="#6F6F6F"/>
<path d="M228.07 154.19C228.11 153.53 228.52 153.21 229.1 153.04C228.93 153.58 228.56 153.94 228.07 154.19Z" fill="#6F6F6F"/>
<path d="M192.67 193.7C192.71 193.04 193.12 192.72 193.71 192.55C193.53 193.08 193.14 193.42 192.67 193.7Z" fill="#6F6F6F"/>
<path d="M190.72 195.87C190.77 195.22 191.17 194.89 191.76 194.73C191.57 195.25 191.18 195.6 190.72 195.87Z" fill="#6F6F6F"/>
<path d="M222.43 160.5C222.46 159.83 222.87 159.51 223.47 159.34C223.29 159.87 222.9 160.22 222.43 160.5Z" fill="#6F6F6F"/>
<path d="M203.96 181.11C204.01 180.45 204.41 180.13 205 179.96C204.81 180.48 204.43 180.83 203.96 181.11Z" fill="#6F6F6F"/>
<path d="M211.35 172.86C211.35 172.31 211.66 172.03 212.18 171.94C212.05 172.38 211.76 172.67 211.35 172.86Z" fill="#6F6F6F"/>
<path d="M196.58 189.351C196.59 188.801 196.9 188.531 197.41 188.431C197.29 188.881 196.98 189.151 196.58 189.351Z" fill="#6F6F6F"/>
<path d="M194.62 191.53C194.62 190.98 194.94 190.7 195.46 190.61C195.32 191.05 195.02 191.33 194.62 191.53Z" fill="#6F6F6F"/>
<path d="M213.3 170.68C213.3 170.13 213.62 169.85 214.14 169.76C214.01 170.2 213.71 170.49 213.3 170.68Z" fill="#6F6F6F"/>
<path d="M202.01 183.29C202.01 182.73 202.32 182.45 202.85 182.36C202.71 182.8 202.42 183.09 202.01 183.29Z" fill="#6F6F6F"/>
<path d="M207.65 176.981C207.65 176.431 207.97 176.151 208.48 176.061C208.34 176.491 208.07 176.801 207.65 176.981Z" fill="#6F6F6F"/>
<path d="M200.27 185.231C200.27 184.681 200.59 184.401 201.11 184.311C200.98 184.751 200.67 185.031 200.27 185.231Z" fill="#6F6F6F"/>
<path d="M284.29 91.4098C284.32 90.8998 284.62 90.6198 285.1 90.5098C285.01 90.9698 284.71 91.2398 284.29 91.4098Z" fill="#6F6F6F"/>
<path d="M198.32 187.41C198.32 186.85 198.63 186.57 199.16 186.49C199.02 186.93 198.71 187.21 198.32 187.41Z" fill="#6F6F6F"/>
<path d="M286.03 89.4505C286.06 88.9405 286.36 88.6605 286.84 88.5605C286.75 89.0205 286.45 89.2905 286.03 89.4505Z" fill="#6F6F6F"/>
<path d="M282.56 93.3707C282.58 92.8507 282.88 92.5807 283.36 92.4707C283.28 92.9407 282.97 93.2007 282.56 93.3707Z" fill="#6F6F6F"/>
<path d="M205.91 178.93C205.91 178.38 206.23 178.1 206.74 178.01C206.61 178.45 206.31 178.74 205.91 178.93Z" fill="#6F6F6F"/>
<path d="M209.39 175.031C209.39 174.471 209.7 174.191 210.22 174.101C210.1 174.551 209.8 174.831 209.39 175.031Z" fill="#6F6F6F"/>
<path d="M220.68 162.44C220.68 161.89 220.99 161.61 221.51 161.51C221.39 161.96 221.1 162.25 220.68 162.44Z" fill="#6F6F6F"/>
<path d="M289.5 85.5401C289.5 85.1401 289.7 84.9201 290.1 84.8701C290.06 85.2301 289.84 85.4401 289.5 85.5401Z" fill="#6F6F6F"/>
<path d="M287.76 87.5003C287.76 87.1003 287.96 86.8703 288.36 86.8203C288.32 87.1903 288.1 87.3903 287.76 87.5003Z" fill="#6F6F6F"/>
<path d="M358.33 196.89C358.62 197.04 358.5 197.32 358.55 197.55H358.45H358.35C358.36 197.33 358.15 197.11 358.33 196.88V196.89Z" fill="#6F6F6F"/>
</g>
<defs>
<linearGradient id="paint0_linear_213_4143" x1="123.238" y1="0.0262151" x2="306.499" y2="339.598" gradientUnits="userSpaceOnUse">
<stop offset="0.19" stop-color="#6194E0"/>
<stop offset="0.43" stop-color="#558CD7"/>
<stop offset="0.85" stop-color="#3679C0"/>
<stop offset="0.94" stop-color="#2F75BA"/>
</linearGradient>
<clipPath id="clip0_213_4143">
<rect width="384.94" height="286.35" fill="white"/>
</clipPath>
</defs>
</svg>
